<?xml version="1.0" encoding="UTF-8" standalone="no"?>
<!DOCTYPE svg PUBLIC "-//W3C//DTD SVG 1.1//EN" "http://www.w3.org/Graphics/SVG/1.1/DTD/svg11.dtd">
<svg xmlns="http://www.w3.org/2000/svg" xmlns:xlink="http://www.w3.org/1999/xlink" version="1.1" width="331.376pt" height="184.478pt" viewBox="0 0 331.376 184.478">
<path transform="matrix(1,0,0,-1,.228,184.27899)" stroke-width="1" stroke-linecap="butt" stroke-miterlimit="10" stroke-linejoin="miter" fill="none" stroke="#929292" d="M 9.98523 83.46188 L 9.98523 87.71358 M 84.63676 83.46188 L 84.63676 87.71358 M 233.93984 83.46188 L 233.93984 87.71358 M 308.68647 83.46188 L 308.68647 87.71358 "/>
<path transform="matrix(1,0,0,-1,.228,184.27899)" stroke-width="1" stroke-linecap="butt" stroke-miterlimit="10" stroke-linejoin="miter" fill="none" stroke="#929292" d="M 157.16245 38.03899 L 161.41414 38.03899 M 157.16245 133.13649 L 161.41414 133.13649 "/>
<path transform="matrix(1,0,0,-1,.228,184.27899)" stroke-width="1" stroke-linecap="butt" stroke-miterlimit="10" stroke-linejoin="miter" fill="none" stroke="#000000" d="M 0 85.58774 L 316.58409 85.58774 "/>
<path transform="matrix(1,0,0,-1,316.81208,98.69125)" d="M 1.99252 0 L -1.19551 1.59401 L 0 0 L -1.19551 -1.59401 "/>
<path transform="matrix(1,0,0,-1,.228,184.27899)" stroke-width="1" stroke-linecap="butt" stroke-miterlimit="10" stroke-linejoin="miter" fill="none" stroke="#000000" d="M 159.2883 0 L 159.2883 169.18297 "/>
<path transform="matrix(0,-1,-1,-0,159.5163,15.096024)" d="M 1.99252 0 L -1.19551 1.59401 L 0 0 L -1.19551 -1.59401 "/>
<symbol id="font_0_1">
<path d="M .57600006 0 C .59300008 0 .611 0 .611 .019999996 C .611 .040000008 .59300008 .040000008 .57600006 .040000008 L .035000005 .040000008 C .018 .040000008 0 .040000008 0 .019999996 C 0 0 .018 0 .035000005 0 L .57600006 0 Z "/>
</symbol>
<use xlink:href="#font_0_1" transform="matrix(9.9626,0,0,-9.9626,4.147896,107.8576)"/>
<symbol id="font_1_1">
<path d="M .23800002 .38400004 L .351 .38400004 C .31800003 .23600002 .30900003 .19300002 .30900003 .126 C .30900003 .111 .30900003 .08400001 .317 .05 C .327 .0060000007 .338 0 .35300002 0 C .373 0 .39400003 .018000002 .39400003 .038000004 C .39400003 .044 .39400003 .046 .388 .060000004 C .359 .13200002 .359 .19700001 .359 .22500003 C .359 .27800004 .366 .33200003 .377 .38400004 L .491 .38400004 C .504 .38400004 .54 .38400004 .54 .418 C .54 .44200004 .519 .44200004 .5 .44200004 L .165 .44200004 C .143 .44200004 .105 .44200004 .061000006 .395 C .026000003 .35600005 0 .31000004 0 .305 C 0 .30400003 0 .29500003 .012 .29500003 C .020000002 .29500003 .022000002 .29900003 .028000003 .307 C .077 .38400004 .135 .38400004 .15500002 .38400004 L .21200001 .38400004 C .18000002 .263 .12600002 .14200002 .08400001 .051000004 C .076000008 .036000004 .076000008 .034 .076000008 .027000003 C .076000008 .008000001 .092 0 .105 0 C .135 0 .143 .028 .15500002 .065000008 C .16900002 .111 .16900002 .113000009 .18200001 .16300002 L .23800002 .38400004 Z "/>
</symbol>
<use xlink:href="#font_1_1" transform="matrix(9.9626,0,0,-9.9626,11.337991,110.25858)"/>
<use xlink:href="#font_0_1" transform="matrix(9.9626,0,0,-9.9626,73.816898,109.5186)"/>
<symbol id="font_1_2">
<path d="M .384 .962 C .38900004 .975 .38900004 .97900006 .38900004 .98 C .38900004 .99100008 .38000003 1 .36900003 1 C .36200003 1 .35500003 .99700006 .352 .99100008 L .004999999 .037999989 C 0 .024999991 0 .020999983 0 .019999996 C 0 .008999988 .009 0 .02 0 C .033000005 0 .036000004 .0069999846 .042 .023999989 L .384 .962 Z "/>
</symbol>
<use xlink:href="#font_1_1" transform="matrix(9.9626,0,0,-9.9626,81.00799,111.919589)"/>
<use xlink:href="#font_1_2" transform="matrix(9.9626,0,0,-9.9626,87.32427,114.300647)"/>
<symbol id="font_2_4">
<path d="M .07700001 .07700001 L .18300002 .18 C .33900003 .31800003 .39900003 .372 .39900003 .47200004 C .39900003 .586 .30900003 .666 .18700002 .666 C .074 .666 0 .574 0 .485 C 0 .42900003 .05 .42900003 .053000008 .42900003 C .07000001 .42900003 .105000007 .441 .105000007 .48200003 C .105000007 .508 .08700001 .53400006 .052000006 .53400006 C .044000005 .53400006 .042000008 .53400006 .039 .53300008 C .062000004 .59800007 .11600001 .63500007 .17400001 .63500007 C .26500003 .63500007 .308 .554 .308 .47200004 C .308 .39200003 .25800003 .31300003 .20300003 .25100003 L .011000004 .037 C 0 .026 0 .024 0 0 L .37100003 0 L .39900003 .17400001 L .374 .17400001 C .36900003 .14400001 .36200003 .1 .352 .085 C .345 .07700001 .279 .07700001 .257 .07700001 L .07700001 .07700001 Z "/>
</symbol>
<use xlink:href="#font_2_4" transform="matrix(9.9626,0,0,-9.9626,92.25413,111.81)"/>
<use xlink:href="#font_1_1" transform="matrix(9.9626,0,0,-9.9626,226.43399,111.919589)"/>
<use xlink:href="#font_1_2" transform="matrix(9.9626,0,0,-9.9626,232.75028,114.300647)"/>
<use xlink:href="#font_2_4" transform="matrix(9.9626,0,0,-9.9626,237.68112,111.81)"/>
<use xlink:href="#font_1_1" transform="matrix(9.9626,0,0,-9.9626,306.16099,108.73659)"/>
<use xlink:href="#font_0_1" transform="matrix(9.9626,0,0,-9.9626,141.96588,146.7436)"/>
<symbol id="font_2_3">
<path d="M .205 .64000007 C .205 .66400006 .205 .666 .18200003 .666 C .120000008 .60200008 .032000007 .60200008 0 .60200008 L 0 .57100006 C .020000004 .57100006 .07900001 .57100006 .13100001 .597 L .13100001 .079 C .13100001 .043 .128 .031000002 .038000004 .031000002 L .0060000049 .031000002 L .0060000049 0 C .04100001 .003 .128 .003 .168 .003 C .20800002 .003 .29500003 .003 .33000005 0 L .33000005 .031000002 L .29800005 .031000002 C .20800002 .031000002 .205 .042000005 .205 .079 L .205 .64000007 Z "/>
</symbol>
<use xlink:href="#font_2_3" transform="matrix(9.9626,0,0,-9.9626,149.77367,149.035)"/>
<use xlink:href="#font_2_3" transform="matrix(9.9626,0,0,-9.9626,149.77367,54.35399)"/>
<clipPath id="cp3">
<path transform="matrix(1,0,0,-1,.228,184.27899)" d="M 0 0 L 318.5766 0 L 318.5766 171.17549 L 0 171.17549 Z "/>
</clipPath>
<g clip-path="url(#cp3)">
<path transform="matrix(1,0,0,-1,.228,184.27899)" stroke-width="1.19553" stroke-linecap="butt" stroke-miterlimit="10" stroke-linejoin="miter" fill="none" stroke="#000080" d="M 0 95.42557 C 0 95.42557 2.32494 93.14043 3.21788 92.25693 C 4.11084 91.37341 5.54285 89.94774 6.43579 89.05783 C 7.32875 88.16792 8.76076 86.73515 9.6537 85.84308 C 10.54665 84.95099 11.97867 83.51872 12.87161 82.6283 C 13.76456 81.73787 15.19656 80.31003 16.08951 79.4254 C 16.98245 78.54079 18.41447 77.12721 19.30742 76.25249 C 20.20036 75.37778 21.63237 73.98213 22.52533 73.12093 C 23.41827 72.25972 24.85028 70.88887 25.74324 70.04549 C 26.63618 69.20209 28.06819 67.86377 28.96115 67.04228 C 29.8541 66.2208 31.28609 64.92079 32.17903 64.12471 C 33.07199 63.32863 34.504 62.07164 35.39694 61.30458 C 36.2899 60.53752 37.72191 59.33073 38.61485 58.5962 C 39.50781 57.86166 40.93982 56.70909 41.83276 56.01051 C 42.72571 55.31194 44.15773 54.22073 45.05067 53.56128 C 45.94362 52.90181 47.37563 51.87485 48.26857 51.25754 C 49.16151 50.64023 50.59354 49.68463 51.48648 49.11212 C 52.37943 48.53963 53.81143 47.65613 54.70439 47.13124 C 55.59734 46.60637 57.02934 45.80363 57.9223 45.32916 C 58.81525 44.85469 60.24724 44.13391 61.1402 43.71155 C 62.03314 43.28918 63.46515 42.65353 64.3581 42.28508 C 65.25105 41.91664 66.68306 41.36852 67.576 41.05594 C 68.46896 40.74338 69.90097 40.28767 70.79391 40.03223 C 71.68687 39.7768 73.11888 39.41211 74.01183 39.21486 C 74.90477 39.01762 76.33678 38.74841 77.22972 38.61052 C 78.12267 38.47264 79.55469 38.29901 80.44763 38.2211 C 81.34058 38.14319 82.7726 38.06638 83.66554 38.04897 C 84.55849 38.03156 85.9905 38.05257 86.88345 38.09557 C 87.7764 38.13858 89.2084 38.25589 90.10136 38.359 C 90.99431 38.4621 92.4263 38.67607 93.31926 38.83875 C 94.2122 39.00143 95.64421 39.30988 96.53716 39.53154 C 97.43011 39.75319 98.86212 40.15674 99.75507 40.43639 C 100.64803 40.71605 102.08003 41.21107 102.97298 41.54713 C 103.86594 41.8832 105.29793 42.46724 106.19087 42.85852 C 107.08382 43.2498 108.51584 43.92233 109.40878 44.36725 C 110.30173 44.81216 111.73375 45.56903 112.6267 46.06522 C 113.51964 46.56139 114.95164 47.39825 115.8446 47.94339 C 116.73755 48.48851 118.16956 49.40265 119.06252 49.99416 C 119.95546 50.58566 121.38747 51.57137 122.28043 52.2066 C 123.17337 52.84186 124.60538 53.89648 125.49832 54.57263 C 126.39128 55.24878 127.82329 56.366 128.71623 57.07988 C 129.60919 57.79376 131.0412 58.96928 131.93415 59.71788 C 132.8271 60.46648 134.25911 61.69537 135.15206 62.47523 C 136.045 63.2551 137.47702 64.53125 138.36997 65.33862 C 139.26291 66.14601 140.69493 67.46313 141.58788 68.29425 C 142.48082 69.12538 143.91284 70.47751 144.80579 71.32881 C 145.69873 72.18013 147.13074 73.56253 148.0237 74.42995 C 148.91664 75.29735 150.34865 76.70105 151.24161 77.58052 C 152.13455 78.46 153.56656 79.88107 154.45952 80.76866 C 155.35247 81.65627 156.78447 83.08632 157.67742 83.97772 C 158.57038 84.86914 160.00238 86.30196 160.89533 87.19345 C 161.78829 88.08493 163.22029 89.51534 164.11324 90.403 C 165.0062 91.29065 166.4382 92.7116 167.33115 93.59114 C 168.22409 94.47069 169.6561 95.87486 170.54904 96.74219 C 171.44199 97.60953 172.87403 98.99113 173.76697 99.84238 C 174.65991 100.6936 176.09194 102.04608 176.98488 102.87741 C 177.87783 103.70872 179.30983 105.02655 180.20279 105.834 C 181.09574 106.64143 182.52774 107.91718 183.4207 108.6969 C 184.31365 109.47662 185.74564 110.70512 186.63858 111.45377 C 187.53154 112.20242 188.96356 113.37871 189.8565 114.09273 C 190.74947 114.80675 192.18146 115.92381 193.0744 116.59998 C 193.96736 117.27612 195.39939 118.33055 196.29233 118.96599 C 197.18527 119.60144 198.61728 120.58823 199.51023 121.17987 C 200.40317 121.77151 201.83519 122.6851 202.72814 123.23018 C 203.62108 123.77524 205.05312 124.61218 205.94606 125.10835 C 206.839 125.60452 208.271 126.36147 209.16396 126.8063 C 210.0569 127.25114 211.4889 127.92316 212.38187 128.31456 C 213.27481 128.70597 214.70682 129.29106 215.59978 129.62738 C 216.49272 129.96372 217.92473 130.45903 218.81768 130.7386 C 219.71063 131.01819 221.14263 131.42084 222.03557 131.6425 C 222.92853 131.86415 224.36054 132.17343 225.25348 132.33625 C 226.14644 132.49906 227.57845 132.7129 228.47139 132.816 C 229.36434 132.9191 230.79636 133.03635 231.6893 133.07942 C 232.58225 133.12248 234.01427 133.14385 234.90721 133.1265 C 235.80016 133.10915 237.23217 133.03221 238.1251 132.95436 C 239.01805 132.87651 240.45006 132.70322 241.34302 132.56542 C 242.23596 132.4276 243.66797 132.15805 244.56093 131.96108 C 245.45388 131.76409 246.88588 131.401 247.77884 131.14562 C 248.67179 130.89025 250.10379 130.43303 250.99674 130.12046 C 251.8897 129.80789 253.32169 129.261 254.21463 128.89275 C 255.10759 128.52449 256.5396 127.88876 257.43254 127.46628 C 258.3255 127.04381 259.7575 126.32227 260.65046 125.84773 C 261.5434 125.3732 262.97544 124.5708 263.86836 124.04611 C 264.7613 123.52144 266.1933 122.63863 267.08628 122.06618 C 267.9792 121.49373 269.41123 120.53767 270.30418 119.92032 C 271.1971 119.30295 272.62913 118.27603 273.5221 117.61658 C 274.415 116.9571 275.84703 115.8658 276.74 115.16734 C 277.63294 114.46889 279.06495 113.31699 279.9579 112.58258 C 280.85087 111.84818 282.28285 110.64127 283.17579 109.8742 C 284.06874 109.10715 285.50077 107.85017 286.39369 107.0541 C 287.28666 106.25801 288.71867 104.95792 289.6116 104.13649 C 290.50456 103.31506 291.93659 101.97705 292.8295 101.1338 C 293.72248 100.29054 295.15449 98.92003 296.04743 98.05882 C 296.94038 97.19762 298.37239 95.80165 299.26533 94.92679 C 300.15827 94.05193 301.59028 92.63792 302.48323 91.75337 C 303.37617 90.86882 304.80818 89.44186 305.70115 88.55144 C 306.5941 87.66101 308.0261 86.2278 308.91905 85.33572 C 309.812 84.44363 311.244 83.01167 312.13694 82.1219 C 313.02989 81.23213 314.4619 79.80626 315.35484 78.92282 C 316.2478 78.0394 318.57276 75.75465 318.57276 75.75465 "/>
<path transform="matrix(1,0,0,-1,.228,184.27899)" stroke-width="1.19553" stroke-linecap="butt" stroke-miterlimit="10" stroke-linejoin="miter" fill="none" stroke="#800000" d="M 0 -73.70055 C 0 -73.70055 2.32494 -71.3756 3.21788 -70.48264 C 4.11084 -69.58969 5.54285 -68.15768 6.43579 -67.26474 C 7.32875 -66.37178 8.76076 -64.93977 9.6537 -64.04683 C 10.54665 -63.15387 11.97867 -61.72186 12.87161 -60.82892 C 13.76456 -59.93596 15.19656 -58.50397 16.08951 -57.61102 C 16.98245 -56.71808 18.41447 -55.28606 19.30742 -54.39311 C 20.20036 -53.50017 21.63237 -52.06815 22.52533 -51.1752 C 23.41827 -50.28226 24.85028 -48.85023 25.74324 -47.95729 C 26.63618 -47.06435 28.06819 -45.63234 28.96115 -44.73938 C 29.8541 -43.84644 31.28609 -42.41444 32.17903 -41.52148 C 33.07199 -40.62854 34.504 -39.19653 35.39694 -38.30357 C 36.2899 -37.41063 37.72191 -35.97862 38.61485 -35.08568 C 39.50781 -34.19272 40.93982 -32.76071 41.83276 -31.86777 C 42.72571 -30.97481 44.15773 -29.5428 45.05067 -28.64986 C 45.94362 -27.75691 47.37563 -26.3249 48.26857 -25.43196 C 49.16151 -24.53902 50.59354 -23.107 51.48648 -22.21405 C 52.37943 -21.3211 53.81143 -19.88908 54.70439 -18.99614 C 55.59734 -18.1032 57.02934 -16.67119 57.9223 -15.77823 C 58.81525 -14.88528 60.24724 -13.4533 61.1402 -12.56033 C 62.03314 -11.66739 63.46515 -10.23538 64.3581 -9.34242 C 65.25105 -8.44948 66.68306 -7.01747 67.576 -6.12453 C 68.46896 -5.23157 69.90097 -3.79956 70.79391 -2.90662 C 71.68687 -2.01366 73.11888 -.58167 74.01183 .31126 C 74.90477 1.20422 76.33678 2.63622 77.22972 3.52916 C 78.12267 4.4221 79.55469 5.85413 80.44763 6.74707 C 81.34058 7.64001 82.7726 9.07204 83.66554 9.96498 C 84.55849 10.85793 85.9905 12.28995 86.88345 13.18289 C 87.7764 14.07584 89.2084 15.50784 90.10136 16.4008 C 90.99431 17.29375 92.4263 18.72574 93.31926 19.6187 C 94.2122 20.51164 95.64421 21.94365 96.53716 22.83661 C 97.43011 23.72955 98.86212 25.16156 99.75507 26.0545 C 100.64803 26.94746 102.08003 28.37947 102.97298 29.27242 C 103.86594 30.16537 105.29793 31.59737 106.19087 32.49031 C 107.08382 33.38327 108.51584 34.81528 109.40878 35.70822 C 110.30173 36.60117 111.73375 38.03319 112.6267 38.92613 C 113.51964 39.81908 114.95164 41.2511 115.8446 42.14404 C 116.73755 43.03699 118.16956 44.46901 119.06252 45.36195 C 119.95546 46.2549 121.38747 47.6869 122.28043 48.57986 C 123.17337 49.47281 124.60538 50.90482 125.49832 51.79778 C 126.39128 52.69072 127.82329 54.12273 128.71623 55.01569 C 129.60919 55.90863 131.0412 57.34064 131.93415 58.23358 C 132.8271 59.12654 134.25911 60.55855 135.15206 61.45149 C 136.045 62.34445 137.47702 63.77646 138.36997 64.6694 C 139.26291 65.56236 140.69493 66.99437 141.58788 67.88731 C 142.48082 68.78026 143.91284 70.21228 144.80579 71.10522 C 145.69873 71.99817 147.13074 73.43019 148.0237 74.32314 C 148.91664 75.21608 150.34865 76.64809 151.24161 77.54105 C 152.13455 78.43399 153.56656 79.866 154.45952 80.75896 C 155.35247 81.6519 156.78447 83.08391 157.67742 83.97687 C 158.57038 84.86981 160.00238 86.30182 160.89533 87.19476 C 161.78829 88.08772 163.22029 89.51973 164.11324 90.41267 C 165.0062 91.30563 166.4382 92.73764 167.33115 93.63058 C 168.22409 94.52354 169.6561 95.95554 170.54904 96.84848 C 171.44199 97.74142 172.87403 99.17346 173.76697 100.0664 C 174.65991 100.95935 176.09194 102.39137 176.98488 103.28432 C 177.87783 104.17726 179.30983 105.60928 180.20279 106.50223 C 181.09574 107.39517 182.52774 108.82718 183.4207 109.72014 C 184.31365 110.61308 185.74564 112.04507 186.63858 112.93803 C 187.53154 113.83098 188.96356 115.263 189.8565 116.15596 C 190.74947 117.0489 192.18146 118.4809 193.0744 119.37384 C 193.96736 120.2668 195.39939 121.69882 196.29233 122.59177 C 197.18527 123.48473 198.61728 124.91672 199.51023 125.80966 C 200.40317 126.70262 201.83519 128.13463 202.72814 129.02758 C 203.62108 129.92052 205.05312 131.35256 205.94606 132.2455 C 206.839 133.13845 208.271 134.57045 209.16396 135.4634 C 210.0569 136.35634 211.4889 137.78835 212.38187 138.6813 C 213.27481 139.57425 214.70682 141.00626 215.59978 141.89922 C 216.49272 142.79216 217.92473 144.22417 218.81768 145.11713 C 219.71063 146.01007 221.14263 147.44207 222.03557 148.335 C 222.92853 149.22797 224.36054 150.65998 225.25348 151.55292 C 226.14644 152.44588 227.57845 153.87789 228.47139 154.77083 C 229.36434 155.66379 230.79636 157.0958 231.6893 157.98874 C 232.58225 158.88169 234.01427 160.3137 234.90721 161.20665 C 235.80016 162.0996 237.23217 163.5316 238.1251 164.42455 C 239.01805 165.31749 240.45006 166.74951 241.34302 167.64246 C 242.23596 168.5354 243.66797 169.9674 244.56093 170.86037 C 245.45388 171.75331 246.88588 173.18532 247.77884 174.07828 C 248.67179 174.97122 250.10379 176.40323 250.99674 177.29619 C 251.8897 178.18914 253.32169 179.62113 254.21463 180.51407 C 255.10759 181.40703 256.5396 182.83904 257.43254 183.73198 C 258.3255 184.62494 259.7575 186.05695 260.65046 186.94989 C 261.5434 187.84285 262.97544 189.27486 263.86836 190.1678 C 264.7613 191.06075 266.1933 192.49275 267.08628 193.3857 C 267.9792 194.27864 269.41123 195.71067 270.30418 196.6036 C 271.1971 197.49655 272.62913 198.92858 273.5221 199.82152 C 274.415 200.71446 275.84703 202.14647 276.74 203.03943 C 277.63294 203.93238 279.06495 205.36438 279.9579 206.25734 C 280.85087 207.15029 282.28285 208.58228 283.17579 209.47524 C 284.06874 210.36818 285.50077 211.80019 286.39369 212.69313 C 287.28666 213.58609 288.71867 215.0181 289.6116 215.91104 C 290.50456 216.804 291.93659 218.23601 292.8295 219.12895 C 293.72248 220.02191 295.15449 221.45392 296.04743 222.34687 C 296.94038 223.2398 298.37239 224.67182 299.26533 225.56476 C 300.15827 226.4577 301.59028 227.88973 302.48323 228.78267 C 303.37617 229.67562 304.80818 231.10764 305.70115 232.00058 C 306.5941 232.89353 308.0261 234.32553 308.91905 235.21849 C 309.812 236.11144 311.244 237.54343 312.13694 238.43639 C 313.02989 239.32933 314.4619 240.76134 315.35484 241.6543 C 316.2478 242.54724 318.57276 244.8722 318.57276 244.8722 "/>
<path transform="matrix(1,0,0,-1,.228,184.27899)" stroke-width="1.19553" stroke-linecap="butt" stroke-miterlimit="10" stroke-linejoin="miter" fill="none" stroke="#800000" d="M 0 394.1791 C 0 394.1791 2.32494 391.85417 3.21788 390.9612 C 4.11084 390.06825 5.54285 388.63627 6.43579 387.7433 C 7.32875 386.85035 8.76076 385.41835 9.6537 384.5254 C 10.54665 383.63243 11.97867 382.2004 12.87161 381.3075 C 13.76456 380.41453 15.19656 378.98255 16.08951 378.08958 C 16.98245 377.19664 18.41447 375.76463 19.30742 374.87168 C 20.20036 373.97874 21.63237 372.5467 22.52533 371.65376 C 23.41827 370.76084 24.85028 369.3288 25.74324 368.43586 C 26.63618 367.5429 28.06819 366.1109 28.96115 365.21794 C 29.8541 364.325 31.28609 362.893 32.17903 362.00007 C 33.07199 361.1071 34.504 359.6751 35.39694 358.78215 C 36.2899 357.8892 37.72191 356.45719 38.61485 355.56425 C 39.50781 354.6713 40.93982 353.23927 41.83276 352.34635 C 42.72571 351.45338 44.15773 350.02137 45.05067 349.12843 C 45.94362 348.23548 47.37563 346.80348 48.26857 345.91053 C 49.16151 345.01759 50.59354 343.58558 51.48648 342.6926 C 52.37943 341.79969 53.81143 340.36766 54.70439 339.4747 C 55.59734 338.58177 57.02934 337.14976 57.9223 336.25679 C 58.81525 335.36387 60.24724 333.93186 61.1402 333.0389 C 62.03314 332.14595 63.46515 330.71394 64.3581 329.82099 C 65.25105 328.92805 66.68306 327.49604 67.576 326.6031 C 68.46896 325.71015 69.90097 324.2781 70.79391 323.3852 C 71.68687 322.49223 73.11888 321.0602 74.01183 320.16728 C 74.90477 319.2743 76.33678 317.84233 77.22972 316.94938 C 78.12267 316.05644 79.55469 314.6244 80.44763 313.73146 C 81.34058 312.83854 82.7726 311.4065 83.66554 310.51356 C 84.55849 309.6206 85.9905 308.18858 86.88345 307.29566 C 87.7764 306.4027 89.2084 304.9707 90.10136 304.07774 C 90.99431 303.18479 92.4263 301.75279 93.31926 300.85984 C 94.2122 299.9669 95.64421 298.53489 96.53716 297.6419 C 97.43011 296.749 98.86212 295.31697 99.75507 294.42405 C 100.64803 293.53108 102.08003 292.09907 102.97298 291.20613 C 103.86594 290.31318 105.29793 288.88117 106.19087 287.98823 C 107.08382 287.09526 108.51584 285.66325 109.40878 284.77033 C 110.30173 283.87739 111.73375 282.44535 112.6267 281.5524 C 113.51964 280.65946 114.95164 279.22743 115.8446 278.3345 C 116.73755 277.44154 118.16956 276.00953 119.06252 275.11659 C 119.95546 274.22364 121.38747 272.79164 122.28043 271.89869 C 123.17337 271.0057 124.60538 269.57374 125.49832 268.68077 C 126.39128 267.7878 127.82329 266.3558 128.71623 265.46287 C 129.60919 264.5699 131.0412 263.1379 131.93415 262.24497 C 132.8271 261.352 134.25911 259.91999 135.15206 259.02705 C 136.045 258.1341 137.47702 256.70207 138.36997 255.80913 C 139.26291 254.91619 140.69493 253.48416 141.58788 252.59122 C 142.48082 251.69828 143.91284 250.26625 144.80579 249.3733 C 145.69873 248.48036 147.13074 247.04834 148.0237 246.1554 C 148.91664 245.26245 150.34865 243.83045 151.24161 242.93749 C 152.13455 242.04454 153.56656 240.61254 154.45952 239.71958 C 155.35247 238.82663 156.78447 237.39463 157.67742 236.50167 C 158.57038 235.60872 160.00238 234.17671 160.89533 233.28377 C 161.78829 232.39081 163.22029 230.95882 164.11324 230.06587 C 165.0062 229.17292 166.4382 227.74089 167.33115 226.84795 C 168.22409 225.95499 169.6561 224.523 170.54904 223.63005 C 171.44199 222.7371 172.87403 221.30509 173.76697 220.41214 C 174.65991 219.5192 176.09194 218.08716 176.98488 217.19422 C 177.87783 216.30127 179.30983 214.86927 180.20279 213.97632 C 181.09574 213.08338 182.52774 211.65135 183.4207 210.75839 C 184.31365 209.86545 185.74564 208.43346 186.63858 207.5405 C 187.53154 206.64756 188.96356 205.21555 189.8565 204.32259 C 190.74947 203.42964 192.18146 201.99764 193.0744 201.10469 C 193.96736 200.21173 195.39939 198.77973 196.29233 197.88678 C 197.18527 196.99382 198.61728 195.56182 199.51023 194.66887 C 200.40317 193.77591 201.83519 192.3439 202.72814 191.45096 C 203.62108 190.55802 205.05312 189.12599 205.94606 188.23305 C 206.839 187.3401 208.271 185.90808 209.16396 185.01514 C 210.0569 184.1222 211.4889 182.69019 212.38187 181.79723 C 213.27481 180.90428 214.70682 179.47228 215.59978 178.57932 C 216.49272 177.68637 217.92473 176.25437 218.81768 175.3614 C 219.71063 174.46846 221.14263 173.03647 222.03557 172.14353 C 222.92853 171.25057 224.36054 169.81856 225.25348 168.92562 C 226.14644 168.03266 227.57845 166.60065 228.47139 165.7077 C 229.36434 164.81475 230.79636 163.38274 231.6893 162.48979 C 232.58225 161.59685 234.01427 160.16483 234.90721 159.27188 C 235.80016 158.37894 237.23217 156.94693 238.1251 156.05399 C 239.01805 155.16104 240.45006 153.72902 241.34302 152.83608 C 242.23596 151.94313 243.66797 150.51113 244.56093 149.61817 C 245.45388 148.72522 246.88588 147.29322 247.77884 146.40026 C 248.67179 145.50731 250.10379 144.0753 250.99674 143.18235 C 251.8897 142.2894 253.32169 140.8574 254.21463 139.96446 C 255.10759 139.0715 256.5396 137.6395 257.43254 136.74655 C 258.3255 135.85359 259.7575 134.42159 260.65046 133.52864 C 261.5434 132.63568 262.97544 131.20368 263.86836 130.31073 C 264.7613 129.41779 266.1933 127.98578 267.08628 127.09283 C 267.9792 126.19989 269.41123 124.76787 270.30418 123.87492 C 271.1971 122.98198 272.62913 121.54996 273.5221 120.65701 C 274.415 119.76407 275.84703 118.33206 276.74 117.4391 C 277.63294 116.54616 279.06495 115.11415 279.9579 114.22119 C 280.85087 113.32825 282.28285 111.89626 283.17579 111.0033 C 284.06874 110.11035 285.50077 108.67834 286.39369 107.7854 C 287.28666 106.89244 288.71867 105.46043 289.6116 104.56749 C 290.50456 103.67453 291.93659 102.24252 292.8295 101.34958 C 293.72248 100.45662 295.15449 99.02461 296.04743 98.13167 C 296.94038 97.23872 298.37239 95.80672 299.26533 94.91377 C 300.15827 94.02083 301.59028 92.5888 302.48323 91.69586 C 303.37617 90.80292 304.80818 89.37091 305.70115 88.47795 C 306.5941 87.585 308.0261 86.153 308.91905 85.26004 C 309.812 84.3671 311.244 82.9351 312.13694 82.04214 C 313.02989 81.1492 314.4619 79.7172 315.35484 78.82425 C 316.2478 77.93129 318.57276 75.60634 318.57276 75.60634 "/>
<symbol id="font_1_7">
<path d="M .45700003 .586 C .461 .6 .461 .602 .461 .609 C .461 .62700006 .447 .63600006 .432 .63600006 C .42200003 .63600006 .40600003 .63 .397 .615 C .395 .61 .387 .579 .38300003 .561 C .37600003 .535 .36900003 .508 .363 .48100005 L .318 .301 C .314 .286 .271 .21600002 .20500002 .21600002 C .15400002 .21600002 .143 .26000003 .143 .29700003 C .143 .34300003 .16000001 .40500004 .194 .49300004 C .21000001 .53400006 .21400002 .545 .21400002 .56500008 C .21400002 .61 .18200001 .6470001 .13200002 .6470001 C .037 .6470001 0 .50200006 0 .49300004 C 0 .48300005 .01 .48300005 .012 .48300005 C .022000002 .48300005 .023 .485 .028000003 .50100007 C .055000009 .595 .095000009 .625 .12900001 .625 C .13700001 .625 .15400002 .625 .15400002 .59300008 C .15400002 .568 .14400001 .54200008 .13700001 .523 C .097 .41700004 .079 .36 .079 .31300003 C .079 .224 .142 .194 .201 .194 C .24000003 .194 .274 .21100001 .30200003 .23900002 C .289 .187 .277 .13800001 .237 .08500001 C .21100001 .051 .17300001 .022 .127 .022 C .113000009 .022 .068 .025000006 .051000008 .06400001 C .067 .06400001 .080000009 .06400001 .094000007 .076000008 C .104 .08500001 .11400001 .098000008 .11400001 .117000009 C .11400001 .148 .087000008 .15200001 .07700001 .15200001 C .054000006 .15200001 .021 .136 .021 .087000008 C .021 .037 .065000008 0 .127 0 C .23 0 .333 .091000009 .361 .20400001 L .45700003 .586 Z "/>
</symbol>
<use xlink:href="#font_1_7" transform="matrix(9.9626,0,0,-9.9626,19.611916,67.56433)" fill="#000080"/>
<symbol id="font_2_5">
<path d="M .63100007 .19400002 C .646 .19400002 .665 .19400002 .665 .214 C .665 .23400001 .646 .23400001 .632 .23400001 L .033 .23400001 C .019000002 .23400001 0 .23400001 0 .214 C 0 .19400002 .019000002 .19400002 .034 .19400002 L .63100007 .19400002 M .632 0 C .646 0 .665 0 .665 .02000001 C .665 .040000008 .646 .040000008 .63100007 .040000008 L .034 .040000008 C .019000002 .040000008 0 .040000008 0 .02000001 C 0 0 .019000002 0 .033 0 L .632 0 Z "/>
</symbol>
<use xlink:href="#font_2_5" transform="matrix(9.9626,0,0,-9.9626,27.890906,64.19697)" fill="#000080"/>
<symbol id="font_1_5">
<path d="M .314 .605 L .4 .605 C .42000003 .605 .43 .605 .43 .625 C .43 .63600006 .42000003 .63600006 .40300004 .63600006 L .32000003 .63600006 L .34100003 .75 C .34500004 .771 .35900004 .842 .365 .8540001 C .374 .873 .39100004 .888 .41200004 .888 C .416 .888 .44200004 .888 .461 .87 C .41700004 .86600008 .407 .8310001 .407 .816 C .407 .793 .425 .781 .444 .781 C .47 .781 .49900005 .8030001 .49900005 .8410001 C .49900005 .8870001 .45300005 .9100001 .41200004 .9100001 C .37800003 .9100001 .31500004 .8920001 .28500004 .793 C .279 .7720001 .27600003 .7620001 .252 .63600006 L .18300002 .63600006 C .164 .63600006 .15300001 .63600006 .15300001 .61700007 C .15300001 .605 .162 .605 .18100001 .605 L .24700001 .605 L .172 .21000001 C .15400002 .113000009 .13700001 .022 .08500001 .022 C .081 .022 .056 .022 .037 .040000008 C .083000008 .043000014 .09200001 .07900001 .09200001 .094000007 C .09200001 .117000009 .074 .12900001 .055 .12900001 C .029 .12900001 0 .10700001 0 .069000009 C 0 .024000004 .044 0 .08500001 0 C .14 0 .18 .059 .19800002 .09700001 C .23000002 .16000001 .25300003 .28100003 .254 .28800003 L .314 .605 Z "/>
</symbol>
<use xlink:href="#font_1_5" transform="matrix(9.9626,0,0,-9.9626,38.377019,67.56433)" fill="#000080"/>
<symbol id="font_2_1">
<path d="M .23200003 .00999999 C .23200003 .012999982 .23200003 .014999986 .215 .03199999 C .09 .15799999 .058 .347 .058 .5 C .058 .674 .096 .84800007 .21900001 .97300007 C .23200003 .985 .23200003 .98700007 .23200003 .99 C .23200003 .99700006 .22800002 1 .222 1 C .21200001 1 .12200001 .93200007 .06299999 .805 C .012000002 .69500008 0 .584 0 .5 C 0 .422 .011 .301 .066 .188 C .126 .065 .21200001 0 .222 0 C .22800002 0 .23200003 .0029999912 .23200003 .00999999 Z "/>
</symbol>
<use xlink:href="#font_2_1" transform="matrix(9.9626,0,0,-9.9626,44.785299,68.01264)" fill="#000080"/>
<symbol id="font_1_6">
<path d="M .305 .31300003 C .311 .33900003 .334 .43100003 .404 .43100003 C .409 .43100003 .433 .43100003 .454 .418 C .426 .41300003 .40600003 .388 .40600003 .36400003 C .40600003 .34800003 .417 .32900004 .444 .32900004 C .46600003 .32900004 .498 .34700004 .498 .38700003 C .498 .43900005 .439 .45300005 .405 .45300005 C .347 .45300005 .312 .40000005 .3 .37700004 C .275 .44300003 .221 .45300005 .19200002 .45300005 C .08800001 .45300005 .031000002 .32400004 .031000002 .29900003 C .031000002 .28900004 .041 .28900004 .043000007 .28900004 C .051000008 .28900004 .054000006 .291 .056 .3 C .09 .40600003 .156 .43100003 .19000001 .43100003 C .209 .43100003 .244 .42200003 .244 .36400003 C .244 .33300004 .22700002 .26600004 .19000001 .126 C .17400001 .064 .13900002 .022000002 .095000009 .022000002 C .08900001 .022000002 .06600001 .022000002 .045 .035 C .07000001 .040000004 .09200001 .061 .09200001 .089 C .09200001 .116000007 .07000001 .124000009 .055000009 .124000009 C .025 .124000009 0 .098000008 0 .06600001 C 0 .020000002 .050000006 0 .094000007 0 C .16000001 0 .19600001 .07000001 .19900002 .076000008 C .21100001 .039 .24700003 0 .307 0 C .41 0 .467 .12900001 .467 .15400002 C .467 .16400002 .458 .16400002 .455 .16400002 C .446 .16400002 .444 .16000001 .442 .15300001 C .409 .046 .341 .022000002 .30900003 .022000002 C .27 .022000002 .254 .054 .254 .08800001 C .254 .11000001 .26 .13200002 .271 .17600002 L .305 .31300003 Z "/>
</symbol>
<use xlink:href="#font_1_6" transform="matrix(9.9626,0,0,-9.9626,47.961915,65.631587)" fill="#000080"/>
<symbol id="font_2_2">
<path d="M .232 .5 C .232 .578 .22100002 .699 .16600001 .81200006 C .106 .93500009 .020000004 1 .009999998 1 C .0040000008 1 0 .99600008 0 .99 C 0 .98700007 0 .985 .019000002 .967 C .117000009 .86800006 .174 .709 .174 .5 C .174 .329 .137 .153 .012999997 .026999996 C 0 .014999986 0 .012999982 0 .00999999 C 0 .003999993 .0040000008 0 .009999998 0 C .020000004 0 .11000001 .06799999 .169 .195 C .22 .305 .232 .416 .232 .5 Z "/>
</symbol>
<symbol id="font_2_8">
<path d="M .17500001 .20500002 C .197 .20100002 .279 .18500002 .279 .113000009 C .279 .062000004 .24400002 .022000002 .16600001 .022000002 C .082 .022000002 .046000005 .079 .027000003 .16400002 C .024000004 .17700002 .023000002 .18100001 .013000004 .18100001 C 0 .18100001 0 .17400001 0 .15600002 L 0 .024 C 0 .0070000009 0 0 .011000004 0 C .016000003 0 .017 .0010000002 .036000007 .020000002 C .038000004 .022000002 .038000004 .024 .056 .043 C .1 .0010000002 .14500001 0 .16600001 0 C .28100003 0 .32700003 .067 .32700003 .13900002 C .32700003 .19200002 .29700003 .22200002 .28500004 .23400001 C .25200004 .26600004 .213 .27400003 .171 .28200004 C .115 .293 .048 .30600003 .048 .36400003 C .048 .39900003 .07400001 .44000004 .16 .44000004 C .27 .44000004 .27500005 .35000003 .277 .31900005 C .27800004 .31000004 .28700004 .31000004 .28900004 .31000004 C .30200003 .31000004 .30200003 .31500004 .30200003 .33400003 L .30200003 .43500004 C .30200003 .45200003 .30200003 .45900003 .291 .45900003 C .286 .45900003 .284 .45900003 .27100004 .44700004 C .26800005 .44300003 .25800003 .43400003 .254 .43100003 C .21600002 .45900003 .17500001 .45900003 .16 .45900003 C .038000004 .45900003 0 .39200003 0 .33600004 C 0 .30100004 .016000003 .27300004 .043000007 .25100003 C .075 .22500003 .10300001 .21900001 .17500001 .20500002 Z "/>
</symbol>
<symbol id="font_2_6">
<path d="M .144 .44200004 L .0040000008 .43100003 L .0040000008 .4 C .069000009 .4 .07800001 .39400003 .07800001 .34500004 L .07800001 .076000008 C .07800001 .031000002 .067 .031000002 0 .031000002 L 0 0 C .032000007 .001 .086 .003 .11000001 .003 C .14500001 .003 .18 .001 .21400002 0 L .21400002 .031000002 C .148 .031000002 .144 .036000004 .144 .075 L .144 .44200004 M .148 .61600008 C .148 .648 .123 .669 .095000009 .669 C .064 .669 .042000005 .642 .042000005 .61600008 C .042000005 .58900007 .064 .563 .095000009 .563 C .123 .563 .148 .58400008 .148 .61600008 Z "/>
</symbol>
<symbol id="font_2_7">
<path d="M .07800001 .344 L .07800001 .076000008 C .07800001 .031000002 .067 .031000002 0 .031000002 L 0 0 C .035 .001 .08600001 .003 .113000009 .003 C .139 .003 .191 .001 .225 0 L .225 .031000002 C .158 .031000002 .147 .031000002 .147 .076000008 L .147 .26000003 C .147 .36400003 .218 .42000003 .282 .42000003 C .345 .42000003 .356 .36600004 .356 .30900003 L .356 .076000008 C .356 .031000002 .345 .031000002 .278 .031000002 L .278 0 C .31300003 .001 .36400003 .003 .391 .003 C .41700004 .003 .46900005 .001 .503 0 L .503 .031000002 C .451 .031000002 .42600004 .031000002 .425 .061000006 L .425 .252 C .425 .33800004 .425 .36900003 .39400003 .40500004 C .38000003 .42200003 .347 .44200004 .289 .44200004 C .216 .44200004 .169 .39900003 .141 .337 L .141 .44200004 L 0 .43100003 L 0 .4 C .07000001 .4 .07800001 .393 .07800001 .344 Z "/>
</symbol>
<use xlink:href="#font_2_2" transform="matrix(9.9626,0,0,-9.9626,53.934869,68.01264)" fill="#000080"/>
<use xlink:href="#font_2_5" transform="matrix(9.9626,0,0,-9.9626,60.56996,64.19697)" fill="#000080"/>
<use xlink:href="#font_2_8" transform="matrix(9.9626,0,0,-9.9626,70.86132,65.631587)" fill="#000080"/>
<use xlink:href="#font_2_6" transform="matrix(9.9626,0,0,-9.9626,74.78658,65.521999)" fill="#000080"/>
<use xlink:href="#font_2_7" transform="matrix(9.9626,0,0,-9.9626,77.54622,65.521999)" fill="#000080"/>
<use xlink:href="#font_2_1" transform="matrix(9.9626,0,0,-9.9626,83.74296,68.01264)" fill="#000080"/>
<use xlink:href="#font_1_6" transform="matrix(9.9626,0,0,-9.9626,86.919918,65.631587)" fill="#000080"/>
<use xlink:href="#font_2_2" transform="matrix(9.9626,0,0,-9.9626,92.89287,68.01264)" fill="#000080"/>
<symbol id="font_1_3">
<path d="M .263 .316 L .43300004 .316 C .575 .316 .714 .42000003 .714 .532 C .714 .609 .648 .683 .517 .683 L .193 .683 C .17400001 .683 .163 .683 .163 .66400006 C .163 .652 .172 .652 .192 .652 C .205 .652 .223 .651 .235 .65000006 C .25100003 .648 .25700004 .64500007 .25700004 .634 C .25700004 .63000008 .256 .62700006 .25300003 .615 L .119 .078 C .109 .039 .10699999 .031000002 .028 .031000002 C .011 .031000002 0 .031000002 0 .012 C 0 0 .011999998 0 .015000001 0 C .043 0 .11400001 .003 .142 .003 C .163 .003 .185 .002 .206 .002 C .228 .002 .25000004 0 .27100004 0 C .27800004 0 .29100005 0 .29100005 .020000002 C .29100005 .031000002 .28200004 .031000002 .263 .031000002 C .226 .031000002 .198 .031000002 .198 .049000004 C .198 .055000005 .2 .060000004 .201 .066 L .263 .316 M .33500005 .614 C .344 .64900007 .34600003 .652 .38900004 .652 L .48500005 .652 C .568 .652 .621 .625 .621 .55600008 C .621 .517 .601 .43100003 .56200006 .395 C .512 .35000003 .45200003 .342 .40800003 .342 L .26700003 .342 L .33500005 .614 Z "/>
</symbol>
<use xlink:href="#font_1_3" transform="matrix(9.9626,0,0,-9.9626,162.2045,108.277)" fill="#000080"/>
<symbol id="font_1_4">
<path d="M .38900004 .2 C .544 .259 .691 .43700005 .691 .63 C .691 .791 .585 .89900007 .43600003 .89900007 C .22000003 .89900007 0 .67200008 0 .439 C 0 .273 .11200001 .172 .256 .172 C .28100003 .172 .31500004 .176 .35400004 .187 C .35000003 .125 .35000003 .123 .35000003 .11 C .35000003 .078 .35000003 0 .43300004 0 C .552 0 .6 .183 .6 .194 C .6 .201 .593 .20400001 .589 .20400001 C .58100005 .20400001 .579 .199 .577 .193 C .55300006 .122 .49500004 .097 .46 .097 C .41400004 .097 .39900003 .124000009 .38900004 .2 M .20000002 .208 C .122 .23900001 .08800001 .317 .08800001 .407 C .08800001 .476 .114 .61800006 .19 .726 C .263 .828 .35700003 .874 .43000005 .874 C .53000006 .874 .603 .79600009 .603 .66200008 C .603 .56200006 .552 .328 .38400004 .23400001 C .37900005 .269 .36900003 .342 .29600004 .342 C .24300003 .342 .194 .292 .194 .24000001 C .194 .22 .20000002 .209 .20000002 .208 M .26200003 .19700001 C .24800003 .19700001 .21600002 .19700001 .21600002 .24000001 C .21600002 .28 .254 .32 .29600004 .32 C .33800004 .32 .35700003 .296 .35700003 .23500002 C .35700003 .22 .35600005 .21900001 .34600003 .215 C .32000003 .20400001 .29000003 .19700001 .26200003 .19700001 Z "/>
</symbol>
<use xlink:href="#font_1_4" transform="matrix(9.9626,0,0,-9.9626,309.64515,95.45274)" fill="#000080"/>
</g>
<path transform="matrix(1,0,0,-1,.228,184.27899)" d="M 161.28086 85.58774 C 161.28086 86.68822 160.38877 87.58029 159.2883 87.58029 C 158.18782 87.58029 157.29575 86.68822 157.29575 85.58774 C 157.29575 84.48727 158.18782 83.59518 159.2883 83.59518 C 160.38877 83.59518 161.28086 84.48727 161.28086 85.58774 Z M 159.2883 85.58774 " fill="#000080"/>
<path transform="matrix(1,0,0,-1,.228,184.27899)" stroke-width="1" stroke-linecap="butt" stroke-miterlimit="10" stroke-linejoin="miter" fill="none" stroke="#000080" d="M 161.28086 85.58774 C 161.28086 86.68822 160.38877 87.58029 159.2883 87.58029 C 158.18782 87.58029 157.29575 86.68822 157.29575 85.58774 C 157.29575 84.48727 158.18782 83.59518 159.2883 83.59518 C 160.38877 83.59518 161.28086 84.48727 161.28086 85.58774 Z M 159.2883 85.58774 "/>
<path transform="matrix(1,0,0,-1,.228,184.27899)" d="M 310.67903 85.58774 C 310.67903 86.68822 309.78694 87.58029 308.68647 87.58029 C 307.58598 87.58029 306.6939 86.68822 306.6939 85.58774 C 306.6939 84.48727 307.58598 83.59518 308.68647 83.59518 C 309.78694 83.59518 310.67903 84.48727 310.67903 85.58774 Z M 308.68647 85.58774 " fill="#000080"/>
<path transform="matrix(1,0,0,-1,.228,184.27899)" stroke-width="1" stroke-linecap="butt" stroke-miterlimit="10" stroke-linejoin="miter" fill="none" stroke="#000080" d="M 310.67903 85.58774 C 310.67903 86.68822 309.78694 87.58029 308.68647 87.58029 C 307.58598 87.58029 306.6939 86.68822 306.6939 85.58774 C 306.6939 84.48727 307.58598 83.59518 308.68647 83.59518 C 309.78694 83.59518 310.67903 84.48727 310.67903 85.58774 Z M 308.68647 85.58774 "/>
<path transform="matrix(1,0,0,-1,.228,184.27899)" d="M 235.97992 160.2868 C 235.97992 161.38729 235.08785 162.27936 233.98737 162.27936 C 232.8869 162.27936 231.99481 161.38729 231.99481 160.2868 C 231.99481 159.18634 232.8869 158.29425 233.98737 158.29425 C 235.08785 158.29425 235.97992 159.18634 235.97992 160.2868 Z M 233.98737 160.2868 " fill="#000080"/>
<path transform="matrix(1,0,0,-1,.228,184.27899)" stroke-width="1" stroke-linecap="butt" stroke-miterlimit="10" stroke-linejoin="miter" fill="none" stroke="#800000" d="M 235.97992 160.2868 C 235.97992 161.38729 235.08785 162.27936 233.98737 162.27936 C 232.8869 162.27936 231.99481 161.38729 231.99481 160.2868 C 231.99481 159.18634 232.8869 158.29425 233.98737 158.29425 C 235.08785 158.29425 235.97992 159.18634 235.97992 160.2868 Z M 233.98737 160.2868 "/>
<use xlink:href="#font_1_6" transform="matrix(9.9626,0,0,-9.9626,322.6509,100.935588)"/>
<use xlink:href="#font_1_7" transform="matrix(9.9626,0,0,-9.9626,157.2099,9.652319)"/>
</svg>
