<?xml version="1.0" encoding="UTF-8" standalone="no"?>
<!DOCTYPE svg PUBLIC "-//W3C//DTD SVG 1.1//EN" "http://www.w3.org/Graphics/SVG/1.1/DTD/svg11.dtd">
<svg xmlns="http://www.w3.org/2000/svg" xmlns:xlink="http://www.w3.org/1999/xlink" version="1.1" width="178.016pt" height="175.806pt" viewBox="0 0 178.016 175.806">
<path transform="matrix(1,0,0,-1,4.056,174.49)" stroke-width="1" stroke-linecap="butt" stroke-miterlimit="10" stroke-linejoin="miter" fill="none" stroke="#cbcbcb" d="M 5.63005 0 L 5.63005 161.39484 M 24.39688 0 L 24.39688 161.39484 M 43.16373 0 L 43.16373 161.39484 M 61.93057 0 L 61.93057 161.39484 M 99.46426 0 L 99.46426 161.39484 M 118.2311 0 L 118.2311 161.39484 M 136.99794 0 L 136.99794 161.39484 M 155.76479 0 L 155.76479 161.39484 "/>
<path transform="matrix(1,0,0,-1,4.056,174.49)" stroke-width="1" stroke-linecap="butt" stroke-miterlimit="10" stroke-linejoin="miter" fill="none" stroke="#cbcbcb" d="M 0 5.63005 L 161.39484 5.63005 M 0 24.39688 L 161.39484 24.39688 M 0 43.16373 L 161.39484 43.16373 M 0 61.93057 L 161.39484 61.93057 M 0 99.46426 L 161.39484 99.46426 M 0 118.2311 L 161.39484 118.2311 M 0 136.99794 L 161.39484 136.99794 M 0 155.76479 L 161.39484 155.76479 "/>
<path transform="matrix(1,0,0,-1,4.056,174.49)" stroke-width="1" stroke-linecap="butt" stroke-miterlimit="10" stroke-linejoin="miter" fill="none" stroke="#929292" d="M 5.63005 78.57146 L 5.63005 82.82335 M 24.39688 78.57146 L 24.39688 82.82335 M 43.16373 78.57146 L 43.16373 82.82335 M 61.93057 78.57146 L 61.93057 82.82335 M 99.46426 78.57146 L 99.46426 82.82335 M 118.2311 78.57146 L 118.2311 82.82335 M 136.99794 78.57146 L 136.99794 82.82335 M 155.76479 78.57146 L 155.76479 82.82335 "/>
<path transform="matrix(1,0,0,-1,4.056,174.49)" stroke-width="1" stroke-linecap="butt" stroke-miterlimit="10" stroke-linejoin="miter" fill="none" stroke="#929292" d="M 78.57146 5.63005 L 82.82335 5.63005 M 78.57146 24.39688 L 82.82335 24.39688 M 78.57146 43.16373 L 82.82335 43.16373 M 78.57146 61.93057 L 82.82335 61.93057 M 78.57146 99.46426 L 82.82335 99.46426 M 78.57146 118.2311 L 82.82335 118.2311 M 78.57146 136.99794 L 82.82335 136.99794 M 78.57146 155.76479 L 82.82335 155.76479 "/>
<path transform="matrix(1,0,0,-1,4.056,174.49)" stroke-width="1" stroke-linecap="butt" stroke-miterlimit="10" stroke-linejoin="miter" fill="none" stroke="#000000" d="M 0 80.69742 L 159.40232 80.69742 "/>
<path transform="matrix(1,0,0,-1,163.45832,93.79259)" d="M 1.99252 0 L -1.19551 1.59401 L 0 0 L -1.19551 -1.59401 "/>
<path transform="matrix(1,0,0,-1,4.056,174.49)" stroke-width="1" stroke-linecap="butt" stroke-miterlimit="10" stroke-linejoin="miter" fill="none" stroke="#000000" d="M 80.69742 0 L 80.69742 159.40232 "/>
<path transform="matrix(0,-1,-1,-0,84.75342,15.087692)" d="M 1.99252 0 L -1.19551 1.59401 L 0 0 L -1.19551 -1.59401 "/>
<symbol id="font_0_1">
<path d="M .57600006 0 C .59300008 0 .611 0 .611 .019999996 C .611 .040000008 .59300008 .040000008 .57600006 .040000008 L .035000005 .040000008 C .018 .040000008 0 .040000008 0 .019999996 C 0 0 .018 0 .035000005 0 L .57600006 0 Z "/>
</symbol>
<use xlink:href="#font_0_1" transform="matrix(9.9626,0,0,-9.9626,4.147896,103.5686)"/>
<symbol id="font_1_4">
<path d="M .266 .165 L .266 .078 C .266 .042000005 .26400004 .031000002 .19000001 .031000002 L .16900002 .031000002 L .16900002 0 C .21000001 .003 .26200003 .003 .30400003 .003 C .34600003 .003 .39900003 .003 .44000004 0 L .44000004 .031000002 L .41900004 .031000002 C .34500004 .031000002 .34300003 .042000005 .34300003 .078 L .34300003 .165 L .44300003 .165 L .44300003 .19600001 L .34300003 .19600001 L .34300003 .651 C .34300003 .671 .34300003 .67700007 .32700003 .67700007 C .31800003 .67700007 .31500004 .67700007 .307 .665 L 0 .19600001 L 0 .165 L .266 .165 M .272 .19600001 L .028 .19600001 L .272 .569 L .272 .19600001 Z "/>
</symbol>
<use xlink:href="#font_1_4" transform="matrix(9.9626,0,0,-9.9626,11.347953,105.86)"/>
<use xlink:href="#font_0_1" transform="matrix(9.9626,0,0,-9.9626,22.913897,103.5686)"/>
<symbol id="font_1_3">
<path d="M .24800003 .37400005 C .33 .40100003 .388 .47100006 .388 .55 C .388 .632 .3 .688 .204 .688 C .10300001 .688 .027000003 .628 .027000003 .55200007 C .027000003 .519 .049000004 .5 .078 .5 C .109000008 .5 .12900001 .522 .12900001 .55100008 C .12900001 .6010001 .082 .6010001 .067 .6010001 C .098 .65000006 .164 .66300007 .20000002 .66300007 C .24100003 .66300007 .29600004 .64100006 .29600004 .55100008 C .29600004 .53900006 .29400004 .48100005 .268 .43700005 C .238 .38900004 .204 .38600005 .17900002 .38500003 C .171 .38400004 .14700002 .38200004 .14000002 .38200004 C .132 .38100005 .125 .38000003 .125 .37000004 C .125 .35900004 .132 .35900004 .14900002 .35900004 L .19300002 .35900004 C .275 .35900004 .312 .29100005 .312 .193 C .312 .057000005 .24300003 .028 .199 .028 C .15600002 .028 .081 .045 .046000005 .104 C .081 .09900001 .11200001 .12100001 .11200001 .15900001 C .11200001 .19500001 .085 .215 .056 .215 C .031999999 .215 0 .201 0 .157 C 0 .06600001 .093 0 .20200002 0 C .32400004 0 .41500003 .091000009 .41500003 .193 C .41500003 .27500005 .35200004 .35300005 .24800003 .37400005 Z "/>
</symbol>
<use xlink:href="#font_1_3" transform="matrix(9.9626,0,0,-9.9626,30.254429,106.07918)"/>
<use xlink:href="#font_0_1" transform="matrix(9.9626,0,0,-9.9626,41.680898,103.5686)"/>
<symbol id="font_1_2">
<path d="M .07700001 .07700001 L .18300002 .18 C .33900003 .31800003 .39900003 .372 .39900003 .47200004 C .39900003 .586 .30900003 .666 .18700002 .666 C .074 .666 0 .574 0 .485 C 0 .42900003 .05 .42900003 .053000008 .42900003 C .07000001 .42900003 .105000007 .441 .105000007 .48200003 C .105000007 .508 .08700001 .53400006 .052000006 .53400006 C .044000005 .53400006 .042000008 .53400006 .039 .53300008 C .062000004 .59800007 .11600001 .63500007 .17400001 .63500007 C .26500003 .63500007 .308 .554 .308 .47200004 C .308 .39200003 .25800003 .31300003 .20300003 .25100003 L .011000004 .037 C 0 .026 0 .024 0 0 L .37100003 0 L .39900003 .17400001 L .374 .17400001 C .36900003 .14400001 .36200003 .1 .352 .085 C .345 .07700001 .279 .07700001 .257 .07700001 L .07700001 .07700001 Z "/>
</symbol>
<use xlink:href="#font_1_2" transform="matrix(9.9626,0,0,-9.9626,49.100133,105.86)"/>
<use xlink:href="#font_0_1" transform="matrix(9.9626,0,0,-9.9626,60.446897,103.5686)"/>
<symbol id="font_1_1">
<path d="M .205 .64000007 C .205 .66400006 .205 .666 .18200003 .666 C .120000008 .60200008 .032000007 .60200008 0 .60200008 L 0 .57100006 C .020000004 .57100006 .07900001 .57100006 .13100001 .597 L .13100001 .079 C .13100001 .043 .128 .031000002 .038000004 .031000002 L .0060000049 .031000002 L .0060000049 0 C .04100001 .003 .128 .003 .168 .003 C .20800002 .003 .29500003 .003 .33000005 0 L .33000005 .031000002 L .29800005 .031000002 C .20800002 .031000002 .205 .042000005 .205 .079 L .205 .64000007 Z "/>
</symbol>
<use xlink:href="#font_1_1" transform="matrix(9.9626,0,0,-9.9626,68.25567,105.86)"/>
<use xlink:href="#font_1_1" transform="matrix(9.9626,0,0,-9.9626,101.91467,105.86)"/>
<use xlink:href="#font_1_2" transform="matrix(9.9626,0,0,-9.9626,120.29313,105.86)"/>
<use xlink:href="#font_1_3" transform="matrix(9.9626,0,0,-9.9626,138.97943,106.07918)"/>
<use xlink:href="#font_1_4" transform="matrix(9.9626,0,0,-9.9626,157.60695,105.86)"/>
<use xlink:href="#font_0_1" transform="matrix(9.9626,0,0,-9.9626,67.202899,169.3636)"/>
<use xlink:href="#font_1_4" transform="matrix(9.9626,0,0,-9.9626,74.40395,171.655)"/>
<use xlink:href="#font_0_1" transform="matrix(9.9626,0,0,-9.9626,67.202899,150.59761)"/>
<use xlink:href="#font_1_3" transform="matrix(9.9626,0,0,-9.9626,74.54343,153.10819)"/>
<use xlink:href="#font_0_1" transform="matrix(9.9626,0,0,-9.9626,67.202899,131.83061)"/>
<use xlink:href="#font_1_2" transform="matrix(9.9626,0,0,-9.9626,74.62313,134.12201)"/>
<use xlink:href="#font_0_1" transform="matrix(9.9626,0,0,-9.9626,67.202899,113.063617)"/>
<use xlink:href="#font_1_1" transform="matrix(9.9626,0,0,-9.9626,75.01167,115.35501)"/>
<use xlink:href="#font_1_1" transform="matrix(9.9626,0,0,-9.9626,75.01167,78.237)"/>
<use xlink:href="#font_1_2" transform="matrix(9.9626,0,0,-9.9626,74.62313,59.471)"/>
<use xlink:href="#font_1_3" transform="matrix(9.9626,0,0,-9.9626,74.54343,40.923189)"/>
<use xlink:href="#font_1_4" transform="matrix(9.9626,0,0,-9.9626,74.40395,21.937012)"/>
<clipPath id="cp2">
<path transform="matrix(1,0,0,-1,4.056,174.49)" d="M 0 0 L 161.39484 0 L 161.39484 161.39484 L 0 161.39484 Z "/>
</clipPath>
<g clip-path="url(#cp2)">
<path transform="matrix(1,0,0,-1,4.056,174.49)" stroke-width="1" stroke-linecap="butt" stroke-miterlimit="10" stroke-linejoin="miter" fill="none" stroke="#0000ff" d="M 37.53368 -18.57915 L 39.29546 -10.64041 L 41.05722 -3.03244 L 42.819 4.24483 L 44.58076 11.19122 L 46.34254 17.80685 L 48.10431 24.0917 L 49.86609 30.0458 L 51.62785 35.66919 L 53.38963 40.96167 L 55.1514 45.92342 L 56.9132 50.55437 L 58.67496 54.85454 L 60.43674 58.82402 L 62.1985 62.46263 L 63.96028 65.77048 L 65.72205 68.74754 L 67.48383 71.39383 L 69.24559 73.70935 L 71.00739 75.69408 L 72.76915 77.34804 L 74.53093 78.6712 L 76.29271 79.66359 L 78.05447 80.32521 L 79.81625 80.65604 L 81.57803 80.65608 L 83.33981 80.32536 L 85.10158 79.66385 L 86.86336 78.67155 L 88.62512 77.34848 L 90.3869 75.69463 L 92.14867 73.70999 L 93.91046 71.39459 L 95.67223 68.7484 L 97.434 65.77142 L 99.19577 62.46367 L 100.95755 58.82515 L 102.71931 54.85583 L 104.4811 50.55574 L 106.24286 45.92491 L 108.00465 40.9632 L 109.76642 35.67076 L 111.5282 30.04758 L 113.28996 24.0936 L 115.05174 17.80884 L 116.8135 11.19322 L 118.57529 4.24692 L 120.33707 -3.03015 L 122.09883 -10.638 L 123.86061 -18.57666 "/>
<path transform="matrix(1,0,0,-1,4.056,174.49)" stroke-width="1" stroke-linecap="butt" stroke-miterlimit="10" stroke-linejoin="miter" fill="none" stroke="#ff0000" d="M 37.53368 286.5193 L 39.29546 280.41645 L 41.05722 274.31358 L 42.819 268.21064 L 44.58076 262.10777 L 46.34254 256.00495 L 48.10431 249.90207 L 49.86609 243.79921 L 51.62785 237.69626 L 53.38963 231.59342 L 55.1514 225.49056 L 56.9132 219.3877 L 58.67496 213.28485 L 60.43674 207.18189 L 62.1985 201.07906 L 63.96028 194.9762 L 65.72205 188.8733 L 67.48383 182.77043 L 69.24559 176.66756 L 71.00739 170.56468 L 72.76915 164.4618 L 74.53093 158.35894 L 76.29271 152.25605 L 78.05447 146.15319 L 79.81625 140.05031 L 81.57803 133.94742 L 83.33981 127.84454 L 85.10158 121.74167 L 86.86336 115.6388 L 88.62512 109.53592 L 90.3869 103.43304 L 92.14867 97.33015 L 93.91046 91.22728 L 95.67223 85.12442 L 97.434 79.02153 L 99.19577 72.91866 L 100.95755 66.81577 L 102.71931 60.7129 L 104.4811 54.61006 L 106.24286 48.5072 L 108.00465 42.40424 L 109.76642 36.30139 L 111.5282 30.19855 L 113.28996 24.09569 L 115.05174 17.99283 L 116.8135 11.88988 L 118.57529 5.78702 L 120.33707 -.3158 L 122.09883 -6.41864 L 123.86061 -12.52151 "/>
<path transform="matrix(1,0,0,-1,4.056,174.49)" stroke-width="1" stroke-linecap="butt" stroke-miterlimit="10" stroke-linejoin="miter" fill="none" stroke="#ff0000" d="M 37.53368 -12.52339 L 39.29546 -6.42053 L 41.05722 -.31769 L 42.819 5.78525 L 44.58076 11.88809 L 46.34254 17.99094 L 48.10431 24.09381 L 49.86609 30.19666 L 51.62785 36.2996 L 53.38963 42.40247 L 55.1514 48.50531 L 56.9132 54.60817 L 58.67496 60.71103 L 60.43674 66.81398 L 62.1985 72.91681 L 63.96028 79.01968 L 65.72205 85.12256 L 67.48383 91.22543 L 69.24559 97.32832 L 71.00739 103.43118 L 72.76915 109.53406 L 74.53093 115.63695 L 76.29271 121.73982 L 78.05447 127.84268 L 79.81625 133.94557 L 81.57803 140.04845 L 83.33981 146.15132 L 85.10158 152.25421 L 86.86336 158.35707 L 88.62512 164.45995 L 90.3869 170.56284 L 92.14867 176.66571 L 93.91046 182.76859 L 95.67223 188.87146 L 97.434 194.97434 L 99.19577 201.07721 L 100.95755 207.18012 L 102.71931 213.28296 L 104.4811 219.3858 L 106.24286 225.48868 L 108.00465 231.59163 L 109.76642 237.69448 L 111.5282 243.79734 L 113.28996 249.90018 L 115.05174 256.00306 L 116.8135 262.106 L 118.57529 268.20887 L 120.33707 274.31169 L 122.09883 280.41456 L 123.86061 286.5174 "/>
<symbol id="font_3_1">
<path d="M .291 .976 C .291 .97700008 .29400004 .981 .29400004 .98600009 C .29400004 .99 .29200004 1 .277 1 C .257 1 0 .84000006 0 .5 C 0 .161 .257 0 .277 0 C .29200004 0 .29400004 .00999999 .29400004 .013999984 C .29400004 .020999983 .29000003 .023999989 .286 .026999996 C .109 .168 .07700001 .371 .07700001 .5 C .07700001 .745 .19 .906 .291 .976 Z "/>
</symbol>
<use xlink:href="#font_3_1" transform="matrix(4.9813,0,0,-4.9813,124.77319,153.16733)" fill="#ff0000"/>
<symbol id="font_4_2">
<path d="M .393 .110000018 L .16900002 .49800007 C .161 .5120001 .159 .51600006 .14999999 .51600006 C .145 .51600006 .124 .50400009 .11100002 .49600006 L .013999999 .44000007 C .0069999995 .43600006 0 .43100006 0 .42200006 C 0 .41300006 .008000001 .40500004 .017000005 .40500004 C .022 .40500004 .044 .41800005 .056999998 .425 L .096 .44800005 L .34500004 .01700002 C .35500003 .0010000467 .35500003 0 .37 0 C .39000006 0 .39500005 .008000016 .402 .018999994 L .97200009 .94900009 C .98200008 .96400007 .98200008 .9660001 .98200008 .97200009 C .98200008 .98700007 .96900007 1.0000001 .95400008 1.0000001 C .938 1.0000001 .93100008 .9880001 .92600008 .9800001 L .393 .110000018 Z "/>
</symbol>
<use xlink:href="#font_4_2" transform="matrix(4.9813,0,0,-4.9813,127.44231,152.27935)" fill="#ff0000"/>
<path transform="matrix(1,0,0,-1,132.19,147.438)" stroke-width="1" stroke-linecap="butt" stroke-miterlimit="10" stroke-linejoin="miter" fill="none" stroke="#ff0000" d="M 0 0 L 3.39 0 "/>
<symbol id="font_3_3">
<path d="M .25 .35300005 C .342 .35300005 .403 .29600004 .403 .19700001 C .403 .095000009 .34 .041 .25100003 .041 C .24000001 .041 .121 .041 .07 .093 C .11100001 .09900001 .123 .13000001 .123 .154 C .123 .19100002 .095000009 .215 .062 .215 C .030000002 .215 0 .194 0 .15200001 C 0 .048 .11800001 0 .254 0 C .418 0 .52000007 .09900001 .52000007 .19600001 C .52000007 .27800004 .447 .34800003 .333 .37400005 C .45300005 .41300006 .48499999 .48900003 .48499999 .545 C .48499999 .62700006 .38300003 .688 .257 .688 C .134 .688 .034999998 .63600006 .034999998 .54600009 C .034999998 .49900005 .07300001 .48700006 .092 .48700006 C .121 .48700006 .14900002 .508 .14900002 .544 C .14900002 .56700006 .137 .595 .101 .6010001 C .144 .647 .23300001 .65000006 .254 .65000006 C .327 .65000006 .379 .61300006 .379 .545 C .379 .48700006 .34100003 .39600004 .236 .39000006 C .208 .38900004 .204 .38800005 .178 .38700003 C .167 .38600005 .15600002 .38500003 .15600002 .37000004 C .15600002 .35300005 .16600001 .35300005 .18399999 .35300005 L .25 .35300005 Z "/>
</symbol>
<use xlink:href="#font_3_3" transform="matrix(4.9813,0,0,-4.9813,132.5885,152.03159)" fill="#ff0000"/>
<symbol id="font_5_1">
<path d="M .102 .208 C .102 .112 .049999998 .056999998 .023000002 .034999998 C .012999997 .026999996 .0109999929 .024999991 .0109999929 .017999992 C .0109999929 .0119999949 .019999996 0 .029 0 C .041999997 0 .136 .078 .136 .20300001 C .136 .27100004 .106000009 .316 .061000006 .316 C .023000002 .316 0 .286 0 .255 C 0 .223 .023000002 .194 .061000006 .194 C .076000008 .194 .09099999 .198 .102 .208 Z "/>
</symbol>
<use xlink:href="#font_5_1" transform="matrix(4.9813,0,0,-4.9813,136.41686,152.88837)" fill="#ff0000"/>
<symbol id="font_4_1">
<path d="M .72 0 C .736 0 .763 0 .763 .027999983 C .763 .05600001 .736 .05600001 .72 .05600001 L .042999999 .05600001 C .026999996 .05600001 0 .05600001 0 .027999983 C 0 0 .026999996 0 .042999999 0 L .72 0 Z "/>
</symbol>
<use xlink:href="#font_4_1" transform="matrix(4.9813,0,0,-4.9813,139.88301,150.81615)" fill="#ff0000"/>
<symbol id="font_3_2">
<path d="M .29300005 .5 C .29300005 .83900007 .036 1 .016000003 1 C 0 1 0 .98800006 0 .98600009 C 0 .985 0 .97900006 .0059999974 .97300007 C .156 .85400006 .216 .68 .216 .5 C .216 .41000004 .19900002 .31599999 .165 .234 C .117 .11999999 .054000006 .065 .0050000029 .024999991 C .0019999967 .022999987 0 .017999992 0 .013999984 C 0 .0119999949 0 0 .016000003 0 C .036 0 .29300005 .16 .29300005 .5 Z "/>
</symbol>
<use xlink:href="#font_3_3" transform="matrix(4.9813,0,0,-4.9813,144.8805,152.03159)" fill="#ff0000"/>
<use xlink:href="#font_3_2" transform="matrix(4.9813,0,0,-4.9813,148.36244,153.16733)" fill="#ff0000"/>
<use xlink:href="#font_3_1" transform="matrix(4.9813,0,0,-4.9813,16.982195,153.16733)" fill="#ff0000"/>
<use xlink:href="#font_4_1" transform="matrix(4.9813,0,0,-4.9813,19.73001,150.81615)" fill="#ff0000"/>
<use xlink:href="#font_4_2" transform="matrix(4.9813,0,0,-4.9813,25.047308,152.27935)" fill="#ff0000"/>
<path transform="matrix(1,0,0,-1,29.796,147.438)" stroke-width="1" stroke-linecap="butt" stroke-miterlimit="10" stroke-linejoin="miter" fill="none" stroke="#ff0000" d="M 0 0 L 3.39 0 "/>
<use xlink:href="#font_3_3" transform="matrix(4.9813,0,0,-4.9813,30.194504,152.03159)" fill="#ff0000"/>
<use xlink:href="#font_5_1" transform="matrix(4.9813,0,0,-4.9813,34.022859,152.88837)" fill="#ff0000"/>
<use xlink:href="#font_4_1" transform="matrix(4.9813,0,0,-4.9813,37.48801,150.81615)" fill="#ff0000"/>
<use xlink:href="#font_3_3" transform="matrix(4.9813,0,0,-4.9813,42.486505,152.03159)" fill="#ff0000"/>
<use xlink:href="#font_3_2" transform="matrix(4.9813,0,0,-4.9813,45.968435,153.16733)" fill="#ff0000"/>
<symbol id="font_6_1">
<path d="M .263 .316 L .43300004 .316 C .575 .316 .714 .42000003 .714 .532 C .714 .609 .648 .683 .517 .683 L .193 .683 C .17400001 .683 .163 .683 .163 .66400006 C .163 .652 .172 .652 .192 .652 C .205 .652 .223 .651 .235 .65000006 C .25100003 .648 .25700004 .64500007 .25700004 .634 C .25700004 .63000008 .256 .62700006 .25300003 .615 L .119 .078 C .109 .039 .10699999 .031000002 .028 .031000002 C .011 .031000002 0 .031000002 0 .012 C 0 0 .011999998 0 .015000001 0 C .043 0 .11400001 .003 .142 .003 C .163 .003 .185 .002 .206 .002 C .228 .002 .25000004 0 .27100004 0 C .27800004 0 .29100005 0 .29100005 .020000002 C .29100005 .031000002 .28200004 .031000002 .263 .031000002 C .226 .031000002 .198 .031000002 .198 .049000004 C .198 .055000005 .2 .060000004 .201 .066 L .263 .316 M .33500005 .614 C .344 .64900007 .34600003 .652 .38900004 .652 L .48500005 .652 C .568 .652 .621 .625 .621 .55600008 C .621 .517 .601 .43100003 .56200006 .395 C .512 .35000003 .45200003 .342 .40800003 .342 L .26700003 .342 L .33500005 .614 Z "/>
</symbol>
<use xlink:href="#font_6_1" transform="matrix(9.9626,0,0,-9.9626,88.76751,40.89801)" fill="#0000ff"/>
</g>
<path transform="matrix(1,0,0,-1,4.056,174.49)" d="M 82.68997 136.99794 C 82.68997 138.09842 81.79788 138.9905 80.69742 138.9905 C 79.59694 138.9905 78.70486 138.09842 78.70486 136.99794 C 78.70486 135.89748 79.59694 135.00539 80.69742 135.00539 C 81.79788 135.00539 82.68997 135.89748 82.68997 136.99794 Z M 80.69742 136.99794 " fill="#000080"/>
<path transform="matrix(1,0,0,-1,4.056,174.49)" stroke-width="1" stroke-linecap="butt" stroke-miterlimit="10" stroke-linejoin="miter" fill="none" stroke="#000080" d="M 82.68997 136.99794 C 82.68997 138.09842 81.79788 138.9905 80.69742 138.9905 C 79.59694 138.9905 78.70486 138.09842 78.70486 136.99794 C 78.70486 135.89748 79.59694 135.00539 80.69742 135.00539 C 81.79788 135.00539 82.68997 135.89748 82.68997 136.99794 Z M 80.69742 136.99794 "/>
<path transform="matrix(1,0,0,-1,4.056,174.49)" d="M 115.1946 24.39688 C 115.1946 25.49736 114.3025 26.38943 113.20204 26.38943 C 112.10156 26.38943 111.20949 25.49736 111.20949 24.39688 C 111.20949 23.29642 112.10156 22.40433 113.20204 22.40433 C 114.3025 22.40433 115.1946 23.29642 115.1946 24.39688 Z M 113.20204 24.39688 " fill="#800000"/>
<path transform="matrix(1,0,0,-1,4.056,174.49)" stroke-width="1" stroke-linecap="butt" stroke-miterlimit="10" stroke-linejoin="miter" fill="none" stroke="#800000" d="M 115.1946 24.39688 C 115.1946 25.49736 114.3025 26.38943 113.20204 26.38943 C 112.10156 26.38943 111.20949 25.49736 111.20949 24.39688 C 111.20949 23.29642 112.10156 22.40433 113.20204 22.40433 C 114.3025 22.40433 115.1946 23.29642 115.1946 24.39688 Z M 113.20204 24.39688 "/>
<path transform="matrix(1,0,0,-1,4.056,174.49)" d="M 50.18533 24.39688 C 50.18533 25.49736 49.29324 26.38943 48.19278 26.38943 C 47.0923 26.38943 46.20023 25.49736 46.20023 24.39688 C 46.20023 23.29642 47.0923 22.40433 48.19278 22.40433 C 49.29324 22.40433 50.18533 23.29642 50.18533 24.39688 Z M 48.19278 24.39688 " fill="#800000"/>
<path transform="matrix(1,0,0,-1,4.056,174.49)" stroke-width="1" stroke-linecap="butt" stroke-miterlimit="10" stroke-linejoin="miter" fill="none" stroke="#800000" d="M 50.18533 24.39688 C 50.18533 25.49736 49.29324 26.38943 48.19278 26.38943 C 47.0923 26.38943 46.20023 25.49736 46.20023 24.39688 C 46.20023 23.29642 47.0923 22.40433 48.19278 22.40433 C 49.29324 22.40433 50.18533 23.29642 50.18533 24.39688 Z M 48.19278 24.39688 "/>
<symbol id="font_6_2">
<path d="M .305 .31300003 C .311 .33900003 .334 .43100003 .404 .43100003 C .409 .43100003 .433 .43100003 .454 .418 C .426 .41300003 .40600003 .388 .40600003 .36400003 C .40600003 .34800003 .417 .32900004 .444 .32900004 C .46600003 .32900004 .498 .34700004 .498 .38700003 C .498 .43900005 .439 .45300005 .405 .45300005 C .347 .45300005 .312 .40000005 .3 .37700004 C .275 .44300003 .221 .45300005 .19200002 .45300005 C .08800001 .45300005 .031000002 .32400004 .031000002 .29900003 C .031000002 .28900004 .041 .28900004 .043000007 .28900004 C .051000008 .28900004 .054000006 .291 .056 .3 C .09 .40600003 .156 .43100003 .19000001 .43100003 C .209 .43100003 .244 .42200003 .244 .36400003 C .244 .33300004 .22700002 .26600004 .19000001 .126 C .17400001 .064 .13900002 .022000002 .095000009 .022000002 C .08900001 .022000002 .06600001 .022000002 .045 .035 C .07000001 .040000004 .09200001 .061 .09200001 .089 C .09200001 .116000007 .07000001 .124000009 .055000009 .124000009 C .025 .124000009 0 .098000008 0 .06600001 C 0 .020000002 .050000006 0 .094000007 0 C .16000001 0 .19600001 .07000001 .19900002 .076000008 C .21100001 .039 .24700003 0 .307 0 C .41 0 .467 .12900001 .467 .15400002 C .467 .16400002 .458 .16400002 .455 .16400002 C .446 .16400002 .444 .16000001 .442 .15300001 C .409 .046 .341 .022000002 .30900003 .022000002 C .27 .022000002 .254 .054 .254 .08800001 C .254 .11000001 .26 .13200002 .271 .17600002 L .305 .31300003 Z "/>
</symbol>
<use xlink:href="#font_6_2" transform="matrix(9.9626,0,0,-9.9626,169.29091,96.031589)"/>
<symbol id="font_6_3">
<path d="M .45700003 .586 C .461 .6 .461 .602 .461 .609 C .461 .62700006 .447 .63600006 .432 .63600006 C .42200003 .63600006 .40600003 .63 .397 .615 C .395 .61 .387 .579 .38300003 .561 C .37600003 .535 .36900003 .508 .363 .48100005 L .318 .301 C .314 .286 .271 .21600002 .20500002 .21600002 C .15400002 .21600002 .143 .26000003 .143 .29700003 C .143 .34300003 .16000001 .40500004 .194 .49300004 C .21000001 .53400006 .21400002 .545 .21400002 .56500008 C .21400002 .61 .18200001 .6470001 .13200002 .6470001 C .037 .6470001 0 .50200006 0 .49300004 C 0 .48300005 .01 .48300005 .012 .48300005 C .022000002 .48300005 .023 .485 .028000003 .50100007 C .055000009 .595 .095000009 .625 .12900001 .625 C .13700001 .625 .15400002 .625 .15400002 .59300008 C .15400002 .568 .14400001 .54200008 .13700001 .523 C .097 .41700004 .079 .36 .079 .31300003 C .079 .224 .142 .194 .201 .194 C .24000003 .194 .274 .21100001 .30200003 .23900002 C .289 .187 .277 .13800001 .237 .08500001 C .21100001 .051 .17300001 .022 .127 .022 C .113000009 .022 .068 .025000006 .051000008 .06400001 C .067 .06400001 .080000009 .06400001 .094000007 .076000008 C .104 .08500001 .11400001 .098000008 .11400001 .117000009 C .11400001 .148 .087000008 .15200001 .07700001 .15200001 C .054000006 .15200001 .021 .136 .021 .087000008 C .021 .037 .065000008 0 .127 0 C .23 0 .333 .091000009 .361 .20400001 L .45700003 .586 Z "/>
</symbol>
<use xlink:href="#font_6_3" transform="matrix(9.9626,0,0,-9.9626,82.43592,9.651342)"/>
</svg>
