<?xml version="1.0" encoding="UTF-8" standalone="no"?>
<!DOCTYPE svg PUBLIC "-//W3C//DTD SVG 1.1//EN" "http://www.w3.org/Graphics/SVG/1.1/DTD/svg11.dtd">
<svg xmlns="http://www.w3.org/2000/svg" xmlns:xlink="http://www.w3.org/1999/xlink" version="1.1" width="331.376pt" height="184.478pt" viewBox="0 0 331.376 184.478">
<path transform="matrix(1,0,0,-1,.228,184.27899)" stroke-width="1" stroke-linecap="butt" stroke-miterlimit="10" stroke-linejoin="miter" fill="none" stroke="#929292" d="M 9.98523 83.46188 L 9.98523 87.71358 M 84.63676 83.46188 L 84.63676 87.71358 M 233.93984 83.46188 L 233.93984 87.71358 M 308.68647 83.46188 L 308.68647 87.71358 "/>
<path transform="matrix(1,0,0,-1,.228,184.27899)" stroke-width="1" stroke-linecap="butt" stroke-miterlimit="10" stroke-linejoin="miter" fill="none" stroke="#929292" d="M 157.16245 38.03899 L 161.41414 38.03899 M 157.16245 133.13649 L 161.41414 133.13649 "/>
<path transform="matrix(1,0,0,-1,.228,184.27899)" stroke-width="1" stroke-linecap="butt" stroke-miterlimit="10" stroke-linejoin="miter" fill="none" stroke="#000000" d="M 0 85.58774 L 316.58409 85.58774 "/>
<path transform="matrix(1,0,0,-1,316.81208,98.69125)" d="M 1.99252 0 L -1.19551 1.59401 L 0 0 L -1.19551 -1.59401 "/>
<path transform="matrix(1,0,0,-1,.228,184.27899)" stroke-width="1" stroke-linecap="butt" stroke-miterlimit="10" stroke-linejoin="miter" fill="none" stroke="#000000" d="M 159.2883 0 L 159.2883 169.18297 "/>
<path transform="matrix(0,-1,-1,-0,159.5163,15.096024)" d="M 1.99252 0 L -1.19551 1.59401 L 0 0 L -1.19551 -1.59401 "/>
<symbol id="font_0_1">
<path d="M .57600006 0 C .59300008 0 .611 0 .611 .019999996 C .611 .040000008 .59300008 .040000008 .57600006 .040000008 L .035000005 .040000008 C .018 .040000008 0 .040000008 0 .019999996 C 0 0 .018 0 .035000005 0 L .57600006 0 Z "/>
</symbol>
<use xlink:href="#font_0_1" transform="matrix(9.9626,0,0,-9.9626,4.147896,107.8576)"/>
<symbol id="font_1_1">
<path d="M .23800002 .38400004 L .351 .38400004 C .31800003 .23600002 .30900003 .19300002 .30900003 .126 C .30900003 .111 .30900003 .08400001 .317 .05 C .327 .0060000007 .338 0 .35300002 0 C .373 0 .39400003 .018000002 .39400003 .038000004 C .39400003 .044 .39400003 .046 .388 .060000004 C .359 .13200002 .359 .19700001 .359 .22500003 C .359 .27800004 .366 .33200003 .377 .38400004 L .491 .38400004 C .504 .38400004 .54 .38400004 .54 .418 C .54 .44200004 .519 .44200004 .5 .44200004 L .165 .44200004 C .143 .44200004 .105 .44200004 .061000006 .395 C .026000003 .35600005 0 .31000004 0 .305 C 0 .30400003 0 .29500003 .012 .29500003 C .020000002 .29500003 .022000002 .29900003 .028000003 .307 C .077 .38400004 .135 .38400004 .15500002 .38400004 L .21200001 .38400004 C .18000002 .263 .12600002 .14200002 .08400001 .051000004 C .076000008 .036000004 .076000008 .034 .076000008 .027000003 C .076000008 .008000001 .092 0 .105 0 C .135 0 .143 .028 .15500002 .065000008 C .16900002 .111 .16900002 .113000009 .18200001 .16300002 L .23800002 .38400004 Z "/>
</symbol>
<use xlink:href="#font_1_1" transform="matrix(9.9626,0,0,-9.9626,11.337991,110.25858)"/>
<use xlink:href="#font_0_1" transform="matrix(9.9626,0,0,-9.9626,73.816898,109.5186)"/>
<symbol id="font_1_2">
<path d="M .384 .962 C .38900004 .975 .38900004 .97900006 .38900004 .98 C .38900004 .99100008 .38000003 1 .36900003 1 C .36200003 1 .35500003 .99700006 .352 .99100008 L .004999999 .037999989 C 0 .024999991 0 .020999983 0 .019999996 C 0 .008999988 .009 0 .02 0 C .033000005 0 .036000004 .0069999846 .042 .023999989 L .384 .962 Z "/>
</symbol>
<use xlink:href="#font_1_1" transform="matrix(9.9626,0,0,-9.9626,81.00799,111.919589)"/>
<use xlink:href="#font_1_2" transform="matrix(9.9626,0,0,-9.9626,87.32427,114.300647)"/>
<symbol id="font_2_4">
<path d="M .07700001 .07700001 L .18300002 .18 C .33900003 .31800003 .39900003 .372 .39900003 .47200004 C .39900003 .586 .30900003 .666 .18700002 .666 C .074 .666 0 .574 0 .485 C 0 .42900003 .05 .42900003 .053000008 .42900003 C .07000001 .42900003 .105000007 .441 .105000007 .48200003 C .105000007 .508 .08700001 .53400006 .052000006 .53400006 C .044000005 .53400006 .042000008 .53400006 .039 .53300008 C .062000004 .59800007 .11600001 .63500007 .17400001 .63500007 C .26500003 .63500007 .308 .554 .308 .47200004 C .308 .39200003 .25800003 .31300003 .20300003 .25100003 L .011000004 .037 C 0 .026 0 .024 0 0 L .37100003 0 L .39900003 .17400001 L .374 .17400001 C .36900003 .14400001 .36200003 .1 .352 .085 C .345 .07700001 .279 .07700001 .257 .07700001 L .07700001 .07700001 Z "/>
</symbol>
<use xlink:href="#font_2_4" transform="matrix(9.9626,0,0,-9.9626,92.25413,111.81)"/>
<use xlink:href="#font_1_1" transform="matrix(9.9626,0,0,-9.9626,226.43399,111.919589)"/>
<use xlink:href="#font_1_2" transform="matrix(9.9626,0,0,-9.9626,232.75028,114.300647)"/>
<use xlink:href="#font_2_4" transform="matrix(9.9626,0,0,-9.9626,237.68112,111.81)"/>
<use xlink:href="#font_1_1" transform="matrix(9.9626,0,0,-9.9626,306.16099,108.73659)"/>
<use xlink:href="#font_0_1" transform="matrix(9.9626,0,0,-9.9626,141.96588,146.7436)"/>
<symbol id="font_2_3">
<path d="M .205 .64000007 C .205 .66400006 .205 .666 .18200003 .666 C .120000008 .60200008 .032000007 .60200008 0 .60200008 L 0 .57100006 C .020000004 .57100006 .07900001 .57100006 .13100001 .597 L .13100001 .079 C .13100001 .043 .128 .031000002 .038000004 .031000002 L .0060000049 .031000002 L .0060000049 0 C .04100001 .003 .128 .003 .168 .003 C .20800002 .003 .29500003 .003 .33000005 0 L .33000005 .031000002 L .29800005 .031000002 C .20800002 .031000002 .205 .042000005 .205 .079 L .205 .64000007 Z "/>
</symbol>
<use xlink:href="#font_2_3" transform="matrix(9.9626,0,0,-9.9626,149.77367,149.035)"/>
<use xlink:href="#font_2_3" transform="matrix(9.9626,0,0,-9.9626,149.77367,54.35399)"/>
<clipPath id="cp3">
<path transform="matrix(1,0,0,-1,.228,184.27899)" d="M 0 0 L 318.5766 0 L 318.5766 171.17549 L 0 171.17549 Z "/>
</clipPath>
<g clip-path="url(#cp3)">
<path transform="matrix(1,0,0,-1,.228,184.27899)" stroke-width="1.19553" stroke-linecap="butt" stroke-miterlimit="10" stroke-linejoin="miter" fill="none" stroke="#000080" d="M 0 95.42557 C 0 95.42557 2.32494 93.14043 3.21788 92.25693 C 4.11084 91.37341 5.54285 89.94774 6.43579 89.05783 C 7.32875 88.16792 8.76076 86.73515 9.6537 85.84308 C 10.54665 84.95099 11.97867 83.51872 12.87161 82.6283 C 13.76456 81.73787 15.19656 80.31003 16.08951 79.4254 C 16.98245 78.54079 18.41447 77.12721 19.30742 76.25249 C 20.20036 75.37778 21.63237 73.98213 22.52533 73.12093 C 23.41827 72.25972 24.85028 70.88887 25.74324 70.04549 C 26.63618 69.20209 28.06819 67.86377 28.96115 67.04228 C 29.8541 66.2208 31.28609 64.92079 32.17903 64.12471 C 33.07199 63.32863 34.504 62.07164 35.39694 61.30458 C 36.2899 60.53752 37.72191 59.33073 38.61485 58.5962 C 39.50781 57.86166 40.93982 56.70909 41.83276 56.01051 C 42.72571 55.31194 44.15773 54.22073 45.05067 53.56128 C 45.94362 52.90181 47.37563 51.87485 48.26857 51.25754 C 49.16151 50.64023 50.59354 49.68463 51.48648 49.11212 C 52.37943 48.53963 53.81143 47.65613 54.70439 47.13124 C 55.59734 46.60637 57.02934 45.80363 57.9223 45.32916 C 58.81525 44.85469 60.24724 44.13391 61.1402 43.71155 C 62.03314 43.28918 63.46515 42.65353 64.3581 42.28508 C 65.25105 41.91664 66.68306 41.36852 67.576 41.05594 C 68.46896 40.74338 69.90097 40.28767 70.79391 40.03223 C 71.68687 39.7768 73.11888 39.41211 74.01183 39.21486 C 74.90477 39.01762 76.33678 38.74841 77.22972 38.61052 C 78.12267 38.47264 79.55469 38.29901 80.44763 38.2211 C 81.34058 38.14319 82.7726 38.06638 83.66554 38.04897 C 84.55849 38.03156 85.9905 38.05257 86.88345 38.09557 C 87.7764 38.13858 89.2084 38.25589 90.10136 38.359 C 90.99431 38.4621 92.4263 38.67607 93.31926 38.83875 C 94.2122 39.00143 95.64421 39.30988 96.53716 39.53154 C 97.43011 39.75319 98.86212 40.15674 99.75507 40.43639 C 100.64803 40.71605 102.08003 41.21107 102.97298 41.54713 C 103.86594 41.8832 105.29793 42.46724 106.19087 42.85852 C 107.08382 43.2498 108.51584 43.92233 109.40878 44.36725 C 110.30173 44.81216 111.73375 45.56903 112.6267 46.06522 C 113.51964 46.56139 114.95164 47.39825 115.8446 47.94339 C 116.73755 48.48851 118.16956 49.40265 119.06252 49.99416 C 119.95546 50.58566 121.38747 51.57137 122.28043 52.2066 C 123.17337 52.84186 124.60538 53.89648 125.49832 54.57263 C 126.39128 55.24878 127.82329 56.366 128.71623 57.07988 C 129.60919 57.79376 131.0412 58.96928 131.93415 59.71788 C 132.8271 60.46648 134.25911 61.69537 135.15206 62.47523 C 136.045 63.2551 137.47702 64.53125 138.36997 65.33862 C 139.26291 66.14601 140.69493 67.46313 141.58788 68.29425 C 142.48082 69.12538 143.91284 70.47751 144.80579 71.32881 C 145.69873 72.18013 147.13074 73.56253 148.0237 74.42995 C 148.91664 75.29735 150.34865 76.70105 151.24161 77.58052 C 152.13455 78.46 153.56656 79.88107 154.45952 80.76866 C 155.35247 81.65627 156.78447 83.08632 157.67742 83.97772 C 158.57038 84.86914 160.00238 86.30196 160.89533 87.19345 C 161.78829 88.08493 163.22029 89.51534 164.11324 90.403 C 165.0062 91.29065 166.4382 92.7116 167.33115 93.59114 C 168.22409 94.47069 169.6561 95.87486 170.54904 96.74219 C 171.44199 97.60953 172.87403 98.99113 173.76697 99.84238 C 174.65991 100.6936 176.09194 102.04608 176.98488 102.87741 C 177.87783 103.70872 179.30983 105.02655 180.20279 105.834 C 181.09574 106.64143 182.52774 107.91718 183.4207 108.6969 C 184.31365 109.47662 185.74564 110.70512 186.63858 111.45377 C 187.53154 112.20242 188.96356 113.37871 189.8565 114.09273 C 190.74947 114.80675 192.18146 115.92381 193.0744 116.59998 C 193.96736 117.27612 195.39939 118.33055 196.29233 118.96599 C 197.18527 119.60144 198.61728 120.58823 199.51023 121.17987 C 200.40317 121.77151 201.83519 122.6851 202.72814 123.23018 C 203.62108 123.77524 205.05312 124.61218 205.94606 125.10835 C 206.839 125.60452 208.271 126.36147 209.16396 126.8063 C 210.0569 127.25114 211.4889 127.92316 212.38187 128.31456 C 213.27481 128.70597 214.70682 129.29106 215.59978 129.62738 C 216.49272 129.96372 217.92473 130.45903 218.81768 130.7386 C 219.71063 131.01819 221.14263 131.42084 222.03557 131.6425 C 222.92853 131.86415 224.36054 132.17343 225.25348 132.33625 C 226.14644 132.49906 227.57845 132.7129 228.47139 132.816 C 229.36434 132.9191 230.79636 133.03635 231.6893 133.07942 C 232.58225 133.12248 234.01427 133.14385 234.90721 133.1265 C 235.80016 133.10915 237.23217 133.03221 238.1251 132.95436 C 239.01805 132.87651 240.45006 132.70322 241.34302 132.56542 C 242.23596 132.4276 243.66797 132.15805 244.56093 131.96108 C 245.45388 131.76409 246.88588 131.401 247.77884 131.14562 C 248.67179 130.89025 250.10379 130.43303 250.99674 130.12046 C 251.8897 129.80789 253.32169 129.261 254.21463 128.89275 C 255.10759 128.52449 256.5396 127.88876 257.43254 127.46628 C 258.3255 127.04381 259.7575 126.32227 260.65046 125.84773 C 261.5434 125.3732 262.97544 124.5708 263.86836 124.04611 C 264.7613 123.52144 266.1933 122.63863 267.08628 122.06618 C 267.9792 121.49373 269.41123 120.53767 270.30418 119.92032 C 271.1971 119.30295 272.62913 118.27603 273.5221 117.61658 C 274.415 116.9571 275.84703 115.8658 276.74 115.16734 C 277.63294 114.46889 279.06495 113.31699 279.9579 112.58258 C 280.85087 111.84818 282.28285 110.64127 283.17579 109.8742 C 284.06874 109.10715 285.50077 107.85017 286.39369 107.0541 C 287.28666 106.25801 288.71867 104.95792 289.6116 104.13649 C 290.50456 103.31506 291.93659 101.97705 292.8295 101.1338 C 293.72248 100.29054 295.15449 98.92003 296.04743 98.05882 C 296.94038 97.19762 298.37239 95.80165 299.26533 94.92679 C 300.15827 94.05193 301.59028 92.63792 302.48323 91.75337 C 303.37617 90.86882 304.80818 89.44186 305.70115 88.55144 C 306.5941 87.66101 308.0261 86.2278 308.91905 85.33572 C 309.812 84.44363 311.244 83.01167 312.13694 82.1219 C 313.02989 81.23213 314.4619 79.80626 315.35484 78.92282 C 316.2478 78.0394 318.57276 75.75465 318.57276 75.75465 "/>
<symbol id="font_1_7">
<path d="M .45700003 .586 C .461 .6 .461 .602 .461 .609 C .461 .62700006 .447 .63600006 .432 .63600006 C .42200003 .63600006 .40600003 .63 .397 .615 C .395 .61 .387 .579 .38300003 .561 C .37600003 .535 .36900003 .508 .363 .48100005 L .318 .301 C .314 .286 .271 .21600002 .20500002 .21600002 C .15400002 .21600002 .143 .26000003 .143 .29700003 C .143 .34300003 .16000001 .40500004 .194 .49300004 C .21000001 .53400006 .21400002 .545 .21400002 .56500008 C .21400002 .61 .18200001 .6470001 .13200002 .6470001 C .037 .6470001 0 .50200006 0 .49300004 C 0 .48300005 .01 .48300005 .012 .48300005 C .022000002 .48300005 .023 .485 .028000003 .50100007 C .055000009 .595 .095000009 .625 .12900001 .625 C .13700001 .625 .15400002 .625 .15400002 .59300008 C .15400002 .568 .14400001 .54200008 .13700001 .523 C .097 .41700004 .079 .36 .079 .31300003 C .079 .224 .142 .194 .201 .194 C .24000003 .194 .274 .21100001 .30200003 .23900002 C .289 .187 .277 .13800001 .237 .08500001 C .21100001 .051 .17300001 .022 .127 .022 C .113000009 .022 .068 .025000006 .051000008 .06400001 C .067 .06400001 .080000009 .06400001 .094000007 .076000008 C .104 .08500001 .11400001 .098000008 .11400001 .117000009 C .11400001 .148 .087000008 .15200001 .07700001 .15200001 C .054000006 .15200001 .021 .136 .021 .087000008 C .021 .037 .065000008 0 .127 0 C .23 0 .333 .091000009 .361 .20400001 L .45700003 .586 Z "/>
</symbol>
<use xlink:href="#font_1_7" transform="matrix(9.9626,0,0,-9.9626,19.611916,67.56433)" fill="#000080"/>
<symbol id="font_2_5">
<path d="M .63100007 .19400002 C .646 .19400002 .665 .19400002 .665 .214 C .665 .23400001 .646 .23400001 .632 .23400001 L .033 .23400001 C .019000002 .23400001 0 .23400001 0 .214 C 0 .19400002 .019000002 .19400002 .034 .19400002 L .63100007 .19400002 M .632 0 C .646 0 .665 0 .665 .02000001 C .665 .040000008 .646 .040000008 .63100007 .040000008 L .034 .040000008 C .019000002 .040000008 0 .040000008 0 .02000001 C 0 0 .019000002 0 .033 0 L .632 0 Z "/>
</symbol>
<use xlink:href="#font_2_5" transform="matrix(9.9626,0,0,-9.9626,27.890906,64.19697)" fill="#000080"/>
<symbol id="font_1_5">
<path d="M .314 .605 L .4 .605 C .42000003 .605 .43 .605 .43 .625 C .43 .63600006 .42000003 .63600006 .40300004 .63600006 L .32000003 .63600006 L .34100003 .75 C .34500004 .771 .35900004 .842 .365 .8540001 C .374 .873 .39100004 .888 .41200004 .888 C .416 .888 .44200004 .888 .461 .87 C .41700004 .86600008 .407 .8310001 .407 .816 C .407 .793 .425 .781 .444 .781 C .47 .781 .49900005 .8030001 .49900005 .8410001 C .49900005 .8870001 .45300005 .9100001 .41200004 .9100001 C .37800003 .9100001 .31500004 .8920001 .28500004 .793 C .279 .7720001 .27600003 .7620001 .252 .63600006 L .18300002 .63600006 C .164 .63600006 .15300001 .63600006 .15300001 .61700007 C .15300001 .605 .162 .605 .18100001 .605 L .24700001 .605 L .172 .21000001 C .15400002 .113000009 .13700001 .022 .08500001 .022 C .081 .022 .056 .022 .037 .040000008 C .083000008 .043000014 .09200001 .07900001 .09200001 .094000007 C .09200001 .117000009 .074 .12900001 .055 .12900001 C .029 .12900001 0 .10700001 0 .069000009 C 0 .024000004 .044 0 .08500001 0 C .14 0 .18 .059 .19800002 .09700001 C .23000002 .16000001 .25300003 .28100003 .254 .28800003 L .314 .605 Z "/>
</symbol>
<use xlink:href="#font_1_5" transform="matrix(9.9626,0,0,-9.9626,38.377019,67.56433)" fill="#000080"/>
<symbol id="font_2_1">
<path d="M .23200003 .00999999 C .23200003 .012999982 .23200003 .014999986 .215 .03199999 C .09 .15799999 .058 .347 .058 .5 C .058 .674 .096 .84800007 .21900001 .97300007 C .23200003 .985 .23200003 .98700007 .23200003 .99 C .23200003 .99700006 .22800002 1 .222 1 C .21200001 1 .12200001 .93200007 .06299999 .805 C .012000002 .69500008 0 .584 0 .5 C 0 .422 .011 .301 .066 .188 C .126 .065 .21200001 0 .222 0 C .22800002 0 .23200003 .0029999912 .23200003 .00999999 Z "/>
</symbol>
<use xlink:href="#font_2_1" transform="matrix(9.9626,0,0,-9.9626,44.785299,68.01264)" fill="#000080"/>
<symbol id="font_1_6">
<path d="M .305 .31300003 C .311 .33900003 .334 .43100003 .404 .43100003 C .409 .43100003 .433 .43100003 .454 .418 C .426 .41300003 .40600003 .388 .40600003 .36400003 C .40600003 .34800003 .417 .32900004 .444 .32900004 C .46600003 .32900004 .498 .34700004 .498 .38700003 C .498 .43900005 .439 .45300005 .405 .45300005 C .347 .45300005 .312 .40000005 .3 .37700004 C .275 .44300003 .221 .45300005 .19200002 .45300005 C .08800001 .45300005 .031000002 .32400004 .031000002 .29900003 C .031000002 .28900004 .041 .28900004 .043000007 .28900004 C .051000008 .28900004 .054000006 .291 .056 .3 C .09 .40600003 .156 .43100003 .19000001 .43100003 C .209 .43100003 .244 .42200003 .244 .36400003 C .244 .33300004 .22700002 .26600004 .19000001 .126 C .17400001 .064 .13900002 .022000002 .095000009 .022000002 C .08900001 .022000002 .06600001 .022000002 .045 .035 C .07000001 .040000004 .09200001 .061 .09200001 .089 C .09200001 .116000007 .07000001 .124000009 .055000009 .124000009 C .025 .124000009 0 .098000008 0 .06600001 C 0 .020000002 .050000006 0 .094000007 0 C .16000001 0 .19600001 .07000001 .19900002 .076000008 C .21100001 .039 .24700003 0 .307 0 C .41 0 .467 .12900001 .467 .15400002 C .467 .16400002 .458 .16400002 .455 .16400002 C .446 .16400002 .444 .16000001 .442 .15300001 C .409 .046 .341 .022000002 .30900003 .022000002 C .27 .022000002 .254 .054 .254 .08800001 C .254 .11000001 .26 .13200002 .271 .17600002 L .305 .31300003 Z "/>
</symbol>
<use xlink:href="#font_1_6" transform="matrix(9.9626,0,0,-9.9626,47.961915,65.631587)" fill="#000080"/>
<symbol id="font_2_2">
<path d="M .232 .5 C .232 .578 .22100002 .699 .16600001 .81200006 C .106 .93500009 .020000004 1 .009999998 1 C .0040000008 1 0 .99600008 0 .99 C 0 .98700007 0 .985 .019000002 .967 C .117000009 .86800006 .174 .709 .174 .5 C .174 .329 .137 .153 .012999997 .026999996 C 0 .014999986 0 .012999982 0 .00999999 C 0 .003999993 .0040000008 0 .009999998 0 C .020000004 0 .11000001 .06799999 .169 .195 C .22 .305 .232 .416 .232 .5 Z "/>
</symbol>
<symbol id="font_2_8">
<path d="M .17500001 .20500002 C .197 .20100002 .279 .18500002 .279 .113000009 C .279 .062000004 .24400002 .022000002 .16600001 .022000002 C .082 .022000002 .046000005 .079 .027000003 .16400002 C .024000004 .17700002 .023000002 .18100001 .013000004 .18100001 C 0 .18100001 0 .17400001 0 .15600002 L 0 .024 C 0 .0070000009 0 0 .011000004 0 C .016000003 0 .017 .0010000002 .036000007 .020000002 C .038000004 .022000002 .038000004 .024 .056 .043 C .1 .0010000002 .14500001 0 .16600001 0 C .28100003 0 .32700003 .067 .32700003 .13900002 C .32700003 .19200002 .29700003 .22200002 .28500004 .23400001 C .25200004 .26600004 .213 .27400003 .171 .28200004 C .115 .293 .048 .30600003 .048 .36400003 C .048 .39900003 .07400001 .44000004 .16 .44000004 C .27 .44000004 .27500005 .35000003 .277 .31900005 C .27800004 .31000004 .28700004 .31000004 .28900004 .31000004 C .30200003 .31000004 .30200003 .31500004 .30200003 .33400003 L .30200003 .43500004 C .30200003 .45200003 .30200003 .45900003 .291 .45900003 C .286 .45900003 .284 .45900003 .27100004 .44700004 C .26800005 .44300003 .25800003 .43400003 .254 .43100003 C .21600002 .45900003 .17500001 .45900003 .16 .45900003 C .038000004 .45900003 0 .39200003 0 .33600004 C 0 .30100004 .016000003 .27300004 .043000007 .25100003 C .075 .22500003 .10300001 .21900001 .17500001 .20500002 Z "/>
</symbol>
<symbol id="font_2_6">
<path d="M .144 .44200004 L .0040000008 .43100003 L .0040000008 .4 C .069000009 .4 .07800001 .39400003 .07800001 .34500004 L .07800001 .076000008 C .07800001 .031000002 .067 .031000002 0 .031000002 L 0 0 C .032000007 .001 .086 .003 .11000001 .003 C .14500001 .003 .18 .001 .21400002 0 L .21400002 .031000002 C .148 .031000002 .144 .036000004 .144 .075 L .144 .44200004 M .148 .61600008 C .148 .648 .123 .669 .095000009 .669 C .064 .669 .042000005 .642 .042000005 .61600008 C .042000005 .58900007 .064 .563 .095000009 .563 C .123 .563 .148 .58400008 .148 .61600008 Z "/>
</symbol>
<symbol id="font_2_7">
<path d="M .07800001 .344 L .07800001 .076000008 C .07800001 .031000002 .067 .031000002 0 .031000002 L 0 0 C .035 .001 .08600001 .003 .113000009 .003 C .139 .003 .191 .001 .225 0 L .225 .031000002 C .158 .031000002 .147 .031000002 .147 .076000008 L .147 .26000003 C .147 .36400003 .218 .42000003 .282 .42000003 C .345 .42000003 .356 .36600004 .356 .30900003 L .356 .076000008 C .356 .031000002 .345 .031000002 .278 .031000002 L .278 0 C .31300003 .001 .36400003 .003 .391 .003 C .41700004 .003 .46900005 .001 .503 0 L .503 .031000002 C .451 .031000002 .42600004 .031000002 .425 .061000006 L .425 .252 C .425 .33800004 .425 .36900003 .39400003 .40500004 C .38000003 .42200003 .347 .44200004 .289 .44200004 C .216 .44200004 .169 .39900003 .141 .337 L .141 .44200004 L 0 .43100003 L 0 .4 C .07000001 .4 .07800001 .393 .07800001 .344 Z "/>
</symbol>
<use xlink:href="#font_2_2" transform="matrix(9.9626,0,0,-9.9626,53.934869,68.01264)" fill="#000080"/>
<use xlink:href="#font_2_5" transform="matrix(9.9626,0,0,-9.9626,60.56996,64.19697)" fill="#000080"/>
<use xlink:href="#font_2_8" transform="matrix(9.9626,0,0,-9.9626,70.86132,65.631587)" fill="#000080"/>
<use xlink:href="#font_2_6" transform="matrix(9.9626,0,0,-9.9626,74.78658,65.521999)" fill="#000080"/>
<use xlink:href="#font_2_7" transform="matrix(9.9626,0,0,-9.9626,77.54622,65.521999)" fill="#000080"/>
<use xlink:href="#font_2_1" transform="matrix(9.9626,0,0,-9.9626,83.74296,68.01264)" fill="#000080"/>
<use xlink:href="#font_1_6" transform="matrix(9.9626,0,0,-9.9626,86.919918,65.631587)" fill="#000080"/>
<use xlink:href="#font_2_2" transform="matrix(9.9626,0,0,-9.9626,92.89287,68.01264)" fill="#000080"/>
<symbol id="font_1_3">
<path d="M .263 .316 L .43300004 .316 C .575 .316 .714 .42000003 .714 .532 C .714 .609 .648 .683 .517 .683 L .193 .683 C .17400001 .683 .163 .683 .163 .66400006 C .163 .652 .172 .652 .192 .652 C .205 .652 .223 .651 .235 .65000006 C .25100003 .648 .25700004 .64500007 .25700004 .634 C .25700004 .63000008 .256 .62700006 .25300003 .615 L .119 .078 C .109 .039 .10699999 .031000002 .028 .031000002 C .011 .031000002 0 .031000002 0 .012 C 0 0 .011999998 0 .015000001 0 C .043 0 .11400001 .003 .142 .003 C .163 .003 .185 .002 .206 .002 C .228 .002 .25000004 0 .27100004 0 C .27800004 0 .29100005 0 .29100005 .020000002 C .29100005 .031000002 .28200004 .031000002 .263 .031000002 C .226 .031000002 .198 .031000002 .198 .049000004 C .198 .055000005 .2 .060000004 .201 .066 L .263 .316 M .33500005 .614 C .344 .64900007 .34600003 .652 .38900004 .652 L .48500005 .652 C .568 .652 .621 .625 .621 .55600008 C .621 .517 .601 .43100003 .56200006 .395 C .512 .35000003 .45200003 .342 .40800003 .342 L .26700003 .342 L .33500005 .614 Z "/>
</symbol>
<use xlink:href="#font_1_3" transform="matrix(9.9626,0,0,-9.9626,162.2045,108.277)" fill="#000080"/>
<symbol id="font_1_4">
<path d="M .38900004 .2 C .544 .259 .691 .43700005 .691 .63 C .691 .791 .585 .89900007 .43600003 .89900007 C .22000003 .89900007 0 .67200008 0 .439 C 0 .273 .11200001 .172 .256 .172 C .28100003 .172 .31500004 .176 .35400004 .187 C .35000003 .125 .35000003 .123 .35000003 .11 C .35000003 .078 .35000003 0 .43300004 0 C .552 0 .6 .183 .6 .194 C .6 .201 .593 .20400001 .589 .20400001 C .58100005 .20400001 .579 .199 .577 .193 C .55300006 .122 .49500004 .097 .46 .097 C .41400004 .097 .39900003 .124000009 .38900004 .2 M .20000002 .208 C .122 .23900001 .08800001 .317 .08800001 .407 C .08800001 .476 .114 .61800006 .19 .726 C .263 .828 .35700003 .874 .43000005 .874 C .53000006 .874 .603 .79600009 .603 .66200008 C .603 .56200006 .552 .328 .38400004 .23400001 C .37900005 .269 .36900003 .342 .29600004 .342 C .24300003 .342 .194 .292 .194 .24000001 C .194 .22 .20000002 .209 .20000002 .208 M .26200003 .19700001 C .24800003 .19700001 .21600002 .19700001 .21600002 .24000001 C .21600002 .28 .254 .32 .29600004 .32 C .33800004 .32 .35700003 .296 .35700003 .23500002 C .35700003 .22 .35600005 .21900001 .34600003 .215 C .32000003 .20400001 .29000003 .19700001 .26200003 .19700001 Z "/>
</symbol>
<use xlink:href="#font_1_4" transform="matrix(9.9626,0,0,-9.9626,309.64515,95.45274)" fill="#000080"/>
</g>
<path transform="matrix(1,0,0,-1,.228,184.27899)" d="M 161.28086 85.58774 C 161.28086 86.68822 160.38877 87.58029 159.2883 87.58029 C 158.18782 87.58029 157.29575 86.68822 157.29575 85.58774 C 157.29575 84.48727 158.18782 83.59518 159.2883 83.59518 C 160.38877 83.59518 161.28086 84.48727 161.28086 85.58774 Z M 159.2883 85.58774 " fill="#000080"/>
<path transform="matrix(1,0,0,-1,.228,184.27899)" stroke-width="1" stroke-linecap="butt" stroke-miterlimit="10" stroke-linejoin="miter" fill="none" stroke="#000080" d="M 161.28086 85.58774 C 161.28086 86.68822 160.38877 87.58029 159.2883 87.58029 C 158.18782 87.58029 157.29575 86.68822 157.29575 85.58774 C 157.29575 84.48727 158.18782 83.59518 159.2883 83.59518 C 160.38877 83.59518 161.28086 84.48727 161.28086 85.58774 Z M 159.2883 85.58774 "/>
<path transform="matrix(1,0,0,-1,.228,184.27899)" d="M 310.67903 85.58774 C 310.67903 86.68822 309.78694 87.58029 308.68647 87.58029 C 307.58598 87.58029 306.6939 86.68822 306.6939 85.58774 C 306.6939 84.48727 307.58598 83.59518 308.68647 83.59518 C 309.78694 83.59518 310.67903 84.48727 310.67903 85.58774 Z M 308.68647 85.58774 " fill="#000080"/>
<path transform="matrix(1,0,0,-1,.228,184.27899)" stroke-width="1" stroke-linecap="butt" stroke-miterlimit="10" stroke-linejoin="miter" fill="none" stroke="#000080" d="M 310.67903 85.58774 C 310.67903 86.68822 309.78694 87.58029 308.68647 87.58029 C 307.58598 87.58029 306.6939 86.68822 306.6939 85.58774 C 306.6939 84.48727 307.58598 83.59518 308.68647 83.59518 C 309.78694 83.59518 310.67903 84.48727 310.67903 85.58774 Z M 308.68647 85.58774 "/>
<use xlink:href="#font_1_6" transform="matrix(9.9626,0,0,-9.9626,322.6509,100.935588)"/>
<use xlink:href="#font_1_7" transform="matrix(9.9626,0,0,-9.9626,157.2099,9.652319)"/>
</svg>
