<?xml version="1.0" encoding="UTF-8" standalone="no"?>
<!DOCTYPE svg PUBLIC "-//W3C//DTD SVG 1.1//EN" "http://www.w3.org/Graphics/SVG/1.1/DTD/svg11.dtd">
<svg xmlns="http://www.w3.org/2000/svg" xmlns:xlink="http://www.w3.org/1999/xlink" version="1.1" width="174.161pt" height="174.691pt" viewBox="0 0 174.161 174.691">
<path transform="matrix(1,0,0,-1,.199,174.49199)" stroke-width="1" stroke-linecap="butt" stroke-miterlimit="10" stroke-linejoin="miter" fill="none" stroke="#cbcbcb" d="M 10.52585 0 L 10.52585 161.39636 M 45.61201 0 L 45.61201 161.39636 M 115.78435 0 L 115.78435 161.39636 M 150.87052 0 L 150.87052 161.39636 "/>
<path transform="matrix(1,0,0,-1,.199,174.49199)" stroke-width="1" stroke-linecap="butt" stroke-miterlimit="10" stroke-linejoin="miter" fill="none" stroke="#cbcbcb" d="M 0 10.52585 L 161.39636 10.52585 M 0 45.61201 L 161.39636 45.61201 M 0 115.78435 L 161.39636 115.78435 M 0 150.87052 L 161.39636 150.87052 "/>
<path transform="matrix(1,0,0,-1,.199,174.49199)" stroke-width="1" stroke-linecap="butt" stroke-miterlimit="10" stroke-linejoin="miter" fill="none" stroke="#929292" d="M 10.52585 78.57211 L 10.52585 82.82422 M 45.61201 78.57211 L 45.61201 82.82422 M 115.78435 78.57211 L 115.78435 82.82422 M 150.87052 78.57211 L 150.87052 82.82422 "/>
<path transform="matrix(1,0,0,-1,.199,174.49199)" stroke-width="1" stroke-linecap="butt" stroke-miterlimit="10" stroke-linejoin="miter" fill="none" stroke="#929292" d="M 78.57211 10.52585 L 82.82422 10.52585 M 78.57211 45.61201 L 82.82422 45.61201 M 78.57211 115.78435 L 82.82422 115.78435 M 78.57211 150.87052 L 82.82422 150.87052 "/>
<path transform="matrix(1,0,0,-1,.199,174.49199)" stroke-width="1" stroke-linecap="butt" stroke-miterlimit="10" stroke-linejoin="miter" fill="none" stroke="#000000" d="M 0 80.69818 L 159.40384 80.69818 "/>
<path transform="matrix(1,0,0,-1,159.60285,93.79381)" d="M 1.99252 0 L -1.19551 1.59401 L 0 0 L -1.19551 -1.59401 "/>
<path transform="matrix(1,0,0,-1,.199,174.49199)" stroke-width="1" stroke-linecap="butt" stroke-miterlimit="10" stroke-linejoin="miter" fill="none" stroke="#000000" d="M 80.69818 0 L 80.69818 159.40384 "/>
<path transform="matrix(0,-1,-1,-0,80.89718,15.08815)" d="M 1.99252 0 L -1.19551 1.59401 L 0 0 L -1.19551 -1.59401 "/>
<symbol id="font_0_1">
<path d="M .57600006 0 C .59300008 0 .611 0 .611 .019999996 C .611 .040000008 .59300008 .040000008 .57600006 .040000008 L .035000005 .040000008 C .018 .040000008 0 .040000008 0 .019999996 C 0 0 .018 0 .035000005 0 L .57600006 0 Z "/>
</symbol>
<use xlink:href="#font_0_1" transform="matrix(9.9626,0,0,-9.9626,5.1868956,103.569599)"/>
<symbol id="font_1_2">
<path d="M .07700001 .07700001 L .18300002 .18 C .33900003 .31800003 .39900003 .372 .39900003 .47200004 C .39900003 .586 .30900003 .666 .18700002 .666 C .074 .666 0 .574 0 .485 C 0 .42900003 .05 .42900003 .053000008 .42900003 C .07000001 .42900003 .105000007 .441 .105000007 .48200003 C .105000007 .508 .08700001 .53400006 .052000006 .53400006 C .044000005 .53400006 .042000008 .53400006 .039 .53300008 C .062000004 .59800007 .11600001 .63500007 .17400001 .63500007 C .26500003 .63500007 .308 .554 .308 .47200004 C .308 .39200003 .25800003 .31300003 .20300003 .25100003 L .011000004 .037 C 0 .026 0 .024 0 0 L .37100003 0 L .39900003 .17400001 L .374 .17400001 C .36900003 .14400001 .36200003 .1 .352 .085 C .345 .07700001 .279 .07700001 .257 .07700001 L .07700001 .07700001 Z "/>
</symbol>
<use xlink:href="#font_1_2" transform="matrix(9.9626,0,0,-9.9626,12.607129,105.86099)"/>
<use xlink:href="#font_0_1" transform="matrix(9.9626,0,0,-9.9626,40.2729,103.569599)"/>
<symbol id="font_1_1">
<path d="M .205 .64000007 C .205 .66400006 .205 .666 .18200003 .666 C .120000008 .60200008 .032000007 .60200008 0 .60200008 L 0 .57100006 C .020000004 .57100006 .07900001 .57100006 .13100001 .597 L .13100001 .079 C .13100001 .043 .128 .031000002 .038000004 .031000002 L .0060000049 .031000002 L .0060000049 0 C .04100001 .003 .128 .003 .168 .003 C .20800002 .003 .29500003 .003 .33000005 0 L .33000005 .031000002 L .29800005 .031000002 C .20800002 .031000002 .205 .042000005 .205 .079 L .205 .64000007 Z "/>
</symbol>
<use xlink:href="#font_1_1" transform="matrix(9.9626,0,0,-9.9626,48.080678,105.86099)"/>
<use xlink:href="#font_1_1" transform="matrix(9.9626,0,0,-9.9626,114.37767,105.86099)"/>
<use xlink:href="#font_1_2" transform="matrix(9.9626,0,0,-9.9626,149.07514,105.86099)"/>
<use xlink:href="#font_0_1" transform="matrix(9.9626,0,0,-9.9626,63.346899,164.46959)"/>
<use xlink:href="#font_1_2" transform="matrix(9.9626,0,0,-9.9626,70.76713,166.76099)"/>
<use xlink:href="#font_0_1" transform="matrix(9.9626,0,0,-9.9626,63.346899,129.38359)"/>
<use xlink:href="#font_1_1" transform="matrix(9.9626,0,0,-9.9626,71.15567,131.67499)"/>
<use xlink:href="#font_1_1" transform="matrix(9.9626,0,0,-9.9626,71.15567,61.91899)"/>
<use xlink:href="#font_1_2" transform="matrix(9.9626,0,0,-9.9626,70.76713,26.832993)"/>
<clipPath id="cp2">
<path transform="matrix(1,0,0,-1,.199,174.49199)" d="M 0 0 L 161.39636 0 L 161.39636 161.39636 L 0 161.39636 Z "/>
</clipPath>
<g clip-path="url(#cp2)">
<path transform="matrix(1,0,0,-1,.199,174.49199)" stroke-width="1" stroke-linecap="butt" stroke-miterlimit="10" stroke-linejoin="miter" fill="none" stroke="#0000ff" d="M 0 115.82784 L 3.29378 111.3754 L 6.58755 106.71983 L 9.88133 101.89899 L 13.17513 96.96132 L 16.4689 91.9738 L 19.76268 87.0221 L 23.05647 82.21107 L 26.35025 77.6611 L 29.64403 73.50691 L 32.93782 69.88637 L 36.2316 66.93631 L 39.52538 64.77606 L 42.81917 63.49998 L 46.11295 63.1663 L 49.40672 63.7912 L 52.70052 65.34305 L 55.9943 67.75488 L 59.28807 70.92282 L 62.58185 74.7202 L 65.87564 79.00911 L 69.16942 83.65277 L 72.4632 88.51852 L 75.75699 93.49129 L 79.05078 98.47212 L 82.34456 103.38031 L 85.63835 108.1559 L 88.93213 112.75148 L 92.2259 117.14008 L 95.5197 121.29918 L 98.81348 125.21901 L 102.10727 128.90164 L 105.40106 132.3443 L 108.69484 135.55995 L 111.98862 138.5542 L 115.2824 141.3411 L 118.57619 143.93045 L 121.86996 146.33632 L 125.16374 148.57096 L 128.45754 150.64736 L 131.75131 152.57605 L 135.04509 154.36859 L 138.33889 156.03624 L 141.63266 157.58739 L 144.92644 159.03226 L 148.22023 160.37886 L 151.514 161.63494 L 154.80779 162.80788 L 158.10158 163.90361 L 161.39536 164.92848 "/>
<symbol id="font_3_1">
<path d="M .14400001 .115 C .10400002 .048 .065 .034 .021000002 .031000002 C .009000003 .030000002 0 .030000002 0 .011000001 C 0 .0050000005 .0050000029 0 .013 0 C .040000004 0 .07100001 .003 .09900001 .003 C .13200002 .003 .16700001 0 .19900002 0 C .20500002 0 .21800003 0 .21800003 .019000002 C .21800003 .030000002 .20900002 .031000002 .20200002 .031000002 C .17900002 .033 .15500002 .041 .15500002 .066 C .15500002 .078 .16100002 .089 .16900002 .10300001 L .245 .231 L .49600003 .231 C .49800007 .21000001 .512 .074 .512 .064 C .512 .034 .46000005 .031000002 .44000004 .031000002 C .42600004 .031000002 .41600005 .031000002 .41600005 .011000001 C .41600005 0 .42800004 0 .43000005 0 C .47100006 0 .514 .003 .555 .003 C .58 .003 .643 0 .668 0 C .674 0 .686 0 .686 .020000002 C .686 .031000002 .676 .031000002 .663 .031000002 C .601 .031000002 .601 .038000004 .598 .067 L .537 .69200006 C .535 .712 .535 .716 .518 .716 C .502 .716 .49800007 .70900008 .492 .69900009 L .14400001 .115 M .26400004 .26200003 L .46100004 .592 L .493 .26200003 L .26400004 .26200003 Z "/>
</symbol>
<use xlink:href="#font_3_1" transform="matrix(9.9626,0,0,-9.9626,130.1377,34.04399)" fill="#0000ff"/>
<path transform="matrix(1,0,0,-1,.199,174.49199)" stroke-width="1" stroke-linecap="butt" stroke-miterlimit="10" stroke-linejoin="miter" fill="none" stroke="#ff0000" d="M 0 34.42126 L 3.29378 32.13716 L 6.58755 30.15198 L 9.88133 28.61485 L 13.17513 27.69806 L 16.4689 27.5928 L 19.76268 28.50082 L 23.05647 30.61478 L 26.35025 34.09497 L 29.64403 39.0428 L 32.93782 45.47237 L 36.2316 53.28456 L 39.52538 62.25888 L 42.81917 72.05817 L 46.11295 82.25632 L 49.40672 92.38187 L 52.70052 101.97188 L 55.9943 110.62361 L 59.28807 118.033 L 62.58185 124.01625 L 65.87564 128.51219 L 69.16942 131.56258 L 72.4632 133.29093 L 75.75699 133.86914 L 79.05078 133.49584 L 82.34456 132.3706 L 85.63835 130.68051 L 88.93213 128.59429 L 92.2259 126.23965 L 95.5197 123.74188 L 98.81348 121.18689 L 102.10727 118.63965 L 105.40106 116.14993 L 108.69484 113.75143 L 111.98862 111.46698 L 115.2824 109.30849 L 118.57619 107.28365 L 121.86996 105.3932 L 125.16374 103.6359 L 128.45754 102.00635 L 131.75131 100.49911 L 135.04509 99.10753 L 138.33889 97.82376 L 141.63266 96.64098 L 144.92644 95.55095 L 148.22023 94.54703 L 151.514 93.62212 L 154.80779 92.77005 L 158.10158 91.9845 L 161.39536 91.26016 "/>
<symbol id="font_3_2">
<path d="M .11800001 .078 C .108 .039 .106 .031000002 .027000003 .031000002 C .009999998 .031000002 0 .031000002 0 .011000001 C 0 0 .009 0 .027000003 0 L .38400004 0 C .54200008 0 .66 .11800001 .66 .216 C .66 .28800003 .60200008 .34600003 .50500008 .35700003 C .609 .37600003 .71400007 .45000003 .71400007 .545 C .71400007 .619 .64800009 .683 .52800008 .683 L .192 .683 C .17300001 .683 .16300002 .683 .16300002 .66300007 C .16300002 .652 .17200002 .652 .19100002 .652 C .19300002 .652 .21200001 .652 .22900003 .65000006 C .24700001 .648 .256 .647 .256 .634 C .256 .63000008 .25500003 .62700006 .252 .615 L .11800001 .078 M .26900003 .36600004 L .33100004 .614 C .34000004 .64900007 .342 .652 .38500003 .652 L .51400008 .652 C .60200008 .652 .623 .59300008 .623 .549 C .623 .46100004 .53700008 .36600004 .41500003 .36600004 L .26900003 .36600004 M .224 .031000002 C .21000001 .031000002 .208 .031000002 .20200002 .032 C .192 .033 .18900001 .034 .18900001 .042000005 C .18900001 .045 .18900001 .047000003 .194 .065000008 L .263 .344 L .45200003 .344 C .54800006 .344 .56700006 .27 .56700006 .22700002 C .56700006 .128 .47800005 .031000002 .36 .031000002 L .224 .031000002 Z "/>
</symbol>
<use xlink:href="#font_3_2" transform="matrix(9.9626,0,0,-9.9626,129.91544,69.12998)" fill="#ff0000"/>
<path transform="matrix(1,0,0,-1,.199,174.49199)" stroke-width="1" stroke-linecap="butt" stroke-miterlimit="10" stroke-linejoin="miter" fill="none" stroke="#ff8000" d="M 0 181.63826 L 4.82434 176.81392 L 9.64868 171.98957 L 14.47304 167.16522 L 19.29738 162.34087 L 24.12173 157.51653 L 28.94608 152.69217 L 33.77043 147.86783 L 38.59477 143.04347 L 43.41913 138.21913 L 48.24347 133.39479 L 53.06783 128.57044 L 57.89217 123.7461 L 62.7165 118.92174 L 67.54086 114.0974 L 72.3652 109.27304 L 77.18956 104.4487 L 82.0139 99.62434 L 86.83826 94.8 L 91.6626 89.97565 L 96.48695 85.1513 L 101.3113 80.32695 L 106.13565 75.50261 L 110.95999 70.67827 L 115.78435 65.85391 "/>
<path transform="matrix(1,0,0,-1,.199,174.49199)" stroke-width="1" stroke-linecap="butt" stroke-miterlimit="10" stroke-linejoin="miter" fill="none" stroke="#ff8000" d="M 115.78435 65.85426 L 117.68481 65.85426 L 119.5853 65.85426 L 121.48576 65.85426 L 123.38625 65.85426 L 125.28671 65.85426 L 127.1872 65.85426 L 129.08766 65.85426 L 130.98815 65.85426 L 132.88863 65.85426 L 134.7891 65.85426 L 136.68958 65.85426 L 138.59004 65.85426 L 140.49053 65.85426 L 142.39099 65.85426 L 144.29148 65.85426 L 146.19194 65.85426 L 148.09243 65.85426 L 149.99289 65.85426 L 151.89337 65.85426 L 153.79386 65.85426 L 155.69432 65.85426 L 157.5948 65.85426 L 159.49527 65.85426 L 161.39575 65.85426 "/>
<symbol id="font_3_3">
<path d="M .71000006 .71700009 C .71000006 .72 .708 .72700008 .699 .72700008 C .69600006 .72700008 .69500008 .7260001 .684 .71500006 L .614 .6380001 C .605 .65200009 .559 .72700008 .448 .72700008 C .22500001 .72700008 0 .50600007 0 .27400003 C 0 .109000008 .118000019 0 .271 0 C .358 0 .43400003 .040000004 .487 .086 C .58000007 .16800002 .597 .25900004 .597 .26200003 C .597 .272 .587 .272 .58500006 .272 C .579 .272 .574 .27 .572 .26200003 C .563 .23300001 .54 .162 .47100003 .104 C .402 .048 .33900003 .031000004 .287 .031000004 C .19700001 .031000004 .091000009 .083000008 .091000009 .23900001 C .091000009 .29600004 .112 .45800004 .21200003 .57500007 C .273 .646 .367 .69600006 .45600004 .69600006 C .558 .69600006 .61700007 .619 .61700007 .503 C .61700007 .46300004 .614 .46200005 .614 .45200003 C .614 .44200004 .625 .44200004 .629 .44200004 C .642 .44200004 .642 .44400005 .647 .46200005 L .71000006 .71700009 Z "/>
</symbol>
<use xlink:href="#font_3_3" transform="matrix(9.9626,0,0,-9.9626,130.10613,118.469158)" fill="#ff8000"/>
</g>
<symbol id="font_3_4">
<path d="M .305 .31300003 C .311 .33900003 .334 .43100003 .404 .43100003 C .409 .43100003 .433 .43100003 .454 .418 C .426 .41300003 .40600003 .388 .40600003 .36400003 C .40600003 .34800003 .417 .32900004 .444 .32900004 C .46600003 .32900004 .498 .34700004 .498 .38700003 C .498 .43900005 .439 .45300005 .405 .45300005 C .347 .45300005 .312 .40000005 .3 .37700004 C .275 .44300003 .221 .45300005 .19200002 .45300005 C .08800001 .45300005 .031000002 .32400004 .031000002 .29900003 C .031000002 .28900004 .041 .28900004 .043000007 .28900004 C .051000008 .28900004 .054000006 .291 .056 .3 C .09 .40600003 .156 .43100003 .19000001 .43100003 C .209 .43100003 .244 .42200003 .244 .36400003 C .244 .33300004 .22700002 .26600004 .19000001 .126 C .17400001 .064 .13900002 .022000002 .095000009 .022000002 C .08900001 .022000002 .06600001 .022000002 .045 .035 C .07000001 .040000004 .09200001 .061 .09200001 .089 C .09200001 .116000007 .07000001 .124000009 .055000009 .124000009 C .025 .124000009 0 .098000008 0 .06600001 C 0 .020000002 .050000006 0 .094000007 0 C .16000001 0 .19600001 .07000001 .19900002 .076000008 C .21100001 .039 .24700003 0 .307 0 C .41 0 .467 .12900001 .467 .15400002 C .467 .16400002 .458 .16400002 .455 .16400002 C .446 .16400002 .444 .16000001 .442 .15300001 C .409 .046 .341 .022000002 .30900003 .022000002 C .27 .022000002 .254 .054 .254 .08800001 C .254 .11000001 .26 .13200002 .271 .17600002 L .305 .31300003 Z "/>
</symbol>
<use xlink:href="#font_3_4" transform="matrix(9.9626,0,0,-9.9626,165.43592,96.03257)"/>
<symbol id="font_3_5">
<path d="M .45700003 .586 C .461 .6 .461 .602 .461 .609 C .461 .62700006 .447 .63600006 .432 .63600006 C .42200003 .63600006 .40600003 .63 .397 .615 C .395 .61 .387 .579 .38300003 .561 C .37600003 .535 .36900003 .508 .363 .48100005 L .318 .301 C .314 .286 .271 .21600002 .20500002 .21600002 C .15400002 .21600002 .143 .26000003 .143 .29700003 C .143 .34300003 .16000001 .40500004 .194 .49300004 C .21000001 .53400006 .21400002 .545 .21400002 .56500008 C .21400002 .61 .18200001 .6470001 .13200002 .6470001 C .037 .6470001 0 .50200006 0 .49300004 C 0 .48300005 .01 .48300005 .012 .48300005 C .022000002 .48300005 .023 .485 .028000003 .50100007 C .055000009 .595 .095000009 .625 .12900001 .625 C .13700001 .625 .15400002 .625 .15400002 .59300008 C .15400002 .568 .14400001 .54200008 .13700001 .523 C .097 .41700004 .079 .36 .079 .31300003 C .079 .224 .142 .194 .201 .194 C .24000003 .194 .274 .21100001 .30200003 .23900002 C .289 .187 .277 .13800001 .237 .08500001 C .21100001 .051 .17300001 .022 .127 .022 C .113000009 .022 .068 .025000006 .051000008 .06400001 C .067 .06400001 .080000009 .06400001 .094000007 .076000008 C .104 .08500001 .11400001 .098000008 .11400001 .117000009 C .11400001 .148 .087000008 .15200001 .07700001 .15200001 C .054000006 .15200001 .021 .136 .021 .087000008 C .021 .037 .065000008 0 .127 0 C .23 0 .333 .091000009 .361 .20400001 L .45700003 .586 Z "/>
</symbol>
<use xlink:href="#font_3_5" transform="matrix(9.9626,0,0,-9.9626,78.57992,9.652319)"/>
</svg>
