<?xml version="1.0" encoding="UTF-8" standalone="no"?>
<!DOCTYPE svg PUBLIC "-//W3C//DTD SVG 1.1//EN" "http://www.w3.org/Graphics/SVG/1.1/DTD/svg11.dtd">
<svg xmlns="http://www.w3.org/2000/svg" xmlns:xlink="http://www.w3.org/1999/xlink" version="1.1" width="278.704pt" height="278.999pt" viewBox="0 0 278.704 278.999">
<path transform="matrix(1,0,0,-1,-1084.617,278.8)" stroke-width="1" stroke-linecap="butt" stroke-miterlimit="10" stroke-linejoin="miter" fill="none" stroke="#000000" d="M 1084.8307 22.13939 L 1348.511 22.13939 "/>
<path transform="matrix(1,0,0,-1,263.89405,256.66059)" d="M 1.99252 0 L -1.19551 1.59401 L 0 0 L -1.19551 -1.59401 "/>
<path transform="matrix(1,0,0,-1,-1084.617,278.8)" stroke-width="1" stroke-linecap="butt" stroke-miterlimit="10" stroke-linejoin="miter" fill="none" stroke="#000000" d="M 1106.9701 0 L 1106.9701 263.68028 "/>
<path transform="matrix(0,-1,-1,-0,22.35315,15.11972)" d="M 1.99252 0 L -1.19551 1.59401 L 0 0 L -1.19551 -1.59401 "/>
<clipPath id="cp0">
<path transform="matrix(1,0,0,-1,-1084.617,278.8)" d="M 1084.8307 0 L 1350.5034 0 L 1350.5034 265.6728 L 1084.8307 265.6728 Z "/>
</clipPath>
<g clip-path="url(#cp0)">
<path transform="matrix(1,0,0,-1,-1084.617,278.8)" stroke-width="1.19553" stroke-linecap="butt" stroke-miterlimit="10" stroke-linejoin="miter" fill="none" stroke="#c0c0c0" d="M 1323.9384 -21.84052 C 1323.9384 -21.84052 1326.223 -8.89635 1326.8165 -3.89207 C 1327.4099 1.11217 1328.0352 9.19238 1328.2157 14.22675 C 1328.3964 19.26111 1328.3524 27.35992 1328.1183 32.39214 C 1327.8843 37.42436 1327.1738 45.49802 1326.5287 50.49553 C 1325.8837 55.49303 1324.5221 63.48264 1323.469 68.41072 C 1322.416 73.3388 1320.394 81.1889 1318.9393 86.01378 C 1317.4845 90.83864 1314.8284 98.49599 1312.9838 103.18507 C 1311.1392 107.87418 1307.8673 115.28726 1305.6447 119.80957 C 1303.4219 124.33186 1299.5508 131.45424 1296.9638 135.77872 C 1294.3767 140.1032 1289.9314 146.87996 1286.9988 150.97742 C 1284.0662 155.07489 1279.0852 161.46642 1275.8273 165.31047 C 1272.5693 169.15453 1267.0807 175.11998 1263.5177 178.68265 C 1259.9548 182.24532 1253.9915 187.7298 1250.1478 190.98775 C 1246.3041 194.2457 1239.9116 199.23046 1235.8147 202.1637 C 1231.7179 205.09696 1224.9446 209.54128 1220.6205 212.12866 C 1216.2963 214.71604 1209.172 218.58898 1204.649 220.81172 C 1200.1262 223.03447 1192.7118 226.3038 1188.0225 228.14871 C 1183.333 229.99362 1175.6753 232.65323 1170.8511 234.10866 C 1166.0269 235.56407 1158.1799 237.5857 1153.2525 238.63838 C 1148.325 239.69107 1140.3347 241.05136 1135.3373 241.69582 C 1130.3397 242.34027 1122.2664 243.04885 1117.2339 243.28322 C 1112.2013 243.51758 1104.1012 243.56446 1099.0663 243.38507 C 1094.0313 243.20569 1085.9495 242.58312 1080.9452 241.99027 C 1075.9409 241.39742 1062.999 239.11217 1062.999 239.11217 "/>
<path transform="matrix(1,0,0,-1,-1084.617,278.8)" stroke-width="1.19553" stroke-linecap="butt" stroke-miterlimit="10" stroke-linejoin="miter" fill="none" stroke="#000000" d="M 1106.9701 22.13939 L 1276.5579 164.49575 "/>
<path transform="matrix(1,0,0,-1,-1084.617,278.8)" stroke-width="1.19553" stroke-linecap="butt" stroke-miterlimit="10" stroke-linejoin="miter" fill="none" stroke="#000000" d="M 1106.9701 22.13939 L 1276.5579 22.13939 "/>
<path transform="matrix(1,0,0,-1,-1084.617,278.8)" stroke-width="1.19553" stroke-linecap="butt" stroke-miterlimit="10" stroke-linejoin="miter" fill="none" stroke="#d9b3b3" d="M 0 1685.2332 L 92.246 1575.342 L 184.49204 1465.4513 L 276.73808 1355.5607 L 368.9841 1245.6699 L 461.23014 1135.7789 L 553.4762 1025.8882 L 645.72219 915.9975 L 737.9682 806.1064 L 830.21426 696.2157 L 922.46029 586.325 L 1014.7063 476.4339 L 1106.9524 366.54335 L 1199.1984 256.6525 L 1291.4445 146.76172 L 1383.6904 36.87085 L 1475.9364 -73.01994 L 1568.1825 -182.91059 L 1660.4286 -292.80168 L 1752.6746 -402.69239 L 1844.9207 -512.58309 L 1937.1666 -622.4742 L 2029.4126 -732.36489 L 2121.6588 -842.25558 L 2213.9049 -952.14669 "/>
<path transform="matrix(1,0,0,-1,-1084.617,278.8)" stroke-width="1" stroke-linecap="butt" stroke-dasharray="2.98883,2.98883" stroke-miterlimit="10" stroke-linejoin="miter" fill="none" stroke="#000000" d="M 1106.9701 22.13939 L 1233.1647 216.30194 "/>
<path transform="matrix(1,0,0,-1,-1084.617,278.8)" stroke-width="1.19553" stroke-linecap="butt" stroke-miterlimit="10" stroke-linejoin="miter" fill="none" stroke="#008000" d="M 1276.5579 164.49575 L 1276.5579 216.30194 "/>
<path transform="matrix(1,0,0,-1,-1084.617,278.8)" stroke-width="1.19553" stroke-linecap="butt" stroke-miterlimit="10" stroke-linejoin="miter" fill="none" stroke="#000000" d="M 1276.5579 216.30194 L 1233.1647 216.30194 "/>
<path transform="matrix(1,0,0,-1,-1084.617,278.8)" stroke-width="1" stroke-linecap="butt" stroke-miterlimit="10" stroke-linejoin="miter" fill="none" stroke="#000000" d="M 1276.5579 175.56543 C 1276.5579 175.56543 1276.3253 175.56291 1276.2361 175.56024 C 1276.1469 175.55756 1276.0037 175.55121 1275.9146 175.54605 C 1275.8253 175.5409 1275.6823 175.5308 1275.5933 175.52306 C 1275.5043 175.5153 1275.3617 175.50057 1275.273 175.49018 C 1275.1843 175.47977 1275.0422 175.46097 1274.9539 175.44808 C 1274.8655 175.43518 1274.7239 175.41269 1274.6359 175.39719 C 1274.5479 175.38167 1274.4069 175.35443 1274.3195 175.3363 C 1274.2319 175.31816 1274.0923 175.287 1274.0054 175.26645 C 1273.9185 175.2459 1273.7793 175.21118 1273.693 175.18807 C 1273.6067 175.16495 1273.469 175.12538 1273.3834 175.09973 C 1273.2979 175.07407 1273.1609 175.03112 1273.076 175.0031 C 1272.9912 174.97509 1272.8558 174.92826 1272.772 174.8977 C 1272.688 174.86714 1272.5542 174.81583 1272.4712 174.7828 C 1272.3883 174.74979 1272.2559 174.69504 1272.1738 174.65972 C 1272.0918 174.6244 1271.9608 174.56595 1271.8798 174.5282 C 1271.7988 174.49047 1271.67 174.42777 1271.5902 174.38764 C 1271.5105 174.3475 1271.3833 174.28122 1271.3047 174.23885 C 1271.226 174.19649 1271.1006 174.12686 1271.0232 174.08222 C 1270.9458 174.03757 1270.8229 173.96399 1270.7468 173.91706 C 1270.6708 173.87014 1270.55 173.79299 1270.4754 173.74393 C 1270.4008 173.69487 1270.2819 173.6146 1270.2088 173.56339 C 1270.1355 173.51216 1270.0195 173.42815 1269.9479 173.37474 C 1269.8762 173.32134 1269.7626 173.23378 1269.6924 173.17838 C 1269.6223 173.12297 1269.4425 172.97534 1269.4425 172.97534 "/>
<path transform="matrix(1,0,0,-1,-1084.617,278.8)" stroke-width="1.19553" stroke-linecap="butt" stroke-miterlimit="10" stroke-linejoin="miter" fill="none" stroke="#000000" d="M 1233.1647 216.30194 L 1276.5579 164.49575 "/>
<symbol id="font_1_1">
<path d="M .43500004 .50100007 C .43500004 .62600007 .38700003 .71400007 .30400003 .71400007 C .15500002 .71400007 0 .43600003 0 .21300002 C 0 .117000009 .033000005 0 .13200002 0 C .27800004 0 .43500004 .271 .43500004 .50100007 M .112 .374 C .15900001 .57600006 .24100003 .68600007 .303 .68600007 C .363 .68600007 .363 .579 .363 .56 C .363 .504 .34500004 .423 .333 .374 L .112 .374 M .32400004 .34 C .277 .13900002 .19500001 .028 .133 .028 C .078999999 .028 .073 .108 .073 .15400002 C .073 .21700002 .09200001 .298 .103 .34 L .32400004 .34 Z "/>
</symbol>
<use xlink:href="#font_1_1" transform="matrix(7.9701,0,0,-7.9701,184.20468,100.7707)"/>
<symbol id="font_1_2">
<path d="M .23500002 .674 C .236 .676 .239 .689 .239 .69 C .239 .69500008 .23500002 .704 .22299999 .704 C .21900001 .704 .188 .70100006 .16500002 .699 L .109000008 .69500008 C .087000008 .693 .077 .69200006 .077 .674 C .077 .66 .091 .66 .10300001 .66 C .151 .66 .151 .65400007 .151 .64500007 C .151 .642 .151 .64000007 .146 .62200006 L .0040000008 .053000004 C 0 .038000004 0 .032 0 .031000004 C 0 .014 .013999999 0 .033 0 C .049000004 0 .063 .010000001 .071 .023000002 C .07400001 .029000003 .08200001 .061000006 .087000008 .081 L .11000001 .17000002 C .113 .18500002 .123 .22300002 .12600002 .23800002 C .141 .296 .141 .298 .16300002 .33 C .197 .379 .24400002 .423 .31100003 .423 C .347 .423 .368 .402 .368 .35500003 C .368 .3 .326 .18600002 .307 .13700001 C .294 .104 .294 .098000008 .294 .085 C .294 .028 .34100003 0 .384 0 C .48200003 0 .52300009 .14000002 .52300009 .15300001 C .52300009 .16300002 .51500007 .16600001 .508 .16600001 C .49600003 .16600001 .494 .15900001 .49100004 .14900002 C .46700005 .067 .425 .028 .38700003 .028 C .37100003 .028 .363 .038000004 .363 .061000006 C .363 .084 .37100003 .106 .381 .13100001 C .396 .16900002 .44 .284 .44 .34 C .44 .41500003 .388 .451 .316 .451 C .26 .451 .20699999 .42700003 .16100002 .374 L .23500002 .674 Z "/>
</symbol>
<use xlink:href="#font_1_2" transform="matrix(7.9701,0,0,-7.9701,156.95137,57.06769)"/>
<symbol id="font_2_7">
<path d="M .321 .43 C .321 .446 .321 .456 .30800004 .456 C .30300004 .456 .3 .456 .284 .44 C .282 .439 .27300004 .43 .27 .43 C .26900003 .43 .26700003 .43 .261 .43400003 C .245 .44500003 .21600002 .456 .17100002 .456 C .031 .456 0 .38 0 .33200003 C 0 .282 .037000006 .25300003 .040000004 .25 C .08 .22000002 .103000018 .21600002 .17000002 .20400001 C .21700001 .19500001 .29400004 .18100001 .29400004 .113000009 C .29400004 .074 .268 .028 .17600002 .028 C .075 .028 .046 .106 .033000005 .15900001 C .029000003 .172 .028 .17700002 .016000003 .17700002 C 0 .17700002 0 .16900002 0 .15 L 0 .026 C 0 .010000001 0 0 .013 0 C .019000002 0 .020000004 .0010000002 .038000008 .020000002 C .043 .025000003 .054 .038000004 .059000005 .043 C .10400002 .0020000004 .15100001 0 .17700002 0 C .30400003 0 .34800003 .073 .34800003 .13900002 C .34800003 .187 .319 .257 .20000002 .279 C .19200002 .28100003 .136 .291 .13200002 .291 C .10100001 .298 .054 .319 .054 .359 C .054 .389 .076000008 .43100003 .17100002 .43100003 C .28300003 .43100003 .28800003 .349 .29000003 .321 C .291 .313 .298 .31 .305 .31 C .321 .31 .321 .317 .321 .336 L .321 .43 Z "/>
</symbol>
<symbol id="font_2_4">
<path d="M .153 .61600008 C .153 .64500007 .13 .67200008 .09700001 .67200008 C .068 .67200008 .042000005 .64900007 .042000005 .61700007 C .042000005 .582 .071 .56100007 .09700001 .56100007 C .132 .56100007 .153 .59000006 .153 .61600008 M .0029999987 .43 L .0029999987 .397 C .067 .397 .076000008 .39100004 .076000008 .342 L .076000008 .078 C .076000008 .033 .064 .033 0 .033 L 0 0 C .038999998 .003 .095000009 .003 .11000001 .003 C .123 .003 .183 .003 .21800003 0 L .21800003 .033 C .153 .033 .14900002 .038000004 .14900002 .07700001 L .14900002 .441 L .0029999987 .43 Z "/>
</symbol>
<symbol id="font_2_5">
<path d="M .44500003 .303 C .44500003 .38700003 .407 .441 .30200003 .441 C .20300001 .441 .15800002 .36900003 .146 .34500004 L .14500001 .34500004 L .14500001 .441 L 0 .43 L 0 .397 C .068 .397 .076000008 .39000003 .076000008 .34100003 L .076000008 .078 C .076000008 .033 .064 .033 0 .033 L 0 0 C .043000007 .003 .087000008 .003 .114 .003 C .143 .003 .185 .003 .22800002 0 L .22800002 .033 C .164 .033 .15200001 .033 .15200001 .078 L .15200001 .259 C .15200001 .36400003 .232 .41300003 .293 .41300003 C .354 .41300003 .36900003 .37 .36900003 .307 L .36900003 .078 C .36900003 .033 .35700003 .033 .293 .033 L .293 0 C .336 .003 .38000003 .003 .407 .003 C .43600003 .003 .47800005 .003 .521 0 L .521 .033 C .45700003 .033 .44500003 .033 .44500003 .078 L .44500003 .303 Z "/>
</symbol>
<symbol id="font_2_1">
<path d="M .22999999 0 C .238 0 .25 0 .25 .0119999949 C .25 .015999988 .24900002 .01699999 .236 .029999987 C .099 .159 .065000008 .345 .065000008 .5 C .065000008 .78800007 .18399999 .92300006 .23500002 .96900007 C .24900002 .98200008 .25 .98300006 .25 .98800006 C .25 .99300006 .24599999 1 .236 1 C .22 1 .16999999 .94900009 .162 .94000008 C .028000005 .8 0 .62 0 .5 C 0 .276 .094000007 .095999989 .22999999 0 Z "/>
</symbol>
<use xlink:href="#font_2_7" transform="matrix(7.9701,0,0,-7.9701,163.06803,57.06769)"/>
<use xlink:href="#font_2_4" transform="matrix(7.9701,0,0,-7.9701,166.4633,56.98799)"/>
<use xlink:href="#font_2_5" transform="matrix(7.9701,0,0,-7.9701,168.8065,56.98799)"/>
<use xlink:href="#font_2_1" transform="matrix(7.9701,0,0,-7.9701,174.00302,58.980516)"/>
<use xlink:href="#font_1_1" transform="matrix(7.9701,0,0,-7.9701,176.82976,57.06769)"/>
<symbol id="font_2_2">
<path d="M .24900002 .5 C .24900002 .595 .23300001 .709 .171 .827 C .12200001 .919 .031000004 1 .013000004 1 C .0029999987 1 0 .99300006 0 .98800006 C 0 .984 0 .98200008 .012000002 .97 C .15200001 .837 .18400002 .65400007 .18400002 .5 C .18400002 .213 .065 .07699999 .013999999 .030999989 C .001000002 .017999992 0 .01699999 0 .0119999949 C 0 .0069999846 .0029999987 0 .013000004 0 C .029 0 .07900001 .050999986 .087 .059999989 C .22100002 .2 .24900002 .38 .24900002 .5 Z "/>
</symbol>
<use xlink:href="#font_2_2" transform="matrix(7.9701,0,0,-7.9701,181.1433,58.980516)"/>
<use xlink:href="#font_1_2" transform="matrix(7.9701,0,0,-7.9701,195.89839,90.47567)"/>
<symbol id="font_2_3">
<path d="M .33300004 .407 C .305 .398 .30100004 .375 .30100004 .363 C .30100004 .336 .32000003 .316 .34800003 .316 C .374 .316 .395 .334 .395 .364 C .395 .426 .32700003 .456 .23300001 .456 C .09400001 .456 0 .345 0 .22600001 C 0 .099 .10400002 0 .23000002 0 C .37100003 0 .40600003 .118 .40600003 .13000001 C .40600003 .142 .39300005 .142 .39000003 .142 C .38300003 .142 .37800003 .14100002 .37500004 .13100001 C .36800004 .11 .34000004 .031000004 .24000001 .031000004 C .17800002 .031000004 .089 .079 .089 .22700002 C .089 .37100003 .16300002 .425 .23600003 .425 C .245 .425 .298 .425 .33300004 .407 Z "/>
</symbol>
<symbol id="font_2_6">
<path d="M .47 .22300002 C .47 .34800003 .367 .456 .23500002 .456 C .103 .456 0 .34800003 0 .22300002 C 0 .098000008 .10700001 0 .23500002 0 C .36400003 0 .47 .098000008 .47 .22300002 M .23500002 .031000004 C .18100001 .031000004 .13900002 .057000005 .117 .092 C .09200001 .133 .089 .18200001 .089 .23200003 C .089 .27 .089 .33 .120000008 .373 C .14600002 .40800003 .18800001 .428 .23500002 .428 C .287 .428 .33 .403 .35300002 .368 C .38000003 .326 .381 .272 .381 .23200003 C .381 .18600002 .379 .13100001 .351 .089 C .324 .049000004 .279 .031000004 .23500002 .031000004 Z "/>
</symbol>
<use xlink:href="#font_2_3" transform="matrix(7.9701,0,0,-7.9701,202.01404,90.47567)"/>
<use xlink:href="#font_2_6" transform="matrix(7.9701,0,0,-7.9701,205.73609,90.47567)"/>
<use xlink:href="#font_2_7" transform="matrix(7.9701,0,0,-7.9701,210.00804,90.47567)"/>
<use xlink:href="#font_2_1" transform="matrix(7.9701,0,0,-7.9701,213.8895,92.38849)"/>
<use xlink:href="#font_1_1" transform="matrix(7.9701,0,0,-7.9701,216.71778,90.47567)"/>
<use xlink:href="#font_2_2" transform="matrix(7.9701,0,0,-7.9701,221.0303,92.38849)"/>
<symbol id="font_3_1">
<path d="M .707 .42900003 C .707 .46 .69600006 .46400003 .69100007 .46400003 C .68200007 .46400003 .676 .45100004 .675 .43800003 C .674 .41700004 .671 .38500003 .63100007 .35200004 C .602 .32900004 .565 .31800003 .53000006 .31800003 C .467 .31800003 .412 .35400004 .36 .38900004 C .299 .43000005 .244 .465 .17700002 .465 C .074 .465 0 .38500003 0 .29000003 C 0 .25900004 .010999996 .25500003 .015999999 .25500003 C .029999998 .25500003 .032 .28100003 .032 .28700004 C .036000004 .35100005 .103 .40100003 .17700002 .40100003 C .24000003 .40100003 .295 .36500005 .347 .33 C .408 .28900004 .463 .254 .53000006 .254 C .633 .254 .707 .33400003 .707 .42900003 M .707 .175 C .707 .205 .69600006 .21 .69100007 .21 C .68200007 .21 .676 .19700001 .675 .184 C .674 .163 .671 .131 .63100007 .098000008 C .602 .075 .565 .063999999 .53000006 .063999999 C .467 .063999999 .412 .099999997 .36 .135 C .299 .176 .244 .21100001 .17700002 .21100001 C .074 .21100001 0 .131 0 .036000004 C 0 .004999999 .010999996 .0009999983 .015999999 .0009999983 C .029999998 .0009999983 .032 .026999999 .032 .033000005 C .036000004 .097 .103 .147 .17700002 .147 C .24000003 .147 .295 .111 .347 .076000008 C .408 .035 .463 0 .53000006 0 C .633 0 .707 .08 .707 .175 Z "/>
</symbol>
<use xlink:href="#font_3_1" transform="matrix(7.9701,0,0,-7.9701,170.23232,86.40619)"/>
<use xlink:href="#font_1_2" transform="matrix(7.9701,0,0,-7.9701,179.15538,86.804698)"/>
<path transform="matrix(1,0,0,-1,-1084.617,278.8)" stroke-width="1.19553" stroke-linecap="butt" stroke-miterlimit="10" stroke-linejoin="miter" fill="none" stroke="#000080" d="M 1276.5579 22.13939 L 1276.5579 164.49575 "/>
<path transform="matrix(1,0,0,-1,-1084.617,278.8)" stroke-width="1" stroke-linecap="butt" stroke-miterlimit="10" stroke-linejoin="miter" fill="none" stroke="#000000" d="M 1140.1792 22.13939 C 1140.1792 22.13939 1140.1716 22.83699 1140.1636 23.10478 C 1140.1555 23.37256 1140.1365 23.80193 1140.121 24.06949 C 1140.1056 24.33704 1140.0752 24.76622 1140.052 25.03323 C 1140.0287 25.30023 1139.9845 25.7278 1139.9534 25.99394 C 1139.9221 26.26009 1139.8659 26.68619 1139.8272 26.9514 C 1139.7885 27.21661 1139.721 27.64146 1139.6744 27.90547 C 1139.6278 28.16948 1139.5462 28.59187 1139.4917 28.85428 C 1139.4374 29.11667 1139.3439 29.53598 1139.2822 29.79672 C 1139.2205 30.05746 1139.1165 30.47467 1139.047 30.73357 C 1138.9777 30.99248 1138.859 31.40602 1138.7821 31.66275 C 1138.7051 31.91948 1138.5762 32.32947 1138.4922 32.58398 C 1138.4081 32.83852 1138.2677 33.24539 1138.176 33.49725 C 1138.0844 33.7491 1137.9304 34.15025 1137.8313 34.3992 C 1137.7322 34.64815 1137.5676 35.04532 1137.4617 35.2915 C 1137.3557 35.53769 1137.1807 35.93065 1137.0674 36.17355 C 1136.9542 36.41647 1136.7659 36.8029 1136.6454 37.0423 C 1136.5249 37.28171 1136.3264 37.66309 1136.1994 37.8991 C 1136.0723 38.13509 1135.8635 38.5111 1135.7295 38.74327 C 1135.5955 38.97545 1135.3743 39.34444 1135.2333 39.57251 C 1135.0924 39.80058 1134.8611 40.16316 1134.714 40.38713 C 1134.5668 40.6111 1134.3265 40.9672 1134.173 41.18678 C 1134.0194 41.40639 1133.7673 41.75494 1133.607 41.9699 C 1133.4468 42.18483 1133.1842 42.52579 1133.018 42.736 C 1132.8517 42.94618 1132.4088 43.48488 1132.4088 43.48488 "/>
<path transform="matrix(1,0,0,-1,-1084.617,278.8)" stroke-width="1" stroke-linecap="butt" stroke-miterlimit="10" stroke-linejoin="miter" fill="none" stroke="#000000" d="M 1135.8015 46.33206 C 1135.8015 46.33206 1135.5842 46.58653 1135.5004 46.6836 C 1135.4165 46.78065 1135.2815 46.93549 1135.1967 47.03172 C 1135.1118 47.12794 1134.9747 47.28195 1134.8888 47.37724 C 1134.8027 47.47255 1134.6641 47.62453 1134.5768 47.71861 C 1134.4895 47.8127 1134.3483 47.96251 1134.2599 48.05545 C 1134.1715 48.14839 1134.0289 48.29654 1133.9396 48.38855 C 1133.8502 48.48055 1133.7062 48.62772 1133.6156 48.71863 C 1133.5248 48.80952 1133.3777 48.95404 1133.2858 49.04381 C 1133.194 49.13358 1133.0462 49.2769 1132.9535 49.36562 C 1132.8609 49.45435 1132.712 49.59596 1132.6182 49.68326 C 1132.5242 49.77057 1132.3716 49.90877 1132.2764 49.99487 C 1132.1813 50.08098 1132.0283 50.21861 1131.9324 50.30388 C 1131.8364 50.38916 1131.6817 50.52544 1131.5846 50.60951 C 1131.4876 50.69357 1131.3308 50.82715 1131.2327 50.90987 C 1131.1345 50.99258 1130.9762 51.12416 1130.8771 51.20567 C 1130.778 51.28719 1130.618 51.417 1130.518 51.49736 C 1130.418 51.57773 1130.257 51.70587 1130.1559 51.78493 C 1130.0549 51.86397 1129.8919 51.98936 1129.7897 52.06717 C 1129.6876 52.14497 1129.5227 52.269 1129.4198 52.3457 C 1129.3168 52.42242 1129.1519 52.54478 1129.0479 52.62007 C 1128.944 52.69537 1128.7759 52.81458 1128.6708 52.88841 C 1128.5657 52.96223 1128.3964 53.07951 1128.2907 53.15225 C 1128.1849 53.22499 1128.0154 53.34123 1127.909 53.4127 C 1127.8026 53.48419 1127.5236 53.6675 1127.5236 53.6675 "/>
<path transform="matrix(1,0,0,-1,-1084.617,278.8)" stroke-width="1" stroke-linecap="butt" stroke-miterlimit="10" stroke-linejoin="miter" fill="none" stroke="#000000" d="M 1138.3455 48.4667 C 1138.3455 48.4667 1138.1091 48.74362 1138.0177 48.84926 C 1137.9264 48.9549 1137.7796 49.12341 1137.6873 49.22813 C 1137.595 49.33286 1137.4458 49.50043 1137.3522 49.60413 C 1137.2586 49.70781 1137.1076 49.87318 1137.0127 49.97559 C 1136.9177 50.07799 1136.764 50.24101 1136.6679 50.34216 C 1136.5717 50.44331 1136.4165 50.60452 1136.3192 50.70464 C 1136.2219 50.80476 1136.0653 50.96492 1135.9666 51.06384 C 1135.8679 51.16278 1135.7078 51.32002 1135.6078 51.41771 C 1135.5078 51.5154 1135.3469 51.67139 1135.2461 51.76793 C 1135.1454 51.86447 1134.9834 52.01859 1134.8812 52.11359 C 1134.7789 52.2086 1134.6128 52.35902 1134.5093 52.45273 C 1134.4058 52.54643 1134.2394 52.6962 1134.135 52.78899 C 1134.0305 52.88177 1133.8622 53.03009 1133.7565 53.12157 C 1133.6509 53.21306 1133.4804 53.3584 1133.3735 53.44841 C 1133.2667 53.53842 1133.0944 53.68166 1132.9865 53.77036 C 1132.8786 53.85907 1132.7046 54.00032 1132.5957 54.08778 C 1132.4869 54.17523 1132.3117 54.31467 1132.2018 54.4007 C 1132.0918 54.48672 1131.9144 54.62323 1131.8032 54.70789 C 1131.6921 54.79254 1131.5126 54.92749 1131.4006 55.01097 C 1131.2886 55.09444 1131.109 55.2276 1130.996 55.30954 C 1130.8828 55.39146 1130.6998 55.52122 1130.5856 55.60158 C 1130.4712 55.68193 1130.2869 55.80954 1130.1719 55.8887 C 1130.0569 55.96785 1129.8724 56.09433 1129.7566 56.17212 C 1129.6408 56.24991 1129.3372 56.4494 1129.3372 56.4494 "/>
<symbol id="font_4_1">
<path d="M .41300003 .511 C .41300003 .577 .395 .716 .293 .716 C .15400002 .716 0 .43400003 0 .20500002 C 0 .111 .029 0 .12 0 C .261 0 .41300003 .28700004 .41300003 .511 M .106 .374 C .123 .43800003 .143 .518 .183 .589 C .21000001 .638 .24700001 .694 .29200004 .694 C .34100003 .694 .34700004 .63 .34700004 .573 C .34700004 .524 .33900003 .47300003 .31500004 .374 L .106 .374 M .30600003 .34200005 C .29500003 .29600004 .27400003 .21100001 .23600003 .13900002 C .201 .071 .16300002 .022000002 .12 .022000002 C .087000008 .022000002 .066 .051000004 .066 .14400001 C .066 .18600002 .072000008 .24400002 .098 .34200005 L .30600003 .34200005 Z "/>
</symbol>
<use xlink:href="#font_4_1" transform="matrix(9.9626,0,0,-9.9626,59.485448,244.73258)"/>
<symbol id="font_4_2">
<path d="M .232 .694 C .232 .695 .232 .705 .21900001 .705 C .19600001 .705 .122999999 .697 .097 .695 C .089 .694 .077999997 .693 .077999997 .675 C .077999997 .663 .087 .663 .102 .663 C .15 .663 .15200001 .656 .15200001 .646 L .149 .626 L .0040000008 .05 C 0 .036000004 0 .034 0 .028 C 0 .005000001 .02 0 .029000003 0 C .044999999 0 .061 .012000001 .066 .026 L .08499999 .102000009 L .10699999 .19200002 C .113000009 .21400002 .119 .23600002 .124 .259 C .126 .26500003 .134 .298 .135 .30400003 C .138 .31300003 .169 .36900003 .20300001 .39600004 C .225 .41200004 .256 .43100003 .299 .43100003 C .342 .43100003 .35300002 .397 .35300002 .36100004 C .35300002 .307 .315 .19800002 .291 .13700001 C .28300003 .11400001 .278 .102000009 .278 .082 C .278 .035 .31300003 0 .36 0 C .454 0 .491 .14600002 .491 .15400002 C .491 .16400002 .482 .16400002 .47900004 .16400002 C .46900005 .16400002 .46900005 .16100002 .46400006 .14600002 C .449 .093 .41700004 .022000002 .36200003 .022000002 C .345 .022000002 .338 .032 .338 .055000005 C .338 .080000009 .347 .104 .356 .126 C .372 .16900002 .41700004 .28800003 .41700004 .34600003 C .41700004 .411 .377 .45300005 .30200003 .45300005 C .239 .45300005 .191 .42200003 .154 .37600003 L .232 .694 Z "/>
</symbol>
<use xlink:href="#font_4_2" transform="matrix(9.9626,0,0,-9.9626,53.224946,222.59259)"/>
<symbol id="font_5_7">
<path d="M .17500001 .20500002 C .197 .20100002 .279 .18500002 .279 .113000009 C .279 .062000004 .24400002 .022000002 .16600001 .022000002 C .082 .022000002 .046000005 .079 .027000003 .16400002 C .024000004 .17700002 .023000002 .18100001 .013000004 .18100001 C 0 .18100001 0 .17400001 0 .15600002 L 0 .024 C 0 .0070000009 0 0 .011000004 0 C .016000003 0 .017 .0010000002 .036000007 .020000002 C .038000004 .022000002 .038000004 .024 .056 .043 C .1 .0010000002 .14500001 0 .16600001 0 C .28100003 0 .32700003 .067 .32700003 .13900002 C .32700003 .19200002 .29700003 .22200002 .28500004 .23400001 C .25200004 .26600004 .213 .27400003 .171 .28200004 C .115 .293 .048 .30600003 .048 .36400003 C .048 .39900003 .07400001 .44000004 .16 .44000004 C .27 .44000004 .27500005 .35000003 .277 .31900005 C .27800004 .31000004 .28700004 .31000004 .28900004 .31000004 C .30200003 .31000004 .30200003 .31500004 .30200003 .33400003 L .30200003 .43500004 C .30200003 .45200003 .30200003 .45900003 .291 .45900003 C .286 .45900003 .284 .45900003 .27100004 .44700004 C .26800005 .44300003 .25800003 .43400003 .254 .43100003 C .21600002 .45900003 .17500001 .45900003 .16 .45900003 C .038000004 .45900003 0 .39200003 0 .33600004 C 0 .30100004 .016000003 .27300004 .043000007 .25100003 C .075 .22500003 .10300001 .21900001 .17500001 .20500002 Z "/>
</symbol>
<symbol id="font_5_4">
<path d="M .144 .44200004 L .0040000008 .43100003 L .0040000008 .4 C .069000009 .4 .07800001 .39400003 .07800001 .34500004 L .07800001 .076000008 C .07800001 .031000002 .067 .031000002 0 .031000002 L 0 0 C .032000007 .001 .086 .003 .11000001 .003 C .14500001 .003 .18 .001 .21400002 0 L .21400002 .031000002 C .148 .031000002 .144 .036000004 .144 .075 L .144 .44200004 M .148 .61600008 C .148 .648 .123 .669 .095000009 .669 C .064 .669 .042000005 .642 .042000005 .61600008 C .042000005 .58900007 .064 .563 .095000009 .563 C .123 .563 .148 .58400008 .148 .61600008 Z "/>
</symbol>
<symbol id="font_5_5">
<path d="M .07800001 .344 L .07800001 .076000008 C .07800001 .031000002 .067 .031000002 0 .031000002 L 0 0 C .035 .001 .08600001 .003 .113000009 .003 C .139 .003 .191 .001 .225 0 L .225 .031000002 C .158 .031000002 .147 .031000002 .147 .076000008 L .147 .26000003 C .147 .36400003 .218 .42000003 .282 .42000003 C .345 .42000003 .356 .36600004 .356 .30900003 L .356 .076000008 C .356 .031000002 .345 .031000002 .278 .031000002 L .278 0 C .31300003 .001 .36400003 .003 .391 .003 C .41700004 .003 .46900005 .001 .503 0 L .503 .031000002 C .451 .031000002 .42600004 .031000002 .425 .061000006 L .425 .252 C .425 .33800004 .425 .36900003 .39400003 .40500004 C .38000003 .42200003 .347 .44200004 .289 .44200004 C .216 .44200004 .169 .39900003 .141 .337 L .141 .44200004 L 0 .43100003 L 0 .4 C .07000001 .4 .07800001 .393 .07800001 .344 Z "/>
</symbol>
<symbol id="font_5_1">
<path d="M .23200003 .00999999 C .23200003 .012999982 .23200003 .014999986 .215 .03199999 C .09 .15799999 .058 .347 .058 .5 C .058 .674 .096 .84800007 .21900001 .97300007 C .23200003 .985 .23200003 .98700007 .23200003 .99 C .23200003 .99700006 .22800002 1 .222 1 C .21200001 1 .12200001 .93200007 .06299999 .805 C .012000002 .69500008 0 .584 0 .5 C 0 .422 .011 .301 .066 .188 C .126 .065 .21200001 0 .222 0 C .22800002 0 .23200003 .0029999912 .23200003 .00999999 Z "/>
</symbol>
<use xlink:href="#font_5_7" transform="matrix(9.9626,0,0,-9.9626,163.79886,187.97258)"/>
<use xlink:href="#font_5_4" transform="matrix(9.9626,0,0,-9.9626,167.72412,187.86299)"/>
<use xlink:href="#font_5_5" transform="matrix(9.9626,0,0,-9.9626,170.48377,187.86299)"/>
<use xlink:href="#font_5_1" transform="matrix(9.9626,0,0,-9.9626,176.69046,190.35364)"/>
<use xlink:href="#font_4_1" transform="matrix(9.9626,0,0,-9.9626,179.99452,187.97258)"/>
<symbol id="font_5_2">
<path d="M .232 .5 C .232 .578 .22100002 .699 .16600001 .81200006 C .106 .93500009 .020000004 1 .009999998 1 C .0040000008 1 0 .99600008 0 .99 C 0 .98700007 0 .985 .019000002 .967 C .117000009 .86800006 .174 .709 .174 .5 C .174 .329 .137 .153 .012999997 .026999996 C 0 .014999986 0 .012999982 0 .00999999 C 0 .003999993 .0040000008 0 .009999998 0 C .020000004 0 .11000001 .06799999 .169 .195 C .22 .305 .232 .416 .232 .5 Z "/>
</symbol>
<use xlink:href="#font_5_2" transform="matrix(9.9626,0,0,-9.9626,185.09796,190.35364)"/>
<symbol id="font_5_3">
<path d="M .083000008 .22900002 C .083000008 .39200003 .16500002 .43400003 .218 .43400003 C .227 .43400003 .29 .43300004 .32500003 .397 C .284 .39400003 .278 .36400003 .278 .351 C .278 .32500003 .296 .305 .324 .305 C .35 .305 .37 .32200004 .37 .35200004 C .37 .42000003 .294 .45900003 .21700001 .45900003 C .092 .45900003 0 .351 0 .22700002 C 0 .09900001 .099 0 .215 0 C .349 0 .381 .120000008 .381 .13000001 C .381 .14000002 .37100003 .14000002 .368 .14000002 C .359 .14000002 .35700003 .136 .35500003 .13000001 C .326 .037 .261 .025000003 .224 .025000003 C .171 .025000003 .083000008 .068 .083000008 .22900002 Z "/>
</symbol>
<symbol id="font_5_6">
<path d="M .44300003 .22500003 C .44300003 .35300002 .34300003 .45900003 .222 .45900003 C .097 .45900003 0 .35000003 0 .22500003 C 0 .096 .104 0 .22100002 0 C .342 0 .44300003 .098000008 .44300003 .22500003 M .222 .025000003 C .17900002 .025000003 .135 .046 .10800001 .092 C .083000008 .136 .083000008 .19700001 .083000008 .23300003 C .083000008 .272 .083000008 .32600004 .10700001 .37000004 C .134 .41600005 .18100001 .43700005 .22100002 .43700005 C .26500003 .43700005 .30800004 .41500003 .33400003 .37200005 C .36 .32900004 .36 .27100004 .36 .23300003 C .36 .19700001 .36 .143 .33800004 .09900001 C .316 .054 .272 .025000003 .222 .025000003 Z "/>
</symbol>
<use xlink:href="#font_5_3" transform="matrix(9.9626,0,0,-9.9626,94.449817,267.76158)"/>
<use xlink:href="#font_5_6" transform="matrix(9.9626,0,0,-9.9626,98.81343,267.76158)"/>
<use xlink:href="#font_5_7" transform="matrix(9.9626,0,0,-9.9626,103.84454,267.76158)"/>
<use xlink:href="#font_5_1" transform="matrix(9.9626,0,0,-9.9626,108.42734,270.14265)"/>
<use xlink:href="#font_4_1" transform="matrix(9.9626,0,0,-9.9626,111.74251,267.76158)"/>
<use xlink:href="#font_5_2" transform="matrix(9.9626,0,0,-9.9626,116.844959,270.14265)"/>
</g>
<symbol id="font_4_3">
<path d="M .305 .31300003 C .311 .33900003 .334 .43100003 .404 .43100003 C .409 .43100003 .433 .43100003 .454 .418 C .426 .41300003 .40600003 .388 .40600003 .36400003 C .40600003 .34800003 .417 .32900004 .444 .32900004 C .46600003 .32900004 .498 .34700004 .498 .38700003 C .498 .43900005 .439 .45300005 .405 .45300005 C .347 .45300005 .312 .40000005 .3 .37700004 C .275 .44300003 .221 .45300005 .19200002 .45300005 C .08800001 .45300005 .031000002 .32400004 .031000002 .29900003 C .031000002 .28900004 .041 .28900004 .043000007 .28900004 C .051000008 .28900004 .054000006 .291 .056 .3 C .09 .40600003 .156 .43100003 .19000001 .43100003 C .209 .43100003 .244 .42200003 .244 .36400003 C .244 .33300004 .22700002 .26600004 .19000001 .126 C .17400001 .064 .13900002 .022000002 .095000009 .022000002 C .08900001 .022000002 .06600001 .022000002 .045 .035 C .07000001 .040000004 .09200001 .061 .09200001 .089 C .09200001 .116000007 .07000001 .124000009 .055000009 .124000009 C .025 .124000009 0 .098000008 0 .06600001 C 0 .020000002 .050000006 0 .094000007 0 C .16000001 0 .19600001 .07000001 .19900002 .076000008 C .21100001 .039 .24700003 0 .307 0 C .41 0 .467 .12900001 .467 .15400002 C .467 .16400002 .458 .16400002 .455 .16400002 C .446 .16400002 .444 .16000001 .442 .15300001 C .409 .046 .341 .022000002 .30900003 .022000002 C .27 .022000002 .254 .054 .254 .08800001 C .254 .11000001 .26 .13200002 .271 .17600002 L .305 .31300003 Z "/>
</symbol>
<use xlink:href="#font_4_3" transform="matrix(9.9626,0,0,-9.9626,269.97898,258.90959)"/>
<symbol id="font_4_4">
<path d="M .45700003 .586 C .461 .6 .461 .602 .461 .609 C .461 .62700006 .447 .63600006 .432 .63600006 C .42200003 .63600006 .40600003 .63 .397 .615 C .395 .61 .387 .579 .38300003 .561 C .37600003 .535 .36900003 .508 .363 .48100005 L .318 .301 C .314 .286 .271 .21600002 .20500002 .21600002 C .15400002 .21600002 .143 .26000003 .143 .29700003 C .143 .34300003 .16000001 .40500004 .194 .49300004 C .21000001 .53400006 .21400002 .545 .21400002 .56500008 C .21400002 .61 .18200001 .6470001 .13200002 .6470001 C .037 .6470001 0 .50200006 0 .49300004 C 0 .48300005 .01 .48300005 .012 .48300005 C .022000002 .48300005 .023 .485 .028000003 .50100007 C .055000009 .595 .095000009 .625 .12900001 .625 C .13700001 .625 .15400002 .625 .15400002 .59300008 C .15400002 .568 .14400001 .54200008 .13700001 .523 C .097 .41700004 .079 .36 .079 .31300003 C .079 .224 .142 .194 .201 .194 C .24000003 .194 .274 .21100001 .30200003 .23900002 C .289 .187 .277 .13800001 .237 .08500001 C .21100001 .051 .17300001 .022 .127 .022 C .113000009 .022 .068 .025000006 .051000008 .06400001 C .067 .06400001 .080000009 .06400001 .094000007 .076000008 C .104 .08500001 .11400001 .098000008 .11400001 .117000009 C .11400001 .148 .087000008 .15200001 .07700001 .15200001 C .054000006 .15200001 .021 .136 .021 .087000008 C .021 .037 .065000008 0 .127 0 C .23 0 .333 .091000009 .361 .20400001 L .45700003 .586 Z "/>
</symbol>
<use xlink:href="#font_4_4" transform="matrix(9.9626,0,0,-9.9626,20.269995,9.652319)"/>
</svg>
