<?xml version="1.0" encoding="UTF-8" standalone="no"?>
<!DOCTYPE svg PUBLIC "-//W3C//DTD SVG 1.1//EN" "http://www.w3.org/Graphics/SVG/1.1/DTD/svg11.dtd">
<svg xmlns="http://www.w3.org/2000/svg" xmlns:xlink="http://www.w3.org/1999/xlink" version="1.1" width="282.106pt" height="149.425pt" viewBox="0 0 282.106 149.425">
<symbol id="font_0_2">
<path d="M .47600005 .694 C .47600005 .695 .47600005 .705 .46300004 .705 C .44800005 .705 .35300002 .69600006 .33600004 .694 C .32800005 .693 .32200004 .688 .32200004 .675 C .32200004 .663 .33100004 .663 .34600003 .663 C .39400003 .663 .39600004 .656 .39600004 .646 L .39300005 .626 L .33300004 .38900004 C .31500004 .42600004 .286 .45300005 .24100001 .45300005 C .124 .45300005 0 .30600003 0 .16000001 C 0 .06600001 .055000005 0 .133 0 C .153 0 .20300001 .0040000008 .263 .075 C .27100004 .033000005 .30600003 0 .35400004 0 C .38900004 0 .41200004 .023000002 .42800004 .055000005 C .44500003 .091000009 .45800004 .15200001 .45800004 .15400002 C .45800004 .16400002 .44900004 .16400002 .44600005 .16400002 C .43600003 .16400002 .43500004 .16000001 .43200005 .14600002 C .41500003 .081 .397 .022000002 .35600005 .022000002 C .32900004 .022000002 .32600004 .048 .32600004 .068 C .32600004 .092 .32800005 .09900001 .33200003 .116000007 L .47600005 .694 M .26800005 .13000001 C .263 .112 .263 .11000001 .24800001 .093 C .20400001 .038000004 .163 .022000002 .135 .022000002 C .08499999 .022000002 .07100001 .077 .07100001 .116000007 C .07100001 .16600001 .103 .28900004 .126 .335 C .157 .39400003 .202 .43100003 .242 .43100003 C .307 .43100003 .32100005 .34900005 .32100005 .34300003 C .32100005 .337 .31900005 .33100004 .31800003 .32600004 L .26800005 .13000001 Z "/>
</symbol>
<use xlink:href="#font_0_2" transform="matrix(9.9626,0,0,-9.9626,7.8355009,10.975586)"/>
<path transform="matrix(1,0,0,-1,4.5899975,15.1150059)" stroke-width="1" stroke-linecap="butt" stroke-miterlimit="10" stroke-linejoin="miter" fill="none" stroke="#000000" d="M 0 0 L 10.879 0 "/>
<symbol id="font_0_6">
<path d="M .305 .31300003 C .311 .33900003 .334 .43100003 .404 .43100003 C .409 .43100003 .433 .43100003 .454 .418 C .426 .41300003 .40600003 .388 .40600003 .36400003 C .40600003 .34800003 .417 .32900004 .444 .32900004 C .46600003 .32900004 .498 .34700004 .498 .38700003 C .498 .43900005 .439 .45300005 .405 .45300005 C .347 .45300005 .312 .40000005 .3 .37700004 C .275 .44300003 .221 .45300005 .19200002 .45300005 C .08800001 .45300005 .031000002 .32400004 .031000002 .29900003 C .031000002 .28900004 .041 .28900004 .043000007 .28900004 C .051000008 .28900004 .054000006 .291 .056 .3 C .09 .40600003 .156 .43100003 .19000001 .43100003 C .209 .43100003 .244 .42200003 .244 .36400003 C .244 .33300004 .22700002 .26600004 .19000001 .126 C .17400001 .064 .13900002 .022000002 .095000009 .022000002 C .08900001 .022000002 .06600001 .022000002 .045 .035 C .07000001 .040000004 .09200001 .061 .09200001 .089 C .09200001 .116000007 .07000001 .124000009 .055000009 .124000009 C .025 .124000009 0 .098000008 0 .06600001 C 0 .020000002 .050000006 0 .094000007 0 C .16000001 0 .19600001 .07000001 .19900002 .076000008 C .21100001 .039 .24700003 0 .307 0 C .41 0 .467 .12900001 .467 .15400002 C .467 .16400002 .458 .16400002 .455 .16400002 C .446 .16400002 .444 .16000001 .442 .15300001 C .409 .046 .341 .022000002 .30900003 .022000002 C .27 .022000002 .254 .054 .254 .08800001 C .254 .11000001 .26 .13200002 .271 .17600002 L .305 .31300003 Z "/>
</symbol>
<use xlink:href="#font_0_2" transform="matrix(9.9626,0,0,-9.9626,4.9885017,24.549592)"/>
<use xlink:href="#font_0_6" transform="matrix(9.9626,0,0,-9.9626,10.0694279,24.549592)"/>
<symbol id="font_1_1">
<path d="M .261 .00999999 C .261 .013999939 .259 .016000033 .257 .018999935 C .211 .06799996 .143 .14900005 .10100001 .31199999 C .077999997 .403 .069000009 .506 .069000009 .59900006 C .069000009 .862 .132 1.046 .252 1.176 C .261 1.1850001 .261 1.187 .261 1.189 C .261 1.199 .25300003 1.199 .24900002 1.199 C .234 1.199 .18 1.139 .167 1.1240001 C .065 1.003 0 .823 0 .6 C 0 .458 .024999991 .25699998 .15600002 .08799994 C .16600001 .075999978 .231 0 .24900002 0 C .25300003 0 .261 0 .261 .00999999 Z "/>
</symbol>
<use xlink:href="#font_1_1" transform="matrix(9.9626,0,0,-9.9626,18.179312,21.08265)"/>
<symbol id="font_0_3">
<path d="M .314 .605 L .4 .605 C .42000003 .605 .43 .605 .43 .625 C .43 .63600006 .42000003 .63600006 .40300004 .63600006 L .32000003 .63600006 L .34100003 .75 C .34500004 .771 .35900004 .842 .365 .8540001 C .374 .873 .39100004 .888 .41200004 .888 C .416 .888 .44200004 .888 .461 .87 C .41700004 .86600008 .407 .8310001 .407 .816 C .407 .793 .425 .781 .444 .781 C .47 .781 .49900005 .8030001 .49900005 .8410001 C .49900005 .8870001 .45300005 .9100001 .41200004 .9100001 C .37800003 .9100001 .31500004 .8920001 .28500004 .793 C .279 .7720001 .27600003 .7620001 .252 .63600006 L .18300002 .63600006 C .164 .63600006 .15300001 .63600006 .15300001 .61700007 C .15300001 .605 .162 .605 .18100001 .605 L .24700001 .605 L .172 .21000001 C .15400002 .113000009 .13700001 .022 .08500001 .022 C .081 .022 .056 .022 .037 .040000008 C .083000008 .043000014 .09200001 .07900001 .09200001 .094000007 C .09200001 .117000009 .074 .12900001 .055 .12900001 C .029 .12900001 0 .10700001 0 .069000009 C 0 .024000004 .044 0 .08500001 0 C .14 0 .18 .059 .19800002 .09700001 C .23000002 .16000001 .25300003 .28100003 .254 .28800003 L .314 .605 Z "/>
</symbol>
<use xlink:href="#font_0_3" transform="matrix(9.9626,0,0,-9.9626,21.759016,19.648337)"/>
<symbol id="font_2_1">
<path d="M .23200003 .00999999 C .23200003 .012999982 .23200003 .014999986 .215 .03199999 C .09 .15799999 .058 .347 .058 .5 C .058 .674 .096 .84800007 .21900001 .97300007 C .23200003 .985 .23200003 .98700007 .23200003 .99 C .23200003 .99700006 .22800002 1 .222 1 C .21200001 1 .12200001 .93200007 .06299999 .805 C .012000002 .69500008 0 .584 0 .5 C 0 .422 .011 .301 .066 .188 C .126 .065 .21200001 0 .222 0 C .22800002 0 .23200003 .0029999912 .23200003 .00999999 Z "/>
</symbol>
<use xlink:href="#font_2_1" transform="matrix(9.9626,0,0,-9.9626,28.167294,20.096653)"/>
<use xlink:href="#font_0_6" transform="matrix(9.9626,0,0,-9.9626,31.343913,17.715592)"/>
<symbol id="font_2_2">
<path d="M .232 .5 C .232 .578 .22100002 .699 .16600001 .81200006 C .106 .93500009 .020000004 1 .009999998 1 C .0040000008 1 0 .99600008 0 .99 C 0 .98700007 0 .985 .019000002 .967 C .117000009 .86800006 .174 .709 .174 .5 C .174 .329 .137 .153 .012999997 .026999996 C 0 .014999986 0 .012999982 0 .00999999 C 0 .003999993 .0040000008 0 .009999998 0 C .020000004 0 .11000001 .06799999 .169 .195 C .22 .305 .232 .416 .232 .5 Z "/>
</symbol>
<symbol id="font_2_3">
<path d="M .35300002 .31300003 L .632 .31300003 C .646 .31300003 .665 .31300003 .665 .333 C .665 .35300002 .646 .35300002 .632 .35300002 L .35300002 .35300002 L .35300002 .633 C .35300002 .647 .35300002 .666 .33300004 .666 C .31300003 .666 .31300003 .647 .31300003 .633 L .31300003 .35300002 L .033 .35300002 C .019000002 .35300002 0 .35300002 0 .333 C 0 .31300003 .019000002 .31300003 .033 .31300003 L .31300003 .31300003 L .31300003 .033000005 C .31300003 .019000002 .31300003 0 .33300004 0 C .35300002 0 .35300002 .019000002 .35300002 .033000005 L .35300002 .31300003 Z "/>
</symbol>
<use xlink:href="#font_2_2" transform="matrix(9.9626,0,0,-9.9626,37.316865,20.096653)"/>
<use xlink:href="#font_2_3" transform="matrix(9.9626,0,0,-9.9626,43.39405,18.4329)"/>
<symbol id="font_0_4">
<path d="M .45600004 .582 C .45700003 .58800008 .45900006 .59300008 .45900006 .6 C .45900006 .61700007 .44700004 .62700006 .43 .62700006 C .42000003 .62700006 .393 .62 .389 .584 C .371 .62100008 .33600004 .6470001 .296 .6470001 C .18200001 .6470001 .058000007 .507 .058000007 .36300005 C .058000007 .26400004 .119 .20500002 .19100002 .20500002 C .25 .20500002 .297 .252 .30700005 .263 L .30800004 .26200003 C .287 .17300001 .27500005 .132 .27500005 .13000001 C .27100004 .12100001 .237 .022 .13100001 .022 C .112 .022 .079 .023000002 .051 .032000007 C .081 .04100001 .09200001 .067 .09200001 .08400001 C .09200001 .10000001 .081 .11900001 .054000006 .11900001 C .032 .11900001 0 .10100001 0 .061000006 C 0 .02000001 .037 0 .133 0 C .25800003 0 .33000005 .07800001 .34500004 .13800001 L .45600004 .582 M .32600004 .333 C .32 .307 .297 .282 .27500005 .263 C .254 .24500002 .223 .22700002 .194 .22700002 C .14400001 .22700002 .12900001 .279 .12900001 .319 C .12900001 .367 .158 .485 .185 .536 C .21200001 .58500006 .255 .625 .297 .625 C .36300005 .625 .37700004 .544 .37700004 .53900006 C .37700004 .53400006 .375 .528 .374 .52400007 L .32600004 .333 Z "/>
</symbol>
<use xlink:href="#font_0_4" transform="matrix(9.9626,0,0,-9.9626,52.94944,19.648337)"/>
<use xlink:href="#font_2_1" transform="matrix(9.9626,0,0,-9.9626,58.895299,20.096653)"/>
<use xlink:href="#font_0_6" transform="matrix(9.9626,0,0,-9.9626,62.072916,17.715592)"/>
<use xlink:href="#font_2_2" transform="matrix(9.9626,0,0,-9.9626,68.045879,20.096653)"/>
<symbol id="font_1_2">
<path d="M .261 .59900006 C .261 .74100008 .236 .94200006 .105000007 1.1110001 C .09500001 1.123 .029999998 1.199 .011999998 1.199 C .0069999995 1.199 0 1.197 0 1.189 C 0 1.1850001 .0020000004 1.182 .0059999974 1.179 C .054 1.1270001 .119 1.046 .16000001 .887 C .18300002 .796 .19200002 .693 .19200002 .6 C .19200002 .499 .18300002 .397 .157 .29900003 C .119 .15900004 .06 .078999999 .009 .023000002 C 0 .013999939 0 .011999965 0 .00999999 C 0 .0019999743 .0069999995 0 .011999998 0 C .026999999 0 .082 .06099999 .09400001 .07499993 C .19600001 .19599998 .261 .376 .261 .59900006 Z "/>
</symbol>
<use xlink:href="#font_1_2" transform="matrix(9.9626,0,0,-9.9626,71.79036,21.08265)"/>
<symbol id="font_2_4">
<path d="M .63100007 .19400002 C .646 .19400002 .665 .19400002 .665 .214 C .665 .23400001 .646 .23400001 .632 .23400001 L .033 .23400001 C .019000002 .23400001 0 .23400001 0 .214 C 0 .19400002 .019000002 .19400002 .034 .19400002 L .63100007 .19400002 M .632 0 C .646 0 .665 0 .665 .02000001 C .665 .040000008 .646 .040000008 .63100007 .040000008 L .034 .040000008 C .019000002 .040000008 0 .040000008 0 .02000001 C 0 0 .019000002 0 .033 0 L .632 0 Z "/>
</symbol>
<symbol id="font_2_6">
<path d="M .144 .694 L 0 .683 L 0 .652 C .07000001 .652 .07800001 .64500007 .07800001 .596 L .07800001 .076000008 C .07800001 .031000002 .067 .031000002 0 .031000002 L 0 0 C .033 .001 .086 .003 .11100001 .003 C .136 .003 .185 .001 .22200004 0 L .22200004 .031000002 C .155 .031000002 .144 .031000002 .144 .076000008 L .144 .694 Z "/>
</symbol>
<symbol id="font_2_5">
<path d="M .144 .44200004 L .0040000008 .43100003 L .0040000008 .4 C .069000009 .4 .07800001 .39400003 .07800001 .34500004 L .07800001 .076000008 C .07800001 .031000002 .067 .031000002 0 .031000002 L 0 0 C .032000007 .001 .086 .003 .11000001 .003 C .14500001 .003 .18 .001 .21400002 0 L .21400002 .031000002 C .148 .031000002 .144 .036000004 .144 .075 L .144 .44200004 M .148 .61600008 C .148 .648 .123 .669 .095000009 .669 C .064 .669 .042000005 .642 .042000005 .61600008 C .042000005 .58900007 .064 .563 .095000009 .563 C .123 .563 .148 .58400008 .148 .61600008 Z "/>
</symbol>
<symbol id="font_2_7">
<path d="M .07800001 .344 L .07800001 .076000008 C .07800001 .031000002 .067 .031000002 0 .031000002 L 0 0 C .035 .001 .08600001 .003 .113000009 .003 C .139 .003 .191 .001 .225 0 L .225 .031000002 C .158 .031000002 .147 .031000002 .147 .076000008 L .147 .26000003 C .147 .36400003 .218 .42000003 .282 .42000003 C .345 .42000003 .356 .36600004 .356 .30900003 L .356 .076000008 C .356 .031000002 .345 .031000002 .278 .031000002 L .278 0 C .31300003 .001 .36400003 .003 .391 .003 C .41700004 .003 .46900005 .001 .503 0 L .503 .031000002 C .43600003 .031000002 .425 .031000002 .425 .076000008 L .425 .26000003 C .425 .36400003 .496 .42000003 .56 .42000003 C .623 .42000003 .634 .36600004 .634 .30900003 L .634 .076000008 C .634 .031000002 .623 .031000002 .556 .031000002 L .556 0 C .591 .001 .642 .003 .669 .003 C .69500008 .003 .74700006 .001 .781 0 L .781 .031000002 C .72900006 .031000002 .70400008 .031000002 .703 .061000006 L .703 .252 C .703 .33800004 .703 .36900003 .67200008 .40500004 C .65800008 .42200003 .625 .44200004 .56700006 .44200004 C .48300005 .44200004 .439 .38200004 .42200003 .344 C .40800003 .43100003 .33400003 .44200004 .289 .44200004 C .216 .44200004 .169 .39900003 .141 .337 L .141 .44200004 L 0 .43100003 L 0 .4 C .07000001 .4 .07800001 .393 .07800001 .344 Z "/>
</symbol>
<use xlink:href="#font_2_4" transform="matrix(9.9626,0,0,-9.9626,79.24391,16.280978)"/>
<use xlink:href="#font_2_6" transform="matrix(9.9626,0,0,-9.9626,90.90015,17.606003)"/>
<use xlink:href="#font_2_5" transform="matrix(9.9626,0,0,-9.9626,93.66975,17.606003)"/>
<use xlink:href="#font_2_7" transform="matrix(9.9626,0,0,-9.9626,96.42938,17.606003)"/>
<symbol id="font_3_1">
<path d="M .23800002 .674 C .23900001 .676 .242 .689 .242 .69 C .242 .69500008 .23800002 .704 .22600003 .704 C .20600002 .704 .12300001 .69600006 .098000008 .694 C .09 .693 .076000008 .69200006 .076000008 .671 C .076000008 .657 .09 .657 .102 .657 C .15 .657 .15 .65000006 .15 .642 C .15 .635 .148 .629 .14600002 .62 L .0050000029 .054000006 C 0 .036000004 0 .034 0 .032 C 0 .017 .012000002 0 .034 0 C .045 0 .06400001 .0050000005 .075 .026 C .07800001 .032 .087 .068 .09200001 .089 L .11500001 .17800002 C .118 .19300002 .128 .23100002 .13100001 .24600002 C .141 .284 .141 .285 .16100002 .317 C .193 .366 .24300002 .423 .32100005 .423 C .37700004 .423 .38 .377 .38 .35300002 C .38 .293 .337 .18200001 .32100005 .14000002 C .31 .112 .306 .103 .306 .086 C .306 .033000005 .35000003 0 .40100003 0 C .50100007 0 .545 .13800001 .545 .15300001 C .545 .16600001 .53200009 .16600001 .52900007 .16600001 C .51500007 .16600001 .51400008 .16000001 .51000007 .14900002 C .48700006 .069000009 .44300003 .028 .40400005 .028 C .38300003 .028 .379 .042000005 .379 .063 C .379 .086 .384 .099 .402 .14400001 C .41400004 .17500001 .45500005 .28100003 .45500005 .337 C .45500005 .35300002 .45500005 .395 .41800005 .42400003 C .40100003 .437 .37200005 .451 .325 .451 C .25200004 .451 .19900002 .411 .16200002 .368 L .23800002 .674 Z "/>
</symbol>
<use xlink:href="#font_3_1" transform="matrix(6.9738,0,0,-6.9738,89.72504,24.17874)"/>
<symbol id="font_4_1">
<path d="M .843 .23900001 C .717 .147 .7 .016 .7 .015000001 C .7 0 .71000006 0 .72400006 0 C .74200007 0 .745 0 .75 .017 C .75600007 .042000005 .772 .106000009 .824 .161 C .882 .222 .93200007 .237 .974 .25000004 C .98 .252 .9840001 .25800003 .9840001 .263 C .9840001 .27300004 .97800007 .27500005 .96500006 .279 C .82100006 .32500003 .77000007 .42700006 .749 .51500007 C .745 .527 .73800006 .527 .72400006 .527 C .71000006 .527 .7 .527 .7 .512 C .7 .51 .71000006 .44300003 .759 .37400005 C .782 .34000004 .81 .31200005 .843 .28800003 L .04 .28800003 C .023999997 .28800003 0 .28800003 0 .26400004 C 0 .23900001 .022999995 .23900001 .04 .23900001 L .843 .23900001 Z "/>
</symbol>
<use xlink:href="#font_4_1" transform="matrix(6.9738,0,0,-6.9738,94.402988,24.199662)"/>
<symbol id="font_5_1">
<path d="M .46400006 .33900003 C .46400006 .44900004 .45100004 .528 .40500004 .598 C .374 .644 .31200005 .684 .23200001 .684 C 0 .684 0 .41100005 0 .33900003 C 0 .26700003 0 0 .23200001 0 C .46400006 0 .46400006 .26700003 .46400006 .33900003 M .23200001 .028 C .186 .028 .125 .055 .105000007 .13700001 C .091000009 .19600001 .091000009 .27800004 .091000009 .35200004 C .091000009 .42500005 .091000009 .50100007 .106000009 .556 C .127 .635 .19100002 .656 .23200001 .656 C .286 .656 .338 .623 .356 .565 C .37200005 .51100006 .37300004 .43900005 .37300004 .35200004 C .37300004 .27800004 .37300004 .20400001 .36 .141 C .34000004 .050000006 .272 .028 .23200001 .028 Z "/>
</symbol>
<use xlink:href="#font_5_1" transform="matrix(6.9738,0,0,-6.9738,102.17065,24.248478)"/>
<use xlink:href="#font_0_3" transform="matrix(9.9626,0,0,-9.9626,109.163028,12.908331)"/>
<use xlink:href="#font_2_1" transform="matrix(9.9626,0,0,-9.9626,115.571308,13.3566479)"/>
<use xlink:href="#font_0_6" transform="matrix(9.9626,0,0,-9.9626,118.748928,10.975586)"/>
<use xlink:href="#font_2_3" transform="matrix(9.9626,0,0,-9.9626,126.92591,11.692893)"/>
<symbol id="font_0_5">
<path d="M .232 .694 C .232 .695 .232 .705 .21900001 .705 C .19600001 .705 .122999999 .697 .097 .695 C .089 .694 .077999997 .693 .077999997 .675 C .077999997 .663 .087 .663 .102 .663 C .15 .663 .15200001 .656 .15200001 .646 L .149 .626 L .0040000008 .05 C 0 .036000004 0 .034 0 .028 C 0 .005000001 .02 0 .029000003 0 C .044999999 0 .061 .012000001 .066 .026 L .08499999 .102000009 L .10699999 .19200002 C .113000009 .21400002 .119 .23600002 .124 .259 C .126 .26500003 .134 .298 .135 .30400003 C .138 .31300003 .169 .36900003 .20300001 .39600004 C .225 .41200004 .256 .43100003 .299 .43100003 C .342 .43100003 .35300002 .397 .35300002 .36100004 C .35300002 .307 .315 .19800002 .291 .13700001 C .28300003 .11400001 .278 .102000009 .278 .082 C .278 .035 .31300003 0 .36 0 C .454 0 .491 .14600002 .491 .15400002 C .491 .16400002 .482 .16400002 .47900004 .16400002 C .46900005 .16400002 .46900005 .16100002 .46400006 .14600002 C .449 .093 .41700004 .022000002 .36200003 .022000002 C .345 .022000002 .338 .032 .338 .055000005 C .338 .080000009 .347 .104 .356 .126 C .372 .16900002 .41700004 .28800003 .41700004 .34600003 C .41700004 .411 .377 .45300005 .30200003 .45300005 C .239 .45300005 .191 .42200003 .154 .37600003 L .232 .694 Z "/>
</symbol>
<use xlink:href="#font_0_5" transform="matrix(9.9626,0,0,-9.9626,136.87795,10.975586)"/>
<use xlink:href="#font_2_2" transform="matrix(9.9626,0,0,-9.9626,142.63788,13.3566479)"/>
<use xlink:href="#font_2_3" transform="matrix(9.9626,0,0,-9.9626,148.71508,11.692893)"/>
<use xlink:href="#font_0_4" transform="matrix(9.9626,0,0,-9.9626,158.27045,12.908331)"/>
<use xlink:href="#font_2_1" transform="matrix(9.9626,0,0,-9.9626,164.2163,13.3566479)"/>
<use xlink:href="#font_0_6" transform="matrix(9.9626,0,0,-9.9626,167.3939,10.975586)"/>
<use xlink:href="#font_2_3" transform="matrix(9.9626,0,0,-9.9626,175.5709,11.692893)"/>
<use xlink:href="#font_0_5" transform="matrix(9.9626,0,0,-9.9626,185.52295,10.975586)"/>
<use xlink:href="#font_2_2" transform="matrix(9.9626,0,0,-9.9626,191.28289,13.3566479)"/>
<symbol id="font_6_1">
<path d="M .57600006 0 C .59300008 0 .611 0 .611 .019999996 C .611 .040000008 .59300008 .040000008 .57600006 .040000008 L .035000005 .040000008 C .018 .040000008 0 .040000008 0 .019999996 C 0 0 .018 0 .035000005 0 L .57600006 0 Z "/>
</symbol>
<use xlink:href="#font_6_1" transform="matrix(9.9626,0,0,-9.9626,197.6299,8.574599)"/>
<use xlink:href="#font_2_1" transform="matrix(9.9626,0,0,-9.9626,207.7523,13.3566479)"/>
<use xlink:href="#font_0_3" transform="matrix(9.9626,0,0,-9.9626,211.16802,12.908331)"/>
<use xlink:href="#font_2_1" transform="matrix(9.9626,0,0,-9.9626,217.5763,13.3566479)"/>
<use xlink:href="#font_0_6" transform="matrix(9.9626,0,0,-9.9626,220.7539,10.975586)"/>
<use xlink:href="#font_2_2" transform="matrix(9.9626,0,0,-9.9626,226.72687,13.3566479)"/>
<use xlink:href="#font_2_3" transform="matrix(9.9626,0,0,-9.9626,232.80406,11.692893)"/>
<use xlink:href="#font_0_4" transform="matrix(9.9626,0,0,-9.9626,242.35845,12.908331)"/>
<use xlink:href="#font_2_1" transform="matrix(9.9626,0,0,-9.9626,248.3053,13.3566479)"/>
<use xlink:href="#font_0_6" transform="matrix(9.9626,0,0,-9.9626,251.4819,10.975586)"/>
<use xlink:href="#font_2_2" transform="matrix(9.9626,0,0,-9.9626,257.45487,13.3566479)"/>
<use xlink:href="#font_2_2" transform="matrix(9.9626,0,0,-9.9626,261.33033,13.3566479)"/>
<path transform="matrix(1,0,0,-1,108.635,15.1150059)" stroke-width="1" stroke-linecap="butt" stroke-miterlimit="10" stroke-linejoin="miter" fill="none" stroke="#000000" d="M 0 0 L 156 0 "/>
<use xlink:href="#font_0_5" transform="matrix(9.9626,0,0,-9.9626,184.31395,24.549592)"/>
<use xlink:href="#font_2_4" transform="matrix(9.9626,0,0,-9.9626,79.24391,41.976976)"/>
<use xlink:href="#font_2_6" transform="matrix(9.9626,0,0,-9.9626,90.90015,43.302003)"/>
<use xlink:href="#font_2_5" transform="matrix(9.9626,0,0,-9.9626,93.66975,43.302003)"/>
<use xlink:href="#font_2_7" transform="matrix(9.9626,0,0,-9.9626,96.42938,43.302003)"/>
<use xlink:href="#font_3_1" transform="matrix(6.9738,0,0,-6.9738,89.72504,49.875738)"/>
<use xlink:href="#font_4_1" transform="matrix(6.9738,0,0,-6.9738,94.402988,49.89666)"/>
<use xlink:href="#font_5_1" transform="matrix(6.9738,0,0,-6.9738,102.17065,49.945478)"/>
<use xlink:href="#font_0_3" transform="matrix(9.9626,0,0,-9.9626,109.163028,38.605337)"/>
<use xlink:href="#font_2_1" transform="matrix(9.9626,0,0,-9.9626,115.571308,39.053655)"/>
<use xlink:href="#font_0_6" transform="matrix(9.9626,0,0,-9.9626,118.748928,36.672594)"/>
<use xlink:href="#font_2_3" transform="matrix(9.9626,0,0,-9.9626,126.92591,37.3899)"/>
<use xlink:href="#font_0_5" transform="matrix(9.9626,0,0,-9.9626,136.87795,36.672594)"/>
<use xlink:href="#font_2_2" transform="matrix(9.9626,0,0,-9.9626,142.63788,39.053655)"/>
<use xlink:href="#font_2_3" transform="matrix(9.9626,0,0,-9.9626,148.71508,37.3899)"/>
<use xlink:href="#font_0_4" transform="matrix(9.9626,0,0,-9.9626,158.27045,38.605337)"/>
<use xlink:href="#font_2_1" transform="matrix(9.9626,0,0,-9.9626,164.2163,39.053655)"/>
<use xlink:href="#font_0_6" transform="matrix(9.9626,0,0,-9.9626,167.3939,36.672594)"/>
<use xlink:href="#font_2_3" transform="matrix(9.9626,0,0,-9.9626,175.5709,37.3899)"/>
<use xlink:href="#font_0_5" transform="matrix(9.9626,0,0,-9.9626,185.52295,36.672594)"/>
<use xlink:href="#font_2_2" transform="matrix(9.9626,0,0,-9.9626,191.28289,39.053655)"/>
<use xlink:href="#font_6_1" transform="matrix(9.9626,0,0,-9.9626,197.6299,34.271608)"/>
<use xlink:href="#font_0_3" transform="matrix(9.9626,0,0,-9.9626,207.29402,38.605337)"/>
<use xlink:href="#font_2_1" transform="matrix(9.9626,0,0,-9.9626,213.7023,39.053655)"/>
<use xlink:href="#font_0_6" transform="matrix(9.9626,0,0,-9.9626,216.8789,36.672594)"/>
<use xlink:href="#font_2_2" transform="matrix(9.9626,0,0,-9.9626,222.85187,39.053655)"/>
<use xlink:href="#font_6_1" transform="matrix(9.9626,0,0,-9.9626,229.19889,34.271608)"/>
<use xlink:href="#font_0_4" transform="matrix(9.9626,0,0,-9.9626,238.48444,38.605337)"/>
<use xlink:href="#font_2_1" transform="matrix(9.9626,0,0,-9.9626,244.43029,39.053655)"/>
<use xlink:href="#font_0_6" transform="matrix(9.9626,0,0,-9.9626,247.6079,36.672594)"/>
<use xlink:href="#font_2_2" transform="matrix(9.9626,0,0,-9.9626,253.58086,39.053655)"/>
<path transform="matrix(1,0,0,-1,108.635,40.812005)" stroke-width="1" stroke-linecap="butt" stroke-miterlimit="10" stroke-linejoin="miter" fill="none" stroke="#000000" d="M 0 0 L 148.252 0 "/>
<use xlink:href="#font_0_5" transform="matrix(9.9626,0,0,-9.9626,180.43895,50.24559)"/>
<use xlink:href="#font_2_4" transform="matrix(9.9626,0,0,-9.9626,79.24291,67.67397)"/>
<use xlink:href="#font_2_6" transform="matrix(9.9626,0,0,-9.9626,90.89915,68.999)"/>
<use xlink:href="#font_2_5" transform="matrix(9.9626,0,0,-9.9626,93.66875,68.999)"/>
<use xlink:href="#font_2_7" transform="matrix(9.9626,0,0,-9.9626,96.42838,68.999)"/>
<use xlink:href="#font_3_1" transform="matrix(6.9738,0,0,-6.9738,89.72504,75.57174)"/>
<use xlink:href="#font_4_1" transform="matrix(6.9738,0,0,-6.9738,94.402988,75.59266)"/>
<use xlink:href="#font_5_1" transform="matrix(6.9738,0,0,-6.9738,102.17065,75.64147)"/>
<use xlink:href="#font_0_3" transform="matrix(9.9626,0,0,-9.9626,109.163028,64.30134)"/>
<use xlink:href="#font_2_1" transform="matrix(9.9626,0,0,-9.9626,115.571308,64.74965)"/>
<use xlink:href="#font_0_6" transform="matrix(9.9626,0,0,-9.9626,118.748928,62.36859)"/>
<use xlink:href="#font_2_3" transform="matrix(9.9626,0,0,-9.9626,126.92591,63.0859)"/>
<use xlink:href="#font_0_5" transform="matrix(9.9626,0,0,-9.9626,136.87795,62.36859)"/>
<use xlink:href="#font_2_2" transform="matrix(9.9626,0,0,-9.9626,142.63788,64.74965)"/>
<use xlink:href="#font_6_1" transform="matrix(9.9626,0,0,-9.9626,148.9849,59.967607)"/>
<use xlink:href="#font_0_3" transform="matrix(9.9626,0,0,-9.9626,158.64902,64.30134)"/>
<use xlink:href="#font_2_1" transform="matrix(9.9626,0,0,-9.9626,165.0573,64.74965)"/>
<use xlink:href="#font_0_6" transform="matrix(9.9626,0,0,-9.9626,168.2339,62.36859)"/>
<use xlink:href="#font_2_2" transform="matrix(9.9626,0,0,-9.9626,174.20687,64.74965)"/>
<use xlink:href="#font_2_3" transform="matrix(9.9626,0,0,-9.9626,180.28406,63.0859)"/>
<use xlink:href="#font_0_4" transform="matrix(9.9626,0,0,-9.9626,189.83943,64.30134)"/>
<use xlink:href="#font_2_1" transform="matrix(9.9626,0,0,-9.9626,195.78528,64.74965)"/>
<use xlink:href="#font_0_6" transform="matrix(9.9626,0,0,-9.9626,198.96289,62.36859)"/>
<use xlink:href="#font_2_3" transform="matrix(9.9626,0,0,-9.9626,207.1399,63.0859)"/>
<use xlink:href="#font_0_5" transform="matrix(9.9626,0,0,-9.9626,217.09194,62.36859)"/>
<use xlink:href="#font_2_2" transform="matrix(9.9626,0,0,-9.9626,222.85187,64.74965)"/>
<use xlink:href="#font_6_1" transform="matrix(9.9626,0,0,-9.9626,229.19889,59.967607)"/>
<use xlink:href="#font_0_4" transform="matrix(9.9626,0,0,-9.9626,238.48444,64.30134)"/>
<use xlink:href="#font_2_1" transform="matrix(9.9626,0,0,-9.9626,244.43029,64.74965)"/>
<use xlink:href="#font_0_6" transform="matrix(9.9626,0,0,-9.9626,247.6079,62.36859)"/>
<use xlink:href="#font_2_2" transform="matrix(9.9626,0,0,-9.9626,253.58086,64.74965)"/>
<path transform="matrix(1,0,0,-1,108.635,66.508)" stroke-width="1" stroke-linecap="butt" stroke-miterlimit="10" stroke-linejoin="miter" fill="none" stroke="#000000" d="M 0 0 L 148.252 0 "/>
<use xlink:href="#font_0_5" transform="matrix(9.9626,0,0,-9.9626,180.43895,75.94259)"/>
<use xlink:href="#font_2_4" transform="matrix(9.9626,0,0,-9.9626,79.24291,93.60397)"/>
<use xlink:href="#font_2_6" transform="matrix(9.9626,0,0,-9.9626,90.89915,94.929)"/>
<use xlink:href="#font_2_5" transform="matrix(9.9626,0,0,-9.9626,93.66875,94.929)"/>
<use xlink:href="#font_2_7" transform="matrix(9.9626,0,0,-9.9626,96.42838,94.929)"/>
<use xlink:href="#font_3_1" transform="matrix(6.9738,0,0,-6.9738,89.72504,101.50274)"/>
<use xlink:href="#font_4_1" transform="matrix(6.9738,0,0,-6.9738,94.402988,101.52366)"/>
<use xlink:href="#font_5_1" transform="matrix(6.9738,0,0,-6.9738,102.17065,101.57247)"/>
<symbol id="font_1_3">
<path d="M .49200005 .00999999 C .49200005 .014000177 .49 .016000033 .48800005 .019000054 C .45100004 .055999996 .384 .123000148 .31700004 .23100019 C .15600002 .48900009 .083000008 .8140001 .083000008 1.1990001 C .083000008 1.4680002 .11900002 1.8150002 .284 2.1130002 C .36300005 2.255 .44500006 2.3370002 .48900003 2.3810003 C .49200005 2.3840004 .49200005 2.3860002 .49200005 2.3890002 C .49200005 2.3990002 .485 2.3990002 .47100003 2.3990002 C .45700003 2.3990002 .45500005 2.3990002 .44 2.3840004 C .10500002 2.0790003 0 1.6210002 0 1.2000002 C 0 .80700019 .09 .41100014 .34400005 .11199999 C .36400003 .08899999 .402 .048000099 .44300003 .012000084 C .45500005 0 .45700003 0 .47100003 0 C .485 0 .49200005 0 .49200005 .00999999 Z "/>
</symbol>
<use xlink:href="#font_1_3" transform="matrix(9.9626,0,0,-9.9626,109.51222,104.38378)"/>
<use xlink:href="#font_0_3" transform="matrix(9.9626,0,0,-9.9626,116.49702,90.23234)"/>
<use xlink:href="#font_2_1" transform="matrix(9.9626,0,0,-9.9626,122.9053,90.68065)"/>
<use xlink:href="#font_0_6" transform="matrix(9.9626,0,0,-9.9626,126.08192,88.29959)"/>
<use xlink:href="#font_2_3" transform="matrix(9.9626,0,0,-9.9626,134.25891,89.0169)"/>
<use xlink:href="#font_0_5" transform="matrix(9.9626,0,0,-9.9626,144.21195,88.29959)"/>
<use xlink:href="#font_2_2" transform="matrix(9.9626,0,0,-9.9626,149.97188,90.68065)"/>
<use xlink:href="#font_6_1" transform="matrix(9.9626,0,0,-9.9626,156.3189,85.898609)"/>
<use xlink:href="#font_0_3" transform="matrix(9.9626,0,0,-9.9626,165.98302,90.23234)"/>
<use xlink:href="#font_2_1" transform="matrix(9.9626,0,0,-9.9626,172.3913,90.68065)"/>
<use xlink:href="#font_0_6" transform="matrix(9.9626,0,0,-9.9626,175.5679,88.29959)"/>
<use xlink:href="#font_2_2" transform="matrix(9.9626,0,0,-9.9626,181.54087,90.68065)"/>
<path transform="matrix(1,0,0,-1,115.969,92.439)" stroke-width="1" stroke-linecap="butt" stroke-miterlimit="10" stroke-linejoin="miter" fill="none" stroke="#000000" d="M 0 0 L 68.878 0 "/>
<use xlink:href="#font_0_5" transform="matrix(9.9626,0,0,-9.9626,148.08594,101.87259)"/>
<use xlink:href="#font_2_3" transform="matrix(9.9626,0,0,-9.9626,188.8149,95.7559)"/>
<use xlink:href="#font_0_4" transform="matrix(9.9626,0,0,-9.9626,199.56444,90.23234)"/>
<use xlink:href="#font_2_1" transform="matrix(9.9626,0,0,-9.9626,205.51029,90.68065)"/>
<use xlink:href="#font_0_6" transform="matrix(9.9626,0,0,-9.9626,208.68689,88.29959)"/>
<use xlink:href="#font_2_3" transform="matrix(9.9626,0,0,-9.9626,216.86389,89.0169)"/>
<use xlink:href="#font_0_5" transform="matrix(9.9626,0,0,-9.9626,226.81693,88.29959)"/>
<use xlink:href="#font_2_2" transform="matrix(9.9626,0,0,-9.9626,232.57686,90.68065)"/>
<use xlink:href="#font_6_1" transform="matrix(9.9626,0,0,-9.9626,238.92388,85.898609)"/>
<use xlink:href="#font_0_4" transform="matrix(9.9626,0,0,-9.9626,248.20943,90.23234)"/>
<use xlink:href="#font_2_1" transform="matrix(9.9626,0,0,-9.9626,254.15528,90.68065)"/>
<use xlink:href="#font_0_6" transform="matrix(9.9626,0,0,-9.9626,257.33189,88.29959)"/>
<use xlink:href="#font_2_2" transform="matrix(9.9626,0,0,-9.9626,263.30485,90.68065)"/>
<path transform="matrix(1,0,0,-1,199.415,92.439)" stroke-width="1" stroke-linecap="butt" stroke-miterlimit="10" stroke-linejoin="miter" fill="none" stroke="#000000" d="M 0 0 L 67.197 0 "/>
<use xlink:href="#font_0_5" transform="matrix(9.9626,0,0,-9.9626,230.69095,101.87259)"/>
<symbol id="font_1_4">
<path d="M .492 1.1990001 C .492 1.5920003 .402 1.9880002 .14800002 2.2870002 C .128 2.3100003 .09 2.3510004 .049000008 2.3870004 C .037000006 2.3990002 .035 2.3990002 .021000002 2.3990002 C .009000003 2.3990002 0 2.3990002 0 2.3890002 C 0 2.3850003 .0040000008 2.3810003 .006000001 2.3790003 C .041000006 2.3430002 .10800001 2.2760003 .17500001 2.1680003 C .33600004 1.9100002 .40900005 1.5850002 .40900005 1.2000002 C .40900005 .9310001 .37300004 .5840001 .20800002 .286 C .12900001 .14400006 .046 .06100011 .0040000008 .019000054 C .0020000004 .016000033 0 .013000011 0 .00999999 C 0 0 .009000003 0 .021000002 0 C .035 0 .037000006 0 .052000006 .015000105 C .38700003 .32000018 .492 .7780001 .492 1.1990001 Z "/>
</symbol>
<use xlink:href="#font_1_4" transform="matrix(9.9626,0,0,-9.9626,268.1557,104.38378)"/>
<use xlink:href="#font_2_4" transform="matrix(9.9626,0,0,-9.9626,79.24292,121.265979)"/>
<use xlink:href="#font_2_6" transform="matrix(9.9626,0,0,-9.9626,90.899158,122.591)"/>
<use xlink:href="#font_2_5" transform="matrix(9.9626,0,0,-9.9626,93.668758,122.591)"/>
<use xlink:href="#font_2_7" transform="matrix(9.9626,0,0,-9.9626,96.42839,122.591)"/>
<use xlink:href="#font_3_1" transform="matrix(6.9738,0,0,-6.9738,89.725048,129.16374)"/>
<use xlink:href="#font_4_1" transform="matrix(6.9738,0,0,-6.9738,94.40299,129.18466)"/>
<use xlink:href="#font_5_1" transform="matrix(6.9738,0,0,-6.9738,102.170658,129.23349)"/>
<use xlink:href="#font_0_3" transform="matrix(9.9626,0,0,-9.9626,109.16303,117.89334)"/>
<use xlink:href="#font_2_1" transform="matrix(9.9626,0,0,-9.9626,115.57131,118.34165)"/>
<use xlink:href="#font_0_6" transform="matrix(9.9626,0,0,-9.9626,118.74893,115.960597)"/>
<use xlink:href="#font_2_3" transform="matrix(9.9626,0,0,-9.9626,126.92592,116.6779)"/>
<use xlink:href="#font_0_5" transform="matrix(9.9626,0,0,-9.9626,136.87796,115.960597)"/>
<use xlink:href="#font_2_2" transform="matrix(9.9626,0,0,-9.9626,142.6379,118.34165)"/>
<use xlink:href="#font_6_1" transform="matrix(9.9626,0,0,-9.9626,148.98491,113.55961)"/>
<use xlink:href="#font_0_3" transform="matrix(9.9626,0,0,-9.9626,158.64904,117.89334)"/>
<use xlink:href="#font_2_1" transform="matrix(9.9626,0,0,-9.9626,165.05731,118.34165)"/>
<use xlink:href="#font_0_6" transform="matrix(9.9626,0,0,-9.9626,168.23392,115.960597)"/>
<use xlink:href="#font_2_2" transform="matrix(9.9626,0,0,-9.9626,174.20688,118.34165)"/>
<path transform="matrix(1,0,0,-1,108.635,120.100009)" stroke-width="1" stroke-linecap="butt" stroke-miterlimit="10" stroke-linejoin="miter" fill="none" stroke="#000000" d="M 0 0 L 68.878 0 "/>
<use xlink:href="#font_0_5" transform="matrix(9.9626,0,0,-9.9626,140.75295,129.53459)"/>
<use xlink:href="#font_2_3" transform="matrix(9.9626,0,0,-9.9626,181.48091,123.4179)"/>
<use xlink:href="#font_2_6" transform="matrix(9.9626,0,0,-9.9626,192.5892,122.591)"/>
<use xlink:href="#font_2_5" transform="matrix(9.9626,0,0,-9.9626,195.35881,122.591)"/>
<use xlink:href="#font_2_7" transform="matrix(9.9626,0,0,-9.9626,198.11846,122.591)"/>
<use xlink:href="#font_3_1" transform="matrix(6.9738,0,0,-6.9738,191.40904,129.16374)"/>
<use xlink:href="#font_4_1" transform="matrix(6.9738,0,0,-6.9738,196.08699,129.18466)"/>
<use xlink:href="#font_5_1" transform="matrix(6.9738,0,0,-6.9738,203.85465,129.23349)"/>
<use xlink:href="#font_0_4" transform="matrix(9.9626,0,0,-9.9626,210.46945,117.89334)"/>
<use xlink:href="#font_2_1" transform="matrix(9.9626,0,0,-9.9626,216.4153,118.34165)"/>
<use xlink:href="#font_0_6" transform="matrix(9.9626,0,0,-9.9626,219.5919,115.960597)"/>
<use xlink:href="#font_2_3" transform="matrix(9.9626,0,0,-9.9626,227.7689,116.6779)"/>
<use xlink:href="#font_0_5" transform="matrix(9.9626,0,0,-9.9626,237.72194,115.960597)"/>
<use xlink:href="#font_2_2" transform="matrix(9.9626,0,0,-9.9626,243.48188,118.34165)"/>
<use xlink:href="#font_6_1" transform="matrix(9.9626,0,0,-9.9626,249.82889,113.55961)"/>
<use xlink:href="#font_0_4" transform="matrix(9.9626,0,0,-9.9626,259.11445,117.89334)"/>
<use xlink:href="#font_2_1" transform="matrix(9.9626,0,0,-9.9626,265.0603,118.34165)"/>
<use xlink:href="#font_0_6" transform="matrix(9.9626,0,0,-9.9626,268.2369,115.960597)"/>
<use xlink:href="#font_2_2" transform="matrix(9.9626,0,0,-9.9626,274.20988,118.34165)"/>
<path transform="matrix(1,0,0,-1,210.32,120.100009)" stroke-width="1" stroke-linecap="butt" stroke-miterlimit="10" stroke-linejoin="miter" fill="none" stroke="#000000" d="M 0 0 L 67.197 0 "/>
<use xlink:href="#font_0_5" transform="matrix(9.9626,0,0,-9.9626,241.59595,129.53459)"/>
<use xlink:href="#font_2_4" transform="matrix(9.9626,0,0,-9.9626,79.24391,141.11898)"/>
<use xlink:href="#font_0_3" transform="matrix(9.9626,0,0,-9.9626,89.73002,144.48633)"/>
<symbol id="font_4_2">
<path d="M .24200002 .43100003 C .25 .448 .25100003 .456 .25100003 .463 C .25100003 .49400003 .22300002 .518 .192 .518 C .15400002 .518 .14200002 .487 .137 .47100003 L .0050000029 .038000004 C .0040000008 .036000007 0 .023000002 0 .022 C 0 .010000002 .031000004 0 .039000006 0 C .046000005 0 .047000007 .0020000004 .054000006 .017 L .24200002 .43100003 Z "/>
</symbol>
<use xlink:href="#font_4_2" transform="matrix(6.9738,0,0,-6.9738,95.48674,138.04509)"/>
<use xlink:href="#font_2_1" transform="matrix(9.9626,0,0,-9.9626,98.9333,144.93465)"/>
<use xlink:href="#font_0_6" transform="matrix(9.9626,0,0,-9.9626,102.10992,142.55359)"/>
<use xlink:href="#font_2_2" transform="matrix(9.9626,0,0,-9.9626,108.08287,144.93465)"/>
<use xlink:href="#font_2_3" transform="matrix(9.9626,0,0,-9.9626,114.16006,143.27089)"/>
<use xlink:href="#font_0_4" transform="matrix(9.9626,0,0,-9.9626,123.71544,144.48633)"/>
<use xlink:href="#font_4_2" transform="matrix(6.9738,0,0,-6.9738,129.00975,138.04509)"/>
<use xlink:href="#font_2_1" transform="matrix(9.9626,0,0,-9.9626,132.4563,144.93465)"/>
<use xlink:href="#font_0_6" transform="matrix(9.9626,0,0,-9.9626,135.63391,142.55359)"/>
<use xlink:href="#font_2_2" transform="matrix(9.9626,0,0,-9.9626,141.60587,144.93465)"/>
<symbol id="font_0_1">
<path d="M .106 .053000004 C .106 .082 .08200001 .106000009 .05300001 .106000009 C .024000004 .106000009 0 .082 0 .053000004 C 0 .024 .024000004 0 .05300001 0 C .08200001 0 .106 .024 .106 .053000004 Z "/>
</symbol>
<use xlink:href="#font_0_1" transform="matrix(9.9626,0,0,-9.9626,145.76978,142.444)"/>
</svg>
