<?xml version="1.0" encoding="UTF-8" standalone="no"?>
<!DOCTYPE svg PUBLIC "-//W3C//DTD SVG 1.1//EN" "http://www.w3.org/Graphics/SVG/1.1/DTD/svg11.dtd">
<svg xmlns="http://www.w3.org/2000/svg" xmlns:xlink="http://www.w3.org/1999/xlink" version="1.1" width="294.017pt" height="30.908pt" viewBox="0 0 294.017 30.908">
<symbol id="font_0_2">
<path d="M .63100007 .19400002 C .646 .19400002 .665 .19400002 .665 .214 C .665 .23400001 .646 .23400001 .632 .23400001 L .033 .23400001 C .019000002 .23400001 0 .23400001 0 .214 C 0 .19400002 .019000002 .19400002 .034 .19400002 L .63100007 .19400002 M .632 0 C .646 0 .665 0 .665 .02000001 C .665 .040000008 .646 .040000008 .63100007 .040000008 L .034 .040000008 C .019000002 .040000008 0 .040000008 0 .02000001 C 0 0 .019000002 0 .033 0 L .632 0 Z "/>
</symbol>
<symbol id="font_0_4">
<path d="M .144 .694 L 0 .683 L 0 .652 C .07000001 .652 .07800001 .64500007 .07800001 .596 L .07800001 .076000008 C .07800001 .031000002 .067 .031000002 0 .031000002 L 0 0 C .033 .001 .086 .003 .11100001 .003 C .136 .003 .185 .001 .22200004 0 L .22200004 .031000002 C .155 .031000002 .144 .031000002 .144 .076000008 L .144 .694 Z "/>
</symbol>
<symbol id="font_0_3">
<path d="M .144 .44200004 L .0040000008 .43100003 L .0040000008 .4 C .069000009 .4 .07800001 .39400003 .07800001 .34500004 L .07800001 .076000008 C .07800001 .031000002 .067 .031000002 0 .031000002 L 0 0 C .032000007 .001 .086 .003 .11000001 .003 C .14500001 .003 .18 .001 .21400002 0 L .21400002 .031000002 C .148 .031000002 .144 .036000004 .144 .075 L .144 .44200004 M .148 .61600008 C .148 .648 .123 .669 .095000009 .669 C .064 .669 .042000005 .642 .042000005 .61600008 C .042000005 .58900007 .064 .563 .095000009 .563 C .123 .563 .148 .58400008 .148 .61600008 Z "/>
</symbol>
<symbol id="font_0_5">
<path d="M .07800001 .344 L .07800001 .076000008 C .07800001 .031000002 .067 .031000002 0 .031000002 L 0 0 C .035 .001 .08600001 .003 .113000009 .003 C .139 .003 .191 .001 .225 0 L .225 .031000002 C .158 .031000002 .147 .031000002 .147 .076000008 L .147 .26000003 C .147 .36400003 .218 .42000003 .282 .42000003 C .345 .42000003 .356 .36600004 .356 .30900003 L .356 .076000008 C .356 .031000002 .345 .031000002 .278 .031000002 L .278 0 C .31300003 .001 .36400003 .003 .391 .003 C .41700004 .003 .46900005 .001 .503 0 L .503 .031000002 C .43600003 .031000002 .425 .031000002 .425 .076000008 L .425 .26000003 C .425 .36400003 .496 .42000003 .56 .42000003 C .623 .42000003 .634 .36600004 .634 .30900003 L .634 .076000008 C .634 .031000002 .623 .031000002 .556 .031000002 L .556 0 C .591 .001 .642 .003 .669 .003 C .69500008 .003 .74700006 .001 .781 0 L .781 .031000002 C .72900006 .031000002 .70400008 .031000002 .703 .061000006 L .703 .252 C .703 .33800004 .703 .36900003 .67200008 .40500004 C .65800008 .42200003 .625 .44200004 .56700006 .44200004 C .48300005 .44200004 .439 .38200004 .42200003 .344 C .40800003 .43100003 .33400003 .44200004 .289 .44200004 C .216 .44200004 .169 .39900003 .141 .337 L .141 .44200004 L 0 .43100003 L 0 .4 C .07000001 .4 .07800001 .393 .07800001 .344 Z "/>
</symbol>
<use xlink:href="#font_0_2" transform="matrix(9.9626,0,0,-9.9626,3.9519029,18.688975)"/>
<use xlink:href="#font_0_4" transform="matrix(9.9626,0,0,-9.9626,15.608146,20.014)"/>
<use xlink:href="#font_0_3" transform="matrix(9.9626,0,0,-9.9626,18.37775,20.014)"/>
<use xlink:href="#font_0_5" transform="matrix(9.9626,0,0,-9.9626,21.137392,20.014)"/>
<symbol id="font_1_1">
<path d="M .23800002 .674 C .23900001 .676 .242 .689 .242 .69 C .242 .69500008 .23800002 .704 .22600003 .704 C .20600002 .704 .12300001 .69600006 .098000008 .694 C .09 .693 .076000008 .69200006 .076000008 .671 C .076000008 .657 .09 .657 .102 .657 C .15 .657 .15 .65000006 .15 .642 C .15 .635 .148 .629 .14600002 .62 L .0050000029 .054000006 C 0 .036000004 0 .034 0 .032 C 0 .017 .012000002 0 .034 0 C .045 0 .06400001 .0050000005 .075 .026 C .07800001 .032 .087 .068 .09200001 .089 L .11500001 .17800002 C .118 .19300002 .128 .23100002 .13100001 .24600002 C .141 .284 .141 .285 .16100002 .317 C .193 .366 .24300002 .423 .32100005 .423 C .37700004 .423 .38 .377 .38 .35300002 C .38 .293 .337 .18200001 .32100005 .14000002 C .31 .112 .306 .103 .306 .086 C .306 .033000005 .35000003 0 .40100003 0 C .50100007 0 .545 .13800001 .545 .15300001 C .545 .16600001 .53200009 .16600001 .52900007 .16600001 C .51500007 .16600001 .51400008 .16000001 .51000007 .14900002 C .48700006 .069000009 .44300003 .028 .40400005 .028 C .38300003 .028 .379 .042000005 .379 .063 C .379 .086 .384 .099 .402 .14400001 C .41400004 .17500001 .45500005 .28100003 .45500005 .337 C .45500005 .35300002 .45500005 .395 .41800005 .42400003 C .40100003 .437 .37200005 .451 .325 .451 C .25200004 .451 .19900002 .411 .16200002 .368 L .23800002 .674 Z "/>
</symbol>
<use xlink:href="#font_1_1" transform="matrix(6.9738,0,0,-6.9738,14.433032,26.586739)"/>
<symbol id="font_2_2">
<path d="M .843 .23900001 C .717 .147 .7 .016 .7 .015000001 C .7 0 .71000006 0 .72400006 0 C .74200007 0 .745 0 .75 .017 C .75600007 .042000005 .772 .106000009 .824 .161 C .882 .222 .93200007 .237 .974 .25000004 C .98 .252 .9840001 .25800003 .9840001 .263 C .9840001 .27300004 .97800007 .27500005 .96500006 .279 C .82100006 .32500003 .77000007 .42700006 .749 .51500007 C .745 .527 .73800006 .527 .72400006 .527 C .71000006 .527 .7 .527 .7 .512 C .7 .51 .71000006 .44300003 .759 .37400005 C .782 .34000004 .81 .31200005 .843 .28800003 L .04 .28800003 C .023999997 .28800003 0 .28800003 0 .26400004 C 0 .23900001 .022999995 .23900001 .04 .23900001 L .843 .23900001 Z "/>
</symbol>
<use xlink:href="#font_2_2" transform="matrix(6.9738,0,0,-6.9738,19.11198,26.60766)"/>
<symbol id="font_3_1">
<path d="M .46400006 .33900003 C .46400006 .44900004 .45100004 .528 .40500004 .598 C .374 .644 .31200005 .684 .23200001 .684 C 0 .684 0 .41100005 0 .33900003 C 0 .26700003 0 0 .23200001 0 C .46400006 0 .46400006 .26700003 .46400006 .33900003 M .23200001 .028 C .186 .028 .125 .055 .105000007 .13700001 C .091000009 .19600001 .091000009 .27800004 .091000009 .35200004 C .091000009 .42500005 .091000009 .50100007 .106000009 .556 C .127 .635 .19100002 .656 .23200001 .656 C .286 .656 .338 .623 .356 .565 C .37200005 .51100006 .37300004 .43900005 .37300004 .35200004 C .37300004 .27800004 .37300004 .20400001 .36 .141 C .34000004 .050000006 .272 .028 .23200001 .028 Z "/>
</symbol>
<use xlink:href="#font_3_1" transform="matrix(6.9738,0,0,-6.9738,26.879637,26.656477)"/>
<symbol id="font_4_2">
<path d="M .305 .31300003 C .311 .33900003 .334 .43100003 .404 .43100003 C .409 .43100003 .433 .43100003 .454 .418 C .426 .41300003 .40600003 .388 .40600003 .36400003 C .40600003 .34800003 .417 .32900004 .444 .32900004 C .46600003 .32900004 .498 .34700004 .498 .38700003 C .498 .43900005 .439 .45300005 .405 .45300005 C .347 .45300005 .312 .40000005 .3 .37700004 C .275 .44300003 .221 .45300005 .19200002 .45300005 C .08800001 .45300005 .031000002 .32400004 .031000002 .29900003 C .031000002 .28900004 .041 .28900004 .043000007 .28900004 C .051000008 .28900004 .054000006 .291 .056 .3 C .09 .40600003 .156 .43100003 .19000001 .43100003 C .209 .43100003 .244 .42200003 .244 .36400003 C .244 .33300004 .22700002 .26600004 .19000001 .126 C .17400001 .064 .13900002 .022000002 .095000009 .022000002 C .08900001 .022000002 .06600001 .022000002 .045 .035 C .07000001 .040000004 .09200001 .061 .09200001 .089 C .09200001 .116000007 .07000001 .124000009 .055000009 .124000009 C .025 .124000009 0 .098000008 0 .06600001 C 0 .020000002 .050000006 0 .094000007 0 C .16000001 0 .19600001 .07000001 .19900002 .076000008 C .21100001 .039 .24700003 0 .307 0 C .41 0 .467 .12900001 .467 .15400002 C .467 .16400002 .458 .16400002 .455 .16400002 C .446 .16400002 .444 .16000001 .442 .15300001 C .409 .046 .341 .022000002 .30900003 .022000002 C .27 .022000002 .254 .054 .254 .08800001 C .254 .11000001 .26 .13200002 .271 .17600002 L .305 .31300003 Z "/>
</symbol>
<use xlink:href="#font_4_2" transform="matrix(9.9626,0,0,-9.9626,33.63291,11.9725899)"/>
<symbol id="font_1_2">
<path d="M .075 .073 C .07100001 .060000004 .065 .035 .065 .032 C .065 .010000001 .083000008 0 .09900001 0 C .117 0 .133 .013 .138 .022 C .143 .031000004 .15100001 .063 .156 .084 C .161 .103 .172 .14900002 .178 .17400001 C .184 .19600001 .19000001 .21800001 .19500001 .24100001 C .20600002 .282 .20800002 .29 .237 .331 C .26500003 .37100003 .31200005 .423 .38700003 .423 C .44500003 .423 .44600005 .372 .44600005 .35300002 C .44600005 .293 .40300004 .18200001 .38700003 .14000002 C .37600003 .112 .37200005 .103 .37200005 .086 C .37200005 .033000005 .41600005 0 .467 0 C .56700006 0 .61100009 .13800001 .61100009 .15300001 C .61100009 .16600001 .59800007 .16600001 .595 .16600001 C .58100005 .16600001 .58000007 .16000001 .57600006 .14900002 C .55300006 .069000009 .51000007 .028 .47000004 .028 C .44900004 .028 .44500003 .042000005 .44500003 .063 C .44500003 .086 .45000003 .099 .46800006 .14400001 C .48000003 .17500001 .521 .28100003 .521 .337 C .521 .43400003 .44400005 .451 .39100004 .451 C .30800004 .451 .25200004 .4 .22200002 .36 C .21500002 .42900003 .156 .451 .114999998 .451 C .072 .451 .049 .42000003 .036000004 .397 C .014000002 .36 0 .303 0 .298 C 0 .285 .014000002 .285 .017 .285 C .031 .285 .032 .28800003 .039 .315 C .054 .374 .073 .423 .112 .423 C .138 .423 .145 .40100003 .145 .374 C .145 .35500003 .136 .31800003 .12900001 .291 C .12200001 .264 .112 .22300002 .10700001 .20100002 L .075 .073 Z "/>
</symbol>
<use xlink:href="#font_1_2" transform="matrix(6.9738,0,0,-6.9738,39.36577,8.3177399)"/>
<symbol id="font_0_1">
<path d="M .35300002 .31300003 L .632 .31300003 C .646 .31300003 .665 .31300003 .665 .333 C .665 .35300002 .646 .35300002 .632 .35300002 L .35300002 .35300002 L .35300002 .633 C .35300002 .647 .35300002 .666 .33300004 .666 C .31300003 .666 .31300003 .647 .31300003 .633 L .31300003 .35300002 L .033 .35300002 C .019000002 .35300002 0 .35300002 0 .333 C 0 .31300003 .019000002 .31300003 .033 .31300003 L .31300003 .31300003 L .31300003 .033000005 C .31300003 .019000002 .31300003 0 .33300004 0 C .35300002 0 .35300002 .019000002 .35300002 .033000005 L .35300002 .31300003 Z "/>
</symbol>
<use xlink:href="#font_0_1" transform="matrix(9.9626,0,0,-9.9626,47.232908,12.689897)"/>
<symbol id="font_5_1">
<path d="M .261 .00999999 C .261 .013999939 .259 .016000033 .257 .018999935 C .211 .06799996 .143 .14900005 .10100001 .31199999 C .077999997 .403 .069000009 .506 .069000009 .59900006 C .069000009 .862 .132 1.046 .252 1.176 C .261 1.1850001 .261 1.187 .261 1.189 C .261 1.199 .25300003 1.199 .24900002 1.199 C .234 1.199 .18 1.139 .167 1.1240001 C .065 1.003 0 .823 0 .6 C 0 .458 .024999991 .25699998 .15600002 .08799994 C .16600001 .075999978 .231 0 .24900002 0 C .25300003 0 .261 0 .261 .00999999 Z "/>
</symbol>
<use xlink:href="#font_5_1" transform="matrix(9.9626,0,0,-9.9626,58.152318,15.339655)"/>
<use xlink:href="#font_1_2" transform="matrix(6.9738,0,0,-6.9738,61.53177,7.5117394)"/>
<symbol id="font_3_2">
<path d="M .22600001 .63600006 C .22600001 .66300007 .224 .66400006 .19600001 .66400006 C .132 .601 .041 .6 0 .6 L 0 .564 C .023999997 .564 .09000001 .564 .14500001 .592 L .14500001 .082 C .14500001 .049000004 .14500001 .036000004 .04500001 .036000004 L .0069999995 .036000004 L .0069999995 0 C .024999999 .001 .148 .004 .185 .004 C .21600002 .004 .34200005 .001 .36400003 0 L .36400003 .036000004 L .32600004 .036000004 C .22600001 .036000004 .22600001 .049000004 .22600001 .082 L .22600001 .63600006 Z "/>
</symbol>
<use xlink:href="#font_3_2" transform="matrix(6.9738,0,0,-6.9738,62.441144,15.298001)"/>
<symbol id="font_5_2">
<path d="M .261 .59900006 C .261 .74100008 .236 .94200006 .105000007 1.1110001 C .09500001 1.123 .029999998 1.199 .011999998 1.199 C .0069999995 1.199 0 1.197 0 1.189 C 0 1.1850001 .0020000004 1.182 .0059999974 1.179 C .054 1.1270001 .119 1.046 .16000001 .887 C .18300002 .796 .19200002 .693 .19200002 .6 C .19200002 .499 .18300002 .397 .157 .29900003 C .119 .15900004 .06 .078999999 .009 .023000002 C 0 .013999939 0 .011999965 0 .00999999 C 0 .0019999743 .0069999995 0 .011999998 0 C .026999999 0 .082 .06099999 .09400001 .07499993 C .19600001 .19599998 .261 .376 .261 .59900006 Z "/>
</symbol>
<use xlink:href="#font_5_2" transform="matrix(9.9626,0,0,-9.9626,66.56736,15.339655)"/>
<use xlink:href="#font_4_2" transform="matrix(9.9626,0,0,-9.9626,70.983928,11.9725899)"/>
<use xlink:href="#font_1_2" transform="matrix(6.9738,0,0,-6.9738,76.716777,8.3177399)"/>
<symbol id="font_2_1">
<path d="M .63600006 0 C .65200009 0 .67600008 0 .67600008 .023999989 C .67600008 .048999996 .65300008 .048999996 .63600006 .048999996 L .04 .048999996 C .023999997 .048999996 0 .048999996 0 .025000006 C 0 0 .02300001 0 .04 0 L .63600006 0 Z "/>
</symbol>
<use xlink:href="#font_2_1" transform="matrix(6.9738,0,0,-6.9738,82.067188,6.671922)"/>
<use xlink:href="#font_3_2" transform="matrix(6.9738,0,0,-6.9738,88.300159,8.248001)"/>
<symbol id="font_4_1">
<path d="M .232 .694 C .232 .695 .232 .705 .21900001 .705 C .19600001 .705 .122999999 .697 .097 .695 C .089 .694 .077999997 .693 .077999997 .675 C .077999997 .663 .087 .663 .102 .663 C .15 .663 .15200001 .656 .15200001 .646 L .149 .626 L .0040000008 .05 C 0 .036000004 0 .034 0 .028 C 0 .005000001 .02 0 .029000003 0 C .044999999 0 .061 .012000001 .066 .026 L .08499999 .102000009 L .10699999 .19200002 C .113000009 .21400002 .119 .23600002 .124 .259 C .126 .26500003 .134 .298 .135 .30400003 C .138 .31300003 .169 .36900003 .20300001 .39600004 C .225 .41200004 .256 .43100003 .299 .43100003 C .342 .43100003 .35300002 .397 .35300002 .36100004 C .35300002 .307 .315 .19800002 .291 .13700001 C .28300003 .11400001 .278 .102000009 .278 .082 C .278 .035 .31300003 0 .36 0 C .454 0 .491 .14600002 .491 .15400002 C .491 .16400002 .482 .16400002 .47900004 .16400002 C .46900005 .16400002 .46900005 .16100002 .46400006 .14600002 C .449 .093 .41700004 .022000002 .36200003 .022000002 C .345 .022000002 .338 .032 .338 .055000005 C .338 .080000009 .347 .104 .356 .126 C .372 .16900002 .41700004 .28800003 .41700004 .34600003 C .41700004 .411 .377 .45300005 .30200003 .45300005 C .239 .45300005 .191 .42200003 .154 .37600003 L .232 .694 Z "/>
</symbol>
<use xlink:href="#font_4_1" transform="matrix(9.9626,0,0,-9.9626,92.55795,11.9725899)"/>
<use xlink:href="#font_0_1" transform="matrix(9.9626,0,0,-9.9626,100.52192,12.689897)"/>
<use xlink:href="#font_5_1" transform="matrix(9.9626,0,0,-9.9626,111.44032,15.339655)"/>
<use xlink:href="#font_1_2" transform="matrix(6.9738,0,0,-6.9738,114.82078,7.5117394)"/>
<symbol id="font_3_3">
<path d="M .442 .18200001 L .40800003 .18200001 C .40500004 .16000001 .39500005 .101 .38200004 .091000009 C .374 .085 .29700003 .085 .28300003 .085 L .099 .085 C .20400003 .178 .23900002 .20600002 .29900003 .25300003 C .37300004 .312 .442 .374 .442 .469 C .442 .59000006 .33600004 .66400006 .20800004 .66400006 C .084 .66400006 0 .577 0 .485 C 0 .43400003 .043000007 .42900003 .053000004 .42900003 C .077 .42900003 .10600001 .446 .10600001 .48200003 C .10600001 .5 .099 .535 .047000007 .535 C .078 .606 .146 .628 .19300002 .628 C .293 .628 .34500004 .55 .34500004 .469 C .34500004 .38200004 .28300003 .31300003 .25100003 .277 L .010000005 .039 C 0 .030000002 0 .028 0 0 L .41200004 0 L .442 .18200001 Z "/>
</symbol>
<use xlink:href="#font_3_3" transform="matrix(6.9738,0,0,-6.9738,115.408359,15.298001)"/>
<use xlink:href="#font_5_2" transform="matrix(9.9626,0,0,-9.9626,119.85536,15.339655)"/>
<use xlink:href="#font_4_2" transform="matrix(9.9626,0,0,-9.9626,124.27293,11.9725899)"/>
<use xlink:href="#font_1_2" transform="matrix(6.9738,0,0,-6.9738,130.00579,8.3177399)"/>
<use xlink:href="#font_2_1" transform="matrix(6.9738,0,0,-6.9738,135.35518,6.671922)"/>
<use xlink:href="#font_3_3" transform="matrix(6.9738,0,0,-6.9738,141.26836,8.248001)"/>
<use xlink:href="#font_4_1" transform="matrix(9.9626,0,0,-9.9626,145.84595,11.9725899)"/>
<use xlink:href="#font_3_3" transform="matrix(6.9738,0,0,-6.9738,151.47736,8.248001)"/>
<use xlink:href="#font_0_1" transform="matrix(9.9626,0,0,-9.9626,158.27993,12.689897)"/>
<symbol id="font_6_2">
<path d="M .106 .05299999 C .106 .082 .08200001 .10599999 .05300001 .10599999 C .024000004 .10599999 0 .082 0 .05299999 C 0 .024000004 .024000004 0 .05300001 0 C .08200001 0 .106 .024000004 .106 .05299999 Z "/>
</symbol>
<use xlink:href="#font_6_2" transform="matrix(9.9626,0,0,-9.9626,168.5408,9.900369)"/>
<use xlink:href="#font_6_2" transform="matrix(9.9626,0,0,-9.9626,172.97417,9.900369)"/>
<use xlink:href="#font_6_2" transform="matrix(9.9626,0,0,-9.9626,177.39757,9.900369)"/>
<use xlink:href="#font_0_1" transform="matrix(9.9626,0,0,-9.9626,182.07894,12.689897)"/>
<use xlink:href="#font_5_1" transform="matrix(9.9626,0,0,-9.9626,192.99834,15.339655)"/>
<use xlink:href="#font_1_2" transform="matrix(6.9738,0,0,-6.9738,201.47679,7.5117394)"/>
<use xlink:href="#font_1_2" transform="matrix(6.9738,0,0,-6.9738,196.37779,15.36874)"/>
<use xlink:href="#font_2_1" transform="matrix(6.9738,0,0,-6.9738,201.7282,13.722923)"/>
<use xlink:href="#font_3_2" transform="matrix(6.9738,0,0,-6.9738,207.96218,15.299002)"/>
<use xlink:href="#font_5_2" transform="matrix(9.9626,0,0,-9.9626,211.61138,15.339657)"/>
<use xlink:href="#font_4_2" transform="matrix(9.9626,0,0,-9.9626,216.02793,11.972591)"/>
<use xlink:href="#font_4_1" transform="matrix(9.9626,0,0,-9.9626,221.98557,11.972591)"/>
<use xlink:href="#font_1_2" transform="matrix(6.9738,0,0,-6.9738,227.5008,8.317741)"/>
<use xlink:href="#font_2_1" transform="matrix(6.9738,0,0,-6.9738,232.8512,6.671924)"/>
<use xlink:href="#font_3_2" transform="matrix(6.9738,0,0,-6.9738,239.08518,8.248003)"/>
<use xlink:href="#font_0_1" transform="matrix(9.9626,0,0,-9.9626,245.56594,12.6898989)"/>
<use xlink:href="#font_4_1" transform="matrix(9.9626,0,0,-9.9626,255.51798,11.972591)"/>
<use xlink:href="#font_1_2" transform="matrix(6.9738,0,0,-6.9738,261.03779,8.317741)"/>
<symbol id="font_6_1">
<path d="M .57600006 0 C .59300008 0 .611 0 .611 .019999996 C .611 .040000008 .59300008 .040000008 .57600006 .040000008 L .035000005 .040000008 C .018 .040000008 0 .040000008 0 .019999996 C 0 0 .018 0 .035000005 0 L .57600006 0 Z "/>
</symbol>
<use xlink:href="#font_6_1" transform="matrix(9.9626,0,0,-9.9626,269.17393,9.571605)"/>
<use xlink:href="#font_4_2" transform="matrix(9.9626,0,0,-9.9626,278.59895,11.972591)"/>
<use xlink:href="#font_1_2" transform="matrix(6.9738,0,0,-6.9738,284.3318,8.317741)"/>
<path transform="matrix(1,0,0,-1,33.343999,17.523)" stroke-width="1" stroke-linecap="butt" stroke-miterlimit="10" stroke-linejoin="miter" fill="none" stroke="#000000" d="M 0 0 L 256.083 0 "/>
<use xlink:href="#font_4_1" transform="matrix(9.9626,0,0,-9.9626,159.06395,26.95759)"/>
</svg>
