<?xml version="1.0" encoding="UTF-8" standalone="no"?>
<!DOCTYPE svg PUBLIC "-//W3C//DTD SVG 1.1//EN" "http://www.w3.org/Graphics/SVG/1.1/DTD/svg11.dtd">
<svg xmlns="http://www.w3.org/2000/svg" xmlns:xlink="http://www.w3.org/1999/xlink" version="1.1" width="496.843pt" height="110.569pt" viewBox="0 0 496.843 110.569">
<symbol id="font_0_3">
<path d="M .232 .694 C .232 .695 .232 .705 .21900001 .705 C .19600001 .705 .122999999 .697 .097 .695 C .089 .694 .077999997 .693 .077999997 .675 C .077999997 .663 .087 .663 .102 .663 C .15 .663 .15200001 .656 .15200001 .646 L .149 .626 L .0040000008 .05 C 0 .036000004 0 .034 0 .028 C 0 .005000001 .02 0 .029000003 0 C .044999999 0 .061 .012000001 .066 .026 L .08499999 .102000009 L .10699999 .19200002 C .113000009 .21400002 .119 .23600002 .124 .259 C .126 .26500003 .134 .298 .135 .30400003 C .138 .31300003 .169 .36900003 .20300001 .39600004 C .225 .41200004 .256 .43100003 .299 .43100003 C .342 .43100003 .35300002 .397 .35300002 .36100004 C .35300002 .307 .315 .19800002 .291 .13700001 C .28300003 .11400001 .278 .102000009 .278 .082 C .278 .035 .31300003 0 .36 0 C .454 0 .491 .14600002 .491 .15400002 C .491 .16400002 .482 .16400002 .47900004 .16400002 C .46900005 .16400002 .46900005 .16100002 .46400006 .14600002 C .449 .093 .41700004 .022000002 .36200003 .022000002 C .345 .022000002 .338 .032 .338 .055000005 C .338 .080000009 .347 .104 .356 .126 C .372 .16900002 .41700004 .28800003 .41700004 .34600003 C .41700004 .411 .377 .45300005 .30200003 .45300005 C .239 .45300005 .191 .42200003 .154 .37600003 L .232 .694 Z "/>
</symbol>
<use xlink:href="#font_0_3" transform="matrix(9.9626,0,0,-9.9626,26.181942,14.633591)"/>
<path transform="matrix(1,0,0,-1,53.887,18.11)" stroke-width="1" stroke-linecap="butt" stroke-miterlimit="10" stroke-linejoin="miter" fill="none" stroke="#000000" d="M 0 0 L 0 14.79 "/>
<symbol id="font_1_1">
<path d="M .23200003 .00999999 C .23200003 .012999982 .23200003 .014999986 .215 .03199999 C .09 .15799999 .058 .347 .058 .5 C .058 .674 .096 .84800007 .21900001 .97300007 C .23200003 .985 .23200003 .98700007 .23200003 .99 C .23200003 .99700006 .22800002 1 .222 1 C .21200001 1 .12200001 .93200007 .06299999 .805 C .012000002 .69500008 0 .584 0 .5 C 0 .422 .011 .301 .066 .188 C .126 .065 .21200001 0 .222 0 C .22800002 0 .23200003 .0029999912 .23200003 .00999999 Z "/>
</symbol>
<symbol id="font_1_5">
<path d="M .07700001 .07700001 L .18300002 .18 C .33900003 .31800003 .39900003 .372 .39900003 .47200004 C .39900003 .586 .30900003 .666 .18700002 .666 C .074 .666 0 .574 0 .485 C 0 .42900003 .05 .42900003 .053000008 .42900003 C .07000001 .42900003 .105000007 .441 .105000007 .48200003 C .105000007 .508 .08700001 .53400006 .052000006 .53400006 C .044000005 .53400006 .042000008 .53400006 .039 .53300008 C .062000004 .59800007 .11600001 .63500007 .17400001 .63500007 C .26500003 .63500007 .308 .554 .308 .47200004 C .308 .39200003 .25800003 .31300003 .20300003 .25100003 L .011000004 .037 C 0 .026 0 .024 0 0 L .37100003 0 L .39900003 .17400001 L .374 .17400001 C .36900003 .14400001 .36200003 .1 .352 .085 C .345 .07700001 .279 .07700001 .257 .07700001 L .07700001 .07700001 Z "/>
</symbol>
<use xlink:href="#font_1_1" transform="matrix(9.9626,0,0,-9.9626,60.0533,17.014653)"/>
<use xlink:href="#font_1_5" transform="matrix(9.9626,0,0,-9.9626,63.440584,14.524002)"/>
<symbol id="font_2_1">
<path d="M .23800002 .674 C .23900001 .676 .242 .689 .242 .69 C .242 .69500008 .23800002 .704 .22600003 .704 C .20600002 .704 .12300001 .69600006 .098000008 .694 C .09 .693 .076000008 .69200006 .076000008 .671 C .076000008 .657 .09 .657 .102 .657 C .15 .657 .15 .65000006 .15 .642 C .15 .635 .148 .629 .14600002 .62 L .0050000029 .054000006 C 0 .036000004 0 .034 0 .032 C 0 .017 .012000002 0 .034 0 C .045 0 .06400001 .0050000005 .075 .026 C .07800001 .032 .087 .068 .09200001 .089 L .11500001 .17800002 C .118 .19300002 .128 .23100002 .13100001 .24600002 C .141 .284 .141 .285 .16100002 .317 C .193 .366 .24300002 .423 .32100005 .423 C .37700004 .423 .38 .377 .38 .35300002 C .38 .293 .337 .18200001 .32100005 .14000002 C .31 .112 .306 .103 .306 .086 C .306 .033000005 .35000003 0 .40100003 0 C .50100007 0 .545 .13800001 .545 .15300001 C .545 .16600001 .53200009 .16600001 .52900007 .16600001 C .51500007 .16600001 .51400008 .16000001 .51000007 .14900002 C .48700006 .069000009 .44300003 .028 .40400005 .028 C .38300003 .028 .379 .042000005 .379 .063 C .379 .086 .384 .099 .402 .14400001 C .41400004 .17500001 .45500005 .28100003 .45500005 .337 C .45500005 .35300002 .45500005 .395 .41800005 .42400003 C .40100003 .437 .37200005 .451 .325 .451 C .25200004 .451 .19900002 .411 .16200002 .368 L .23800002 .674 Z "/>
</symbol>
<use xlink:href="#font_2_1" transform="matrix(6.9738,0,0,-6.9738,68.44604,10.479742)"/>
<symbol id="font_3_1">
<path d="M .57600006 0 C .59300008 0 .611 0 .611 .019999996 C .611 .040000008 .59300008 .040000008 .57600006 .040000008 L .035000005 .040000008 C .018 .040000008 0 .040000008 0 .019999996 C 0 0 .018 0 .035000005 0 L .57600006 0 Z "/>
</symbol>
<use xlink:href="#font_3_1" transform="matrix(9.9626,0,0,-9.9626,76.1259,12.232604)"/>
<symbol id="font_1_4">
<path d="M .205 .64000007 C .205 .66400006 .205 .666 .18200003 .666 C .120000008 .60200008 .032000007 .60200008 0 .60200008 L 0 .57100006 C .020000004 .57100006 .07900001 .57100006 .13100001 .597 L .13100001 .079 C .13100001 .043 .128 .031000002 .038000004 .031000002 L .0060000049 .031000002 L .0060000049 0 C .04100001 .003 .128 .003 .168 .003 C .20800002 .003 .29500003 .003 .33000005 0 L .33000005 .031000002 L .29800005 .031000002 C .20800002 .031000002 .205 .042000005 .205 .079 L .205 .64000007 Z "/>
</symbol>
<symbol id="font_1_2">
<path d="M .232 .5 C .232 .578 .22100002 .699 .16600001 .81200006 C .106 .93500009 .020000004 1 .009999998 1 C .0040000008 1 0 .99600008 0 .99 C 0 .98700007 0 .985 .019000002 .967 C .117000009 .86800006 .174 .709 .174 .5 C .174 .329 .137 .153 .012999997 .026999996 C 0 .014999986 0 .012999982 0 .00999999 C 0 .003999993 .0040000008 0 .009999998 0 C .020000004 0 .11000001 .06799999 .169 .195 C .22 .305 .232 .416 .232 .5 Z "/>
</symbol>
<use xlink:href="#font_1_4" transform="matrix(9.9626,0,0,-9.9626,86.148677,14.524002)"/>
<use xlink:href="#font_1_2" transform="matrix(9.9626,0,0,-9.9626,90.81117,17.014653)"/>
<symbol id="font_0_2">
<path d="M .384 .962 C .38900004 .975 .38900004 .97900006 .38900004 .98 C .38900004 .99100008 .38000003 1 .36900003 1 C .36200003 1 .35500003 .99700006 .352 .99100008 L .004999999 .037999989 C 0 .024999991 0 .020999983 0 .019999996 C 0 .008999988 .009 0 .02 0 C .033000005 0 .036000004 .0069999846 .042 .023999989 L .384 .962 Z "/>
</symbol>
<use xlink:href="#font_0_2" transform="matrix(9.9626,0,0,-9.9626,94.66495,17.014653)"/>
<use xlink:href="#font_0_3" transform="matrix(9.9626,0,0,-9.9626,99.64625,14.633591)"/>
<path transform="matrix(1,0,0,-1,3.3209992,18.308999)" stroke-width="1" stroke-linecap="butt" stroke-miterlimit="10" stroke-linejoin="miter" fill="none" stroke="#000000" d="M 0 0 L 106.5 0 "/>
<use xlink:href="#font_3_1" transform="matrix(9.9626,0,0,-9.9626,22.965897,27.4206)"/>
<use xlink:href="#font_1_4" transform="matrix(9.9626,0,0,-9.9626,30.774672,29.711998)"/>
<path transform="matrix(1,0,0,-1,53.887,33.299005)" stroke-width="1" stroke-linecap="butt" stroke-miterlimit="10" stroke-linejoin="miter" fill="none" stroke="#000000" d="M 0 0 L 0 14.79 "/>
<symbol id="font_0_1">
<path d="M .106 .053000004 C .106 .082 .08200001 .106000009 .05300001 .106000009 C .024000004 .106000009 0 .082 0 .053000004 C 0 .024 .024000004 0 .05300001 0 C .08200001 0 .106 .024 .106 .053000004 Z "/>
</symbol>
<use xlink:href="#font_0_1" transform="matrix(9.9626,0,0,-9.9626,78.93578,29.711998)"/>
<symbol id="font_1_8">
<path d="M .39900003 .223 C .39900003 .34200005 .317 .44200004 .209 .44200004 C .16100002 .44200004 .118000019 .42600004 .082 .39100004 L .082 .586 C .10200001 .58000007 .135 .573 .16700001 .573 C .29 .573 .36 .66400006 .36 .67700007 C .36 .683 .357 .688 .35 .688 C .349 .688 .347 .688 .342 .68500009 C .322 .67600008 .273 .656 .20600002 .656 C .16600001 .656 .120000008 .66300007 .073 .6840001 C .065 .68700006 .06300001 .68700006 .061000009 .68700006 C .051000004 .68700006 .051000004 .679 .051000004 .66300007 L .051000004 .36700005 C .051000004 .34900005 .051000004 .34100003 .065 .34100003 C .07200001 .34100003 .074 .34400005 .07800001 .35000003 C .08900002 .36600004 .12600002 .42000006 .207 .42000006 C .259 .42000006 .284 .37400005 .292 .35600005 C .308 .31900005 .31 .28000004 .31 .23 C .31 .19500001 .31 .135 .286 .093 C .262 .054000006 .22500001 .028 .17900002 .028 C .106000009 .028 .049000008 .08100001 .032 .14000002 C .035 .13900002 .038000008 .13800001 .049000008 .13800001 C .082 .13800001 .09900001 .163 .09900001 .187 C .09900001 .21100001 .082 .23600002 .049000008 .23600002 C .035 .23600002 0 .22900002 0 .18300002 C 0 .097 .069000009 0 .18100001 0 C .297 0 .39900003 .096 .39900003 .223 Z "/>
</symbol>
<use xlink:href="#font_1_8" transform="matrix(9.9626,0,0,-9.9626,81.34413,29.931176)"/>
<use xlink:href="#font_3_1" transform="matrix(9.9626,0,0,-9.9626,19.091897,42.2106)"/>
<symbol id="font_1_3">
<path d="M .421 .34200005 C .421 .42200003 .416 .50200006 .381 .57600006 C .335 .67200008 .25300003 .688 .211 .688 C .15100001 .688 .07800001 .66200008 .037000006 .56900009 C .0050000029 .5 0 .42200003 0 .34200005 C 0 .26700003 .0040000008 .177 .045000007 .101 C .088 .020000002 .161 0 .21000001 0 C .264 0 .34 .021000002 .384 .116000007 C .416 .185 .421 .263 .421 .34200005 M .21000001 .022000002 C .171 .022000002 .112 .047000003 .094 .143 C .083000008 .20300001 .083000008 .29500003 .083000008 .35400004 C .083000008 .41800005 .083000008 .48400004 .091000009 .53800007 C .11 .65700009 .185 .66600009 .21000001 .66600009 C .243 .66600009 .30900003 .64800009 .328 .549 C .338 .49300004 .338 .41700004 .338 .35400004 C .338 .279 .338 .21100001 .32700003 .147 C .312 .052 .255 .022000002 .21000001 .022000002 Z "/>
</symbol>
<use xlink:href="#font_1_3" transform="matrix(9.9626,0,0,-9.9626,26.401543,44.721178)"/>
<use xlink:href="#font_0_1" transform="matrix(9.9626,0,0,-9.9626,31.851782,44.502)"/>
<use xlink:href="#font_1_4" transform="matrix(9.9626,0,0,-9.9626,34.648675,44.502)"/>
<path transform="matrix(1,0,0,-1,53.887,48.089)" stroke-width="1" stroke-linecap="butt" stroke-miterlimit="10" stroke-linejoin="miter" fill="none" stroke="#000000" d="M 0 0 L 0 14.79 "/>
<symbol id="font_3_2">
<path d="M .66700008 .39600004 C .66700008 .41700004 .66 .42600004 .653 .42600004 C .64900007 .42600004 .64000007 .42200003 .639 .39900003 C .63500007 .33 .565 .28900004 .5 .28900004 C .442 .28900004 .39200003 .32000003 .34 .35500003 C .286 .39100004 .232 .42700003 .16700001 .42700003 C .074 .42700003 0 .35600005 0 .26400004 C 0 .24200002 .007999998 .23400003 .014000002 .23400003 C .024 .23400003 .028 .25300003 .028 .25700004 C .033000005 .34100003 .114999998 .37100003 .16700001 .37100003 C .225 .37100003 .275 .34000004 .32700003 .30500005 C .381 .26900003 .435 .23300001 .5 .23300001 C .593 .23300001 .66700008 .30400003 .66700008 .39600004 M .66700008 .162 C .66700008 .19100002 .65500006 .19300002 .653 .19300002 C .64900007 .19300002 .64000007 .18800003 .639 .16600001 C .63500007 .09700001 .565 .056 .5 .056 C .442 .056 .39200003 .087000008 .34 .122 C .286 .15800002 .232 .194 .16700001 .194 C .074 .194 0 .123 0 .031000004 C 0 .009000003 .007999998 .001000002 .014000002 .001000002 C .024 .001000002 .028 .020000004 .028 .024000004 C .033000005 .108 .114999998 .13800001 .16700001 .13800001 C .225 .13800001 .275 .107 .32700003 .072000008 C .381 .036000007 .435 0 .5 0 C .595 0 .66700008 .07400001 .66700008 .162 Z "/>
</symbol>
<use xlink:href="#font_3_2" transform="matrix(9.9626,0,0,-9.9626,63.405946,43.94409)"/>
<use xlink:href="#font_1_3" transform="matrix(9.9626,0,0,-9.9626,73.76254,44.721178)"/>
<use xlink:href="#font_0_1" transform="matrix(9.9626,0,0,-9.9626,79.211788,44.502)"/>
<symbol id="font_1_9">
<path d="M .089999999 .35000003 L .089999999 .37400005 C .089999999 .62700006 .21400002 .66300007 .26500003 .66300007 C .28900004 .66300007 .33100004 .65700009 .35300002 .623 C .33800004 .623 .298 .623 .298 .57800009 C .298 .54700008 .32200004 .53200009 .344 .53200009 C .36 .53200009 .39000003 .54100009 .39000003 .58000007 C .39000003 .64000007 .34600003 .688 .263 .688 C .13499999 .688 0 .559 0 .33800004 C 0 .071 .116000007 0 .20900002 0 C .32000003 0 .41500003 .094000007 .41500003 .22600001 C .41500003 .35300005 .32600004 .44900004 .215 .44900004 C .14700002 .44900004 .11000001 .39800004 .089999999 .35000003 M .20900002 .028 C .146 .028 .116000007 .088 .11000001 .103 C .092 .15 .092 .23 .092 .24800001 C .092 .32600004 .124000009 .42600004 .21400002 .42600004 C .23000002 .42600004 .27600003 .42600004 .307 .36400003 C .32500003 .32700003 .32500003 .27600003 .32500003 .22700002 C .32500003 .179 .32500003 .12900001 .30800004 .093 C .27800004 .033000005 .23200003 .028 .20900002 .028 Z "/>
</symbol>
<symbol id="font_1_a">
<path d="M .42000003 .63100007 C .42900003 .64300009 .42900003 .64500007 .42900003 .66600009 L .18600002 .66600009 C .064 .66600009 .062000008 .679 .058000007 .6980001 L .033 .6980001 L 0 .49200005 L .024999999 .49200005 C .028000005 .508 .037 .57100006 .050000006 .58300009 C .057000005 .58900007 .13500002 .58900007 .148 .58900007 L .35500003 .58900007 C .344 .573 .26500003 .46400006 .24300003 .43100003 C .153 .29600004 .12000001 .157 .12000001 .055 C .12000001 .045 .12000001 0 .16600001 0 C .21200001 0 .21200001 .045 .21200001 .055 L .21200001 .106000009 C .21200001 .16100002 .21500004 .216 .22300002 .27 C .22700003 .29300005 .24100003 .37900005 .28500004 .44100005 L .42000003 .63100007 Z "/>
</symbol>
<use xlink:href="#font_1_9" transform="matrix(9.9626,0,0,-9.9626,81.54143,44.721178)"/>
<use xlink:href="#font_1_a" transform="matrix(9.9626,0,0,-9.9626,86.66221,44.721178)"/>
<use xlink:href="#font_1_3" transform="matrix(9.9626,0,0,-9.9626,91.474147,44.721178)"/>
<use xlink:href="#font_1_3" transform="matrix(9.9626,0,0,-9.9626,96.455448,44.721178)"/>
<use xlink:href="#font_3_1" transform="matrix(9.9626,0,0,-9.9626,16.600897,57.000604)"/>
<use xlink:href="#font_1_3" transform="matrix(9.9626,0,0,-9.9626,23.911545,59.511178)"/>
<use xlink:href="#font_0_1" transform="matrix(9.9626,0,0,-9.9626,29.360785,59.292)"/>
<use xlink:href="#font_1_3" transform="matrix(9.9626,0,0,-9.9626,31.659543,59.511178)"/>
<use xlink:href="#font_1_4" transform="matrix(9.9626,0,0,-9.9626,37.138975,59.292)"/>
<path transform="matrix(1,0,0,-1,53.887,62.879)" stroke-width="1" stroke-linecap="butt" stroke-miterlimit="10" stroke-linejoin="miter" fill="none" stroke="#000000" d="M 0 0 L 0 14.79 "/>
<use xlink:href="#font_3_2" transform="matrix(9.9626,0,0,-9.9626,63.405946,58.734094)"/>
<use xlink:href="#font_1_3" transform="matrix(9.9626,0,0,-9.9626,73.76254,59.511178)"/>
<use xlink:href="#font_0_1" transform="matrix(9.9626,0,0,-9.9626,79.211788,59.292)"/>
<symbol id="font_1_c">
<path d="M .32500003 .34000004 L .32500003 .30800004 C .32500003 .074 .22100002 .028 .16300002 .028 C .146 .028 .092 .030000002 .065000008 .064 C .109000008 .064 .117000009 .093 .117000009 .11000001 C .117000009 .141 .093 .156 .071 .156 C .055 .156 .024999999 .147 .024999999 .108 C .024999999 .041 .079 0 .164 0 C .293 0 .41500003 .136 .41500003 .35100005 C .41500003 .62000009 .3 .688 .21100003 .688 C .15600002 .688 .107 .67 .064 .62500008 C .023000002 .58000007 0 .53800007 0 .46300004 C 0 .33800004 .08800001 .24000001 .20000002 .24000001 C .261 .24000001 .30200003 .28200004 .32500003 .34000004 M .201 .263 C .185 .263 .139 .263 .108 .32600004 C .089999999 .36300005 .089999999 .41300006 .089999999 .46200005 C .089999999 .51600006 .089999999 .563 .11100001 .6 C .13800001 .65000006 .176 .66300007 .21100003 .66300007 C .25700004 .66300007 .29000003 .62900009 .307 .58400008 C .31900005 .55200007 .323 .48900003 .323 .44300006 C .323 .36000005 .28900004 .263 .201 .263 Z "/>
</symbol>
<use xlink:href="#font_1_9" transform="matrix(9.9626,0,0,-9.9626,81.54143,59.511178)"/>
<use xlink:href="#font_1_c" transform="matrix(9.9626,0,0,-9.9626,86.52273,59.511178)"/>
<use xlink:href="#font_1_4" transform="matrix(9.9626,0,0,-9.9626,91.972278,59.292)"/>
<use xlink:href="#font_1_3" transform="matrix(9.9626,0,0,-9.9626,96.455448,59.511178)"/>
<use xlink:href="#font_3_1" transform="matrix(9.9626,0,0,-9.9626,14.1098999,71.7906)"/>
<use xlink:href="#font_1_3" transform="matrix(9.9626,0,0,-9.9626,21.420548,74.30118)"/>
<use xlink:href="#font_0_1" transform="matrix(9.9626,0,0,-9.9626,26.869788,74.082)"/>
<use xlink:href="#font_1_3" transform="matrix(9.9626,0,0,-9.9626,29.169545,74.30118)"/>
<use xlink:href="#font_1_3" transform="matrix(9.9626,0,0,-9.9626,34.150846,74.30118)"/>
<use xlink:href="#font_1_4" transform="matrix(9.9626,0,0,-9.9626,39.630277,74.082)"/>
<path transform="matrix(1,0,0,-1,53.887,77.669)" stroke-width="1" stroke-linecap="butt" stroke-miterlimit="10" stroke-linejoin="miter" fill="none" stroke="#000000" d="M 0 0 L 0 14.79 "/>
<use xlink:href="#font_3_2" transform="matrix(9.9626,0,0,-9.9626,63.405946,73.52409)"/>
<use xlink:href="#font_1_3" transform="matrix(9.9626,0,0,-9.9626,73.76254,74.30118)"/>
<use xlink:href="#font_0_1" transform="matrix(9.9626,0,0,-9.9626,79.211788,74.082)"/>
<use xlink:href="#font_1_9" transform="matrix(9.9626,0,0,-9.9626,81.54143,74.30118)"/>
<use xlink:href="#font_1_c" transform="matrix(9.9626,0,0,-9.9626,86.52273,74.30118)"/>
<use xlink:href="#font_1_5" transform="matrix(9.9626,0,0,-9.9626,91.58373,74.082)"/>
<use xlink:href="#font_1_c" transform="matrix(9.9626,0,0,-9.9626,96.48533,74.30118)"/>
<use xlink:href="#font_3_1" transform="matrix(9.9626,0,0,-9.9626,11.619894,86.580608)"/>
<use xlink:href="#font_1_3" transform="matrix(9.9626,0,0,-9.9626,18.929543,89.09118)"/>
<use xlink:href="#font_0_1" transform="matrix(9.9626,0,0,-9.9626,24.379782,88.872)"/>
<use xlink:href="#font_1_3" transform="matrix(9.9626,0,0,-9.9626,26.678544,89.09118)"/>
<use xlink:href="#font_1_3" transform="matrix(9.9626,0,0,-9.9626,31.659844,89.09118)"/>
<use xlink:href="#font_1_3" transform="matrix(9.9626,0,0,-9.9626,36.641145,89.09118)"/>
<use xlink:href="#font_1_4" transform="matrix(9.9626,0,0,-9.9626,42.120576,88.872)"/>
<path transform="matrix(1,0,0,-1,53.887,92.459)" stroke-width="1" stroke-linecap="butt" stroke-miterlimit="10" stroke-linejoin="miter" fill="none" stroke="#000000" d="M 0 0 L 0 14.79 "/>
<use xlink:href="#font_3_2" transform="matrix(9.9626,0,0,-9.9626,63.405946,88.314098)"/>
<use xlink:href="#font_1_3" transform="matrix(9.9626,0,0,-9.9626,73.76254,89.09118)"/>
<use xlink:href="#font_0_1" transform="matrix(9.9626,0,0,-9.9626,79.211788,88.872)"/>
<symbol id="font_1_6">
<path d="M .24800003 .37400005 C .33 .40100003 .388 .47100006 .388 .55 C .388 .632 .3 .688 .204 .688 C .10300001 .688 .027000003 .628 .027000003 .55200007 C .027000003 .519 .049000004 .5 .078 .5 C .109000008 .5 .12900001 .522 .12900001 .55100008 C .12900001 .6010001 .082 .6010001 .067 .6010001 C .098 .65000006 .164 .66300007 .20000002 .66300007 C .24100003 .66300007 .29600004 .64100006 .29600004 .55100008 C .29600004 .53900006 .29400004 .48100005 .268 .43700005 C .238 .38900004 .204 .38600005 .17900002 .38500003 C .171 .38400004 .14700002 .38200004 .14000002 .38200004 C .132 .38100005 .125 .38000003 .125 .37000004 C .125 .35900004 .132 .35900004 .14900002 .35900004 L .19300002 .35900004 C .275 .35900004 .312 .29100005 .312 .193 C .312 .057000005 .24300003 .028 .199 .028 C .15600002 .028 .081 .045 .046000005 .104 C .081 .09900001 .11200001 .12100001 .11200001 .15900001 C .11200001 .19500001 .085 .215 .056 .215 C .031999999 .215 0 .201 0 .157 C 0 .06600001 .093 0 .20200002 0 C .32400004 0 .41500003 .091000009 .41500003 .193 C .41500003 .27500005 .35200004 .35300005 .24800003 .37400005 Z "/>
</symbol>
<use xlink:href="#font_1_9" transform="matrix(9.9626,0,0,-9.9626,81.54143,89.09118)"/>
<use xlink:href="#font_1_c" transform="matrix(9.9626,0,0,-9.9626,86.52273,89.09118)"/>
<use xlink:href="#font_1_6" transform="matrix(9.9626,0,0,-9.9626,91.50403,89.09118)"/>
<use xlink:href="#font_1_4" transform="matrix(9.9626,0,0,-9.9626,96.953578,88.872)"/>
<use xlink:href="#font_3_1" transform="matrix(9.9626,0,0,-9.9626,9.128897,101.370609)"/>
<use xlink:href="#font_1_3" transform="matrix(9.9626,0,0,-9.9626,16.439545,103.88118)"/>
<use xlink:href="#font_0_1" transform="matrix(9.9626,0,0,-9.9626,21.888785,103.662)"/>
<use xlink:href="#font_1_3" transform="matrix(9.9626,0,0,-9.9626,24.187542,103.88118)"/>
<use xlink:href="#font_1_3" transform="matrix(9.9626,0,0,-9.9626,29.168843,103.88118)"/>
<use xlink:href="#font_1_3" transform="matrix(9.9626,0,0,-9.9626,34.150144,103.88118)"/>
<use xlink:href="#font_1_3" transform="matrix(9.9626,0,0,-9.9626,39.131444,103.88118)"/>
<use xlink:href="#font_1_4" transform="matrix(9.9626,0,0,-9.9626,44.610876,103.662)"/>
<path transform="matrix(1,0,0,-1,53.887,107.248)" stroke-width="1" stroke-linecap="butt" stroke-miterlimit="10" stroke-linejoin="miter" fill="none" stroke="#000000" d="M 0 0 L 0 14.79 "/>
<use xlink:href="#font_3_2" transform="matrix(9.9626,0,0,-9.9626,63.405946,103.104099)"/>
<use xlink:href="#font_1_3" transform="matrix(9.9626,0,0,-9.9626,73.76254,103.88118)"/>
<use xlink:href="#font_0_1" transform="matrix(9.9626,0,0,-9.9626,79.211788,103.662)"/>
<use xlink:href="#font_1_9" transform="matrix(9.9626,0,0,-9.9626,81.54143,103.88118)"/>
<use xlink:href="#font_1_c" transform="matrix(9.9626,0,0,-9.9626,86.52273,103.88118)"/>
<use xlink:href="#font_1_6" transform="matrix(9.9626,0,0,-9.9626,91.50403,103.88118)"/>
<use xlink:href="#font_1_5" transform="matrix(9.9626,0,0,-9.9626,96.56503,103.662)"/>
<use xlink:href="#font_0_3" transform="matrix(9.9626,0,0,-9.9626,148.73194,14.633591)"/>
<path transform="matrix(1,0,0,-1,172.563,18.11)" stroke-width="1" stroke-linecap="butt" stroke-miterlimit="10" stroke-linejoin="miter" fill="none" stroke="#000000" d="M 0 0 L 0 14.79 "/>
<use xlink:href="#font_1_1" transform="matrix(9.9626,0,0,-9.9626,178.7293,17.014653)"/>
<use xlink:href="#font_1_5" transform="matrix(9.9626,0,0,-9.9626,182.11658,14.524002)"/>
<use xlink:href="#font_2_1" transform="matrix(6.9738,0,0,-6.9738,187.12204,10.479742)"/>
<use xlink:href="#font_3_1" transform="matrix(9.9626,0,0,-9.9626,194.8019,12.232604)"/>
<use xlink:href="#font_1_4" transform="matrix(9.9626,0,0,-9.9626,204.82468,14.524002)"/>
<use xlink:href="#font_1_2" transform="matrix(9.9626,0,0,-9.9626,209.48717,17.014653)"/>
<use xlink:href="#font_0_2" transform="matrix(9.9626,0,0,-9.9626,213.34195,17.014653)"/>
<use xlink:href="#font_0_3" transform="matrix(9.9626,0,0,-9.9626,218.32324,14.633591)"/>
<path transform="matrix(1,0,0,-1,129.745,18.308999)" stroke-width="1" stroke-linecap="butt" stroke-miterlimit="10" stroke-linejoin="miter" fill="none" stroke="#000000" d="M 0 0 L 98.751 0 "/>
<use xlink:href="#font_1_4" transform="matrix(9.9626,0,0,-9.9626,149.45067,29.711998)"/>
<path transform="matrix(1,0,0,-1,172.563,33.299005)" stroke-width="1" stroke-linecap="butt" stroke-miterlimit="10" stroke-linejoin="miter" fill="none" stroke="#000000" d="M 0 0 L 0 14.79 "/>
<use xlink:href="#font_1_4" transform="matrix(9.9626,0,0,-9.9626,199.02568,29.711998)"/>
<use xlink:href="#font_1_3" transform="matrix(9.9626,0,0,-9.9626,145.07755,44.721178)"/>
<use xlink:href="#font_0_1" transform="matrix(9.9626,0,0,-9.9626,150.52779,44.502)"/>
<use xlink:href="#font_1_4" transform="matrix(9.9626,0,0,-9.9626,153.32468,44.502)"/>
<path transform="matrix(1,0,0,-1,172.563,48.089)" stroke-width="1" stroke-linecap="butt" stroke-miterlimit="10" stroke-linejoin="miter" fill="none" stroke="#000000" d="M 0 0 L 0 14.79 "/>
<use xlink:href="#font_3_2" transform="matrix(9.9626,0,0,-9.9626,182.08194,43.94409)"/>
<use xlink:href="#font_1_3" transform="matrix(9.9626,0,0,-9.9626,192.43854,44.721178)"/>
<use xlink:href="#font_0_1" transform="matrix(9.9626,0,0,-9.9626,197.88878,44.502)"/>
<use xlink:href="#font_1_a" transform="matrix(9.9626,0,0,-9.9626,200.3569,44.721178)"/>
<use xlink:href="#font_1_4" transform="matrix(9.9626,0,0,-9.9626,205.66696,44.502)"/>
<use xlink:href="#font_1_a" transform="matrix(9.9626,0,0,-9.9626,210.31949,44.721178)"/>
<use xlink:href="#font_1_a" transform="matrix(9.9626,0,0,-9.9626,215.30078,44.721178)"/>
<use xlink:href="#font_1_3" transform="matrix(9.9626,0,0,-9.9626,142.58754,59.511178)"/>
<use xlink:href="#font_0_1" transform="matrix(9.9626,0,0,-9.9626,148.03679,59.292)"/>
<use xlink:href="#font_1_3" transform="matrix(9.9626,0,0,-9.9626,150.33655,59.511178)"/>
<use xlink:href="#font_1_4" transform="matrix(9.9626,0,0,-9.9626,155.81598,59.292)"/>
<path transform="matrix(1,0,0,-1,172.563,62.879)" stroke-width="1" stroke-linecap="butt" stroke-miterlimit="10" stroke-linejoin="miter" fill="none" stroke="#000000" d="M 0 0 L 0 14.79 "/>
<use xlink:href="#font_3_2" transform="matrix(9.9626,0,0,-9.9626,182.08194,58.734094)"/>
<use xlink:href="#font_1_3" transform="matrix(9.9626,0,0,-9.9626,192.43854,59.511178)"/>
<use xlink:href="#font_0_1" transform="matrix(9.9626,0,0,-9.9626,197.88878,59.292)"/>
<use xlink:href="#font_1_9" transform="matrix(9.9626,0,0,-9.9626,200.21743,59.511178)"/>
<use xlink:href="#font_1_c" transform="matrix(9.9626,0,0,-9.9626,205.19872,59.511178)"/>
<use xlink:href="#font_1_8" transform="matrix(9.9626,0,0,-9.9626,210.2597,59.511178)"/>
<use xlink:href="#font_1_9" transform="matrix(9.9626,0,0,-9.9626,215.1613,59.511178)"/>
<use xlink:href="#font_1_3" transform="matrix(9.9626,0,0,-9.9626,140.09653,74.30118)"/>
<use xlink:href="#font_0_1" transform="matrix(9.9626,0,0,-9.9626,145.54578,74.082)"/>
<use xlink:href="#font_1_3" transform="matrix(9.9626,0,0,-9.9626,147.84554,74.30118)"/>
<use xlink:href="#font_1_3" transform="matrix(9.9626,0,0,-9.9626,152.82683,74.30118)"/>
<use xlink:href="#font_1_4" transform="matrix(9.9626,0,0,-9.9626,158.30626,74.082)"/>
<path transform="matrix(1,0,0,-1,172.563,77.669)" stroke-width="1" stroke-linecap="butt" stroke-miterlimit="10" stroke-linejoin="miter" fill="none" stroke="#000000" d="M 0 0 L 0 14.79 "/>
<use xlink:href="#font_3_2" transform="matrix(9.9626,0,0,-9.9626,182.08194,73.52409)"/>
<use xlink:href="#font_1_3" transform="matrix(9.9626,0,0,-9.9626,192.43854,74.30118)"/>
<use xlink:href="#font_0_1" transform="matrix(9.9626,0,0,-9.9626,197.88878,74.082)"/>
<symbol id="font_1_7">
<path d="M .266 .165 L .266 .078 C .266 .042000005 .26400004 .031000002 .19000001 .031000002 L .16900002 .031000002 L .16900002 0 C .21000001 .003 .26200003 .003 .30400003 .003 C .34600003 .003 .39900003 .003 .44000004 0 L .44000004 .031000002 L .41900004 .031000002 C .34500004 .031000002 .34300003 .042000005 .34300003 .078 L .34300003 .165 L .44300003 .165 L .44300003 .19600001 L .34300003 .19600001 L .34300003 .651 C .34300003 .671 .34300003 .67700007 .32700003 .67700007 C .31800003 .67700007 .31500004 .67700007 .307 .665 L 0 .19600001 L 0 .165 L .266 .165 M .272 .19600001 L .028 .19600001 L .272 .569 L .272 .19600001 Z "/>
</symbol>
<use xlink:href="#font_1_9" transform="matrix(9.9626,0,0,-9.9626,200.21743,74.30118)"/>
<use xlink:href="#font_1_c" transform="matrix(9.9626,0,0,-9.9626,205.19872,74.30118)"/>
<use xlink:href="#font_1_6" transform="matrix(9.9626,0,0,-9.9626,210.18001,74.30118)"/>
<use xlink:href="#font_1_7" transform="matrix(9.9626,0,0,-9.9626,215.02182,74.082)"/>
<use xlink:href="#font_1_3" transform="matrix(9.9626,0,0,-9.9626,137.60553,89.09118)"/>
<use xlink:href="#font_0_1" transform="matrix(9.9626,0,0,-9.9626,143.05577,88.872)"/>
<use xlink:href="#font_1_3" transform="matrix(9.9626,0,0,-9.9626,145.35453,89.09118)"/>
<use xlink:href="#font_1_3" transform="matrix(9.9626,0,0,-9.9626,150.33582,89.09118)"/>
<use xlink:href="#font_1_3" transform="matrix(9.9626,0,0,-9.9626,155.31711,89.09118)"/>
<use xlink:href="#font_1_4" transform="matrix(9.9626,0,0,-9.9626,160.79654,88.872)"/>
<path transform="matrix(1,0,0,-1,172.563,92.459)" stroke-width="1" stroke-linecap="butt" stroke-miterlimit="10" stroke-linejoin="miter" fill="none" stroke="#000000" d="M 0 0 L 0 14.79 "/>
<use xlink:href="#font_3_2" transform="matrix(9.9626,0,0,-9.9626,182.08194,88.314098)"/>
<use xlink:href="#font_1_3" transform="matrix(9.9626,0,0,-9.9626,192.43854,89.09118)"/>
<use xlink:href="#font_0_1" transform="matrix(9.9626,0,0,-9.9626,197.88878,88.872)"/>
<use xlink:href="#font_1_9" transform="matrix(9.9626,0,0,-9.9626,200.21743,89.09118)"/>
<use xlink:href="#font_1_c" transform="matrix(9.9626,0,0,-9.9626,205.19872,89.09118)"/>
<use xlink:href="#font_1_6" transform="matrix(9.9626,0,0,-9.9626,210.18001,89.09118)"/>
<use xlink:href="#font_1_5" transform="matrix(9.9626,0,0,-9.9626,215.241,88.872)"/>
<use xlink:href="#font_1_3" transform="matrix(9.9626,0,0,-9.9626,135.11553,103.88118)"/>
<use xlink:href="#font_0_1" transform="matrix(9.9626,0,0,-9.9626,140.56478,103.662)"/>
<use xlink:href="#font_1_3" transform="matrix(9.9626,0,0,-9.9626,142.86454,103.88118)"/>
<use xlink:href="#font_1_3" transform="matrix(9.9626,0,0,-9.9626,147.84583,103.88118)"/>
<use xlink:href="#font_1_3" transform="matrix(9.9626,0,0,-9.9626,152.82712,103.88118)"/>
<use xlink:href="#font_1_3" transform="matrix(9.9626,0,0,-9.9626,157.80841,103.88118)"/>
<use xlink:href="#font_1_4" transform="matrix(9.9626,0,0,-9.9626,163.28784,103.662)"/>
<path transform="matrix(1,0,0,-1,172.563,107.248)" stroke-width="1" stroke-linecap="butt" stroke-miterlimit="10" stroke-linejoin="miter" fill="none" stroke="#000000" d="M 0 0 L 0 14.79 "/>
<use xlink:href="#font_3_2" transform="matrix(9.9626,0,0,-9.9626,182.08194,103.104099)"/>
<use xlink:href="#font_1_3" transform="matrix(9.9626,0,0,-9.9626,192.43854,103.88118)"/>
<use xlink:href="#font_0_1" transform="matrix(9.9626,0,0,-9.9626,197.88878,103.662)"/>
<use xlink:href="#font_1_9" transform="matrix(9.9626,0,0,-9.9626,200.21743,103.88118)"/>
<use xlink:href="#font_1_c" transform="matrix(9.9626,0,0,-9.9626,205.19872,103.88118)"/>
<use xlink:href="#font_1_6" transform="matrix(9.9626,0,0,-9.9626,210.18001,103.88118)"/>
<use xlink:href="#font_1_5" transform="matrix(9.9626,0,0,-9.9626,215.241,103.662)"/>
<use xlink:href="#font_0_3" transform="matrix(9.9626,0,0,-9.9626,291.20796,14.633591)"/>
<path transform="matrix(1,0,0,-1,318.913,18.11)" stroke-width="1" stroke-linecap="butt" stroke-miterlimit="10" stroke-linejoin="miter" fill="none" stroke="#000000" d="M 0 0 L 0 14.79 "/>
<use xlink:href="#font_1_1" transform="matrix(9.9626,0,0,-9.9626,325.0803,17.014653)"/>
<use xlink:href="#font_1_6" transform="matrix(9.9626,0,0,-9.9626,328.38789,14.743179)"/>
<use xlink:href="#font_2_1" transform="matrix(6.9738,0,0,-6.9738,333.47206,10.479742)"/>
<use xlink:href="#font_3_1" transform="matrix(9.9626,0,0,-9.9626,341.15293,12.232604)"/>
<use xlink:href="#font_1_4" transform="matrix(9.9626,0,0,-9.9626,351.17469,14.524002)"/>
<use xlink:href="#font_1_2" transform="matrix(9.9626,0,0,-9.9626,355.8372,17.014653)"/>
<use xlink:href="#font_0_2" transform="matrix(9.9626,0,0,-9.9626,359.69197,17.014653)"/>
<use xlink:href="#font_0_3" transform="matrix(9.9626,0,0,-9.9626,364.67326,14.633591)"/>
<path transform="matrix(1,0,0,-1,268.347,18.308999)" stroke-width="1" stroke-linecap="butt" stroke-miterlimit="10" stroke-linejoin="miter" fill="none" stroke="#000000" d="M 0 0 L 106.5 0 "/>
<use xlink:href="#font_3_1" transform="matrix(9.9626,0,0,-9.9626,287.9919,27.4206)"/>
<use xlink:href="#font_1_4" transform="matrix(9.9626,0,0,-9.9626,295.80067,29.711998)"/>
<path transform="matrix(1,0,0,-1,318.913,33.299005)" stroke-width="1" stroke-linecap="butt" stroke-miterlimit="10" stroke-linejoin="miter" fill="none" stroke="#000000" d="M 0 0 L 0 14.79 "/>
<use xlink:href="#font_3_2" transform="matrix(9.9626,0,0,-9.9626,328.43196,29.154093)"/>
<use xlink:href="#font_1_3" transform="matrix(9.9626,0,0,-9.9626,338.78855,29.931176)"/>
<use xlink:href="#font_0_1" transform="matrix(9.9626,0,0,-9.9626,344.23878,29.711998)"/>
<use xlink:href="#font_1_9" transform="matrix(9.9626,0,0,-9.9626,346.5674,29.931176)"/>
<use xlink:href="#font_1_9" transform="matrix(9.9626,0,0,-9.9626,351.5487,29.931176)"/>
<use xlink:href="#font_1_9" transform="matrix(9.9626,0,0,-9.9626,356.53,29.931176)"/>
<use xlink:href="#font_1_a" transform="matrix(9.9626,0,0,-9.9626,361.65077,29.931176)"/>
<use xlink:href="#font_3_1" transform="matrix(9.9626,0,0,-9.9626,284.1179,42.2106)"/>
<use xlink:href="#font_1_3" transform="matrix(9.9626,0,0,-9.9626,291.42854,44.721178)"/>
<use xlink:href="#font_0_1" transform="matrix(9.9626,0,0,-9.9626,296.87776,44.502)"/>
<use xlink:href="#font_1_4" transform="matrix(9.9626,0,0,-9.9626,299.67463,44.502)"/>
<path transform="matrix(1,0,0,-1,318.913,48.089)" stroke-width="1" stroke-linecap="butt" stroke-miterlimit="10" stroke-linejoin="miter" fill="none" stroke="#000000" d="M 0 0 L 0 14.79 "/>
<use xlink:href="#font_3_2" transform="matrix(9.9626,0,0,-9.9626,328.43196,43.94409)"/>
<use xlink:href="#font_1_4" transform="matrix(9.9626,0,0,-9.9626,339.28666,44.502)"/>
<use xlink:href="#font_0_1" transform="matrix(9.9626,0,0,-9.9626,344.23878,44.502)"/>
<use xlink:href="#font_1_3" transform="matrix(9.9626,0,0,-9.9626,346.53755,44.721178)"/>
<use xlink:href="#font_1_7" transform="matrix(9.9626,0,0,-9.9626,351.40925,44.502)"/>
<use xlink:href="#font_1_3" transform="matrix(9.9626,0,0,-9.9626,356.50013,44.721178)"/>
<use xlink:href="#font_1_7" transform="matrix(9.9626,0,0,-9.9626,361.37184,44.502)"/>
<use xlink:href="#font_3_1" transform="matrix(9.9626,0,0,-9.9626,281.6269,57.000604)"/>
<use xlink:href="#font_1_3" transform="matrix(9.9626,0,0,-9.9626,288.93754,59.511178)"/>
<use xlink:href="#font_0_1" transform="matrix(9.9626,0,0,-9.9626,294.38676,59.292)"/>
<use xlink:href="#font_1_3" transform="matrix(9.9626,0,0,-9.9626,296.68653,59.511178)"/>
<use xlink:href="#font_1_4" transform="matrix(9.9626,0,0,-9.9626,302.16593,59.292)"/>
<path transform="matrix(1,0,0,-1,318.913,62.879)" stroke-width="1" stroke-linecap="butt" stroke-miterlimit="10" stroke-linejoin="miter" fill="none" stroke="#000000" d="M 0 0 L 0 14.79 "/>
<use xlink:href="#font_3_2" transform="matrix(9.9626,0,0,-9.9626,328.43196,58.734094)"/>
<use xlink:href="#font_1_4" transform="matrix(9.9626,0,0,-9.9626,339.28666,59.292)"/>
<use xlink:href="#font_0_1" transform="matrix(9.9626,0,0,-9.9626,344.23878,59.292)"/>
<use xlink:href="#font_1_3" transform="matrix(9.9626,0,0,-9.9626,346.53755,59.511178)"/>
<use xlink:href="#font_1_c" transform="matrix(9.9626,0,0,-9.9626,351.5487,59.511178)"/>
<use xlink:href="#font_1_5" transform="matrix(9.9626,0,0,-9.9626,356.6097,59.292)"/>
<use xlink:href="#font_1_9" transform="matrix(9.9626,0,0,-9.9626,361.5113,59.511178)"/>
<use xlink:href="#font_3_1" transform="matrix(9.9626,0,0,-9.9626,279.1369,71.7906)"/>
<use xlink:href="#font_1_3" transform="matrix(9.9626,0,0,-9.9626,286.44654,74.30118)"/>
<use xlink:href="#font_0_1" transform="matrix(9.9626,0,0,-9.9626,291.89677,74.082)"/>
<use xlink:href="#font_1_3" transform="matrix(9.9626,0,0,-9.9626,294.19554,74.30118)"/>
<use xlink:href="#font_1_3" transform="matrix(9.9626,0,0,-9.9626,299.17683,74.30118)"/>
<use xlink:href="#font_1_4" transform="matrix(9.9626,0,0,-9.9626,304.65623,74.082)"/>
<path transform="matrix(1,0,0,-1,318.913,77.669)" stroke-width="1" stroke-linecap="butt" stroke-miterlimit="10" stroke-linejoin="miter" fill="none" stroke="#000000" d="M 0 0 L 0 14.79 "/>
<use xlink:href="#font_3_2" transform="matrix(9.9626,0,0,-9.9626,328.43196,73.52409)"/>
<use xlink:href="#font_1_4" transform="matrix(9.9626,0,0,-9.9626,339.28666,74.082)"/>
<use xlink:href="#font_0_1" transform="matrix(9.9626,0,0,-9.9626,344.23878,74.082)"/>
<symbol id="font_1_b">
<path d="M .121 .47900004 C .075 .509 .071 .54300007 .071 .56000009 C .071 .62100008 .136 .66300007 .20700002 .66300007 C .28000004 .66300007 .344 .61100009 .344 .53900006 C .344 .48200003 .305 .43400005 .245 .39900003 L .121 .47900004 M .26700003 .38400004 C .33900003 .42100004 .388 .47300006 .388 .53900006 C .388 .63100007 .29900003 .688 .208 .688 C .108 .688 .027000003 .614 .027000003 .521 C .027000003 .503 .029 .45800004 .071 .41100005 C .082 .39900003 .11900001 .37400005 .144 .35700003 C .086 .32800005 0 .272 0 .17300001 C 0 .067 .102000009 0 .20700002 0 C .32000003 0 .41500003 .083000008 .41500003 .19000001 C .41500003 .22600001 .404 .27100004 .36600004 .31300003 C .34700004 .33400003 .33100004 .34400005 .26700003 .38400004 M .167 .34200005 L .29000003 .26400004 C .31800003 .245 .365 .215 .365 .154 C .365 .080000009 .29000003 .028 .208 .028 C .122 .028 .050000006 .09 .050000006 .17300001 C .050000006 .231 .082 .29500003 .167 .34200005 Z "/>
</symbol>
<use xlink:href="#font_1_3" transform="matrix(9.9626,0,0,-9.9626,346.53755,74.30118)"/>
<use xlink:href="#font_1_c" transform="matrix(9.9626,0,0,-9.9626,351.5487,74.30118)"/>
<use xlink:href="#font_1_b" transform="matrix(9.9626,0,0,-9.9626,356.53,74.30118)"/>
<use xlink:href="#font_1_3" transform="matrix(9.9626,0,0,-9.9626,361.4814,74.30118)"/>
<use xlink:href="#font_3_1" transform="matrix(9.9626,0,0,-9.9626,276.64588,86.580608)"/>
<use xlink:href="#font_1_3" transform="matrix(9.9626,0,0,-9.9626,283.9565,89.09118)"/>
<use xlink:href="#font_0_1" transform="matrix(9.9626,0,0,-9.9626,289.40574,88.872)"/>
<use xlink:href="#font_1_3" transform="matrix(9.9626,0,0,-9.9626,291.7045,89.09118)"/>
<use xlink:href="#font_1_3" transform="matrix(9.9626,0,0,-9.9626,296.6858,89.09118)"/>
<use xlink:href="#font_1_3" transform="matrix(9.9626,0,0,-9.9626,301.66709,89.09118)"/>
<use xlink:href="#font_1_4" transform="matrix(9.9626,0,0,-9.9626,307.14649,88.872)"/>
<path transform="matrix(1,0,0,-1,318.913,92.459)" stroke-width="1" stroke-linecap="butt" stroke-miterlimit="10" stroke-linejoin="miter" fill="none" stroke="#000000" d="M 0 0 L 0 14.79 "/>
<use xlink:href="#font_3_2" transform="matrix(9.9626,0,0,-9.9626,328.43196,88.314098)"/>
<use xlink:href="#font_1_4" transform="matrix(9.9626,0,0,-9.9626,339.28666,88.872)"/>
<use xlink:href="#font_0_1" transform="matrix(9.9626,0,0,-9.9626,344.23878,88.872)"/>
<use xlink:href="#font_1_3" transform="matrix(9.9626,0,0,-9.9626,346.53755,89.09118)"/>
<use xlink:href="#font_1_c" transform="matrix(9.9626,0,0,-9.9626,351.5487,89.09118)"/>
<use xlink:href="#font_1_b" transform="matrix(9.9626,0,0,-9.9626,356.53,89.09118)"/>
<use xlink:href="#font_1_9" transform="matrix(9.9626,0,0,-9.9626,361.5113,89.09118)"/>
<use xlink:href="#font_3_1" transform="matrix(9.9626,0,0,-9.9626,274.1549,101.370609)"/>
<use xlink:href="#font_1_3" transform="matrix(9.9626,0,0,-9.9626,281.46556,103.88118)"/>
<use xlink:href="#font_0_1" transform="matrix(9.9626,0,0,-9.9626,286.91477,103.662)"/>
<use xlink:href="#font_1_3" transform="matrix(9.9626,0,0,-9.9626,289.21455,103.88118)"/>
<use xlink:href="#font_1_3" transform="matrix(9.9626,0,0,-9.9626,294.19584,103.88118)"/>
<use xlink:href="#font_1_3" transform="matrix(9.9626,0,0,-9.9626,299.17713,103.88118)"/>
<use xlink:href="#font_1_3" transform="matrix(9.9626,0,0,-9.9626,304.15843,103.88118)"/>
<use xlink:href="#font_1_4" transform="matrix(9.9626,0,0,-9.9626,309.63783,103.662)"/>
<path transform="matrix(1,0,0,-1,318.913,107.248)" stroke-width="1" stroke-linecap="butt" stroke-miterlimit="10" stroke-linejoin="miter" fill="none" stroke="#000000" d="M 0 0 L 0 14.79 "/>
<use xlink:href="#font_3_2" transform="matrix(9.9626,0,0,-9.9626,328.43196,103.104099)"/>
<use xlink:href="#font_1_4" transform="matrix(9.9626,0,0,-9.9626,339.28666,103.662)"/>
<use xlink:href="#font_0_1" transform="matrix(9.9626,0,0,-9.9626,344.23878,103.662)"/>
<use xlink:href="#font_1_3" transform="matrix(9.9626,0,0,-9.9626,346.53755,103.88118)"/>
<use xlink:href="#font_1_c" transform="matrix(9.9626,0,0,-9.9626,351.5487,103.88118)"/>
<use xlink:href="#font_1_b" transform="matrix(9.9626,0,0,-9.9626,356.53,103.88118)"/>
<use xlink:href="#font_1_9" transform="matrix(9.9626,0,0,-9.9626,361.5113,103.88118)"/>
<use xlink:href="#font_0_3" transform="matrix(9.9626,0,0,-9.9626,413.75895,14.633591)"/>
<path transform="matrix(1,0,0,-1,437.589,18.11)" stroke-width="1" stroke-linecap="butt" stroke-miterlimit="10" stroke-linejoin="miter" fill="none" stroke="#000000" d="M 0 0 L 0 14.79 "/>
<use xlink:href="#font_1_1" transform="matrix(9.9626,0,0,-9.9626,443.7563,17.014653)"/>
<use xlink:href="#font_1_6" transform="matrix(9.9626,0,0,-9.9626,447.06388,14.743179)"/>
<use xlink:href="#font_2_1" transform="matrix(6.9738,0,0,-6.9738,452.14805,10.479742)"/>
<use xlink:href="#font_3_1" transform="matrix(9.9626,0,0,-9.9626,459.82893,12.232604)"/>
<use xlink:href="#font_1_4" transform="matrix(9.9626,0,0,-9.9626,469.85069,14.524002)"/>
<use xlink:href="#font_1_2" transform="matrix(9.9626,0,0,-9.9626,474.51319,17.014653)"/>
<use xlink:href="#font_0_2" transform="matrix(9.9626,0,0,-9.9626,478.36796,17.014653)"/>
<use xlink:href="#font_0_3" transform="matrix(9.9626,0,0,-9.9626,483.34925,14.633591)"/>
<path transform="matrix(1,0,0,-1,394.772,18.308999)" stroke-width="1" stroke-linecap="butt" stroke-miterlimit="10" stroke-linejoin="miter" fill="none" stroke="#000000" d="M 0 0 L 98.751 0 "/>
<use xlink:href="#font_1_4" transform="matrix(9.9626,0,0,-9.9626,414.47666,29.711998)"/>
<path transform="matrix(1,0,0,-1,437.589,33.299005)" stroke-width="1" stroke-linecap="butt" stroke-miterlimit="10" stroke-linejoin="miter" fill="none" stroke="#000000" d="M 0 0 L 0 14.79 "/>
<use xlink:href="#font_1_5" transform="matrix(9.9626,0,0,-9.9626,463.66316,29.711998)"/>
<use xlink:href="#font_1_3" transform="matrix(9.9626,0,0,-9.9626,410.10456,44.721178)"/>
<use xlink:href="#font_0_1" transform="matrix(9.9626,0,0,-9.9626,415.55378,44.502)"/>
<use xlink:href="#font_1_4" transform="matrix(9.9626,0,0,-9.9626,418.35166,44.502)"/>
<path transform="matrix(1,0,0,-1,437.589,48.089)" stroke-width="1" stroke-linecap="butt" stroke-miterlimit="10" stroke-linejoin="miter" fill="none" stroke="#000000" d="M 0 0 L 0 14.79 "/>
<use xlink:href="#font_3_2" transform="matrix(9.9626,0,0,-9.9626,447.10896,43.94409)"/>
<use xlink:href="#font_1_4" transform="matrix(9.9626,0,0,-9.9626,457.96366,44.502)"/>
<use xlink:href="#font_0_1" transform="matrix(9.9626,0,0,-9.9626,462.91477,44.502)"/>
<use xlink:href="#font_1_4" transform="matrix(9.9626,0,0,-9.9626,465.71165,44.502)"/>
<use xlink:href="#font_1_9" transform="matrix(9.9626,0,0,-9.9626,470.2247,44.721178)"/>
<use xlink:href="#font_1_4" transform="matrix(9.9626,0,0,-9.9626,475.67424,44.502)"/>
<use xlink:href="#font_1_5" transform="matrix(9.9626,0,0,-9.9626,480.267,44.502)"/>
<use xlink:href="#font_1_3" transform="matrix(9.9626,0,0,-9.9626,407.61354,59.511178)"/>
<use xlink:href="#font_0_1" transform="matrix(9.9626,0,0,-9.9626,413.06376,59.292)"/>
<use xlink:href="#font_1_3" transform="matrix(9.9626,0,0,-9.9626,415.36253,59.511178)"/>
<use xlink:href="#font_1_4" transform="matrix(9.9626,0,0,-9.9626,420.84193,59.292)"/>
<path transform="matrix(1,0,0,-1,437.589,62.879)" stroke-width="1" stroke-linecap="butt" stroke-miterlimit="10" stroke-linejoin="miter" fill="none" stroke="#000000" d="M 0 0 L 0 14.79 "/>
<use xlink:href="#font_3_2" transform="matrix(9.9626,0,0,-9.9626,447.10896,58.734094)"/>
<use xlink:href="#font_1_4" transform="matrix(9.9626,0,0,-9.9626,457.96366,59.292)"/>
<use xlink:href="#font_0_1" transform="matrix(9.9626,0,0,-9.9626,462.91477,59.292)"/>
<use xlink:href="#font_1_4" transform="matrix(9.9626,0,0,-9.9626,465.71165,59.292)"/>
<use xlink:href="#font_1_3" transform="matrix(9.9626,0,0,-9.9626,470.19483,59.511178)"/>
<use xlink:href="#font_1_7" transform="matrix(9.9626,0,0,-9.9626,475.06654,59.292)"/>
<use xlink:href="#font_1_a" transform="matrix(9.9626,0,0,-9.9626,480.32676,59.511178)"/>
<use xlink:href="#font_1_3" transform="matrix(9.9626,0,0,-9.9626,405.12355,74.30118)"/>
<use xlink:href="#font_0_1" transform="matrix(9.9626,0,0,-9.9626,410.57276,74.082)"/>
<use xlink:href="#font_1_3" transform="matrix(9.9626,0,0,-9.9626,412.87153,74.30118)"/>
<use xlink:href="#font_1_3" transform="matrix(9.9626,0,0,-9.9626,417.8528,74.30118)"/>
<use xlink:href="#font_1_4" transform="matrix(9.9626,0,0,-9.9626,423.3322,74.082)"/>
<path transform="matrix(1,0,0,-1,437.589,77.669)" stroke-width="1" stroke-linecap="butt" stroke-miterlimit="10" stroke-linejoin="miter" fill="none" stroke="#000000" d="M 0 0 L 0 14.79 "/>
<use xlink:href="#font_3_2" transform="matrix(9.9626,0,0,-9.9626,447.10896,73.52409)"/>
<use xlink:href="#font_1_4" transform="matrix(9.9626,0,0,-9.9626,457.96366,74.082)"/>
<use xlink:href="#font_0_1" transform="matrix(9.9626,0,0,-9.9626,462.91477,74.082)"/>
<use xlink:href="#font_1_3" transform="matrix(9.9626,0,0,-9.9626,465.21354,74.30118)"/>
<use xlink:href="#font_1_c" transform="matrix(9.9626,0,0,-9.9626,470.2247,74.30118)"/>
<use xlink:href="#font_1_c" transform="matrix(9.9626,0,0,-9.9626,475.206,74.30118)"/>
<use xlink:href="#font_1_5" transform="matrix(9.9626,0,0,-9.9626,480.267,74.082)"/>
<use xlink:href="#font_1_3" transform="matrix(9.9626,0,0,-9.9626,402.63255,89.09118)"/>
<use xlink:href="#font_0_1" transform="matrix(9.9626,0,0,-9.9626,408.08177,88.872)"/>
<use xlink:href="#font_1_3" transform="matrix(9.9626,0,0,-9.9626,410.38154,89.09118)"/>
<use xlink:href="#font_1_3" transform="matrix(9.9626,0,0,-9.9626,415.36283,89.09118)"/>
<use xlink:href="#font_1_3" transform="matrix(9.9626,0,0,-9.9626,420.34413,89.09118)"/>
<use xlink:href="#font_1_4" transform="matrix(9.9626,0,0,-9.9626,425.82353,88.872)"/>
<path transform="matrix(1,0,0,-1,437.589,92.459)" stroke-width="1" stroke-linecap="butt" stroke-miterlimit="10" stroke-linejoin="miter" fill="none" stroke="#000000" d="M 0 0 L 0 14.79 "/>
<use xlink:href="#font_3_2" transform="matrix(9.9626,0,0,-9.9626,447.10896,88.314098)"/>
<use xlink:href="#font_1_4" transform="matrix(9.9626,0,0,-9.9626,457.96366,88.872)"/>
<use xlink:href="#font_0_1" transform="matrix(9.9626,0,0,-9.9626,462.91477,88.872)"/>
<use xlink:href="#font_1_3" transform="matrix(9.9626,0,0,-9.9626,465.21354,89.09118)"/>
<use xlink:href="#font_1_c" transform="matrix(9.9626,0,0,-9.9626,470.2247,89.09118)"/>
<use xlink:href="#font_1_b" transform="matrix(9.9626,0,0,-9.9626,475.206,89.09118)"/>
<use xlink:href="#font_1_a" transform="matrix(9.9626,0,0,-9.9626,480.32676,89.09118)"/>
<use xlink:href="#font_1_3" transform="matrix(9.9626,0,0,-9.9626,400.14155,103.88118)"/>
<use xlink:href="#font_0_1" transform="matrix(9.9626,0,0,-9.9626,405.59178,103.662)"/>
<use xlink:href="#font_1_3" transform="matrix(9.9626,0,0,-9.9626,407.89054,103.88118)"/>
<use xlink:href="#font_1_3" transform="matrix(9.9626,0,0,-9.9626,412.87184,103.88118)"/>
<use xlink:href="#font_1_3" transform="matrix(9.9626,0,0,-9.9626,417.85313,103.88118)"/>
<use xlink:href="#font_1_3" transform="matrix(9.9626,0,0,-9.9626,422.8344,103.88118)"/>
<use xlink:href="#font_1_4" transform="matrix(9.9626,0,0,-9.9626,428.3138,103.662)"/>
<path transform="matrix(1,0,0,-1,437.589,107.248)" stroke-width="1" stroke-linecap="butt" stroke-miterlimit="10" stroke-linejoin="miter" fill="none" stroke="#000000" d="M 0 0 L 0 14.79 "/>
<use xlink:href="#font_3_2" transform="matrix(9.9626,0,0,-9.9626,447.10896,103.104099)"/>
<use xlink:href="#font_1_4" transform="matrix(9.9626,0,0,-9.9626,457.96366,103.662)"/>
<use xlink:href="#font_0_1" transform="matrix(9.9626,0,0,-9.9626,462.91477,103.662)"/>
<use xlink:href="#font_1_3" transform="matrix(9.9626,0,0,-9.9626,465.21354,103.88118)"/>
<use xlink:href="#font_1_c" transform="matrix(9.9626,0,0,-9.9626,470.2247,103.88118)"/>
<use xlink:href="#font_1_b" transform="matrix(9.9626,0,0,-9.9626,475.206,103.88118)"/>
<use xlink:href="#font_1_9" transform="matrix(9.9626,0,0,-9.9626,480.1873,103.88118)"/>
</svg>
