<?xml version="1.0" encoding="UTF-8" standalone="no"?>
<!DOCTYPE svg PUBLIC "-//W3C//DTD SVG 1.1//EN" "http://www.w3.org/Graphics/SVG/1.1/DTD/svg11.dtd">
<svg xmlns="http://www.w3.org/2000/svg" xmlns:xlink="http://www.w3.org/1999/xlink" version="1.1" width="274.524pt" height="120.177pt" viewBox="0 0 274.524 120.177">
<symbol id="font_0_4">
<path d="M .63100007 .19400002 C .646 .19400002 .665 .19400002 .665 .214 C .665 .23400001 .646 .23400001 .632 .23400001 L .033 .23400001 C .019000002 .23400001 0 .23400001 0 .214 C 0 .19400002 .019000002 .19400002 .034 .19400002 L .63100007 .19400002 M .632 0 C .646 0 .665 0 .665 .02000001 C .665 .040000008 .646 .040000008 .63100007 .040000008 L .034 .040000008 C .019000002 .040000008 0 .040000008 0 .02000001 C 0 0 .019000002 0 .033 0 L .632 0 Z "/>
</symbol>
<symbol id="font_0_6">
<path d="M .144 .694 L 0 .683 L 0 .652 C .07000001 .652 .07800001 .64500007 .07800001 .596 L .07800001 .076000008 C .07800001 .031000002 .067 .031000002 0 .031000002 L 0 0 C .033 .001 .086 .003 .11100001 .003 C .136 .003 .185 .001 .22200004 0 L .22200004 .031000002 C .155 .031000002 .144 .031000002 .144 .076000008 L .144 .694 Z "/>
</symbol>
<symbol id="font_0_5">
<path d="M .144 .44200004 L .0040000008 .43100003 L .0040000008 .4 C .069000009 .4 .07800001 .39400003 .07800001 .34500004 L .07800001 .076000008 C .07800001 .031000002 .067 .031000002 0 .031000002 L 0 0 C .032000007 .001 .086 .003 .11000001 .003 C .14500001 .003 .18 .001 .21400002 0 L .21400002 .031000002 C .148 .031000002 .144 .036000004 .144 .075 L .144 .44200004 M .148 .61600008 C .148 .648 .123 .669 .095000009 .669 C .064 .669 .042000005 .642 .042000005 .61600008 C .042000005 .58900007 .064 .563 .095000009 .563 C .123 .563 .148 .58400008 .148 .61600008 Z "/>
</symbol>
<symbol id="font_0_7">
<path d="M .07800001 .344 L .07800001 .076000008 C .07800001 .031000002 .067 .031000002 0 .031000002 L 0 0 C .035 .001 .08600001 .003 .113000009 .003 C .139 .003 .191 .001 .225 0 L .225 .031000002 C .158 .031000002 .147 .031000002 .147 .076000008 L .147 .26000003 C .147 .36400003 .218 .42000003 .282 .42000003 C .345 .42000003 .356 .36600004 .356 .30900003 L .356 .076000008 C .356 .031000002 .345 .031000002 .278 .031000002 L .278 0 C .31300003 .001 .36400003 .003 .391 .003 C .41700004 .003 .46900005 .001 .503 0 L .503 .031000002 C .43600003 .031000002 .425 .031000002 .425 .076000008 L .425 .26000003 C .425 .36400003 .496 .42000003 .56 .42000003 C .623 .42000003 .634 .36600004 .634 .30900003 L .634 .076000008 C .634 .031000002 .623 .031000002 .556 .031000002 L .556 0 C .591 .001 .642 .003 .669 .003 C .69500008 .003 .74700006 .001 .781 0 L .781 .031000002 C .72900006 .031000002 .70400008 .031000002 .703 .061000006 L .703 .252 C .703 .33800004 .703 .36900003 .67200008 .40500004 C .65800008 .42200003 .625 .44200004 .56700006 .44200004 C .48300005 .44200004 .439 .38200004 .42200003 .344 C .40800003 .43100003 .33400003 .44200004 .289 .44200004 C .216 .44200004 .169 .39900003 .141 .337 L .141 .44200004 L 0 .43100003 L 0 .4 C .07000001 .4 .07800001 .393 .07800001 .344 Z "/>
</symbol>
<use xlink:href="#font_0_4" transform="matrix(9.9626,0,0,-9.9626,6.719903,18.688975)"/>
<use xlink:href="#font_0_6" transform="matrix(9.9626,0,0,-9.9626,18.376145,20.014)"/>
<use xlink:href="#font_0_5" transform="matrix(9.9626,0,0,-9.9626,21.145749,20.014)"/>
<use xlink:href="#font_0_7" transform="matrix(9.9626,0,0,-9.9626,23.90539,20.014)"/>
<symbol id="font_1_1">
<path d="M .23800002 .674 C .23900001 .676 .242 .689 .242 .69 C .242 .69500008 .23800002 .704 .22600003 .704 C .20600002 .704 .12300001 .69600006 .098000008 .694 C .09 .693 .076000008 .69200006 .076000008 .671 C .076000008 .657 .09 .657 .102 .657 C .15 .657 .15 .65000006 .15 .642 C .15 .635 .148 .629 .14600002 .62 L .0050000029 .054000006 C 0 .036000004 0 .034 0 .032 C 0 .017 .012000002 0 .034 0 C .045 0 .06400001 .0050000005 .075 .026 C .07800001 .032 .087 .068 .09200001 .089 L .11500001 .17800002 C .118 .19300002 .128 .23100002 .13100001 .24600002 C .141 .284 .141 .285 .16100002 .317 C .193 .366 .24300002 .423 .32100005 .423 C .37700004 .423 .38 .377 .38 .35300002 C .38 .293 .337 .18200001 .32100005 .14000002 C .31 .112 .306 .103 .306 .086 C .306 .033000005 .35000003 0 .40100003 0 C .50100007 0 .545 .13800001 .545 .15300001 C .545 .16600001 .53200009 .16600001 .52900007 .16600001 C .51500007 .16600001 .51400008 .16000001 .51000007 .14900002 C .48700006 .069000009 .44300003 .028 .40400005 .028 C .38300003 .028 .379 .042000005 .379 .063 C .379 .086 .384 .099 .402 .14400001 C .41400004 .17500001 .45500005 .28100003 .45500005 .337 C .45500005 .35300002 .45500005 .395 .41800005 .42400003 C .40100003 .437 .37200005 .451 .325 .451 C .25200004 .451 .19900002 .411 .16200002 .368 L .23800002 .674 Z "/>
</symbol>
<use xlink:href="#font_1_1" transform="matrix(6.9738,0,0,-6.9738,17.201033,26.586737)"/>
<symbol id="font_2_2">
<path d="M .843 .23900001 C .717 .147 .7 .016 .7 .015000001 C .7 0 .71000006 0 .72400006 0 C .74200007 0 .745 0 .75 .017 C .75600007 .042000005 .772 .106000009 .824 .161 C .882 .222 .93200007 .237 .974 .25000004 C .98 .252 .9840001 .25800003 .9840001 .263 C .9840001 .27300004 .97800007 .27500005 .96500006 .279 C .82100006 .32500003 .77000007 .42700006 .749 .51500007 C .745 .527 .73800006 .527 .72400006 .527 C .71000006 .527 .7 .527 .7 .512 C .7 .51 .71000006 .44300003 .759 .37400005 C .782 .34000004 .81 .31200005 .843 .28800003 L .04 .28800003 C .023999997 .28800003 0 .28800003 0 .26400004 C 0 .23900001 .022999995 .23900001 .04 .23900001 L .843 .23900001 Z "/>
</symbol>
<use xlink:href="#font_2_2" transform="matrix(6.9738,0,0,-6.9738,21.878979,26.607659)"/>
<symbol id="font_3_1">
<path d="M .46400006 .33900003 C .46400006 .44900004 .45100004 .528 .40500004 .598 C .374 .644 .31200005 .684 .23200001 .684 C 0 .684 0 .41100005 0 .33900003 C 0 .26700003 0 0 .23200001 0 C .46400006 0 .46400006 .26700003 .46400006 .33900003 M .23200001 .028 C .186 .028 .125 .055 .105000007 .13700001 C .091000009 .19600001 .091000009 .27800004 .091000009 .35200004 C .091000009 .42500005 .091000009 .50100007 .106000009 .556 C .127 .635 .19100002 .656 .23200001 .656 C .286 .656 .338 .623 .356 .565 C .37200005 .51100006 .37300004 .43900005 .37300004 .35200004 C .37300004 .27800004 .37300004 .20400001 .36 .141 C .34000004 .050000006 .272 .028 .23200001 .028 Z "/>
</symbol>
<use xlink:href="#font_3_1" transform="matrix(6.9738,0,0,-6.9738,29.646636,26.656476)"/>
<symbol id="font_4_3">
<path d="M .059000009 .07000001 C .056 .055000005 .050000006 .032 .050000006 .027000003 C .050000006 .009000001 .064 0 .079 0 C .091000009 0 .10900001 .008000001 .11600001 .028 C .11700001 .030000002 .12900001 .077 .135 .102000009 L .157 .19200002 C .163 .21400002 .16900002 .23600002 .17400001 .259 C .17800002 .27600003 .186 .305 .187 .30900003 C .202 .34000004 .255 .43100003 .35 .43100003 C .395 .43100003 .404 .39400003 .404 .36100004 C .404 .29900003 .355 .17100002 .33900003 .128 C .33 .105000007 .329 .093 .329 .082 C .329 .035 .364 0 .411 0 C .50500008 0 .54200008 .14600002 .54200008 .15400002 C .54200008 .16400002 .53300008 .16400002 .53000006 .16400002 C .52000007 .16400002 .52000007 .16100002 .51500007 .14600002 C .49500004 .078 .462 .022000002 .41300003 .022000002 C .396 .022000002 .389 .032 .389 .055000005 C .389 .080000009 .398 .104 .407 .126 C .426 .17900002 .468 .28900004 .468 .34600003 C .468 .41300003 .425 .45300005 .35300002 .45300005 C .263 .45300005 .21400002 .38900004 .19700001 .36600004 C .19200002 .42200003 .15100001 .45300005 .105000007 .45300005 C .059000009 .45300005 .040000008 .41400004 .030000003 .39600004 C .014 .36200003 0 .30300004 0 .29900003 C 0 .28900004 .01 .28900004 .012 .28900004 C .022000002 .28900004 .023 .29000003 .029000001 .31200005 C .046000005 .38300003 .06600001 .43100003 .10200001 .43100003 C .12200001 .43100003 .133 .418 .133 .38500003 C .133 .36400003 .13000001 .35300002 .11700001 .30100004 L .059000009 .07000001 Z "/>
</symbol>
<symbol id="font_4_4">
<path d="M .305 .31300003 C .311 .33900003 .334 .43100003 .404 .43100003 C .409 .43100003 .433 .43100003 .454 .418 C .426 .41300003 .40600003 .388 .40600003 .36400003 C .40600003 .34800003 .417 .32900004 .444 .32900004 C .46600003 .32900004 .498 .34700004 .498 .38700003 C .498 .43900005 .439 .45300005 .405 .45300005 C .347 .45300005 .312 .40000005 .3 .37700004 C .275 .44300003 .221 .45300005 .19200002 .45300005 C .08800001 .45300005 .031000002 .32400004 .031000002 .29900003 C .031000002 .28900004 .041 .28900004 .043000007 .28900004 C .051000008 .28900004 .054000006 .291 .056 .3 C .09 .40600003 .156 .43100003 .19000001 .43100003 C .209 .43100003 .244 .42200003 .244 .36400003 C .244 .33300004 .22700002 .26600004 .19000001 .126 C .17400001 .064 .13900002 .022000002 .095000009 .022000002 C .08900001 .022000002 .06600001 .022000002 .045 .035 C .07000001 .040000004 .09200001 .061 .09200001 .089 C .09200001 .116000007 .07000001 .124000009 .055000009 .124000009 C .025 .124000009 0 .098000008 0 .06600001 C 0 .020000002 .050000006 0 .094000007 0 C .16000001 0 .19600001 .07000001 .19900002 .076000008 C .21100001 .039 .24700003 0 .307 0 C .41 0 .467 .12900001 .467 .15400002 C .467 .16400002 .458 .16400002 .455 .16400002 C .446 .16400002 .444 .16000001 .442 .15300001 C .409 .046 .341 .022000002 .30900003 .022000002 C .27 .022000002 .254 .054 .254 .08800001 C .254 .11000001 .26 .13200002 .271 .17600002 L .305 .31300003 Z "/>
</symbol>
<use xlink:href="#font_4_3" transform="matrix(9.9626,0,0,-9.9626,36.40091,11.972588)"/>
<use xlink:href="#font_4_4" transform="matrix(9.9626,0,0,-9.9626,42.37847,11.972588)"/>
<symbol id="font_1_2">
<path d="M .075 .073 C .07100001 .060000004 .065 .035 .065 .032 C .065 .010000001 .083000008 0 .09900001 0 C .117 0 .133 .013 .138 .022 C .143 .031000004 .15100001 .063 .156 .084 C .161 .103 .172 .14900002 .178 .17400001 C .184 .19600001 .19000001 .21800001 .19500001 .24100001 C .20600002 .282 .20800002 .29 .237 .331 C .26500003 .37100003 .31200005 .423 .38700003 .423 C .44500003 .423 .44600005 .372 .44600005 .35300002 C .44600005 .293 .40300004 .18200001 .38700003 .14000002 C .37600003 .112 .37200005 .103 .37200005 .086 C .37200005 .033000005 .41600005 0 .467 0 C .56700006 0 .61100009 .13800001 .61100009 .15300001 C .61100009 .16600001 .59800007 .16600001 .595 .16600001 C .58100005 .16600001 .58000007 .16000001 .57600006 .14900002 C .55300006 .069000009 .51000007 .028 .47000004 .028 C .44900004 .028 .44500003 .042000005 .44500003 .063 C .44500003 .086 .45000003 .099 .46800006 .14400001 C .48000003 .17500001 .521 .28100003 .521 .337 C .521 .43400003 .44400005 .451 .39100004 .451 C .30800004 .451 .25200004 .4 .22200002 .36 C .21500002 .42900003 .156 .451 .114999998 .451 C .072 .451 .049 .42000003 .036000004 .397 C .014000002 .36 0 .303 0 .298 C 0 .285 .014000002 .285 .017 .285 C .031 .285 .032 .28800003 .039 .315 C .054 .374 .073 .423 .112 .423 C .138 .423 .145 .40100003 .145 .374 C .145 .35500003 .136 .31800003 .12900001 .291 C .12200001 .264 .112 .22300002 .10700001 .20100002 L .075 .073 Z "/>
</symbol>
<use xlink:href="#font_1_2" transform="matrix(6.9738,0,0,-6.9738,48.112768,8.31674)"/>
<symbol id="font_2_1">
<path d="M .63600006 0 C .65200009 0 .67600008 0 .67600008 .023999989 C .67600008 .048999996 .65300008 .048999996 .63600006 .048999996 L .04 .048999996 C .023999997 .048999996 0 .048999996 0 .025000006 C 0 0 .02300001 0 .04 0 L .63600006 0 Z "/>
</symbol>
<use xlink:href="#font_2_1" transform="matrix(6.9738,0,0,-6.9738,53.463167,6.6709229)"/>
<symbol id="font_3_2">
<path d="M .22600001 .63600006 C .22600001 .66300007 .224 .66400006 .19600001 .66400006 C .132 .601 .041 .6 0 .6 L 0 .564 C .023999997 .564 .09000001 .564 .14500001 .592 L .14500001 .082 C .14500001 .049000004 .14500001 .036000004 .04500001 .036000004 L .0069999995 .036000004 L .0069999995 0 C .024999999 .001 .148 .004 .185 .004 C .21600002 .004 .34200005 .001 .36400003 0 L .36400003 .036000004 L .32600004 .036000004 C .22600001 .036000004 .22600001 .049000004 .22600001 .082 L .22600001 .63600006 Z "/>
</symbol>
<use xlink:href="#font_3_2" transform="matrix(6.9738,0,0,-6.9738,59.69714,8.247002)"/>
<symbol id="font_4_2">
<path d="M .232 .694 C .232 .695 .232 .705 .21900001 .705 C .19600001 .705 .122999999 .697 .097 .695 C .089 .694 .077999997 .693 .077999997 .675 C .077999997 .663 .087 .663 .102 .663 C .15 .663 .15200001 .656 .15200001 .646 L .149 .626 L .0040000008 .05 C 0 .036000004 0 .034 0 .028 C 0 .005000001 .02 0 .029000003 0 C .044999999 0 .061 .012000001 .066 .026 L .08499999 .102000009 L .10699999 .19200002 C .113000009 .21400002 .119 .23600002 .124 .259 C .126 .26500003 .134 .298 .135 .30400003 C .138 .31300003 .169 .36900003 .20300001 .39600004 C .225 .41200004 .256 .43100003 .299 .43100003 C .342 .43100003 .35300002 .397 .35300002 .36100004 C .35300002 .307 .315 .19800002 .291 .13700001 C .28300003 .11400001 .278 .102000009 .278 .082 C .278 .035 .31300003 0 .36 0 C .454 0 .491 .14600002 .491 .15400002 C .491 .16400002 .482 .16400002 .47900004 .16400002 C .46900005 .16400002 .46900005 .16100002 .46400006 .14600002 C .449 .093 .41700004 .022000002 .36200003 .022000002 C .345 .022000002 .338 .032 .338 .055000005 C .338 .080000009 .347 .104 .356 .126 C .372 .16900002 .41700004 .28800003 .41700004 .34600003 C .41700004 .411 .377 .45300005 .30200003 .45300005 C .239 .45300005 .191 .42200003 .154 .37600003 L .232 .694 Z "/>
</symbol>
<use xlink:href="#font_4_2" transform="matrix(9.9626,0,0,-9.9626,63.953939,11.972588)"/>
<symbol id="font_0_1">
<path d="M .35300002 .31300003 L .632 .31300003 C .646 .31300003 .665 .31300003 .665 .333 C .665 .35300002 .646 .35300002 .632 .35300002 L .35300002 .35300002 L .35300002 .633 C .35300002 .647 .35300002 .666 .33300004 .666 C .31300003 .666 .31300003 .647 .31300003 .633 L .31300003 .35300002 L .033 .35300002 C .019000002 .35300002 0 .35300002 0 .333 C 0 .31300003 .019000002 .31300003 .033 .31300003 L .31300003 .31300003 L .31300003 .033000005 C .31300003 .019000002 .31300003 0 .33300004 0 C .35300002 0 .35300002 .019000002 .35300002 .033000005 L .35300002 .31300003 Z "/>
</symbol>
<use xlink:href="#font_0_1" transform="matrix(9.9626,0,0,-9.9626,71.91791,12.689895)"/>
<symbol id="font_5_1">
<path d="M .261 .00999999 C .261 .013999939 .259 .016000033 .257 .018999935 C .211 .06799996 .143 .14900005 .10100001 .31199999 C .077999997 .403 .069000009 .506 .069000009 .59900006 C .069000009 .862 .132 1.046 .252 1.176 C .261 1.1850001 .261 1.187 .261 1.189 C .261 1.199 .25300003 1.199 .24900002 1.199 C .234 1.199 .18 1.139 .167 1.1240001 C .065 1.003 0 .823 0 .6 C 0 .458 .024999991 .25699998 .15600002 .08799994 C .16600001 .075999978 .231 0 .24900002 0 C .25300003 0 .261 0 .261 .00999999 Z "/>
</symbol>
<use xlink:href="#font_5_1" transform="matrix(9.9626,0,0,-9.9626,82.83731,15.339653)"/>
<use xlink:href="#font_1_2" transform="matrix(6.9738,0,0,-6.9738,86.21677,7.5117394)"/>
<symbol id="font_3_3">
<path d="M .442 .18200001 L .40800003 .18200001 C .40500004 .16000001 .39500005 .101 .38200004 .091000009 C .374 .085 .29700003 .085 .28300003 .085 L .099 .085 C .20400003 .178 .23900002 .20600002 .29900003 .25300003 C .37300004 .312 .442 .374 .442 .469 C .442 .59000006 .33600004 .66400006 .20800004 .66400006 C .084 .66400006 0 .577 0 .485 C 0 .43400003 .043000007 .42900003 .053000004 .42900003 C .077 .42900003 .10600001 .446 .10600001 .48200003 C .10600001 .5 .099 .535 .047000007 .535 C .078 .606 .146 .628 .19300002 .628 C .293 .628 .34500004 .55 .34500004 .469 C .34500004 .38200004 .28300003 .31300003 .25100003 .277 L .010000005 .039 C 0 .030000002 0 .028 0 0 L .41200004 0 L .442 .18200001 Z "/>
</symbol>
<use xlink:href="#font_3_3" transform="matrix(6.9738,0,0,-6.9738,86.80534,15.298004)"/>
<symbol id="font_5_2">
<path d="M .261 .59900006 C .261 .74100008 .236 .94200006 .105000007 1.1110001 C .09500001 1.123 .029999998 1.199 .011999998 1.199 C .0069999995 1.199 0 1.197 0 1.189 C 0 1.1850001 .0020000004 1.182 .0059999974 1.179 C .054 1.1270001 .119 1.046 .16000001 .887 C .18300002 .796 .19200002 .693 .19200002 .6 C .19200002 .499 .18300002 .397 .157 .29900003 C .119 .15900004 .06 .078999999 .009 .023000002 C 0 .013999939 0 .011999965 0 .00999999 C 0 .0019999743 .0069999995 0 .011999998 0 C .026999999 0 .082 .06099999 .09400001 .07499993 C .19600001 .19599998 .261 .376 .261 .59900006 Z "/>
</symbol>
<use xlink:href="#font_5_2" transform="matrix(9.9626,0,0,-9.9626,91.25235,15.339661)"/>
<use xlink:href="#font_4_4" transform="matrix(9.9626,0,0,-9.9626,95.668918,11.972595)"/>
<use xlink:href="#font_1_2" transform="matrix(6.9738,0,0,-6.9738,101.401767,8.316748)"/>
<use xlink:href="#font_2_1" transform="matrix(6.9738,0,0,-6.9738,106.752178,6.6709306)"/>
<use xlink:href="#font_3_3" transform="matrix(6.9738,0,0,-6.9738,112.665348,8.247009)"/>
<use xlink:href="#font_4_2" transform="matrix(9.9626,0,0,-9.9626,117.24294,11.972595)"/>
<use xlink:href="#font_3_3" transform="matrix(6.9738,0,0,-6.9738,122.874347,8.247009)"/>
<use xlink:href="#font_0_1" transform="matrix(9.9626,0,0,-9.9626,129.6759,12.689902)"/>
<symbol id="font_6_2">
<path d="M .106 .05299999 C .106 .082 .08200001 .10599999 .05300001 .10599999 C .024000004 .10599999 0 .082 0 .05299999 C 0 .024000004 .024000004 0 .05300001 0 C .08200001 0 .106 .024000004 .106 .05299999 Z "/>
</symbol>
<use xlink:href="#font_6_2" transform="matrix(9.9626,0,0,-9.9626,139.93778,9.900374)"/>
<use xlink:href="#font_6_2" transform="matrix(9.9626,0,0,-9.9626,144.37114,9.900374)"/>
<use xlink:href="#font_6_2" transform="matrix(9.9626,0,0,-9.9626,148.79454,9.900374)"/>
<use xlink:href="#font_0_1" transform="matrix(9.9626,0,0,-9.9626,153.4759,12.689902)"/>
<use xlink:href="#font_5_1" transform="matrix(9.9626,0,0,-9.9626,164.39432,15.339661)"/>
<use xlink:href="#font_1_2" transform="matrix(6.9738,0,0,-6.9738,172.87378,7.511747)"/>
<use xlink:href="#font_1_2" transform="matrix(6.9738,0,0,-6.9738,167.77478,15.36775)"/>
<use xlink:href="#font_2_1" transform="matrix(6.9738,0,0,-6.9738,173.12418,13.721933)"/>
<use xlink:href="#font_3_2" transform="matrix(6.9738,0,0,-6.9738,179.35816,15.298012)"/>
<use xlink:href="#font_5_2" transform="matrix(9.9626,0,0,-9.9626,183.00736,15.339668)"/>
<use xlink:href="#font_4_4" transform="matrix(9.9626,0,0,-9.9626,187.42491,11.972603)"/>
<use xlink:href="#font_4_2" transform="matrix(9.9626,0,0,-9.9626,193.38256,11.972603)"/>
<use xlink:href="#font_1_2" transform="matrix(6.9738,0,0,-6.9738,198.89778,8.316755)"/>
<use xlink:href="#font_2_1" transform="matrix(6.9738,0,0,-6.9738,204.24718,6.670938)"/>
<use xlink:href="#font_3_2" transform="matrix(6.9738,0,0,-6.9738,210.48116,8.247017)"/>
<use xlink:href="#font_0_1" transform="matrix(9.9626,0,0,-9.9626,216.96192,12.68991)"/>
<use xlink:href="#font_4_2" transform="matrix(9.9626,0,0,-9.9626,226.91495,11.972603)"/>
<use xlink:href="#font_1_2" transform="matrix(6.9738,0,0,-6.9738,232.43479,8.316755)"/>
<path transform="matrix(1,0,0,-1,36.111997,17.523003)" stroke-width="1" stroke-linecap="butt" stroke-miterlimit="10" stroke-linejoin="miter" fill="none" stroke="#000000" d="M 0 0 L 201.418 0 "/>
<use xlink:href="#font_4_2" transform="matrix(9.9626,0,0,-9.9626,134.49895,26.957589)"/>
<use xlink:href="#font_0_4" transform="matrix(9.9626,0,0,-9.9626,6.7199056,51.991975)"/>
<use xlink:href="#font_0_6" transform="matrix(9.9626,0,0,-9.9626,18.376149,53.317)"/>
<use xlink:href="#font_0_5" transform="matrix(9.9626,0,0,-9.9626,21.145752,53.317)"/>
<use xlink:href="#font_0_7" transform="matrix(9.9626,0,0,-9.9626,23.905394,53.317)"/>
<use xlink:href="#font_1_1" transform="matrix(6.9738,0,0,-6.9738,17.201033,59.889738)"/>
<use xlink:href="#font_2_2" transform="matrix(6.9738,0,0,-6.9738,21.878983,59.91066)"/>
<use xlink:href="#font_3_1" transform="matrix(6.9738,0,0,-6.9738,29.646636,59.959478)"/>
<symbol id="font_7_1">
<path d="M .537 1.011 C .53900006 1.013 .54 1.016 .54 1.02 C .54 1.031 .531 1.0400001 .52 1.0400001 C .512 1.0400001 .505 1.0350001 .50200006 1.028 L .0030000006 .028 C .0010000002 .026 0 .023000002 0 .020000002 C 0 .009000001 .009000001 0 .020000002 0 C .027000003 0 .034 .005000001 .037 .012000001 L .537 1.011 Z "/>
</symbol>
<use xlink:href="#font_7_1" transform="matrix(9.9626,0,0,-9.9626,36.291746,44.67725)"/>
<use xlink:href="#font_4_2" transform="matrix(9.9626,0,0,-9.9626,36.65994,43.064584)"/>
<symbol id="font_5_3">
<path d="M .33500005 .011000037 C .337 .00999999 .34600003 0 .347 0 L .36900003 0 C .37200005 0 .38 .0009999275 .38 .00999999 C .38 .013999939 .37800003 .016000033 .37600006 .018999935 C .34000004 .054999949 .286 .110000018 .224 .22000003 C .116 .41199995 .076000008 .65900006 .076000008 .89900007 C .076000008 1.343 .20200002 1.6040001 .37700004 1.781 C .38 1.784 .38 1.7870001 .38 1.789 C .38 1.799 .37300004 1.799 .361 1.799 C .348 1.799 .34600003 1.799 .337 1.791 C .24200002 1.7090001 .13500002 1.57 .066 1.3590001 C .023000002 1.227 0 1.066 0 .90000006 C 0 .663 .042999999 .39499999 .20000002 .16299999 C .227 .12399995 .26400004 .082999948 .26400004 .08200002 C .27400003 .06999993 .28800003 .05400002 .296 .04699993 L .33500005 .011000037 Z "/>
</symbol>
<use xlink:href="#font_5_3" transform="matrix(9.9626,0,0,-9.9626,45.305265,49.42121)"/>
<use xlink:href="#font_4_3" transform="matrix(9.9626,0,0,-9.9626,49.75091,43.064584)"/>
<use xlink:href="#font_4_4" transform="matrix(9.9626,0,0,-9.9626,55.72847,43.064584)"/>
<use xlink:href="#font_1_2" transform="matrix(6.9738,0,0,-6.9738,61.463769,39.409734)"/>
<use xlink:href="#font_2_1" transform="matrix(6.9738,0,0,-6.9738,66.81418,37.763917)"/>
<use xlink:href="#font_3_2" transform="matrix(6.9738,0,0,-6.9738,73.04715,39.339998)"/>
<use xlink:href="#font_0_1" transform="matrix(9.9626,0,0,-9.9626,79.52891,43.78189)"/>
<use xlink:href="#font_5_1" transform="matrix(9.9626,0,0,-9.9626,90.44731,46.432649)"/>
<use xlink:href="#font_1_2" transform="matrix(6.9738,0,0,-6.9738,93.82677,38.604734)"/>
<use xlink:href="#font_3_3" transform="matrix(6.9738,0,0,-6.9738,94.415348,46.391)"/>
<use xlink:href="#font_5_2" transform="matrix(9.9626,0,0,-9.9626,98.86235,46.432657)"/>
<use xlink:href="#font_4_4" transform="matrix(9.9626,0,0,-9.9626,103.278919,43.06459)"/>
<use xlink:href="#font_1_2" transform="matrix(6.9738,0,0,-6.9738,109.011768,39.40974)"/>
<use xlink:href="#font_2_1" transform="matrix(6.9738,0,0,-6.9738,114.362178,37.763925)"/>
<use xlink:href="#font_3_3" transform="matrix(6.9738,0,0,-6.9738,120.275348,39.340005)"/>
<use xlink:href="#font_4_2" transform="matrix(9.9626,0,0,-9.9626,124.85294,43.06459)"/>
<use xlink:href="#font_0_1" transform="matrix(9.9626,0,0,-9.9626,132.81691,43.7819)"/>
<use xlink:href="#font_6_2" transform="matrix(9.9626,0,0,-9.9626,143.07878,40.99237)"/>
<use xlink:href="#font_6_2" transform="matrix(9.9626,0,0,-9.9626,147.51215,40.99237)"/>
<use xlink:href="#font_6_2" transform="matrix(9.9626,0,0,-9.9626,151.93555,40.99237)"/>
<use xlink:href="#font_0_1" transform="matrix(9.9626,0,0,-9.9626,156.61692,43.7819)"/>
<use xlink:href="#font_5_1" transform="matrix(9.9626,0,0,-9.9626,167.53533,46.432657)"/>
<use xlink:href="#font_1_2" transform="matrix(6.9738,0,0,-6.9738,176.01378,38.60474)"/>
<use xlink:href="#font_1_2" transform="matrix(6.9738,0,0,-6.9738,170.91577,46.460744)"/>
<use xlink:href="#font_2_1" transform="matrix(6.9738,0,0,-6.9738,176.26517,44.814928)"/>
<use xlink:href="#font_3_2" transform="matrix(6.9738,0,0,-6.9738,182.49915,46.391008)"/>
<use xlink:href="#font_5_2" transform="matrix(9.9626,0,0,-9.9626,186.14835,46.432664)"/>
<use xlink:href="#font_4_4" transform="matrix(9.9626,0,0,-9.9626,190.5659,43.064599)"/>
<use xlink:href="#font_4_2" transform="matrix(9.9626,0,0,-9.9626,196.52355,43.064599)"/>
<use xlink:href="#font_1_2" transform="matrix(6.9738,0,0,-6.9738,202.03777,39.409749)"/>
<use xlink:href="#font_2_1" transform="matrix(6.9738,0,0,-6.9738,207.38817,37.76393)"/>
<use xlink:href="#font_3_3" transform="matrix(6.9738,0,0,-6.9738,213.30135,39.34001)"/>
<use xlink:href="#font_0_1" transform="matrix(9.9626,0,0,-9.9626,220.1029,43.781908)"/>
<use xlink:href="#font_4_2" transform="matrix(9.9626,0,0,-9.9626,230.05594,43.064599)"/>
<use xlink:href="#font_1_2" transform="matrix(6.9738,0,0,-6.9738,235.57578,39.409749)"/>
<use xlink:href="#font_2_1" transform="matrix(6.9738,0,0,-6.9738,240.92618,37.76393)"/>
<use xlink:href="#font_3_2" transform="matrix(6.9738,0,0,-6.9738,247.15915,39.34001)"/>
<symbol id="font_5_4">
<path d="M .38 .90000006 C .38 1.187 .313 1.4920001 .11600001 1.717 C .10200001 1.733 .065 1.7720001 .041000006 1.7930001 C .033999999 1.799 .032 1.799 .019000002 1.799 C .009 1.799 0 1.799 0 1.789 C 0 1.7850001 .0040000008 1.781 .006000001 1.779 C .040000004 1.7440001 .09400001 1.689 .156 1.579 C .264 1.3870001 .304 1.1400001 .304 .90000006 C .304 .46599997 .18400002 .20099998 .0040000008 .018000007 C .0020000004 .016000033 0 .013000011 0 .00999999 C 0 0 .009 0 .019000002 0 C .032 0 .033999999 0 .043 .008000016 C .13800001 .09000003 .24500002 .22899997 .314 .44000007 C .358 .577 .38 .73899999 .38 .90000006 Z "/>
</symbol>
<use xlink:href="#font_5_4" transform="matrix(9.9626,0,0,-9.9626,251.22766,49.421228)"/>
<path transform="matrix(1,0,0,-1,36.111997,50.826005)" stroke-width="1" stroke-linecap="butt" stroke-miterlimit="10" stroke-linejoin="miter" fill="none" stroke="#000000" d="M 0 0 L 220.707 0 "/>
<use xlink:href="#font_7_1" transform="matrix(9.9626,0,0,-9.9626,143.77576,62.382257)"/>
<use xlink:href="#font_4_2" transform="matrix(9.9626,0,0,-9.9626,144.14295,60.77059)"/>
<use xlink:href="#font_0_4" transform="matrix(9.9626,0,0,-9.9626,6.7199056,77.921977)"/>
<use xlink:href="#font_0_6" transform="matrix(9.9626,0,0,-9.9626,18.376149,79.247)"/>
<use xlink:href="#font_0_5" transform="matrix(9.9626,0,0,-9.9626,21.145752,79.247)"/>
<use xlink:href="#font_0_7" transform="matrix(9.9626,0,0,-9.9626,23.905394,79.247)"/>
<use xlink:href="#font_1_1" transform="matrix(6.9738,0,0,-6.9738,17.201033,85.82075)"/>
<use xlink:href="#font_2_2" transform="matrix(6.9738,0,0,-6.9738,21.878983,85.84167)"/>
<use xlink:href="#font_3_1" transform="matrix(6.9738,0,0,-6.9738,29.646636,85.89048)"/>
<symbol id="font_5_5">
<path d="M .49200005 .00999999 C .49200005 .014000177 .49 .016000033 .48800005 .019000054 C .45100004 .055999996 .384 .123000148 .31700004 .23100019 C .15600002 .48900009 .083000008 .8140001 .083000008 1.1990001 C .083000008 1.4680002 .11900002 1.8150002 .284 2.1130002 C .36300005 2.255 .44500006 2.3370002 .48900003 2.3810003 C .49200005 2.3840004 .49200005 2.3860002 .49200005 2.3890002 C .49200005 2.3990002 .485 2.3990002 .47100003 2.3990002 C .45700003 2.3990002 .45500005 2.3990002 .44 2.3840004 C .10500002 2.0790003 0 1.6210002 0 1.2000002 C 0 .80700019 .09 .41100014 .34400005 .11199999 C .36400003 .08899999 .402 .048000099 .44300003 .012000084 C .45500005 0 .45700003 0 .47100003 0 C .485 0 .49200005 0 .49200005 .00999999 Z "/>
</symbol>
<use xlink:href="#font_5_5" transform="matrix(9.9626,0,0,-9.9626,36.988218,88.70178)"/>
<use xlink:href="#font_4_3" transform="matrix(9.9626,0,0,-9.9626,42.53891,79.3566)"/>
<use xlink:href="#font_4_4" transform="matrix(9.9626,0,0,-9.9626,48.51647,79.3566)"/>
<use xlink:href="#font_1_2" transform="matrix(6.9738,0,0,-6.9738,54.251768,75.20374)"/>
<use xlink:href="#font_2_1" transform="matrix(6.9738,0,0,-6.9738,59.601167,73.55792)"/>
<use xlink:href="#font_3_2" transform="matrix(6.9738,0,0,-6.9738,65.835147,75.134)"/>
<use xlink:href="#font_0_1" transform="matrix(9.9626,0,0,-9.9626,72.3159,80.073909)"/>
<use xlink:href="#font_5_5" transform="matrix(9.9626,0,0,-9.9626,83.79321,88.70178)"/>
<use xlink:href="#font_4_3" transform="matrix(9.9626,0,0,-9.9626,89.34391,72.61659)"/>
<symbol id="font_0_3">
<path d="M .07700001 .07700001 L .18300002 .18 C .33900003 .31800003 .39900003 .372 .39900003 .47200004 C .39900003 .586 .30900003 .666 .18700002 .666 C .074 .666 0 .574 0 .485 C 0 .42900003 .05 .42900003 .053000008 .42900003 C .07000001 .42900003 .105000007 .441 .105000007 .48200003 C .105000007 .508 .08700001 .53400006 .052000006 .53400006 C .044000005 .53400006 .042000008 .53400006 .039 .53300008 C .062000004 .59800007 .11600001 .63500007 .17400001 .63500007 C .26500003 .63500007 .308 .554 .308 .47200004 C .308 .39200003 .25800003 .31300003 .20300003 .25100003 L .011000004 .037 C 0 .026 0 .024 0 0 L .37100003 0 L .39900003 .17400001 L .374 .17400001 C .36900003 .14400001 .36200003 .1 .352 .085 C .345 .07700001 .279 .07700001 .257 .07700001 L .07700001 .07700001 Z "/>
</symbol>
<use xlink:href="#font_0_3" transform="matrix(9.9626,0,0,-9.9626,90.052127,86.08101)"/>
<symbol id="font_5_6">
<path d="M .492 1.1990001 C .492 1.5920003 .402 1.9880002 .14800002 2.2870002 C .128 2.3100003 .09 2.3510004 .049000008 2.3870004 C .037000006 2.3990002 .035 2.3990002 .021000002 2.3990002 C .009000003 2.3990002 0 2.3990002 0 2.3890002 C 0 2.3850003 .0040000008 2.3810003 .006000001 2.3790003 C .041000006 2.3430002 .10800001 2.2760003 .17500001 2.1680003 C .33600004 1.9100002 .40900005 1.5850002 .40900005 1.2000002 C .40900005 .9310001 .37300004 .5840001 .20800002 .286 C .12900001 .14400006 .046 .06100011 .0040000008 .019000054 C .0020000004 .016000033 0 .013000011 0 .00999999 C 0 0 .009000003 0 .021000002 0 C .035 0 .037000006 0 .052000006 .015000105 C .38700003 .32000018 .492 .7780001 .492 1.1990001 Z "/>
</symbol>
<use xlink:href="#font_5_6" transform="matrix(9.9626,0,0,-9.9626,95.38369,88.70178)"/>
<use xlink:href="#font_4_4" transform="matrix(9.9626,0,0,-9.9626,102.65691,79.3566)"/>
<use xlink:href="#font_1_2" transform="matrix(6.9738,0,0,-6.9738,108.38976,75.20374)"/>
<use xlink:href="#font_2_1" transform="matrix(6.9738,0,0,-6.9738,113.74017,73.55792)"/>
<use xlink:href="#font_3_3" transform="matrix(6.9738,0,0,-6.9738,119.65334,75.134)"/>
<use xlink:href="#font_4_2" transform="matrix(9.9626,0,0,-9.9626,124.23094,79.3566)"/>
<use xlink:href="#font_0_1" transform="matrix(9.9626,0,0,-9.9626,132.1949,80.073909)"/>
<use xlink:href="#font_6_2" transform="matrix(9.9626,0,0,-9.9626,142.45677,77.28438)"/>
<use xlink:href="#font_6_2" transform="matrix(9.9626,0,0,-9.9626,146.89014,77.28438)"/>
<use xlink:href="#font_6_2" transform="matrix(9.9626,0,0,-9.9626,151.31354,77.28438)"/>
<use xlink:href="#font_0_1" transform="matrix(9.9626,0,0,-9.9626,155.9939,80.073909)"/>
<use xlink:href="#font_5_5" transform="matrix(9.9626,0,0,-9.9626,167.4712,88.70178)"/>
<use xlink:href="#font_4_3" transform="matrix(9.9626,0,0,-9.9626,181.60089,72.61659)"/>
<use xlink:href="#font_4_3" transform="matrix(9.9626,0,0,-9.9626,173.0219,86.1906)"/>
<symbol id="font_6_1">
<path d="M .57600006 0 C .59300008 0 .611 0 .611 .019999996 C .611 .040000008 .59300008 .040000008 .57600006 .040000008 L .035000005 .040000008 C .018 .040000008 0 .040000008 0 .019999996 C 0 0 .018 0 .035000005 0 L .57600006 0 Z "/>
</symbol>
<use xlink:href="#font_6_1" transform="matrix(9.9626,0,0,-9.9626,181.75287,83.78961)"/>
<symbol id="font_0_2">
<path d="M .205 .64000007 C .205 .66400006 .205 .666 .18200003 .666 C .120000008 .60200008 .032000007 .60200008 0 .60200008 L 0 .57100006 C .020000004 .57100006 .07900001 .57100006 .13100001 .597 L .13100001 .079 C .13100001 .043 .128 .031000002 .038000004 .031000002 L .0060000049 .031000002 L .0060000049 0 C .04100001 .003 .128 .003 .168 .003 C .20800002 .003 .29500003 .003 .33000005 0 L .33000005 .031000002 L .29800005 .031000002 C .20800002 .031000002 .205 .042000005 .205 .079 L .205 .64000007 Z "/>
</symbol>
<use xlink:href="#font_0_2" transform="matrix(9.9626,0,0,-9.9626,191.77565,86.08101)"/>
<use xlink:href="#font_5_6" transform="matrix(9.9626,0,0,-9.9626,196.21868,88.70178)"/>
<use xlink:href="#font_4_4" transform="matrix(9.9626,0,0,-9.9626,203.49289,79.3566)"/>
<use xlink:href="#font_4_2" transform="matrix(9.9626,0,0,-9.9626,209.45053,79.3566)"/>
<use xlink:href="#font_1_2" transform="matrix(6.9738,0,0,-6.9738,214.96576,75.20374)"/>
<use xlink:href="#font_2_1" transform="matrix(6.9738,0,0,-6.9738,220.31616,73.55792)"/>
<use xlink:href="#font_3_3" transform="matrix(6.9738,0,0,-6.9738,226.22934,75.134)"/>
<use xlink:href="#font_0_1" transform="matrix(9.9626,0,0,-9.9626,233.0309,80.073909)"/>
<use xlink:href="#font_4_2" transform="matrix(9.9626,0,0,-9.9626,242.98294,79.3566)"/>
<use xlink:href="#font_1_2" transform="matrix(6.9738,0,0,-6.9738,248.50278,75.20374)"/>
<use xlink:href="#font_2_1" transform="matrix(6.9738,0,0,-6.9738,253.85318,73.55792)"/>
<use xlink:href="#font_3_2" transform="matrix(6.9738,0,0,-6.9738,260.08714,75.134)"/>
<use xlink:href="#font_5_6" transform="matrix(9.9626,0,0,-9.9626,264.14469,88.70178)"/>
<use xlink:href="#font_0_4" transform="matrix(9.9626,0,0,-9.9626,6.71989,103.366977)"/>
<use xlink:href="#font_4_3" transform="matrix(9.9626,0,0,-9.9626,20.353899,104.80159)"/>
<use xlink:href="#font_4_4" transform="matrix(9.9626,0,0,-9.9626,26.33146,104.80159)"/>
<use xlink:href="#font_1_2" transform="matrix(6.9738,0,0,-6.9738,32.066755,100.64774)"/>
<use xlink:href="#font_2_1" transform="matrix(6.9738,0,0,-6.9738,37.417154,99.00192)"/>
<use xlink:href="#font_3_2" transform="matrix(6.9738,0,0,-6.9738,43.650125,100.578)"/>
<path transform="matrix(1,0,0,-1,16.677998,92.896)" stroke-width="1" stroke-linecap="butt" stroke-miterlimit="10" stroke-linejoin="miter" fill="none" stroke="#000000" d="M 0 0 L 34.069 0 "/>
<path transform="matrix(1,0,0,-1,16.876999,107.880008)" stroke-width="1" stroke-linecap="butt" stroke-miterlimit="10" stroke-linejoin="miter" fill="none" stroke="#000000" d="M 0 0 L 0 14.984 "/>
<path transform="matrix(1,0,0,-1,50.547998,107.880008)" stroke-width="1" stroke-linecap="butt" stroke-miterlimit="10" stroke-linejoin="miter" fill="none" stroke="#000000" d="M 0 0 L 0 14.984 "/>
<path transform="matrix(1,0,0,-1,16.677998,107.880008)" stroke-width="1" stroke-linecap="butt" stroke-miterlimit="10" stroke-linejoin="miter" fill="none" stroke="#000000" d="M 0 0 L 34.069 0 "/>
<symbol id="font_3_5">
<path d="M .105000007 .38300003 C .120000008 .374 .156 .352 .21400002 .352 C .317 .352 .39200003 .421 .39200003 .499 C .39200003 .538 .374 .569 .35000003 .595 C .395 .62700006 .43400003 .628 .451 .628 C .44700004 .6240001 .44200004 .62 .44200004 .60400006 C .44200004 .584 .45700003 .572 .474 .572 C .488 .572 .50600007 .582 .50600007 .605 C .50600007 .628 .48700003 .656 .44700004 .656 C .432 .656 .37800003 .653 .331 .61 C .301 .632 .259 .646 .215 .646 C .112 .646 .037000006 .577 .037000006 .499 C .037000006 .46000005 .057 .42400003 .08500001 .398 C .07700001 .38900004 .055000005 .356 .055000005 .31700004 C .055000005 .30400003 .058000003 .25700004 .097 .22800002 C .052000006 .21300002 0 .18 0 .128 C 0 .055000009 .11 0 .245 0 C .372 0 .49000005 .050000013 .49000005 .13000001 C .49000005 .16000001 .47800002 .21400002 .423 .24400002 C .36400003 .275 .305 .275 .208 .275 C .186 .275 .15 .275 .142 .27600003 C .11 .28300003 .09200001 .31300003 .09200001 .342 C .09200001 .367 .09900001 .375 .105000007 .38300003 M .215 .38200004 C .117 .38200004 .117 .47800002 .117 .499 C .117 .515 .117 .55500009 .13700001 .58100005 C .15100001 .59800007 .178 .61600008 .21400002 .61600008 C .312 .61600008 .312 .52000007 .312 .499 C .312 .48300005 .312 .44300003 .29200004 .41700004 C .278 .40000005 .25100003 .38200004 .215 .38200004 M .215 .20800002 C .30400003 .20800002 .42900003 .20800002 .42900003 .12900001 C .42900003 .076000008 .35000003 .030000002 .245 .030000002 C .14 .030000002 .061 .07700001 .061 .12900001 C .061 .164 .092999998 .20700002 .157 .20800002 L .215 .20800002 Z "/>
</symbol>
<symbol id="font_3_6">
<path d="M .155 .61700007 C .155 .646 .13100001 .674 .09700001 .674 C .067 .674 .04 .65000006 .04 .61700007 C .04 .58100005 .069 .559 .09700001 .559 C .12900001 .559 .155 .58400008 .155 .61700007 M .0030000024 .43 L .0030000024 .39400003 C .06600001 .39400003 .07500001 .388 .07500001 .33900003 L .07500001 .079 C .07500001 .036000004 .065000008 .036000004 0 .036000004 L 0 0 C .0020000004 0 .072000008 .004 .11200001 .004 C .14700002 .004 .183 .003 .21800003 0 L .21800003 .036000004 C .16 .036000004 .15 .036000004 .15 .078 L .15 .441 L .0030000024 .43 Z "/>
</symbol>
<symbol id="font_3_8">
<path d="M .44300006 .343 C .47100006 .404 .521 .405 .537 .405 L .537 .441 C .512 .439 .48600004 .437 .46100004 .437 C .43400005 .437 .39700005 .43800003 .37000004 .441 L .37000004 .405 C .41200004 .403 .41200004 .37 .41200004 .367 C .41200004 .36200003 .41100005 .352 .40400005 .338 L .29100005 .091 L .16700001 .363 C .16700001 .364 .161 .375 .161 .382 C .161 .405 .19500001 .405 .21200001 .405 L .21200001 .441 C .21000001 .441 .139 .437 .098000008 .437 C .068 .437 .029000001 .43800003 0 .441 L 0 .405 C .055 .405 .067 .403 .082 .36900003 L .24000003 .021000002 C .24500002 .009000001 .25100003 0 .26800005 0 C .28700004 0 .29100005 .009000001 .29600004 .020000002 L .44300006 .343 Z "/>
</symbol>
<symbol id="font_3_4">
<path d="M .40100003 .23800002 C .42200003 .23800002 .42900003 .23800002 .42900003 .26 C .42900003 .34800003 .38000003 .456 .231 .456 C .10000001 .456 0 .352 0 .22900002 C 0 .102000009 .111 0 .24400002 0 C .379 0 .42900003 .108 .42900003 .13000001 C .42900003 .134 .42700003 .14400001 .41200004 .14400001 C .39900003 .14400001 .397 .13800001 .39400003 .128 C .363 .047000003 .287 .032 .25100003 .032 C .20400001 .032 .15900001 .053000004 .12900001 .091 C .09200001 .13800001 .091000009 .19900002 .091000009 .23800002 L .40100003 .23800002 M .09200001 .264 C .103 .405 .193 .428 .231 .428 C .354 .428 .358 .289 .35900004 .264 L .09200001 .264 Z "/>
</symbol>
<symbol id="font_3_7">
<path d="M .46100006 .303 C .46100006 .39000003 .41800005 .441 .31100003 .441 C .22900002 .441 .176 .39600004 .148 .344 L .147 .344 L .147 .441 L 0 .43 L 0 .39400003 C .067 .39400003 .075 .38700003 .075 .33800004 L .075 .079 C .075 .036000004 .065 .036000004 0 .036000004 L 0 0 C .0020000004 0 .072 .004 .11400001 .004 C .15100001 .004 .22000002 .001 .22900002 0 L .22900002 .036000004 C .164 .036000004 .154 .036000004 .154 .079 L .154 .259 C .154 .36400003 .237 .41300003 .30300004 .41300003 C .37300004 .41300003 .38200004 .358 .38200004 .307 L .38200004 .079 C .38200004 .036000004 .37200005 .036000004 .30700005 .036000004 L .30700005 0 C .30900003 0 .37900005 .004 .42100004 .004 C .45800004 .004 .527 .001 .536 0 L .536 .036000004 C .47100006 .036000004 .46100006 .036000004 .46100006 .079 L .46100006 .303 Z "/>
</symbol>
<use xlink:href="#font_3_5" transform="matrix(6.9738,0,0,-6.9738,24.913977,115.85963)"/>
<use xlink:href="#font_3_6" transform="matrix(6.9738,0,0,-6.9738,29.007599,114.43)"/>
<use xlink:href="#font_3_8" transform="matrix(6.9738,0,0,-6.9738,31.08579,114.49974)"/>
<use xlink:href="#font_3_4" transform="matrix(6.9738,0,0,-6.9738,35.109674,114.49974)"/>
<use xlink:href="#font_3_7" transform="matrix(6.9738,0,0,-6.9738,38.756975,114.43)"/>
<symbol id="font_4_1">
<path d="M .117000009 .194 C .117000009 .26 .092 .29900003 .05300001 .29900003 C .020000004 .29900003 0 .274 0 .246 C 0 .21900001 .020000004 .193 .05300001 .193 C .065000008 .193 .078 .197 .08800001 .206 C .091 .208 .092 .209 .093 .209 C .094000007 .209 .095000009 .208 .095000009 .194 C .095000009 .12 .06000001 .060000004 .027000003 .026999996 C .016000003 .016000003 .016000003 .013999999 .016000003 .0109999929 C .016000003 .003999993 .021000006 0 .026 0 C .037 0 .117000009 .077 .117000009 .194 Z "/>
</symbol>
<use xlink:href="#font_4_1" transform="matrix(9.9626,0,0,-9.9626,51.603784,106.614788)"/>
</svg>
