<?xml version="1.0" encoding="UTF-8" standalone="no"?>
<!DOCTYPE svg PUBLIC "-//W3C//DTD SVG 1.1//EN" "http://www.w3.org/Graphics/SVG/1.1/DTD/svg11.dtd">
<svg xmlns="http://www.w3.org/2000/svg" xmlns:xlink="http://www.w3.org/1999/xlink" version="1.1" width="459.096pt" height="112.454pt" viewBox="0 0 459.096 112.454">
<path transform="matrix(1,0,0,-1,.199,112.255008)" stroke-width="1" stroke-linecap="butt" stroke-miterlimit="10" stroke-linejoin="miter" fill="none" stroke="#929292" d="M 15.53735 47.46149 L 15.53735 51.71315 M 67.43877 47.46149 L 67.43877 51.71315 M 119.34018 47.46149 L 119.34018 51.71315 M 171.24158 47.46149 L 171.24158 51.71315 M 275.0444 47.46149 L 275.0444 51.71315 M 327.01194 47.46149 L 327.01194 51.71315 M 378.8472 47.46149 L 378.8472 51.71315 M 430.74864 47.46149 L 430.74864 51.71315 "/>
<path transform="matrix(1,0,0,-1,.199,112.255008)" stroke-width="1" stroke-linecap="butt" stroke-miterlimit="10" stroke-linejoin="miter" fill="none" stroke="#929292" d="M 221.01715 16.5291 L 225.26882 16.5291 M 221.01715 82.64555 L 225.26882 82.64555 "/>
<path transform="matrix(1,0,0,-1,.199,112.255008)" stroke-width="1" stroke-linecap="butt" stroke-miterlimit="10" stroke-linejoin="miter" fill="none" stroke="#000000" d="M 0 49.58733 L 444.29347 49.58733 "/>
<path transform="matrix(1,0,0,-1,444.49247,62.667676)" d="M 1.99252 0 L -1.19551 1.59401 L 0 0 L -1.19551 -1.59401 "/>
<path transform="matrix(1,0,0,-1,.199,112.255008)" stroke-width="1" stroke-linecap="butt" stroke-miterlimit="10" stroke-linejoin="miter" fill="none" stroke="#000000" d="M 223.14299 0 L 223.14299 97.18213 "/>
<path transform="matrix(0,-1,-1,-0,223.342,15.072876)" d="M 1.99252 0 L -1.19551 1.59401 L 0 0 L -1.19551 -1.59401 "/>
<symbol id="font_0_1">
<path d="M .57600006 0 C .59300008 0 .611 0 .611 .019999996 C .611 .040000008 .59300008 .040000008 .57600006 .040000008 L .035000005 .040000008 C .018 .040000008 0 .040000008 0 .019999996 C 0 0 .018 0 .035000005 0 L .57600006 0 Z "/>
</symbol>
<use xlink:href="#font_0_1" transform="matrix(9.9626,0,0,-9.9626,7.1798956,72.44261)"/>
<symbol id="font_1_4">
<path d="M .07700001 .07700001 L .18300002 .18 C .33900003 .31800003 .39900003 .372 .39900003 .47200004 C .39900003 .586 .30900003 .666 .18700002 .666 C .074 .666 0 .574 0 .485 C 0 .42900003 .05 .42900003 .053000008 .42900003 C .07000001 .42900003 .105000007 .441 .105000007 .48200003 C .105000007 .508 .08700001 .53400006 .052000006 .53400006 C .044000005 .53400006 .042000008 .53400006 .039 .53300008 C .062000004 .59800007 .11600001 .63500007 .17400001 .63500007 C .26500003 .63500007 .308 .554 .308 .47200004 C .308 .39200003 .25800003 .31300003 .20300003 .25100003 L .011000004 .037 C 0 .026 0 .024 0 0 L .37100003 0 L .39900003 .17400001 L .374 .17400001 C .36900003 .14400001 .36200003 .1 .352 .085 C .345 .07700001 .279 .07700001 .257 .07700001 L .07700001 .07700001 Z "/>
</symbol>
<use xlink:href="#font_1_4" transform="matrix(9.9626,0,0,-9.9626,14.600129,74.73401)"/>
<symbol id="font_2_1">
<path d="M .23800002 .38400004 L .351 .38400004 C .31800003 .23600002 .30900003 .19300002 .30900003 .126 C .30900003 .111 .30900003 .08400001 .317 .05 C .327 .0060000007 .338 0 .35300002 0 C .373 0 .39400003 .018000002 .39400003 .038000004 C .39400003 .044 .39400003 .046 .388 .060000004 C .359 .13200002 .359 .19700001 .359 .22500003 C .359 .27800004 .366 .33200003 .377 .38400004 L .491 .38400004 C .504 .38400004 .54 .38400004 .54 .418 C .54 .44200004 .519 .44200004 .5 .44200004 L .165 .44200004 C .143 .44200004 .105 .44200004 .061000006 .395 C .026000003 .35600005 0 .31000004 0 .305 C 0 .30400003 0 .29500003 .012 .29500003 C .020000002 .29500003 .022000002 .29900003 .028000003 .307 C .077 .38400004 .135 .38400004 .15500002 .38400004 L .21200001 .38400004 C .18000002 .263 .12600002 .14200002 .08400001 .051000004 C .076000008 .036000004 .076000008 .034 .076000008 .027000003 C .076000008 .008000001 .092 0 .105 0 C .135 0 .143 .028 .15500002 .065000008 C .16900002 .111 .16900002 .113000009 .18200001 .16300002 L .23800002 .38400004 Z "/>
</symbol>
<use xlink:href="#font_2_1" transform="matrix(9.9626,0,0,-9.9626,19.35199,74.8436)"/>
<use xlink:href="#font_0_1" transform="matrix(9.9626,0,0,-9.9626,54.0999,73.494609)"/>
<symbol id="font_1_5">
<path d="M .24800003 .37400005 C .33 .40100003 .388 .47100006 .388 .55 C .388 .632 .3 .688 .204 .688 C .10300001 .688 .027000003 .628 .027000003 .55200007 C .027000003 .519 .049000004 .5 .078 .5 C .109000008 .5 .12900001 .522 .12900001 .55100008 C .12900001 .6010001 .082 .6010001 .067 .6010001 C .098 .65000006 .164 .66300007 .20000002 .66300007 C .24100003 .66300007 .29600004 .64100006 .29600004 .55100008 C .29600004 .53900006 .29400004 .48100005 .268 .43700005 C .238 .38900004 .204 .38600005 .17900002 .38500003 C .171 .38400004 .14700002 .38200004 .14000002 .38200004 C .132 .38100005 .125 .38000003 .125 .37000004 C .125 .35900004 .132 .35900004 .14900002 .35900004 L .19300002 .35900004 C .275 .35900004 .312 .29100005 .312 .193 C .312 .057000005 .24300003 .028 .199 .028 C .15600002 .028 .081 .045 .046000005 .104 C .081 .09900001 .11200001 .12100001 .11200001 .15900001 C .11200001 .19500001 .085 .215 .056 .215 C .031999999 .215 0 .201 0 .157 C 0 .06600001 .093 0 .20200002 0 C .32400004 0 .41500003 .091000009 .41500003 .193 C .41500003 .27500005 .35200004 .35300005 .24800003 .37400005 Z "/>
</symbol>
<use xlink:href="#font_1_5" transform="matrix(9.9626,0,0,-9.9626,61.439435,76.00518)"/>
<symbol id="font_2_2">
<path d="M .384 .962 C .38900004 .975 .38900004 .97900006 .38900004 .98 C .38900004 .99100008 .38000003 1 .36900003 1 C .36200003 1 .35500003 .99700006 .352 .99100008 L .004999999 .037999989 C 0 .024999991 0 .020999983 0 .019999996 C 0 .008999988 .009 0 .02 0 C .033000005 0 .036000004 .0069999846 .042 .023999989 L .384 .962 Z "/>
</symbol>
<use xlink:href="#font_2_1" transform="matrix(9.9626,0,0,-9.9626,66.271999,75.89559)"/>
<use xlink:href="#font_2_2" transform="matrix(9.9626,0,0,-9.9626,72.58827,78.27665)"/>
<use xlink:href="#font_1_4" transform="matrix(9.9626,0,0,-9.9626,77.518138,75.786)"/>
<use xlink:href="#font_0_1" transform="matrix(9.9626,0,0,-9.9626,113.47189,71.8336)"/>
<use xlink:href="#font_2_1" transform="matrix(9.9626,0,0,-9.9626,120.66299,74.23459)"/>
<use xlink:href="#font_0_1" transform="matrix(9.9626,0,0,-9.9626,160.39189,73.494609)"/>
<use xlink:href="#font_2_1" transform="matrix(9.9626,0,0,-9.9626,167.582,75.89559)"/>
<use xlink:href="#font_2_2" transform="matrix(9.9626,0,0,-9.9626,173.89829,78.27665)"/>
<use xlink:href="#font_1_4" transform="matrix(9.9626,0,0,-9.9626,178.82913,75.786)"/>
<use xlink:href="#font_2_1" transform="matrix(9.9626,0,0,-9.9626,267.50999,75.89559)"/>
<use xlink:href="#font_2_2" transform="matrix(9.9626,0,0,-9.9626,273.82627,78.27665)"/>
<use xlink:href="#font_1_4" transform="matrix(9.9626,0,0,-9.9626,278.75614,75.786)"/>
<use xlink:href="#font_2_1" transform="matrix(9.9626,0,0,-9.9626,324.45799,72.7126)"/>
<use xlink:href="#font_1_5" transform="matrix(9.9626,0,0,-9.9626,368.96943,76.00518)"/>
<use xlink:href="#font_2_1" transform="matrix(9.9626,0,0,-9.9626,373.80198,75.89559)"/>
<use xlink:href="#font_2_2" transform="matrix(9.9626,0,0,-9.9626,380.11827,78.27665)"/>
<use xlink:href="#font_1_4" transform="matrix(9.9626,0,0,-9.9626,385.04814,75.786)"/>
<use xlink:href="#font_1_4" transform="matrix(9.9626,0,0,-9.9626,425.93116,74.73401)"/>
<use xlink:href="#font_2_1" transform="matrix(9.9626,0,0,-9.9626,430.684,74.8436)"/>
<use xlink:href="#font_0_1" transform="matrix(9.9626,0,0,-9.9626,205.7909,96.22961)"/>
<symbol id="font_1_3">
<path d="M .205 .64000007 C .205 .66400006 .205 .666 .18200003 .666 C .120000008 .60200008 .032000007 .60200008 0 .60200008 L 0 .57100006 C .020000004 .57100006 .07900001 .57100006 .13100001 .597 L .13100001 .079 C .13100001 .043 .128 .031000002 .038000004 .031000002 L .0060000049 .031000002 L .0060000049 0 C .04100001 .003 .128 .003 .168 .003 C .20800002 .003 .29500003 .003 .33000005 0 L .33000005 .031000002 L .29800005 .031000002 C .20800002 .031000002 .205 .042000005 .205 .079 L .205 .64000007 Z "/>
</symbol>
<use xlink:href="#font_1_3" transform="matrix(9.9626,0,0,-9.9626,213.59868,98.521)"/>
<use xlink:href="#font_1_3" transform="matrix(9.9626,0,0,-9.9626,213.59868,32.820009)"/>
<clipPath id="cp3">
<path transform="matrix(1,0,0,-1,.199,112.255008)" d="M 0 0 L 446.286 0 L 446.286 99.17465 L 0 99.17465 Z "/>
</clipPath>
<g clip-path="url(#cp3)">
<path transform="matrix(1,0,0,-1,.199,112.255008)" stroke-width="1.19553" stroke-linecap="butt" stroke-miterlimit="10" stroke-linejoin="miter" fill="none" stroke="#000080" d="M 0 34.71013 C 0 34.71013 3.25667 37.68182 4.50748 38.86125 C 5.75827 40.04068 7.76416 41.9872 9.01497 43.21072 C 10.26576 44.43423 12.27164 46.43477 13.52245 47.67952 C 14.77324 48.92427 16.77913 50.9392 18.02994 52.18205 C 19.28073 53.42493 21.2866 55.41908 22.53741 56.63731 C 23.78821 57.85556 25.7941 59.79161 27.0449 60.96233 C 28.29572 62.13304 30.30159 63.9736 31.5524 65.0751 C 32.8032 66.1766 34.80907 67.8893 36.05988 68.90126 C 37.31068 69.91322 39.31656 71.46523 40.56737 72.36873 C 41.81818 73.27222 43.82404 74.63478 45.07484 75.41306 C 46.32565 76.19133 48.33154 77.33926 49.58234 77.97806 C 50.83315 78.61684 52.83904 79.52985 54.08983 80.01707 C 55.34064 80.50432 57.34651 81.16335 58.5973 81.48982 C 59.84811 81.8163 61.854 82.21017 63.1048 82.37016 C 64.3556 82.53015 66.36148 82.65234 67.61227 82.6429 C 68.86308 82.63347 70.86897 82.48094 72.11978 82.30206 C 73.37057 82.12318 75.37646 81.6986 76.62727 81.35362 C 77.87807 81.00867 79.88394 80.32043 81.13475 79.81577 C 82.38554 79.31108 84.39143 78.37125 85.64224 77.71623 C 86.89304 77.0612 88.89891 75.88771 90.14972 75.09471 C 91.40051 74.30171 93.4064 72.91727 94.65721 72.0008 C 95.908 71.0843 97.91388 69.51233 99.16469 68.48935 C 100.4155 67.46635 102.42137 65.73816 103.67218 64.6278 C 104.92299 63.51746 106.92886 61.66379 108.17967 60.48662 C 109.43048 59.30943 111.43634 57.36551 112.68715 56.14342 C 113.93796 54.92134 115.94383 52.92293 117.19464 51.67859 C 118.44545 50.43425 120.45132 48.41852 121.70212 47.17506 C 122.95293 45.9316 124.95882 43.93611 126.20961 42.7165 C 127.46042 41.49689 129.46631 39.55798 130.7171 38.38489 C 131.96791 37.21178 133.97379 35.36629 135.22458 34.26152 C 136.47539 33.15677 138.48128 31.43843 139.73207 30.42247 C 140.98288 29.4065 142.98876 27.84747 144.23957 26.93913 C 145.49036 26.03078 147.49625 24.65936 148.74706 23.87563 C 149.99785 23.09189 152.00374 21.93498 153.25455 21.29047 C 154.50534 20.64595 156.51122 19.72372 157.76203 19.23029 C 159.01282 18.73685 161.0187 18.06735 162.26952 17.73407 C 163.52031 17.4008 165.52619 16.99532 166.777 16.82828 C 168.0278 16.66124 170.03368 16.52759 171.28449 16.53009 C 172.5353 16.5326 174.54117 16.67429 175.79198 16.84647 C 177.04279 17.01863 179.04865 17.43265 180.29946 17.77109 C 181.55027 18.10953 183.55614 18.7875 184.80695 19.28581 C 186.05776 19.78412 188.06362 20.71356 189.31443 21.36255 C 190.56523 22.01152 192.57112 23.17561 193.82192 23.96324 C 195.07273 24.75087 197.0786 26.12746 198.32939 27.03929 C 199.5802 27.95114 201.58609 29.51608 202.83689 30.5352 C 204.08769 31.55432 206.09358 33.2773 207.34438 34.38449 C 208.59519 35.49168 210.60108 37.34032 211.85187 38.51514 C 213.10268 39.68994 215.10857 41.631 216.35938 42.85172 C 217.61017 44.07243 219.61605 46.06938 220.86685 47.31325 C 222.11765 48.55711 224.12354 50.57281 225.37435 51.81677 C 226.62514 53.06073 228.63103 55.05792 229.88184 56.27896 C 231.13263 57.5 233.1385 59.44171 234.38932 60.6172 C 235.6401 61.7927 237.646 63.64307 238.8968 64.75111 C 240.14762 65.85918 242.15349 67.58342 243.4043 68.60341 C 244.6551 69.6234 246.66098 71.18976 247.91179 72.10262 C 249.1626 73.01546 251.16846 74.39378 252.41927 75.18265 C 253.67008 75.97153 255.67595 77.13777 256.92677 77.7883 C 258.17759 78.43884 260.18345 79.37135 261.43424 79.87129 C 262.68504 80.37125 264.69093 81.05154 265.94175 81.39165 C 267.19255 81.73174 269.19844 82.14873 270.44923 82.32257 C 271.70005 82.4964 273.7059 82.64047 274.9567 82.64455 C 276.2075 82.64862 278.2134 82.51727 279.4642 82.35199 C 280.715 82.18669 282.72087 81.78474 283.97166 81.45314 C 285.22248 81.12152 287.22837 80.45384 288.47917 79.96188 C 289.72999 79.46991 291.73588 78.55042 292.98667 77.9073 C 294.23747 77.2642 296.24333 76.10922 297.49415 75.32678 C 298.74494 74.54434 300.75083 73.17502 302.00163 72.2679 C 303.25245 71.36078 305.2583 69.80382 306.50914 68.78885 C 307.7599 67.7739 309.7658 66.0567 311.0166 64.95277 C 312.2674 63.84883 314.2733 62.00488 315.52409 60.83241 C 316.7749 59.65994 318.78077 57.72182 320.03157 56.50243 C 321.28239 55.28305 323.28825 53.28725 324.53907 52.04387 C 325.78987 50.8005 327.79573 48.7854 329.04655 47.54102 C 330.29737 46.29663 332.30326 44.29758 333.55403 43.07518 C 334.80485 41.85277 336.8107 39.90845 338.06153 38.73067 C 339.31233 37.55287 341.3182 35.69763 342.569 34.58649 C 343.81983 33.47534 345.8257 31.74615 347.07649 30.7223 C 348.3273 29.69846 350.3332 28.12494 351.58399 27.20723 C 352.83479 26.28952 354.84068 24.90236 356.09147 24.10802 C 357.3423 23.31369 359.34815 22.13866 360.59895 21.48221 C 361.84977 20.82576 363.85566 19.88307 365.10646 19.37674 C 366.35725 18.8704 368.36314 18.1794 369.61396 17.83292 C 370.86473 17.48643 372.8706 17.05998 374.1214 16.87952 C 375.37223 16.69904 377.3781 16.5433 378.6289 16.53207 C 379.8797 16.52083 381.88557 16.64024 383.13639 16.79852 C 384.38719 16.95682 386.39308 17.34796 387.6439 17.67291 C 388.89469 17.99788 390.90058 18.65501 392.15138 19.1407 C 393.4022 19.62639 395.40806 20.53616 396.65885 21.17345 C 397.90965 21.81073 399.91554 22.95682 401.16636 23.73381 C 402.41716 24.5108 404.42304 25.87129 405.6738 26.7735 C 406.92463 27.6757 408.9305 29.22545 410.1813 30.23636 C 411.4321 31.24728 413.438 32.95868 414.68879 34.05954 C 415.93959 35.1604 417.94548 37.00044 419.19627 38.17065 C 420.44709 39.34087 422.45298 41.27591 423.70378 42.49368 C 424.95457 43.71147 426.96046 45.70485 428.21125 46.94762 C 429.46205 48.1904 431.46794 50.20592 432.71876 51.45082 C 433.96955 52.69571 435.97544 54.69617 437.22624 55.91995 C 438.47703 57.14374 440.4829 59.09119 441.73374 60.27107 C 442.9845 61.45096 446.2412 64.42384 446.2412 64.42384 "/>
<path transform="matrix(1,0,0,-1,.199,112.255008)" stroke-width="1.19553" stroke-linecap="butt" stroke-miterlimit="10" stroke-linejoin="miter" fill="none" stroke="#800000" d="M 0 79.10698 C 0 79.10698 3.25667 80.45175 4.50748 80.85643 C 5.75827 81.26111 7.76416 81.78337 9.01497 82.02371 C 10.26576 82.26405 12.27164 82.51682 13.52245 82.58868 C 14.77324 82.66054 16.77913 82.6396 18.02994 82.54173 C 19.28073 82.44386 21.2866 82.14905 22.53741 81.88321 C 23.78821 81.61737 25.7941 81.05461 27.0449 80.62567 C 28.29572 80.19673 30.30159 79.37592 31.5524 78.79161 C 32.8032 78.20732 34.80907 77.14304 36.05988 76.4144 C 37.31068 75.68575 39.31656 74.3993 40.56737 73.54 C 41.81818 72.68066 43.82404 71.19502 45.07484 70.22095 C 46.32565 69.24686 48.33154 67.59023 49.58234 66.51941 C 50.83315 65.4486 52.83904 63.65105 54.08983 62.50317 C 55.34064 61.3553 57.34651 59.44963 58.5973 58.24625 C 59.84811 57.04288 61.854 55.06642 63.1048 53.83002 C 64.3556 52.59361 66.36148 50.58185 67.61227 49.33508 C 68.86308 48.0883 70.86897 46.0781 72.11978 44.84413 C 73.37057 43.61015 75.37646 41.63962 76.62727 40.44144 C 77.87807 39.24324 79.88394 37.34854 81.13475 36.20833 C 82.38554 35.0681 84.39143 33.28445 85.64224 32.2235 C 86.89304 31.16252 88.89891 29.5237 90.14972 28.56161 C 91.40051 27.59955 93.4064 26.1351 94.65721 25.28954 C 95.908 24.44397 97.91388 23.18053 99.16469 22.46735 C 100.4155 21.75417 102.42137 20.7166 103.67218 20.1493 C 104.92299 19.58202 106.92886 18.78967 108.17967 18.3787 C 109.43048 17.96773 111.43634 17.43446 112.68715 17.18729 C 113.93796 16.94012 115.94383 16.67603 117.19464 16.5972 C 118.44545 16.51836 120.45132 16.52815 121.70212 16.619 C 122.95293 16.70987 124.95882 16.99303 126.20961 17.25208 C 127.46042 17.51114 129.46631 18.06354 130.7171 18.48615 C 131.96791 18.90877 133.97379 19.71986 135.22458 20.29807 C 136.47539 20.87628 138.48128 21.93054 139.73207 22.65346 C 140.98288 23.37637 142.98876 24.65417 144.23957 25.50836 C 145.49036 26.36255 147.49625 27.84012 148.74706 28.8099 C 149.99785 29.77968 152.00374 31.4305 153.25455 32.49786 C 154.50534 33.56525 156.51122 35.35776 157.76203 36.50288 C 159.01282 37.648 161.0187 39.54959 162.26952 40.75119 C 163.52031 41.95279 165.52619 43.92757 166.777 45.16315 C 168.0278 46.39871 170.03368 48.40964 171.28449 49.6564 C 172.5353 50.90317 174.54117 52.91412 175.79198 54.14902 C 177.04279 55.3839 179.04865 57.3566 180.29946 58.55667 C 181.55027 59.75674 183.55614 61.65535 184.80695 62.79837 C 186.05776 63.94139 188.06362 65.73015 189.31443 66.79478 C 190.56523 67.8594 192.57112 69.50491 193.82192 70.47151 C 195.07273 71.43811 197.0786 72.91092 198.32939 73.76147 C 199.5802 74.61205 201.58609 75.88329 202.83689 76.60184 C 204.08769 77.32039 206.09358 78.36694 207.34438 78.94037 C 208.59519 79.51381 210.60108 80.31717 211.85187 80.73479 C 213.10268 81.15239 215.10857 81.69623 216.35938 81.95033 C 217.61017 82.20444 219.61605 82.48029 220.86685 82.5662 C 222.11765 82.6521 224.12354 82.65367 225.37435 82.5695 C 226.62514 82.48535 228.63103 82.21204 229.88184 81.9596 C 231.13263 81.70714 233.1385 81.16609 234.38932 80.74998 C 235.6401 80.33388 237.646 79.5325 238.8968 78.96054 C 240.14762 78.38858 242.15349 77.34476 243.4043 76.62761 C 244.6551 75.91048 246.66098 74.64116 247.91179 73.79189 C 249.1626 72.94261 251.16846 71.4721 252.41927 70.50656 C 253.67008 69.541 255.67595 67.89656 256.92677 66.8328 C 258.17759 65.76904 260.18345 63.98193 261.43424 62.83969 C 262.68504 61.69746 264.69093 59.79999 265.94175 58.60033 C 267.19255 57.40065 269.19844 55.42802 270.44923 54.19331 C 271.70005 52.9586 273.7059 50.94814 274.9567 49.70137 C 276.2075 48.4546 278.2134 46.44324 279.4642 45.20744 C 280.715 43.97163 282.72087 41.99649 283.97166 40.79448 C 285.22248 39.59248 287.22837 37.69006 288.47917 36.54419 C 289.72999 35.39833 291.73588 33.6041 292.98667 32.53589 C 294.23747 31.46768 296.24333 29.81604 297.49415 28.84526 C 298.74494 27.87448 300.75083 26.39459 302.00163 25.53912 C 303.25245 24.68364 305.2583 23.40382 306.50914 22.67958 C 307.7599 21.95534 309.7658 20.89893 311.0166 20.31921 C 312.2674 19.7395 314.2733 18.92566 315.52409 18.50134 C 316.7749 18.07703 318.78077 17.52179 320.03157 17.261 C 321.28239 17.00021 323.28825 16.71416 324.53907 16.62166 C 325.78987 16.52914 327.79573 16.51694 329.04655 16.59422 C 330.29737 16.67151 332.30326 16.93315 333.55403 17.17868 C 334.80485 17.42421 336.8107 17.95447 338.06153 18.36383 C 339.31233 18.7732 341.3182 19.56331 342.569 20.12914 C 343.81983 20.69495 345.8257 21.73012 347.07649 22.44188 C 348.3273 23.15366 350.3332 24.41484 351.58399 25.25911 C 352.83479 26.10338 354.84068 27.5659 356.09147 28.52692 C 357.3423 29.48793 359.34815 31.12544 360.59895 32.18547 C 361.84977 33.2455 363.85566 35.02753 365.10646 36.167 C 366.35725 37.30649 368.36314 39.20035 369.61396 40.39813 C 370.86473 41.5959 372.8706 43.56609 374.1214 44.79982 C 375.37223 46.03357 377.3781 48.04335 378.6289 49.29013 C 379.8797 50.5369 381.88557 52.549 383.13639 53.78572 C 384.38719 55.02245 386.39308 56.99983 387.6439 58.20361 C 388.89469 59.4074 390.90058 61.31337 392.15138 62.46185 C 393.4022 63.61034 395.40806 65.40932 396.65885 66.48106 C 397.90965 67.5528 399.91554 69.21109 401.16636 70.18623 C 402.41716 71.16138 404.42304 72.64859 405.6738 73.50923 C 406.92463 74.36987 408.9305 75.65929 410.1813 76.38927 C 411.4321 77.11925 413.438 78.18483 414.68879 78.77046 C 415.93959 79.35608 417.94548 80.1796 419.19627 80.61014 C 420.44709 81.0407 422.45298 81.60622 423.70378 81.87363 C 424.95457 82.14102 426.96046 82.43791 428.21125 82.53745 C 429.46205 82.63698 431.46794 82.66104 432.71876 82.591 C 433.96955 82.52097 435.97544 82.27136 437.22624 82.03264 C 438.47703 81.7939 440.4829 81.27345 441.73374 80.87032 C 442.9845 80.4672 446.2412 79.12715 446.2412 79.12715 "/>
<symbol id="font_2_3">
<path d="M .314 .605 L .4 .605 C .42000003 .605 .43 .605 .43 .625 C .43 .63600006 .42000003 .63600006 .40300004 .63600006 L .32000003 .63600006 L .34100003 .75 C .34500004 .771 .35900004 .842 .365 .8540001 C .374 .873 .39100004 .888 .41200004 .888 C .416 .888 .44200004 .888 .461 .87 C .41700004 .86600008 .407 .8310001 .407 .816 C .407 .793 .425 .781 .444 .781 C .47 .781 .49900005 .8030001 .49900005 .8410001 C .49900005 .8870001 .45300005 .9100001 .41200004 .9100001 C .37800003 .9100001 .31500004 .8920001 .28500004 .793 C .279 .7720001 .27600003 .7620001 .252 .63600006 L .18300002 .63600006 C .164 .63600006 .15300001 .63600006 .15300001 .61700007 C .15300001 .605 .162 .605 .18100001 .605 L .24700001 .605 L .172 .21000001 C .15400002 .113000009 .13700001 .022 .08500001 .022 C .081 .022 .056 .022 .037 .040000008 C .083000008 .043000014 .09200001 .07900001 .09200001 .094000007 C .09200001 .117000009 .074 .12900001 .055 .12900001 C .029 .12900001 0 .10700001 0 .069000009 C 0 .024000004 .044 0 .08500001 0 C .14 0 .18 .059 .19800002 .09700001 C .23000002 .16000001 .25300003 .28100003 .254 .28800003 L .314 .605 Z "/>
</symbol>
<use xlink:href="#font_2_3" transform="matrix(9.9626,0,0,-9.9626,317.97303,42.407339)" fill="#000080"/>
<symbol id="font_1_1">
<path d="M .23200003 .00999999 C .23200003 .012999982 .23200003 .014999986 .215 .03199999 C .09 .15799999 .058 .347 .058 .5 C .058 .674 .096 .84800007 .21900001 .97300007 C .23200003 .985 .23200003 .98700007 .23200003 .99 C .23200003 .99700006 .22800002 1 .222 1 C .21200001 1 .12200001 .93200007 .06299999 .805 C .012000002 .69500008 0 .584 0 .5 C 0 .422 .011 .301 .066 .188 C .126 .065 .21200001 0 .222 0 C .22800002 0 .23200003 .0029999912 .23200003 .00999999 Z "/>
</symbol>
<use xlink:href="#font_1_1" transform="matrix(9.9626,0,0,-9.9626,324.3803,42.855657)" fill="#000080"/>
<symbol id="font_2_4">
<path d="M .305 .31300003 C .311 .33900003 .334 .43100003 .404 .43100003 C .409 .43100003 .433 .43100003 .454 .418 C .426 .41300003 .40600003 .388 .40600003 .36400003 C .40600003 .34800003 .417 .32900004 .444 .32900004 C .46600003 .32900004 .498 .34700004 .498 .38700003 C .498 .43900005 .439 .45300005 .405 .45300005 C .347 .45300005 .312 .40000005 .3 .37700004 C .275 .44300003 .221 .45300005 .19200002 .45300005 C .08800001 .45300005 .031000002 .32400004 .031000002 .29900003 C .031000002 .28900004 .041 .28900004 .043000007 .28900004 C .051000008 .28900004 .054000006 .291 .056 .3 C .09 .40600003 .156 .43100003 .19000001 .43100003 C .209 .43100003 .244 .42200003 .244 .36400003 C .244 .33300004 .22700002 .26600004 .19000001 .126 C .17400001 .064 .13900002 .022000002 .095000009 .022000002 C .08900001 .022000002 .06600001 .022000002 .045 .035 C .07000001 .040000004 .09200001 .061 .09200001 .089 C .09200001 .116000007 .07000001 .124000009 .055000009 .124000009 C .025 .124000009 0 .098000008 0 .06600001 C 0 .020000002 .050000006 0 .094000007 0 C .16000001 0 .19600001 .07000001 .19900002 .076000008 C .21100001 .039 .24700003 0 .307 0 C .41 0 .467 .12900001 .467 .15400002 C .467 .16400002 .458 .16400002 .455 .16400002 C .446 .16400002 .444 .16000001 .442 .15300001 C .409 .046 .341 .022000002 .30900003 .022000002 C .27 .022000002 .254 .054 .254 .08800001 C .254 .11000001 .26 .13200002 .271 .17600002 L .305 .31300003 Z "/>
</symbol>
<use xlink:href="#font_2_4" transform="matrix(9.9626,0,0,-9.9626,327.55793,40.474596)" fill="#000080"/>
<symbol id="font_1_2">
<path d="M .232 .5 C .232 .578 .22100002 .699 .16600001 .81200006 C .106 .93500009 .020000004 1 .009999998 1 C .0040000008 1 0 .99600008 0 .99 C 0 .98700007 0 .985 .019000002 .967 C .117000009 .86800006 .174 .709 .174 .5 C .174 .329 .137 .153 .012999997 .026999996 C 0 .014999986 0 .012999982 0 .00999999 C 0 .003999993 .0040000008 0 .009999998 0 C .020000004 0 .11000001 .06799999 .169 .195 C .22 .305 .232 .416 .232 .5 Z "/>
</symbol>
<use xlink:href="#font_1_2" transform="matrix(9.9626,0,0,-9.9626,333.53089,42.855657)" fill="#000080"/>
<use xlink:href="#font_2_3" transform="matrix(9.9626,0,0,-9.9626,160.87302,42.665334)" fill="#800000"/>
<symbol id="font_4_1">
<path d="M .24200002 .43100003 C .25 .448 .25100003 .456 .25100003 .463 C .25100003 .49400003 .22300002 .518 .192 .518 C .15400002 .518 .14200002 .487 .137 .47100003 L .0050000029 .038000004 C .0040000008 .036000007 0 .023000002 0 .022 C 0 .010000002 .031000004 0 .039000006 0 C .046000005 0 .047000007 .0020000004 .054000006 .017 L .24200002 .43100003 Z "/>
</symbol>
<use xlink:href="#font_4_1" transform="matrix(6.9738,0,0,-6.9738,166.62975,36.224077)" fill="#800000"/>
<use xlink:href="#font_1_1" transform="matrix(9.9626,0,0,-9.9626,170.0763,43.11365)" fill="#800000"/>
<use xlink:href="#font_2_4" transform="matrix(9.9626,0,0,-9.9626,173.2529,40.73259)" fill="#800000"/>
<use xlink:href="#font_1_2" transform="matrix(9.9626,0,0,-9.9626,179.22586,43.11365)" fill="#800000"/>
</g>
<use xlink:href="#font_2_4" transform="matrix(9.9626,0,0,-9.9626,450.3709,64.9126)"/>
<symbol id="font_2_5">
<path d="M .45700003 .586 C .461 .6 .461 .602 .461 .609 C .461 .62700006 .447 .63600006 .432 .63600006 C .42200003 .63600006 .40600003 .63 .397 .615 C .395 .61 .387 .579 .38300003 .561 C .37600003 .535 .36900003 .508 .363 .48100005 L .318 .301 C .314 .286 .271 .21600002 .20500002 .21600002 C .15400002 .21600002 .143 .26000003 .143 .29700003 C .143 .34300003 .16000001 .40500004 .194 .49300004 C .21000001 .53400006 .21400002 .545 .21400002 .56500008 C .21400002 .61 .18200001 .6470001 .13200002 .6470001 C .037 .6470001 0 .50200006 0 .49300004 C 0 .48300005 .01 .48300005 .012 .48300005 C .022000002 .48300005 .023 .485 .028000003 .50100007 C .055000009 .595 .095000009 .625 .12900001 .625 C .13700001 .625 .15400002 .625 .15400002 .59300008 C .15400002 .568 .14400001 .54200008 .13700001 .523 C .097 .41700004 .079 .36 .079 .31300003 C .079 .224 .142 .194 .201 .194 C .24000003 .194 .274 .21100001 .30200003 .23900002 C .289 .187 .277 .13800001 .237 .08500001 C .21100001 .051 .17300001 .022 .127 .022 C .113000009 .022 .068 .025000006 .051000008 .06400001 C .067 .06400001 .080000009 .06400001 .094000007 .076000008 C .104 .08500001 .11400001 .098000008 .11400001 .117000009 C .11400001 .148 .087000008 .15200001 .07700001 .15200001 C .054000006 .15200001 .021 .136 .021 .087000008 C .021 .037 .065000008 0 .127 0 C .23 0 .333 .091000009 .361 .20400001 L .45700003 .586 Z "/>
</symbol>
<use xlink:href="#font_2_5" transform="matrix(9.9626,0,0,-9.9626,221.05191,9.652342)"/>
</svg>
